<?xml version="1.0" encoding="UTF-8"?>
<svg id="Layer_2" data-name="Layer 2" xmlns="http://www.w3.org/2000/svg" xmlns:xlink="http://www.w3.org/1999/xlink" viewBox="0 0 130 50">
  <defs>
    <style>
      .cls-1 {
        fill: #ffca11;
      }

      .cls-2 {
        fill: #ff4649;
      }

      .cls-3 {
        fill: #23c1ff;
      }

      .cls-4 {
        clip-path: url(#clippath);
      }

      .cls-5 {
        fill: #00245e;
      }

      .cls-6 {
        fill: none;
      }

      .cls-7 {
        fill: #0069da;
      }

      .cls-8 {
        fill: #85da2f;
      }
    </style>
    <clipPath id="clippath">
      <rect class="cls-6" x="0" width="130" height="50"/>
    </clipPath>
  </defs>
  <g id="Layer_1-2" data-name="Layer 1">
    <g class="cls-4">
      <g id="Layer_1_0" data-name="Layer_1 0">
        <g id="_377019416" data-name=" 377019416">
          <path class="cls-5" d="m40.16,31.76l-.88-2.64h-5.87l-.88,2.64h-3.15l5.11-14.68h3.61l5.16,14.68h-3.11,0Zm-5.83-5.37h4.03l-2.02-6-2.02,6Z"/>
          <polygon class="cls-5" points="44.62 31.76 44.62 16.45 47.34 16.45 47.34 31.76 44.62 31.76"/>
          <path class="cls-5" d="m61.4,20.97c1.22,0,2.14.37,2.85,1.17s1.09,1.84,1.09,3.15v6.46h-2.69v-6.29c0-.63-.16-1.13-.46-1.47s-.76-.5-1.31-.5c-.63,0-1.09.21-1.43.63s-.5,1.01-.5,1.77v5.87h-2.69v-6.29c0-.63-.16-1.13-.46-1.47s-.76-.5-1.31-.5c-.59,0-1.09.21-1.47.63-.34.42-.5,1.01-.5,1.77v5.87h-2.69v-10.49h2.69v1.09c.63-.92,1.59-1.43,2.94-1.43s2.23.5,2.85,1.51c.63-.97,1.68-1.47,3.06-1.47h0Z"/>
          <path class="cls-5" d="m75.62,21.27h2.69v10.49h-2.69v-1.26c-.8,1.01-1.98,1.55-3.44,1.55-1.38,0-2.6-.55-3.61-1.59-1.01-1.09-1.51-2.39-1.51-3.94s.5-2.85,1.51-3.94,2.23-1.64,3.61-1.64c1.47,0,2.6.5,3.44,1.55v-1.22Zm-4.99,7.39h0c.55.55,1.22.83,2.05.83s1.55-.25,2.1-.83c.55-.55.83-1.26.83-2.14s-.3-1.59-.83-2.1c-.55-.55-1.26-.83-2.1-.83s-1.51.3-2.05.83c-.55.55-.8,1.26-.8,2.1s.25,1.59.8,2.14Z"/>
          <polygon class="cls-5" points="83.81 28.99 89.38 28.99 89.38 31.76 80.91 31.76 80.91 17.07 83.81 17.07 83.81 28.99"/>
          <path class="cls-5" d="m92.28,20.01c-.46,0-.83-.16-1.17-.46-.34-.34-.5-.71-.5-1.17s.16-.83.5-1.17.71-.5,1.17-.5.83.16,1.17.5.5.71.5,1.17-.16.83-.5,1.17c-.34.3-.71.46-1.17.46Zm-1.34,11.75h0v-10.49h2.73v10.49h-2.73Z"/>
          <path class="cls-5" d="m101.92,20.97c1.13,0,2.1.37,2.85,1.17.76.76,1.13,1.84,1.13,3.19v6.42h-2.69v-6.12c0-.71-.21-1.22-.59-1.59s-.88-.59-1.51-.59c-.71,0-1.26.21-1.68.67s-.63,1.09-.63,1.97v5.66h-2.69v-10.49h2.69v1.17c.67-.97,1.68-1.47,3.11-1.47h0Z"/>
          <path class="cls-5" d="m115.15,21.27h2.73v10.49h-2.73v-1.17c-.67.97-1.68,1.47-3.11,1.47-1.13,0-2.1-.37-2.85-1.17-.76-.76-1.09-1.84-1.09-3.19v-6.42h2.73v6.08c0,.71.16,1.26.55,1.64s.88.55,1.51.55c.71,0,1.26-.21,1.68-.63s.63-1.09.63-1.98v-5.66h-.04Z"/>
          <polygon class="cls-5" points="130 31.76 126.85 31.76 124.59 28.56 122.28 31.76 119.18 31.76 122.99 26.39 119.3 21.27 122.4 21.27 124.54 24.21 126.64 21.27 129.74 21.27 126.06 26.39 130 31.76"/>
          <path class="cls-8" d="m23.55,25.8c1.09-.09,1.98.63,2.05,1.72.09,1.13-.71,2.05-1.8,2.14-1.05.09-1.98-.71-2.05-1.77-.09-1.13.67-1.98,1.8-2.1h0Z"/>
          <path class="cls-3" d="m10.29,34.73c0-1.09.83-1.93,1.84-1.93s1.98.92,1.98,1.98-.83,1.89-1.8,1.93c-1.22,0-2.02-.76-2.02-1.98Z"/>
          <path class="cls-1" d="m13.27,22.48c-.17.09-.25-.04-.3-.16-1.55-2.9-1.09-6.54,1.64-8.72.71-.59,2.05-.71,2.64-.12.25.21.3.46.34.76.09.63.21,1.26.63,1.77.46.55,1.05.76,1.72.71.59,0,1.17-.09,1.55.59.21.37.12,1.84-.21,2.14-.16.12-.3.04-.42,0-.97-.37-1.98-.37-2.97-.21-.34.04-.5-.04-.5-.42-.04-.63-.16-1.22-.5-1.77-.63-1.13-1.8-1.17-2.56-.12-.63.83-.8,1.84-.97,2.85-.16.88-.12,1.8-.09,2.73,0,0-.04,0,0,0Z"/>
          <path class="cls-8" d="m14.32,23.11c-.09-.12-.04-.25.09-.34,2.39-2.18,5.96-2.6,8.72-.46.71.59,1.17,1.8.8,2.51-.16.3-.37.42-.63.5-.59.25-1.13.5-1.51,1.05s-.46,1.17-.3,1.84c.12.55.34,1.13-.21,1.64-.3.3-1.72.55-2.1.3-.16-.12-.12-.25-.09-.42.12-1.05-.12-2.02-.5-2.94-.12-.34-.09-.5.25-.59.59-.17,1.13-.46,1.55-.88.92-.88.71-2.02-.5-2.51-.97-.42-1.98-.34-2.94-.25-.92.04-1.8.3-2.64.55Z"/>
          <path class="cls-3" d="m13.78,24.21c.12-.12.21-.09.34,0,2.77,1.68,4.19,4.99,2.94,8.22-.34.83-1.43,1.68-2.23,1.47-.34-.09-.5-.25-.67-.46-.37-.5-.8-.97-1.43-1.17-.67-.21-1.26-.09-1.84.25-.5.3-1.01.67-1.64.3-.37-.21-1.01-1.51-.88-1.93.09-.16.25-.16.42-.16,1.05-.16,1.89-.67,2.69-1.34.25-.21.46-.21.67.09.34.5.76.92,1.31,1.22,1.09.63,2.14.09,2.26-1.17.12-1.05-.25-1.98-.59-2.9-.37-.83-.83-1.64-1.34-2.39v-.02Z"/>
          <path class="cls-7" d="m12.43,24.46c-.16.83-.55,1.64-1.05,2.35-1.51,2.26-3.69,3.19-6.38,2.94-.97-.09-1.77-.88-1.84-1.68-.04-.34.04-.59.25-.83.3-.37.55-.71.67-1.17.25-.92-.09-1.68-.76-2.35-.92-.92-.8-1.77.3-2.44.12-.09.3-.16.46-.25.25-.12.46-.12.55.16.37.97,1.13,1.68,1.98,2.26.3.25.3.42.04.71-.5.55-.8,1.22-.83,1.98-.09.92.46,1.51,1.38,1.51.59,0,1.13-.21,1.64-.46,1.31-.67,2.3-1.64,3.27-2.64.12-.04.16-.12.34-.09h0Z"/>
          <path class="cls-2" d="m5.55,15.65c.09,0,.3.04.5.09,1.55.3,2.51-.25,3.02-1.72.34-.97,1.05-1.26,1.98-.76.04,0,.04.04.09.04.97.55.97.63.37,1.47-.5.67-.76,1.43-.88,2.23-.09.46-.25.55-.67.37-.67-.25-1.38-.25-2.1,0-.8.25-1.13.97-.88,1.77.34,1.05,1.26,1.51,2.05,2.05s1.72.83,2.6,1.22c.12.04.34.04.3.25-.04.12-.21.12-.37.12-1.89.09-3.69-.21-5.16-1.47-1.38-1.13-2.39-2.51-2.23-4.45.12-.63.59-1.09,1.38-1.22h0Z"/>
          <path class="cls-7" d="m2.11,27.43c-1.01.12-2.02-.71-2.1-1.77-.09-1.01.76-2.02,1.72-2.1,1.09-.12,2.1.63,2.18,1.64.04.97-.59,2.14-1.8,2.23h0Z"/>
          <path class="cls-1" d="m19.73,12.5c1.05-.09,2.05.76,2.14,1.8.09,1.01-.76,1.98-1.77,2.05-1.09.09-2.05-.71-2.14-1.77-.09-1.05.67-2.02,1.77-2.1h0Z"/>
          <path class="cls-2" d="m8.78,13.3c.12,1.09-.63,2.02-1.77,2.18-.97.12-1.98-.67-2.1-1.59-.12-1.22.55-2.1,1.68-2.23,1.05-.12,2.05.67,2.18,1.64h0Z"/>
        </g>
      </g>
    </g>
  </g>
</svg>