<?xml version="1.0" encoding="UTF-8"?>
<svg id="Layer_2" data-name="Layer 2" xmlns="http://www.w3.org/2000/svg" xmlns:xlink="http://www.w3.org/1999/xlink" viewBox="0 0 130 100">
  <defs>
    <style>
      .cls-1 {
        fill: #fff;
      }

      .cls-2 {
        fill: #1a1918;
      }

      .cls-3 {
        clip-path: url(#clippath);
      }

      .cls-4 {
        fill: none;
      }
    </style>
    <clipPath id="clippath">
      <rect class="cls-4" width="130" height="100"/>
    </clipPath>
  </defs>
  <g id="Layer_1-2" data-name="Layer 1">
    <g class="cls-3">
      <g>
        <g>
          <path class="cls-2" d="m47.7,96.86c-.16,0-.34-.04-.46-.21l-5.2-6.84v6.98h-1.19v-8.59c0-.34.28-.62.61-.62.19,0,.35.05.47.22l5.19,6.83v-6.95h1.19v8.58c0,.36-.28.6-.61.6"/>
          <path class="cls-2" d="m57.51,96.95c-1.19,0-2.43-.25-3.58-.68l.28-.99c1.06.34,2.22.59,3.3.59,1.5,0,2.28-.53,2.28-1.29,0-.68-.61-1.03-2.69-2.01-2.09-.98-2.91-1.61-2.91-2.85,0-1.55,1.19-2.17,3.42-2.17.93,0,2.36.19,3.18.44l-.19,1.01c-.9-.22-2.03-.37-2.96-.37-1.58,0-2.22.3-2.22,1.05s.47,1.05,2.68,2.08c2.33,1.08,2.92,1.63,2.92,2.75,0,1.63-1.54,2.43-3.5,2.43"/>
          <path class="cls-2" d="m66.63,87.68h1.23v9.11h-1.23v-9.11Z"/>
          <path class="cls-2" d="m78.29,92.66h-3.05v3.09h3.05c1.04,0,1.67-.66,1.67-1.57,0-.86-.66-1.52-1.67-1.52m-.59-3.94h-2.45v2.91h2.45c.98,0,1.7-.63,1.7-1.5s-.62-1.41-1.7-1.41m.61,8.07h-3.66c-.35,0-.62-.27-.62-.62v-7.88c0-.33.27-.62.62-.62h3.03c1.86,0,2.96.92,2.96,2.35,0,.78-.46,1.5-1.16,1.93,1.04.31,1.74,1.18,1.74,2.22,0,1.45-1.2,2.61-2.91,2.61"/>
          <path class="cls-2" d="m87.1,96.79c-.34,0-.61-.29-.61-.62v-8.49h1.23v8h4.88v1.11h-5.5Z"/>
          <path class="cls-2" d="m100.95,96.95c-2.51,0-4.02-.93-4.02-2.8,0-.89.5-1.74,1.47-2.13-.78-.49-1.19-1.19-1.19-1.96,0-1.7,1.31-2.5,3.76-2.5.82,0,1.98.1,2.95.31l-.13,1.01c-1.02-.16-1.98-.26-2.91-.26-1.59,0-2.44.44-2.44,1.49,0,.83.78,1.49,1.82,1.49h2.1c.3,0,.53.23.53.52s-.23.53-.53.53h-2.26c-1.19,0-1.94.59-1.94,1.49,0,1.33,1.23,1.72,2.76,1.72.84,0,1.97-.11,2.88-.33l.18,1c-.88.25-2.02.41-3.03.41"/>
          <path class="cls-2" d="m31.73,89.39l2.15,5.38-3.24-2.59,1.1-2.79Zm3.81,6.62l-3.3-8.07c-.09-.23-.28-.36-.51-.36s-.43.12-.53.36l-3.63,8.85h1.24l1.44-3.65,4.28,3.51c.17.14.3.21.46.21.32,0,.61-.25.61-.6,0-.06-.02-.15-.06-.25h0Z"/>
        </g>
        <g>
          <path class="cls-2" d="m104.05,41.22c0,21.08-17.09,38.16-38.16,38.16S27.72,62.3,27.72,41.22,44.81,3.05,65.89,3.05s38.16,17.09,38.16,38.16"/>
          <path class="cls-1" d="m66.53,26.37l9.88,24.38-14.92-11.75,5.04-12.62Zm17.54,29.99l-15.19-36.56c-.43-1.05-1.3-1.61-2.35-1.61s-1.98.56-2.42,1.61l-16.67,40.1h5.7l6.6-16.53,19.7,15.91c.79.64,1.36.93,2.11.93,1.49,0,2.79-1.12,2.79-2.73,0-.26-.09-.68-.26-1.13h0Z"/>
        </g>
      </g>
    </g>
  </g>
</svg>