<?xml version="1.0" encoding="UTF-8"?>
<svg id="Layer_2" data-name="Layer 2" xmlns="http://www.w3.org/2000/svg" viewBox="0 0 130 100">
  <defs>
    <style>
      .cls-1 {
        fill: #fff;
      }

      .cls-2 {
        fill: #4da825;
      }

      .cls-3 {
        fill: none;
      }

      .cls-4 {
        fill: #283037;
      }
    </style>
  </defs>
  <g id="Layer_1-2" data-name="Layer 1">
    <g>
      <rect class="cls-3" x="35" y="5.33" width="60.54" height="60.54"/>
      <g>
        <path class="cls-1" d="m88.07,17.69l-19.11-11.35c-2.28-1.35-5.09-1.35-7.37,0l-19.11,11.35c-2.28,1.35-3.69,3.86-3.69,6.56v22.69c0,2.71,1.41,5.21,3.69,6.57l19.11,11.34c1.14.68,2.41,1.02,3.69,1.02s2.55-.34,3.69-1.02l19.11-11.34c2.28-1.35,3.69-3.86,3.69-6.57v-22.69c0-2.71-1.41-5.21-3.69-6.56Z"/>
        <path class="cls-4" d="m88.07,17.69l-19.11-11.35c-1.14-.68-2.41-1.02-3.69-1.02s-2.55.34-3.69,1.02l-19.11,11.35c-2.28,1.35-3.69,3.86-3.69,6.56v22.69c0,2.71,1.41,5.21,3.69,6.57l19.11,11.34c1.14.68,2.41,1.02,3.69,1.02s2.55-.34,3.69-1.02l19.11-11.34c2.28-1.35,3.69-3.86,3.69-6.57v-22.69c0-2.71-1.41-5.21-3.69-6.56Zm-25.82,46l-19.11-11.34c-1.87-1.11-3.03-3.18-3.03-5.4v-22.69c0-2.22,1.16-4.29,3.03-5.4l19.11-11.35c.92-.54,1.96-.83,3.02-.83s2.1.29,3.02.83l19.11,11.35c1.58.93,2.64,2.55,2.94,4.37-.63-1.35-2.06-1.72-3.73-.75l-18.08,11.17c-2.25,1.32-3.92,2.8-3.92,5.52v22.28c0,1.63.66,2.68,1.67,2.99-.33.06-.67.1-1,.1-1.06,0-2.1-.29-3.02-.83Z"/>
        <path class="cls-2" d="m83.06,49.14l-4.76,2.85c-.13.07-.22.16-.22.31v1.25c0,.15.1.22.23.14l4.83-2.94c.13-.07.15-.21.15-.37v-1.1c0-.15-.1-.22-.23-.14Z"/>
        <path class="cls-1" d="m72.93,38.66c.15-.08.28.02.28.22l.02,1.65c.69-.27,1.29-.35,1.83-.22.12.03.17.19.12.38l-.36,1.46c-.03.11-.09.22-.16.29-.03.03-.06.05-.1.07-.05.02-.1.03-.14.02-.25-.06-.84-.18-1.76.28-.97.49-1.31,1.34-1.3,1.96,0,.75.39.98,1.72,1,1.77.03,2.53.8,2.55,2.58s-.91,3.62-2.34,4.77l.03,1.63c0,.2-.13.42-.28.5l-.97.56c-.15.08-.28-.02-.28-.21l-.02-1.6c-.83.34-1.66.43-2.2.21-.1-.04-.14-.19-.1-.36l.35-1.47c.03-.12.09-.23.17-.31.03-.03.06-.05.09-.07.06-.03.11-.03.16-.02.58.19,1.31.1,2.02-.26.9-.46,1.5-1.38,1.49-2.29,0-.83-.46-1.17-1.55-1.18-1.39,0-2.68-.27-2.7-2.31-.02-1.68.86-3.43,2.24-4.54l-.02-1.65c0-.2.12-.42.28-.5l.93-.6Z"/>
      </g>
      <g>
        <path d="m34.87,86.83c.57,0,1.04-.05,1.41-.14.37-.09.67-.22.89-.39.22-.16.38-.36.46-.58.09-.22.13-.47.13-.75,0-.58-.28-1.07-.83-1.46-.55-.39-1.5-.8-2.84-1.25-.58-.21-1.17-.44-1.75-.71-.58-.27-1.11-.6-1.57-1.01-.46-.4-.84-.89-1.13-1.47-.29-.58-.44-1.28-.44-2.1s.15-1.57.46-2.23c.31-.66.75-1.22,1.31-1.69.57-.46,1.25-.82,2.06-1.07.81-.25,1.72-.37,2.73-.37,1.2,0,2.24.13,3.12.39s1.6.54,2.17.85l-1.16,3.17c-.5-.26-1.05-.49-1.66-.68-.61-.2-1.34-.3-2.2-.3-.96,0-1.65.13-2.08.4-.42.27-.63.67-.63,1.22,0,.33.08.6.23.83s.37.42.66.61c.28.18.61.34.98.49.37.15.78.3,1.22.45.93.34,1.74.68,2.42,1.02.69.33,1.26.73,1.71,1.17s.79.97,1.02,1.57c.22.6.33,1.33.33,2.19,0,1.67-.58,2.96-1.75,3.88-1.17.92-2.93,1.38-5.29,1.38-.79,0-1.5-.05-2.14-.14-.64-.09-1.2-.21-1.69-.35-.49-.14-.91-.28-1.26-.44-.35-.15-.65-.3-.89-.44l1.13-3.2c.53.29,1.19.55,1.97.79.78.23,1.74.35,2.87.35Z"/>
        <path d="m43.32,83.12c0-.98.16-1.9.48-2.77.32-.87.78-1.62,1.38-2.27.6-.64,1.33-1.16,2.19-1.53s1.84-.57,2.94-.57c.72,0,1.38.06,1.98.19s1.19.31,1.75.55l-.8,3.07c-.36-.14-.76-.26-1.19-.36-.43-.1-.91-.16-1.44-.16-1.13,0-1.98.35-2.54,1.06s-.84,1.63-.84,2.78c0,1.22.26,2.17.79,2.84.52.67,1.44,1,2.75,1,.46,0,.96-.04,1.5-.13.53-.08,1.02-.22,1.47-.41l.54,3.15c-.45.19-1.01.35-1.68.49s-1.41.21-2.22.21c-1.24,0-2.3-.19-3.2-.55-.89-.37-1.63-.87-2.2-1.51-.58-.64-1-1.39-1.26-2.26s-.4-1.81-.4-2.82Z"/>
        <path d="m64.26,79.74c-.34-.09-.75-.18-1.21-.27-.46-.09-.96-.14-1.5-.14-.24,0-.53.02-.86.06-.34.04-.59.09-.76.14v10.36h-3.84v-12.84c.69-.24,1.5-.47,2.44-.68.94-.21,1.98-.32,3.13-.32.21,0,.46.01.75.04.29.03.58.06.88.1.29.04.58.09.88.15.29.06.54.13.75.22l-.64,3.17Z"/>
        <path d="m70.39,72.42c0,.71-.23,1.26-.68,1.66-.46.4-.99.61-1.61.61s-1.16-.2-1.61-.61c-.46-.4-.68-.96-.68-1.66s.23-1.26.68-1.66c.46-.4.99-.61,1.61-.61s1.16.2,1.61.61c.46.4.68.96.68,1.66Zm-.36,17.48h-3.84v-13.56h3.84v13.56Z"/>
        <path d="m85.48,83.12c0,1.05-.13,2-.39,2.86-.26.86-.64,1.6-1.13,2.22-.5.62-1.12,1.1-1.86,1.44-.74.34-1.59.52-2.55.52-.53,0-1.03-.05-1.5-.15-.46-.1-.91-.25-1.34-.44v5.1h-3.84v-17.87c.34-.1.74-.2,1.19-.3.45-.09.92-.18,1.4-.24.49-.07.99-.12,1.5-.17.51-.04.99-.06,1.46-.06,1.12,0,2.11.17,2.99.5.88.33,1.62.81,2.22,1.42s1.06,1.35,1.38,2.23c.32.88.48,1.86.48,2.94Zm-3.92.1c0-1.19-.27-2.13-.8-2.85-.53-.71-1.32-1.07-2.37-1.07-.34,0-.66.01-.95.04-.29.03-.53.06-.72.09v6.93c.24.16.55.28.94.39.39.1.78.16,1.17.16,1.82,0,2.73-1.23,2.73-3.69Z"/>
        <path d="m87.54,72.96l3.84-.62v4h4.61v3.2h-4.61v4.77c0,.81.14,1.45.43,1.93.28.48.85.72,1.71.72.41,0,.84-.04,1.28-.12.44-.08.84-.18,1.2-.32l.54,2.99c-.46.19-.98.35-1.55.49-.57.14-1.26.21-2.09.21-1.05,0-1.92-.14-2.6-.43-.69-.28-1.24-.68-1.65-1.19-.41-.51-.7-1.12-.86-1.84-.16-.72-.25-1.52-.25-2.4v-11.4Z"/>
        <path d="m102.23,87.14c.7,0,1.2-.07,1.5-.21.29-.14.44-.4.44-.8,0-.31-.19-.58-.57-.81-.38-.23-.95-.49-1.73-.79-.6-.22-1.15-.46-1.64-.7-.49-.24-.91-.53-1.25-.86-.34-.34-.61-.74-.8-1.2-.19-.46-.28-1.02-.28-1.68,0-1.27.47-2.28,1.42-3.02.95-.74,2.24-1.11,3.89-1.11.83,0,1.62.07,2.37.22.76.15,1.36.3,1.8.48l-.67,2.99c-.45-.15-.93-.29-1.46-.41-.52-.12-1.11-.18-1.77-.18-1.2,0-1.8.33-1.8,1.01,0,.15.03.29.08.41.05.12.15.24.31.35.15.11.36.23.63.36s.61.27,1.02.43c.84.31,1.54.62,2.09.92.55.3.98.63,1.3.98.32.35.54.74.67,1.17s.19.93.19,1.49c0,1.34-.5,2.35-1.51,3.04s-2.43,1.03-4.27,1.03c-1.2,0-2.2-.1-3-.31s-1.35-.38-1.66-.52l.64-3.12c.65.26,1.32.46,2.01.61.69.15,1.37.22,2.04.22Z"/>
      </g>
    </g>
  </g>
</svg>