<?xml version="1.0" encoding="UTF-8"?>
<svg id="Layer_2" data-name="Layer 2" xmlns="http://www.w3.org/2000/svg" viewBox="0 0 181.57 696.56">
  <defs>
    <style>
      .cls-1 {
        fill: #ffcb3c;
      }
    </style>
  </defs>
  <g id="Layer_1-2" data-name="Layer 1">
    <polygon class="cls-1" points="172.73 62.39 172.73 31.19 147.91 31.19 147.91 5.98 116.72 5.98 116.72 0 53.44 0 53.44 20.57 23.7 20.57 23.7 51.76 3.58 51.76 3.58 82.96 0 82.96 0 147.59 30.41 147.59 30.41 82.96 34.77 82.96 34.77 51.76 54.89 51.76 54.89 31.19 116.72 31.19 116.72 37.17 141.54 37.17 141.54 62.39 151.16 62.39 151.16 634.17 131.98 634.17 131.98 659.81 107.83 659.81 107.83 665.37 81 665.37 81 658.51 65.4 658.51 65.4 211.71 70.49 211.71 70.49 180.52 86.09 180.52 86.09 177.24 117.28 177.24 117.28 300.98 148.47 336.31 148.47 160.43 117.28 160.43 117.28 146.05 86.09 146.05 86.09 149.33 54.89 149.33 54.89 180.52 39.3 180.52 39.3 211.71 34.21 211.71 34.21 665.37 49.81 665.37 49.81 689.7 76.64 689.7 76.64 696.56 107.83 696.56 107.83 691.01 139.02 691.01 139.02 665.37 163.17 665.37 163.17 634.17 181.57 634.17 181.57 62.39 172.73 62.39"/>
  </g>
</svg>