<?xml version="1.0" encoding="UTF-8"?>
<svg id="Layer_2" data-name="Layer 2" xmlns="http://www.w3.org/2000/svg" viewBox="0 0 130 100">
  <defs>
    <style>
      .cls-1 {
        fill: #fff;
      }

      .cls-2 {
        fill: #404242;
      }

      .cls-3 {
        fill: #f48120;
      }

      .cls-4 {
        fill: #faad3f;
      }
    </style>
  </defs>
  <g id="Layer_1-2" data-name="Layer 1">
    <g>
      <g>
        <path class="cls-1" d="m106.48,52.18l.34-.89c.96-2.51,3.71-4.57,6.25-4.68l4.69-.27c.21,0,.42-.17.49-.38.05-.13.03-.27-.05-.38-.07-.1-.19-.17-.32-.17l-4.52-.27c-1.12-.05-2.04-.51-2.59-1.28-.6-.84-.73-1.98-.38-3.22l.83-2.88c.03-.11.11-.19.21-.22h-.01s-1.21-.54-1.21-.54c0,.09-.01.18-.05.27l-1.22,3.19c-.96,2.51-3.71,4.57-6.24,4.68l-21.38.27c-.22,0-.42.17-.49.38-.05.13-.03.27.05.38.07.11.19.17.33.18l21.18.27c1.12.05,2.04.51,2.59,1.28.6.84.73,1.98.38,3.22l-.3,1.04c-.06.22-.26.36-.48.37h2.11c-.17,0-.28-.18-.22-.34Z"/>
        <path class="cls-3" d="m105.07,52.15l.3-1.04c.36-1.24.22-2.38-.38-3.22-.55-.77-1.47-1.23-2.59-1.28l-21.18-.27c-.14,0-.26-.07-.33-.18-.07-.11-.09-.25-.05-.38.07-.21.28-.37.49-.38l21.38-.27c2.54-.12,5.28-2.17,6.24-4.68l1.22-3.19c.03-.09.05-.18.05-.27,0-.05,0-.1-.02-.15-1.39-6.23-6.94-10.88-13.59-10.88-6.12,0-11.32,3.95-13.19,9.44-1.2-.9-2.74-1.38-4.4-1.22-2.94.29-5.3,2.66-5.59,5.59-.08.76-.01,1.5.16,2.19-4.8.14-8.65,4.07-8.65,8.9,0,.44.03.87.09,1.29.03.2.2.36.41.36h39.11s0,0,.01,0c.22,0,.42-.15.48-.37Z"/>
        <path class="cls-4" d="m112.13,37.49c-.2,0-.39,0-.59.02-.03,0-.06,0-.09.02-.1.04-.18.12-.21.22l-.83,2.88c-.36,1.24-.22,2.38.38,3.22.55.77,1.47,1.23,2.59,1.28l4.52.27c.13,0,.25.07.32.17.08.11.09.25.05.38-.07.21-.28.37-.49.38l-4.69.27c-2.55.12-5.29,2.17-6.25,4.68l-.34.89c-.06.16.05.33.22.34,0,0,0,0,.01,0h16.15c.19,0,.36-.13.42-.31.28-1,.43-2.05.43-3.14,0-6.39-5.18-11.58-11.58-11.58Z"/>
      </g>
      <path class="cls-2" d="m125.31,59.35c-.58,0-1.04-.47-1.04-1.04s.47-1.04,1.04-1.04,1.04.47,1.04,1.04-.47,1.04-1.04,1.04m0-1.89c-.46,0-.84.38-.84.85s.37.85.84.85.84-.38.84-.85-.37-.85-.84-.85m.53,1.4h-.25l-.21-.4h-.28v.4h-.22v-1.15h.55c.24,0,.39.15.39.37,0,.16-.1.3-.24.35l.24.43Zm-.4-.6c.09,0,.18-.05.18-.18s-.07-.18-.18-.18h-.34v.35h.34Z"/>
      <polygon class="cls-2" points="16.01 57.16 18.68 57.16 18.68 64.47 23.35 64.47 23.35 66.81 16.01 66.81 16.01 57.16"/>
      <path class="cls-2" d="m26.12,62.01v-.03c0-2.77,2.23-5.02,5.21-5.02s5.18,2.22,5.18,4.99v.03c0,2.77-2.23,5.02-5.21,5.02s-5.18-2.22-5.18-4.99m7.66,0v-.03c0-1.39-1.01-2.61-2.48-2.61s-2.44,1.19-2.44,2.58v.03c0,1.39,1.01,2.61,2.47,2.61s2.45-1.19,2.45-2.58"/>
      <path class="cls-2" d="m39.79,62.58v-5.42h2.72v5.36c0,1.39.7,2.05,1.78,2.05s1.78-.63,1.78-1.98v-5.43h2.72v5.35c0,3.12-1.78,4.48-4.52,4.48s-4.47-1.39-4.47-4.41"/>
      <path class="cls-2" d="m52.87,57.16h3.72c3.45,0,5.44,1.98,5.44,4.77v.03c0,2.78-2.03,4.85-5.5,4.85h-3.67v-9.65Zm3.76,7.28c1.6,0,2.66-.88,2.66-2.44v-.03c0-1.54-1.06-2.44-2.66-2.44h-1.09v4.91h1.09Z"/>
      <polygon class="cls-2" points="65.92 57.16 73.64 57.16 73.64 59.51 68.59 59.51 68.59 61.15 73.16 61.15 73.16 63.36 68.59 63.36 68.59 66.81 65.92 66.81 65.92 57.16"/>
      <polygon class="cls-2" points="77.36 57.16 80.03 57.16 80.03 64.47 84.71 64.47 84.71 66.81 77.36 66.81 77.36 57.16"/>
      <path class="cls-2" d="m91.69,57.09h2.58l4.11,9.72h-2.87l-.7-1.72h-3.72l-.69,1.72h-2.81l4.11-9.72Zm2.34,5.91l-1.07-2.74-1.09,2.74h2.16Z"/>
      <path class="cls-2" d="m101.82,57.16h4.56c1.48,0,2.49.39,3.14,1.05.57.55.85,1.3.85,2.25v.03c0,1.47-.79,2.45-1.98,2.96l2.3,3.36h-3.09l-1.94-2.92h-1.17v2.92h-2.67v-9.65Zm4.44,4.63c.91,0,1.43-.44,1.43-1.14v-.03c0-.76-.55-1.14-1.45-1.14h-1.75v2.32h1.76Z"/>
      <polygon class="cls-2" points="114.24 57.16 122 57.16 122 59.44 116.89 59.44 116.89 60.9 121.52 60.9 121.52 63.01 116.89 63.01 116.89 64.54 122.07 64.54 122.07 66.81 114.24 66.81 114.24 57.16"/>
      <path class="cls-2" d="m10.15,63.15c-.37.84-1.16,1.45-2.21,1.45-1.46,0-2.47-1.21-2.47-2.61v-.03c0-1.39.98-2.58,2.44-2.58,1.1,0,1.94.68,2.29,1.6h2.82c-.45-2.3-2.47-4.01-5.09-4.01-2.98,0-5.21,2.25-5.21,5.02v.03c0,2.77,2.2,4.99,5.18,4.99,2.55,0,4.54-1.65,5.06-3.86h-2.83Z"/>
    </g>
  </g>
</svg>