<?xml version="1.0" encoding="UTF-8"?>
<svg id="Layer_2" data-name="Layer 2" xmlns="http://www.w3.org/2000/svg" viewBox="0 0 130 100">
  <defs>
    <style>
      .cls-1 {
        fill: #00aeef;
      }
    </style>
  </defs>
  <g id="Layer_1-2" data-name="Layer 1">
    <g>
      <path class="cls-1" d="m5.5,50c0-2.37.38-4.61,1.16-6.72.77-2.1,1.88-3.94,3.34-5.5,1.46-1.56,3.23-2.8,5.31-3.72,2.08-.92,4.46-1.37,7.12-1.37,1.75,0,3.35.16,4.81.47,1.46.31,2.87.76,4.25,1.34l-1.94,7.44c-.87-.33-1.83-.63-2.87-.88-1.04-.25-2.21-.37-3.5-.37-2.75,0-4.8.85-6.16,2.56-1.35,1.71-2.03,3.96-2.03,6.75,0,2.96.63,5.25,1.91,6.87,1.27,1.62,3.49,2.44,6.66,2.44,1.12,0,2.33-.1,3.62-.31,1.29-.21,2.48-.54,3.56-1l1.31,7.62c-1.08.46-2.44.85-4.06,1.19-1.62.33-3.42.5-5.37.5-3,0-5.58-.45-7.75-1.34-2.17-.9-3.95-2.11-5.34-3.66-1.4-1.54-2.42-3.36-3.06-5.47-.65-2.1-.97-4.38-.97-6.84Z"/>
      <path class="cls-1" d="m56.25,41.81c-.83-.21-1.81-.43-2.94-.66-1.12-.23-2.33-.34-3.62-.34-.58,0-1.28.05-2.09.16-.81.1-1.43.22-1.84.34v25.12h-9.31v-31.12c1.67-.58,3.63-1.13,5.91-1.66,2.27-.52,4.8-.78,7.59-.78.5,0,1.1.03,1.81.09.71.06,1.42.15,2.12.25.71.1,1.42.23,2.12.37.71.15,1.31.32,1.81.53l-1.56,7.69Z"/>
      <path class="cls-1" d="m91.69,49.94c0,2.58-.37,4.95-1.12,7.09-.75,2.15-1.83,3.98-3.25,5.5-1.42,1.52-3.11,2.7-5.09,3.53-1.98.83-4.2,1.25-6.66,1.25s-4.62-.42-6.59-1.25c-1.98-.83-3.68-2.01-5.09-3.53-1.42-1.52-2.52-3.35-3.31-5.5-.79-2.15-1.19-4.51-1.19-7.09s.41-4.94,1.22-7.06c.81-2.13,1.94-3.94,3.37-5.44,1.44-1.5,3.15-2.67,5.12-3.5,1.98-.83,4.13-1.25,6.47-1.25s4.55.42,6.53,1.25c1.98.83,3.68,2,5.09,3.5,1.42,1.5,2.52,3.31,3.31,5.44.79,2.12,1.19,4.48,1.19,7.06Zm-9.5,0c0-2.88-.57-5.13-1.72-6.78-1.15-1.65-2.78-2.47-4.91-2.47s-3.77.82-4.94,2.47c-1.17,1.65-1.75,3.91-1.75,6.78s.58,5.16,1.75,6.84c1.17,1.69,2.81,2.53,4.94,2.53s3.76-.84,4.91-2.53c1.15-1.69,1.72-3.97,1.72-6.84Z"/>
      <path class="cls-1" d="m97,34.69c1.58-.46,3.62-.88,6.12-1.28,2.5-.4,5.12-.59,7.87-.59s5.11.37,6.97,1.09c1.85.73,3.32,1.76,4.41,3.09,1.08,1.33,1.85,2.92,2.31,4.75.46,1.83.69,3.88.69,6.12v18.56h-9.31v-17.44c0-3-.4-5.12-1.19-6.37-.79-1.25-2.27-1.88-4.44-1.88-.67,0-1.37.03-2.12.09-.75.06-1.42.14-2,.22v25.37h-9.31v-31.75Z"/>
    </g>
  </g>
</svg>