<?xml version="1.0" encoding="UTF-8"?>
<svg id="Layer_2" data-name="Layer 2" xmlns="http://www.w3.org/2000/svg" xmlns:xlink="http://www.w3.org/1999/xlink" viewBox="0 0 130 100">
  <defs>
    <style>
      .cls-1 {
        fill: #bdd9d7;
      }

      .cls-1, .cls-2, .cls-3, .cls-4, .cls-5, .cls-6, .cls-7, .cls-8, .cls-9 {
        fill-rule: evenodd;
      }

      .cls-2 {
        fill: #23a3c2;
      }

      .cls-3 {
        fill: #1b81a5;
      }

      .cls-4 {
        fill: #22a0c8;
      }

      .cls-5 {
        fill: #34bbde;
      }

      .cls-6 {
        fill: #1d91b4;
      }

      .cls-10 {
        clip-path: url(#clippath);
      }

      .cls-11 {
        fill: none;
      }

      .cls-7 {
        fill: #37b1d9;
      }

      .cls-8 {
        fill: #d3ecec;
      }

      .cls-9 {
        fill: #364548;
      }
    </style>
    <clipPath id="clippath">
      <rect class="cls-11" width="130" height="100"/>
    </clipPath>
  </defs>
  <g id="Layer_1-2" data-name="Layer 1">
    <g class="cls-10">
      <g>
        <path class="cls-9" d="m22.47,81.11v-7.63c0-1,.63-1.81,1.66-1.81h.29c1.04,0,1.66.81,1.66,1.81v16.06c0,3.92-1.93,7.03-5.31,9.02-1.54.91-3.31,1.4-5.1,1.39h-.72c-3.92,0-7.03-1.94-9.02-5.31-.92-1.54-1.4-3.31-1.39-5.1v-.72c0-3.92,1.94-7.03,5.3-9.02,1.54-.92,3.31-1.4,5.1-1.39h.72c2.65,0,4.9,1.03,6.8,2.7h0Zm-14.31,8.07c0,2.83,1.37,4.96,3.85,6.31,1,.55,2.09.84,3.23.84,2.78,0,4.84-1.31,6.26-3.66.66-1.09.97-2.29.97-3.57,0-2.45-1.16-4.37-3.14-5.79-1.2-.86-2.55-1.29-4.02-1.29-3.03,0-5.2,1.53-6.51,4.25-.44.92-.64,1.89-.64,2.91h0Zm30.45-10.77h.5c4.19,0,7.37,2.03,9.39,5.68.81,1.46,1.24,3.06,1.24,4.73v.72c0,3.92-1.93,7.04-5.31,9.02-1.56.92-3.29,1.39-5.1,1.39h-.72c-3.92,0-7.03-1.94-9.02-5.31-.92-1.54-1.4-3.31-1.39-5.1v-.72c0-3.92,1.94-7.02,5.3-9.02,1.56-.93,3.29-1.39,5.11-1.39h0Zm-6.8,10.77c0,2.75,1.35,4.77,3.67,6.19,1.09.67,2.29.97,3.56.97,2.71,0,4.72-1.38,6.11-3.67.67-1.09.97-2.29.97-3.56,0-2.55-1.23-4.5-3.33-5.92-1.15-.78-2.43-1.16-3.82-1.16-3.03,0-5.2,1.53-6.51,4.25-.44.92-.64,1.89-.64,2.91h0Zm32.94-6.87c-.55-.26-1.57-.34-2.16-.36-3.02-.11-5.2,1.59-6.48,4.25-.44.92-.64,1.89-.64,2.91,0,3.09,1.62,5.26,4.39,6.58,1.01.48,2.31.57,3.41.57.97,0,2.34-.59,3.2-1l.15-.07h.74c.82.19,1.44.71,1.44,1.59v.36c0,2.2-4.02,2.7-5.55,2.81-5.41.37-9.46-2.6-11-7.76-.27-.9-.39-1.79-.39-2.72v-.71c0-3.92,1.94-7.02,5.3-9.02,1.56-.93,3.29-1.39,5.1-1.39h.72c1.93,0,3.7.55,5.29,1.63l.13.09.08.14c.17.28.32.61.32.95v.36c0,.92-.69,1.42-1.52,1.58h-.07s-.21.01-.21.01c-.54,0-1.76-.56-2.25-.78h0Zm11.72,2.45c1.4-1.41,2.81-2.81,4.24-4.19.4-.39,1.9-2.02,2.49-2.02h.65l.07.02c.82.17,1.44.69,1.44,1.58v.36c0,.6-.71,1.31-1.1,1.72-.83.88-1.7,1.73-2.55,2.59l-4.36,4.43c1.88,1.88,3.76,3.77,5.62,5.67.52.52,1.03,1.05,1.54,1.58.18.19.44.42.59.69.16.25.26.52.26.82v.37l-.02.09c-.2.82-.73,1.49-1.64,1.49h-.29c-.6,0-1.27-.68-1.68-1.06-.84-.8-1.66-1.63-2.49-2.44l-2.77-2.72v4.35c0,1-.63,1.81-1.66,1.81h-.28c-1.04,0-1.66-.81-1.66-1.81v-24.52c0-1,.63-1.8,1.66-1.8h.28c1.04,0,1.66.8,1.66,1.8v11.21h0Zm45.02-6.21h.36c1.08,0,1.81.73,1.81,1.81,0,1.5-1.43,1.88-2.67,1.88-1.62,0-3.17.98-4.29,2.08-1.39,1.37-2,3.14-2,5.07v8.75c0,1-.63,1.81-1.66,1.81h-.29c-1.04,0-1.66-.8-1.66-1.81v-9.25c0-3.55,1.73-6.45,4.61-8.48,1.72-1.21,3.69-1.86,5.8-1.86h0Zm-25.67,17.33c1.31.46,2.81.39,4.16.16.69-.29,2.45-1.06,3.1-.95l.1.02.09.05c.4.19.77.46.98.87.47.94.25,1.9-.68,2.43l-.31.18c-3.43,1.98-7.07,1.7-10.49-.14-1.63-.88-2.88-2.19-3.8-3.79l-.22-.37c-2.2-3.81-1.9-7.82.58-11.44.86-1.25,1.98-2.22,3.28-2.98l.5-.29c3.23-1.86,6.69-1.74,10-.1,1.78.88,3.23,2.19,4.22,3.91l.18.31c.72,1.25-.21,2.34-1.18,3.09-1.12.87-2.25,1.91-3.33,2.83-2.4,2.07-4.79,4.14-7.19,6.21h0Zm-3.1-2.18c2.68-2.3,5.36-4.6,8.04-6.91.91-.79,1.92-1.61,2.82-2.43-.73-.92-1.94-1.58-2.97-1.97-2.08-.79-4.14-.53-6.05.58-2.5,1.44-3.57,3.74-3.47,6.61.04,1.13.34,2.21.94,3.17.21.34.45.66.7.96Zm-19.49-72.39h10.66v10.9h5.39c2.49,0,5.05-.44,7.41-1.24,1.16-.39,2.46-.94,3.6-1.63-1.5-1.96-2.27-4.45-2.5-6.89-.31-3.33.36-7.66,2.61-10.26l1.12-1.3,1.34,1.07c3.36,2.7,6.19,6.47,6.69,10.78,4.05-1.19,8.8-.91,12.37,1.15l1.46.84-.77,1.5c-3.02,5.89-9.33,7.71-15.49,7.39-9.23,22.99-29.32,33.87-53.68,33.87-12.59,0-24.13-4.71-30.71-15.87l-.11-.18-.96-1.95c-2.22-4.92-2.96-10.3-2.46-15.68l.15-1.61h9.12v-10.9h10.66v-10.66h21.32V0h12.79v21.32"/>
        <path class="cls-4" d="m107.76,25.35c.71-5.55-3.44-9.92-6.02-11.99-2.97,3.43-3.43,12.44,1.23,16.23-2.6,2.31-8.08,4.4-13.69,4.4H20.96c-.55,5.86.48,11.25,2.83,15.87l.78,1.42c.49.83,1.03,1.64,1.61,2.42,2.81.18,5.4.24,7.77.19h0c4.66-.1,8.45-.65,11.33-1.65.43-.13.89.11,1.03.54.13.41-.09.86-.49,1.01-.38.13-.78.26-1.19.38h0c-2.27.65-4.7,1.08-7.83,1.28.19,0-.19.03-.19.03-.11,0-.24.02-.35.03-1.23.07-2.57.08-3.93.08-1.49,0-2.96-.03-4.6-.11l-.04.03c5.69,6.4,14.59,10.23,25.75,10.23,23.61,0,43.64-10.47,52.51-33.96,6.29.65,12.34-.96,15.09-6.33-4.38-2.53-10.02-1.72-13.26-.09"/>
        <path class="cls-7" d="m107.76,25.35c.71-5.55-3.44-9.92-6.02-11.99-2.97,3.43-3.43,12.44,1.23,16.23-2.6,2.31-8.08,4.4-13.69,4.4H25c-.28,8.97,3.05,15.78,8.94,19.9h0c4.66-.1,8.45-.65,11.33-1.65.43-.13.89.11,1.03.54.13.41-.09.86-.49,1.01-.38.13-.78.26-1.19.38h0c-2.27.65-4.91,1.14-8.04,1.33,0,0-.08-.07-.08-.07,8.04,4.12,19.69,4.11,33.04-1.02,14.98-5.75,28.92-16.72,38.64-29.26-.15.07-.29.13-.43.2"/>
        <path class="cls-3" d="m21.08,41.11c.42,3.14,1.34,6.08,2.7,8.75l.78,1.42c.49.83,1.03,1.64,1.61,2.42,2.81.18,5.4.24,7.77.19,4.66-.1,8.45-.65,11.33-1.65.43-.13.89.11,1.03.54.13.41-.09.86-.49,1.01-.38.13-.78.26-1.19.38h0c-2.27.65-4.89,1.11-8.03,1.3-.11,0-.3,0-.4.01-1.23.07-2.55.11-3.91.11-1.49,0-3.01-.03-4.65-.11,5.69,6.4,14.65,10.25,25.8,10.25,20.21,0,37.8-7.67,48.01-24.62H21.08"/>
        <path class="cls-6" d="m25.62,41.11c1.21,5.51,4.11,9.84,8.33,12.78,4.66-.1,8.45-.65,11.33-1.65.43-.13.89.11,1.03.54.13.41-.09.86-.49,1.01-.38.13-.78.26-1.19.38h0c-2.27.65-4.95,1.11-8.09,1.3,8.04,4.12,19.65,4.06,33.01-1.07,8.08-3.1,15.86-7.73,22.84-13.29H25.62"/>
        <path class="cls-2" d="m30.23,23.1h9.24v9.24h-9.24v-9.24Zm.77.77h.73v7.7h-.73v-7.7Zm1.37,0h.76v7.7h-.76v-7.7h0Zm1.4,0h.76v7.7h-.76v-7.7Zm1.4,0h.76v7.7h-.76v-7.7Zm1.4,0h.76v7.7h-.76v-7.7h0Zm1.4,0h.73v7.7h-.73v-7.7Zm2.92-11.43h9.24v9.24h-9.24v-9.24h0Zm.77.77h.73v7.7h-.73v-7.7Zm1.37,0h.76v7.7h-.76v-7.7h0Zm1.4,0h.76v7.7h-.76v-7.7Zm1.4,0h.76v7.7h-.76v-7.7Zm1.4,0h.76v7.7h-.76v-7.7Zm1.4,0h.73v7.7h-.73v-7.7Z"/>
        <path class="cls-5" d="m40.89,23.1h9.24v9.24h-9.24v-9.24h0Zm.77.77h.73v7.7h-.73v-7.7Zm1.37,0h.76v7.7h-.76v-7.7h0Zm1.4,0h.76v7.7h-.76v-7.7Zm1.4,0h.76v7.7h-.76v-7.7Zm1.4,0h.76v7.7h-.76v-7.7Zm1.4,0h.73v7.7h-.73v-7.7Z"/>
        <path class="cls-2" d="m51.55,23.1h9.24v9.24h-9.24v-9.24Zm.77.77h.73v7.7h-.73v-7.7Zm1.37,0h.76v7.7h-.76v-7.7Zm1.4,0h.76v7.7h-.76v-7.7Zm1.4,0h.76v7.7h-.76v-7.7Zm1.4,0h.76v7.7h-.76v-7.7Zm1.4,0h.73v7.7h-.73v-7.7Z"/>
        <path class="cls-5" d="m51.55,12.44h9.24v9.24h-9.24v-9.24Zm.77.77h.73v7.7h-.73v-7.7Zm1.37,0h.76v7.7h-.76v-7.7Zm1.4,0h.76v7.7h-.76v-7.7Zm1.4,0h.76v7.7h-.76v-7.7Zm1.4,0h.76v7.7h-.76v-7.7Zm1.4,0h.73v7.7h-.73v-7.7Zm2.92,9.89h9.24v9.24h-9.24v-9.24Zm.77.77h.73v7.7h-.73v-7.7Zm1.37,0h.76v7.7h-.76v-7.7Zm1.4,0h.76v7.7h-.76v-7.7Zm1.4,0h.76v7.7h-.76v-7.7Zm1.4,0h.76v7.7h-.76v-7.7Zm1.4,0h.73v7.7h-.73v-7.7Z"/>
        <path class="cls-2" d="m62.21,12.44h9.24v9.24h-9.24v-9.24Zm.77.77h.73v7.7h-.73v-7.7Zm1.37,0h.76v7.7h-.76v-7.7Zm1.4,0h.76v7.7h-.76v-7.7Zm1.4,0h.76v7.7h-.76v-7.7Zm1.4,0h.76v7.7h-.76v-7.7Zm1.4,0h.73v7.7h-.73v-7.7Z"/>
        <path class="cls-5" d="m62.21,1.78h9.24v9.24h-9.24V1.78Zm.77.77h.73v7.7h-.73V2.55h0Zm1.37,0h.76v7.7h-.76V2.55h0Zm1.4,0h.76v7.7h-.76V2.55h0Zm1.4,0h.76v7.7h-.76V2.55h0Zm1.4,0h.76v7.7h-.76V2.55h0Zm1.4,0h.73v7.7h-.73V2.55h0Z"/>
        <path class="cls-2" d="m72.87,23.1h9.24v9.24h-9.24v-9.24Zm.77.77h.73v7.7h-.73v-7.7h0Zm1.37,0h.76v7.7h-.76v-7.7h0Zm1.4,0h.76v7.7h-.76v-7.7Zm1.4,0h.76v7.7h-.76v-7.7Zm1.4,0h.76v7.7h-.76v-7.7Zm1.4,0h.73v7.7h-.73v-7.7Z"/>
        <path class="cls-8" d="m49.55,47.31c1.41-.02,2.56,1.11,2.58,2.52.02,1.41-1.11,2.56-2.52,2.58-.02,0-.05,0-.07,0-1.41-.02-2.53-1.18-2.51-2.58.02-1.38,1.13-2.5,2.52-2.51"/>
        <path class="cls-9" d="m49.55,48.04c.23,0,.46.04.66.12-.36.21-.48.66-.27,1.02.13.23.38.37.64.37.28,0,.53-.16.65-.39.39.93-.05,2-.99,2.39-.93.39-2-.05-2.39-.99-.39-.93.05-2,.99-2.39.22-.09.46-.14.7-.14m-45.08-6h118.56c-2.58-.65-8.17-1.54-7.25-4.92-4.69,5.43-16.01,3.81-18.87,1.13-3.18,4.61-21.7,2.86-22.99-.73-3.99,4.68-16.35,4.68-20.34,0-1.29,3.59-19.81,5.35-23,.73-2.86,2.68-14.18,4.3-18.87-1.13.92,3.38-4.67,4.27-7.25,4.92"/>
        <path class="cls-1" d="m56.32,65.68c-6.31-3-9.78-7.07-11.7-11.51-2.34.67-5.16,1.1-8.44,1.28-1.23.07-2.53.1-3.89.1-1.57,0-3.22-.05-4.96-.14,5.79,5.79,12.91,10.24,26.09,10.32.97,0,1.94-.02,2.9-.06"/>
        <path class="cls-8" d="m46.96,58.27c-.87-1.19-1.72-2.68-2.34-4.1-2.34.67-5.16,1.1-8.44,1.28,2.25,1.22,5.47,2.35,10.78,2.82"/>
      </g>
    </g>
  </g>
</svg>