<?xml version="1.0" encoding="UTF-8"?>
<svg id="Layer_2" data-name="Layer 2" xmlns="http://www.w3.org/2000/svg" xmlns:xlink="http://www.w3.org/1999/xlink" viewBox="0 0 130 100">
  <defs>
    <style>
      .cls-1 {
        fill: url(#linear-gradient-2);
      }

      .cls-2 {
        fill: url(#radial-gradient-4);
      }

      .cls-3 {
        fill: url(#radial-gradient);
        opacity: .35;
      }

      .cls-3, .cls-4 {
        isolation: isolate;
      }

      .cls-4 {
        fill: url(#radial-gradient-2);
        opacity: .41;
      }

      .cls-5 {
        fill: url(#radial-gradient-3);
      }

      .cls-6 {
        fill: url(#linear-gradient);
      }
    </style>
    <linearGradient id="linear-gradient" x1="46.91" y1="886.58" x2="105.66" y2="886.58" gradientTransform="translate(-4.63 -818.92)" gradientUnits="userSpaceOnUse">
      <stop offset="0" stop-color="#0c59a4"/>
      <stop offset="1" stop-color="#114a8b"/>
    </linearGradient>
    <radialGradient id="radial-gradient" cx="79.37" cy="1007.83" fx="79.37" fy="1007.83" r="31.43" gradientTransform="translate(-4.63 -889.31) scale(1 .95)" gradientUnits="userSpaceOnUse">
      <stop offset=".72" stop-color="#000" stop-opacity="0"/>
      <stop offset=".95" stop-color="#000" stop-opacity=".53"/>
      <stop offset="1" stop-color="#000"/>
    </radialGradient>
    <linearGradient id="linear-gradient-2" x1="77.91" y1="861.12" x2="41.21" y2="901.09" gradientTransform="translate(-4.63 -818.92)" gradientUnits="userSpaceOnUse">
      <stop offset="0" stop-color="#1b9de2"/>
      <stop offset=".16" stop-color="#1595df"/>
      <stop offset=".67" stop-color="#0680d7"/>
      <stop offset="1" stop-color="#0078d4"/>
    </linearGradient>
    <radialGradient id="radial-gradient-2" cx="-1466.31" cy="-2035.9" fx="-1466.31" fy="-2035.9" r="47.19" gradientTransform="translate(1894.86 -1132.43) rotate(-81.38) scale(1 .81) skewX(.07)" gradientUnits="userSpaceOnUse">
      <stop offset=".76" stop-color="#000" stop-opacity="0"/>
      <stop offset=".95" stop-color="#000" stop-opacity=".5"/>
      <stop offset="1" stop-color="#000"/>
    </radialGradient>
    <radialGradient id="radial-gradient-3" cx="3295.49" cy="-1196.72" fx="3295.49" fy="-1196.72" r="66.7" gradientTransform="translate(-2385.73 -3366.28) rotate(92.29) scale(1 2.13) skewX(.3)" gradientUnits="userSpaceOnUse">
      <stop offset="0" stop-color="#35c1f1"/>
      <stop offset=".11" stop-color="#34c1ed"/>
      <stop offset=".23" stop-color="#2fc2df"/>
      <stop offset=".31" stop-color="#2bc3d2"/>
      <stop offset=".67" stop-color="#36c752"/>
    </radialGradient>
    <radialGradient id="radial-gradient-4" cx="3088.72" cy="464.13" fx="3088.72" fy="464.13" r="32.07" gradientTransform="translate(-400.78 -3037.08) rotate(73.74) scale(1 .81) skewX(.14)" gradientUnits="userSpaceOnUse">
      <stop offset="0" stop-color="#66eb6e"/>
      <stop offset="1" stop-color="#66eb6e" stop-opacity="0"/>
    </radialGradient>
  </defs>
  <g id="Layer_1-2" data-name="Layer 1">
    <g>
      <path class="cls-6" d="m99.07,72.11c-1.12.59-2.28,1.11-3.47,1.55-3.78,1.42-7.79,2.14-11.83,2.13-15.59,0-29.17-10.72-29.17-24.49.04-3.76,2.11-7.2,5.41-9-14.1.59-17.73,15.29-17.73,23.9,0,24.34,22.43,26.81,27.27,26.81,2.61,0,6.54-.76,8.9-1.5l.43-.14c9.08-3.14,16.82-9.27,21.94-17.4.39-.61.21-1.43-.41-1.82-.41-.26-.92-.27-1.35-.04Z"/>
      <path class="cls-3" d="m99.07,72.11c-1.12.59-2.28,1.11-3.47,1.55-3.78,1.42-7.79,2.14-11.83,2.13-15.59,0-29.17-10.72-29.17-24.49.04-3.76,2.11-7.2,5.41-9-14.1.59-17.73,15.29-17.73,23.9,0,24.34,22.43,26.81,27.27,26.81,2.61,0,6.54-.76,8.9-1.5l.43-.14c9.08-3.14,16.82-9.27,21.94-17.4.39-.61.21-1.43-.41-1.82-.41-.26-.92-.27-1.35-.04Z"/>
      <path class="cls-1" d="m57.77,88.88c-2.94-1.82-5.49-4.21-7.49-7.03-8.66-11.86-6.06-28.5,5.8-37.16,1.24-.9,2.55-1.7,3.93-2.38,1.03-.48,2.78-1.36,5.12-1.32,3.34.02,6.47,1.61,8.46,4.28,1.33,1.78,2.06,3.93,2.1,6.15,0-.07,8.06-26.23-26.36-26.23-14.46,0-26.36,13.73-26.36,25.77-.06,6.37,1.31,12.67,3.99,18.45,9.08,19.37,31.23,28.88,51.52,22.11-6.95,2.19-14.51,1.23-20.68-2.64h-.03Z"/>
      <path class="cls-4" d="m57.77,88.88c-2.94-1.82-5.49-4.21-7.49-7.03-8.66-11.86-6.06-28.5,5.8-37.16,1.24-.9,2.55-1.7,3.93-2.38,1.03-.48,2.78-1.36,5.12-1.32,3.34.02,6.47,1.61,8.46,4.28,1.33,1.78,2.06,3.93,2.1,6.15,0-.07,8.06-26.23-26.36-26.23-14.46,0-26.36,13.73-26.36,25.77-.06,6.37,1.31,12.67,3.99,18.45,9.08,19.37,31.23,28.88,51.52,22.11-6.95,2.19-14.51,1.23-20.68-2.64h-.03Z"/>
      <path class="cls-5" d="m73.13,58.38c-.27.35-1.09.82-1.09,1.86,0,.86.56,1.69,1.56,2.38,4.74,3.29,13.67,2.86,13.69,2.86,3.51,0,6.95-.96,9.97-2.75,6.2-3.62,10.01-10.25,10.03-17.42.09-7.38-2.64-12.29-3.74-14.47-6.98-13.66-22.05-21.51-38.44-21.51-23.06,0-41.85,18.52-42.17,41.58.16-12.04,12.12-21.76,26.36-21.76,1.15,0,7.73.11,13.84,3.32,5.38,2.83,8.2,6.24,10.16,9.62,2.04,3.52,2.4,7.96,2.4,9.73s-.9,4.39-2.57,6.56Z"/>
      <path class="cls-2" d="m73.13,58.38c-.27.35-1.09.82-1.09,1.86,0,.86.56,1.69,1.56,2.38,4.74,3.29,13.67,2.86,13.69,2.86,3.51,0,6.95-.96,9.97-2.75,6.2-3.62,10.01-10.25,10.03-17.42.09-7.38-2.64-12.29-3.74-14.47-6.98-13.66-22.05-21.51-38.44-21.51-23.06,0-41.85,18.52-42.17,41.58.16-12.04,12.12-21.76,26.36-21.76,1.15,0,7.73.11,13.84,3.32,5.38,2.83,8.2,6.24,10.16,9.62,2.04,3.52,2.4,7.96,2.4,9.73s-.9,4.39-2.57,6.56Z"/>
    </g>
  </g>
</svg>