<?xml version="1.0" encoding="UTF-8"?>
<svg id="Layer_2" data-name="Layer 2" xmlns="http://www.w3.org/2000/svg" xmlns:xlink="http://www.w3.org/1999/xlink" viewBox="0 0 130 100">
  <defs>
    <style>
      .cls-1 {
        fill: #565656;
      }

      .cls-2 {
        fill: url(#linear-gradient);
      }
    </style>
    <linearGradient id="linear-gradient" x1="67.19" y1="1020.84" x2="67.19" y2="958.5" gradientTransform="translate(0 -931.4)" gradientUnits="userSpaceOnUse">
      <stop offset="0" stop-color="#fcee1f"/>
      <stop offset="1" stop-color="#f15b2a"/>
    </linearGradient>
  </defs>
  <g id="Layer_1-2" data-name="Layer 1">
    <g>
      <g>
        <path class="cls-1" d="m41.4,85.43c-.18,4.79-4,8.55-8.73,8.55-4.97,0-8.67-4-8.67-8.91s4-8.91,8.91-8.91c2.18,0,4.36.97,6.18,2.67l-1.39,1.76c-1.39-1.21-3.09-2.06-4.79-2.06-3.58,0-6.55,2.91-6.55,6.55s2.79,6.55,6.3,6.55c3.15,0,5.64-2.3,6.18-5.33h-7.21v-2.12h9.76v1.27Z"/>
        <path class="cls-1" d="m49.64,84.22h-1.33c-1.45,0-2.67,1.21-2.67,2.67v6.91h-2.36v-11.88h1.94v.97c.67-.67,1.64-.97,2.79-.97h2.55l-.91,2.3Z"/>
        <path class="cls-1" d="m62.61,93.8h-2.06v-1.52c-1.58,1.52-4,2.24-6.49,1.15-1.82-.79-3.21-2.49-3.58-4.49-.73-3.82,2.24-7.21,6-7.21,1.58,0,3.03.67,4.06,1.7v-1.52h2.06v11.88Zm-2.42-5.03c.55-2.42-1.27-4.61-3.64-4.61-2.06,0-3.7,1.7-3.7,3.7,0,2.3,2,4.06,4.36,3.7,1.39-.24,2.61-1.39,2.97-2.79Z"/>
        <path class="cls-1" d="m67.34,81.31v.67h3.76v2.06h-3.76v9.76h-2.3v-12.43c0-2.61,1.88-4.12,4.24-4.12h2.85l-.97,2.24h-1.88c-1.09-.06-1.94.79-1.94,1.82Z"/>
        <path class="cls-1" d="m83.7,93.8h-2v-1.52c-1.58,1.52-4,2.24-6.49,1.15-1.82-.79-3.21-2.49-3.58-4.49-.73-3.82,2.24-7.21,6-7.21,1.58,0,3.03.67,4.06,1.7v-1.52h2.06v11.88h-.06Zm-2.42-5.03c.55-2.42-1.27-4.61-3.64-4.61-2.06,0-3.7,1.7-3.7,3.7,0,2.3,2,4.06,4.36,3.7,1.45-.24,2.61-1.39,2.97-2.79Z"/>
        <path class="cls-1" d="m96.37,86.83v6.97h-2.36v-7.03c0-1.45-1.21-2.67-2.67-2.67s-2.67,1.21-2.67,2.67v7.03h-2.36v-11.88h1.94v1.03c.85-.79,2-1.21,3.15-1.21,2.79.06,4.97,2.3,4.97,5.09Z"/>
        <path class="cls-1" d="m110.31,93.8h-2v-1.52c-1.58,1.52-4,2.24-6.49,1.15-1.82-.79-3.21-2.49-3.58-4.49-.73-3.82,2.24-7.21,6-7.21,1.58,0,3.03.67,4.06,1.7v-1.52h2.06v11.88h-.06Zm-2.42-5.03c.55-2.42-1.27-4.61-3.64-4.61-2.06,0-3.7,1.7-3.7,3.7,0,2.3,2,4.06,4.36,3.7,1.45-.24,2.61-1.39,2.97-2.79Z"/>
      </g>
      <path class="cls-2" d="m98.49,35.97c-.12-1.15-.3-2.49-.67-3.94s-.97-3.03-1.76-4.73c-.85-1.64-1.88-3.39-3.27-5.03-.55-.67-1.15-1.27-1.76-1.94.97-3.82-1.15-7.15-1.15-7.15-3.7-.24-6,1.15-6.85,1.76-.12-.06-.3-.12-.42-.18-.61-.24-1.27-.48-1.94-.73-.67-.18-1.33-.42-2-.55-.67-.18-1.39-.3-2.12-.42-.12,0-.24-.06-.36-.06-1.58-5.09-6.18-7.27-6.18-7.27-5.27,3.39-6.3,7.94-6.3,7.94,0,0,0,.12-.06.24-.3.06-.55.18-.85.24-.36.12-.79.24-1.15.42-.36.18-.79.3-1.15.48-.79.36-1.52.73-2.3,1.15-.73.42-1.45.85-2.12,1.33-.12-.06-.18-.12-.18-.12-7.09-2.73-13.4.55-13.4.55-.55,7.58,2.85,12.3,3.52,13.15-.18.48-.3.91-.48,1.39-.55,1.7-.91,3.45-1.15,5.27-.06.24-.06.55-.12.79-6.55,3.21-8.49,9.88-8.49,9.88,5.46,6.3,11.88,6.67,11.88,6.67h0c.79,1.45,1.76,2.85,2.79,4.12.42.55.91,1.03,1.39,1.58-2,5.7.3,10.49.3,10.49,6.12.24,10.12-2.67,10.97-3.33.61.18,1.21.36,1.82.55,1.88.48,3.82.79,5.7.85h2.49c2.85,4.12,7.94,4.67,7.94,4.67,3.58-3.82,3.82-7.52,3.82-8.36h0v-.18h0v-.18c.73-.55,1.45-1.09,2.18-1.7,1.45-1.27,2.67-2.79,3.76-4.36.12-.12.18-.3.3-.42,4.06.24,6.91-2.55,6.91-2.55-.67-4.24-3.09-6.3-3.58-6.67h0l-.06-.06-.06-.06h0l-.06-.06c0-.24.06-.48.06-.79.06-.48.06-.91.06-1.39v-1.76c0-.12,0-.24-.06-.36l-.06-.36-.06-.36c-.06-.48-.18-.91-.24-1.39-.42-1.82-1.15-3.58-2.06-5.09-.97-1.58-2.12-2.91-3.45-4.12-1.33-1.15-2.79-2.12-4.36-2.79-1.58-.73-3.15-1.15-4.79-1.33-.79-.12-1.64-.12-2.42-.12h-1.21c-.42.06-.85.12-1.21.18-1.64.3-3.15.91-4.49,1.7-1.33.79-2.49,1.82-3.45,2.97s-1.7,2.36-2.18,3.7c-.48,1.27-.79,2.67-.85,3.94v1.45c0,.18,0,.3.06.48.06.67.18,1.27.36,1.88.36,1.21.91,2.3,1.64,3.27s1.52,1.7,2.42,2.3,1.82,1.03,2.79,1.33,1.88.42,2.73.36h1.27c.12,0,.24-.06.3-.06.12,0,.18-.06.3-.06.18-.06.42-.12.61-.18.36-.12.73-.3,1.09-.42.36-.18.67-.36.91-.55.06-.06.18-.12.24-.18.3-.24.36-.67.12-.97-.24-.24-.61-.3-.91-.18-.06.06-.12.06-.24.12-.24.12-.55.24-.79.3-.3.06-.61.18-.91.24-.18,0-.3.06-.48.06h-1.03s-.06,0,0,0h-.24c-.06,0-.18,0-.24-.06-.67-.12-1.39-.3-2.06-.61s-1.33-.73-1.88-1.27c-.61-.55-1.09-1.15-1.52-1.88s-.67-1.52-.79-2.3c-.06-.42-.12-.85-.06-1.27v-.36c0,.06,0,0,0,0v-.3c0-.24.06-.42.12-.67.3-1.82,1.21-3.58,2.61-4.91.36-.36.73-.67,1.15-.91.42-.3.85-.55,1.27-.73s.91-.36,1.39-.48.97-.24,1.45-.24c.24,0,.48-.06.73-.06h.48c.06,0,0,0,0,0h.24c.55.06,1.09.12,1.58.24,1.03.24,2.06.61,3.03,1.15,1.94,1.09,3.58,2.73,4.55,4.73.48.97.85,2.06,1.03,3.21.06.3.06.55.12.85v1.58c0,.3-.06.61-.06.91-.06.3-.06.61-.12.91s-.12.61-.18.91c-.12.61-.36,1.15-.55,1.76-.42,1.15-1.03,2.24-1.76,3.21-1.45,2-3.45,3.64-5.7,4.67-1.15.48-2.3.91-3.52,1.09-.61.12-1.21.18-1.82.18h-.91c.06,0,0,0,0,0h-.06c-.3,0-.67,0-.97-.06-1.33-.12-2.61-.36-3.88-.73s-2.49-.85-3.64-1.45c-2.3-1.21-4.36-2.97-6-4.97-.79-1.03-1.52-2.12-2.12-3.27s-1.03-2.36-1.39-3.58-.55-2.49-.61-3.76v-1.27h0v-.61c0-.61.06-1.27.18-1.94.06-.67.18-1.27.3-1.94.12-.67.3-1.27.48-1.94.36-1.27.79-2.49,1.33-3.64,1.09-2.3,2.49-4.36,4.12-6,.42-.42.85-.79,1.33-1.15.18-.18.61-.55,1.09-.85s.97-.61,1.52-.85c.24-.12.48-.24.79-.36.12-.06.24-.12.42-.18.12-.06.24-.12.42-.18.55-.24,1.09-.42,1.64-.61.12-.06.3-.06.42-.12s.3-.06.42-.12c.3-.06.55-.12.85-.24.12-.06.3-.06.42-.12.12,0,.3-.06.42-.06s.3-.06.42-.06l.24-.06.24-.06c.12,0,.3-.06.42-.06.18,0,.3-.06.48-.06.12,0,.36-.06.48-.06s.18,0,.3-.06h.42c.18,0,.3,0,.48-.06h.24s.06,0,0,0h2.24c1.09.06,2.18.18,3.21.36,2.06.36,4.06,1.03,5.82,1.94,1.76.85,3.39,1.94,4.73,3.09.06.06.18.12.24.24.06.06.18.12.24.24.18.12.3.3.48.42s.3.3.48.42c.12.18.3.3.42.48.61.61,1.15,1.27,1.64,1.88.97,1.27,1.76,2.55,2.36,3.76.06.06.06.12.12.24.06.06.06.12.12.24s.12.3.24.42c.06.12.12.3.18.42.06.12.12.3.18.42.24.55.42,1.09.61,1.64.3.85.48,1.58.67,2.18.06.24.3.42.55.42.3,0,.48-.24.48-.55-.06-.73-.06-1.52-.12-2.42Z"/>
    </g>
  </g>
</svg>