<?xml version="1.0" encoding="UTF-8"?>
<svg id="Layer_2" data-name="Layer 2" xmlns="http://www.w3.org/2000/svg" viewBox="0 0 130 100">
  <defs>
    <style>
      .cls-1 {
        fill: #9d61c5;
      }

      .cls-2 {
        fill: #4b84d1;
      }

      .cls-3 {
        fill: #6a6ac0;
        font-family: Ubuntu-Bold, Ubuntu;
        font-size: 21.3px;
        font-weight: 700;
      }

      .cls-4 {
        letter-spacing: -.01em;
      }
    </style>
  </defs>
  <g id="Layer_1-2" data-name="Layer 1">
    <g>
      <g>
        <path id="A" class="cls-2" d="m54.73,50.37c1.5,3,21.25,2.97,22.73,0,1.48-2.97-8.32-20.79-11.36-20.8-3.05,0-12.86,17.79-11.37,20.8Z"/>
        <path id="C" class="cls-1" d="m31.84,65.64c4.51,9.05,64.03,8.95,68.49,0,4.46-8.95-25.06-62.66-34.25-62.66S27.34,56.59,31.84,65.64h0Zm11.81-7.86c-2.95-5.93,16.42-41.06,22.44-41.06s25.36,35.19,22.44,41.06c-2.92,5.87-41.92,5.93-44.88,0Z"/>
      </g>
      <text class="cls-3" transform="translate(28.6 92.63)"><tspan x="0" y="0">Jel</tspan><tspan class="cls-4" x="30.43" y="0">l</tspan><tspan x="36.93" y="0">yfin</tspan></text>
    </g>
  </g>
</svg>