<?xml version="1.0" encoding="utf-8"?>
<!-- Generator: Adobe Illustrator 27.4.1, SVG Export Plug-In . SVG Version: 6.00 Build 0)  -->
<svg version="1.1" id="Layer_2_00000183957103633912816430000007507134110851123900_"
	 xmlns="http://www.w3.org/2000/svg" xmlns:xlink="http://www.w3.org/1999/xlink" x="0px" y="0px" viewBox="0 0 130 100"
	 style="enable-background:new 0 0 130 100;" xml:space="preserve">
<style type="text/css">
	.st0{clip-path:url(#SVGID_00000060738107691803601530000016435656677708630188_);}
	.st1{enable-background:new    ;}
	.st2{fill:#6A6AC0;}
	.st3{fill:url(#a_00000113332517498062676210000016833418630747418022_);}
	.st4{fill:none;}
	.st5{fill:url(#c_00000108308919221169869480000011748694277347313298_);}
</style>
<g>
	<defs>
		<rect id="SVGID_1_" width="130" height="100"/>
	</defs>
	<clipPath id="SVGID_00000071537433781565656650000001095817979951156390_">
		<use xlink:href="#SVGID_1_"  style="overflow:visible;"/>
	</clipPath>
	<g id="Layer_1-2" style="clip-path:url(#SVGID_00000071537433781565656650000001095817979951156390_);">
		<g>
			<g class="st1">
				<path class="st2" d="M32.7,86.8c0,0.9-0.1,1.7-0.3,2.5s-0.5,1.4-1,2c-0.5,0.6-1.1,1-2,1.4s-1.9,0.5-3.1,0.5
					c-1.2,0-2.2-0.1-3-0.4c-0.8-0.3-1.5-0.6-2.1-1l1.3-3.1c0.5,0.3,1,0.5,1.6,0.8c0.6,0.2,1.2,0.3,1.8,0.3c1,0,1.7-0.2,2.1-0.7
					c0.4-0.5,0.6-1.3,0.6-2.4V75.1h4V86.8z"/>
				<path class="st2" d="M35.7,86.1c0-1.2,0.2-2.2,0.5-3.1c0.4-0.9,0.8-1.6,1.4-2.2c0.6-0.6,1.3-1,2.1-1.4c0.8-0.3,1.6-0.5,2.4-0.5
					c1.9,0,3.4,0.6,4.5,1.8c1.1,1.2,1.7,2.9,1.7,5.1c0,0.2,0,0.5,0,0.7c0,0.3,0,0.5-0.1,0.7h-8.6c0.1,0.8,0.5,1.4,1.1,1.9
					c0.6,0.5,1.5,0.7,2.6,0.7c0.7,0,1.4-0.1,2.1-0.2s1.2-0.3,1.6-0.5l0.5,3.1c-0.2,0.1-0.5,0.2-0.8,0.3c-0.3,0.1-0.7,0.2-1.1,0.3
					c-0.4,0.1-0.9,0.1-1.3,0.2c-0.5,0.1-1,0.1-1.4,0.1c-1.2,0-2.3-0.2-3.2-0.5c-0.9-0.4-1.6-0.8-2.2-1.5c-0.6-0.6-1-1.4-1.3-2.2
					C35.8,88.1,35.7,87.1,35.7,86.1z M44.6,84.7c0-0.3-0.1-0.6-0.2-0.9c-0.1-0.3-0.2-0.6-0.4-0.8c-0.2-0.2-0.4-0.4-0.7-0.6
					c-0.3-0.2-0.7-0.2-1.1-0.2c-0.4,0-0.8,0.1-1.1,0.2c-0.3,0.1-0.6,0.3-0.8,0.6s-0.4,0.5-0.5,0.8c-0.1,0.3-0.2,0.6-0.2,1H44.6z"/>
				<path class="st2" d="M56.6,93c-1.1,0-2-0.1-2.7-0.4c-0.7-0.2-1.2-0.5-1.6-0.9c-0.4-0.4-0.7-0.9-0.8-1.5
					c-0.1-0.6-0.2-1.2-0.2-1.9V73.6l3.8-0.6v14.6c0,0.3,0,0.6,0.1,0.9c0.1,0.3,0.1,0.5,0.3,0.7s0.4,0.3,0.6,0.5s0.6,0.2,1.1,0.2
					L56.6,93z"/>
			</g>
			<g class="st1">
				<path class="st2" d="M64.7,93c-1.1,0-2-0.1-2.7-0.4c-0.7-0.2-1.2-0.5-1.6-0.9c-0.4-0.4-0.7-0.9-0.8-1.5
					c-0.1-0.6-0.2-1.2-0.2-1.9V73.6l3.8-0.6v14.6c0,0.3,0,0.6,0.1,0.9c0.1,0.3,0.1,0.5,0.3,0.7s0.4,0.3,0.6,0.5s0.6,0.2,1.1,0.2
					L64.7,93z"/>
			</g>
			<g class="st1">
				<path class="st2" d="M79,79.3c-0.8,2.6-1.6,5-2.4,7.3c-0.8,2.3-1.8,4.5-2.7,6.6c-0.4,0.8-0.7,1.4-1.1,2c-0.4,0.5-0.8,1-1.2,1.3
					c-0.4,0.3-0.9,0.6-1.4,0.8c-0.5,0.2-1.2,0.2-1.9,0.2c-0.6,0-1.1-0.1-1.7-0.2c-0.5-0.1-0.9-0.2-1.2-0.4l0.7-3
					c0.4,0.1,0.7,0.2,1,0.3s0.6,0.1,1,0.1c0.7,0,1.2-0.2,1.6-0.5c0.4-0.4,0.7-0.9,0.9-1.5c-0.9-1.7-1.7-3.6-2.6-5.7
					c-0.9-2.1-1.7-4.5-2.5-7.1h4c0.2,0.7,0.4,1.4,0.6,2.2c0.2,0.8,0.5,1.6,0.7,2.4s0.5,1.6,0.8,2.3c0.3,0.7,0.5,1.4,0.8,2
					c0.2-0.6,0.5-1.3,0.7-2c0.2-0.8,0.5-1.5,0.7-2.3c0.2-0.8,0.5-1.6,0.7-2.4c0.2-0.8,0.4-1.5,0.6-2.2H79z"/>
				<path class="st2" d="M86.9,72.9c0.7,0,1.3,0.1,1.8,0.2s0.9,0.2,1.2,0.4l-0.7,3c-0.3-0.1-0.6-0.2-0.9-0.3c-0.3-0.1-0.7-0.1-1-0.1
					c-0.5,0-0.8,0.1-1.2,0.2c-0.3,0.1-0.6,0.3-0.7,0.5c-0.2,0.2-0.3,0.5-0.4,0.8c-0.1,0.3-0.1,0.6-0.1,1v0.7h4.7v3.2h-4.7v10.3h-3.8
					V78.6c0-1.7,0.5-3.1,1.5-4.1C83.5,73.5,85,72.9,86.9,72.9z M95.9,75.4c0,0.7-0.2,1.2-0.7,1.6s-1,0.6-1.6,0.6s-1.1-0.2-1.6-0.6
					c-0.5-0.4-0.7-0.9-0.7-1.6c0-0.7,0.2-1.2,0.7-1.6c0.5-0.4,1-0.6,1.6-0.6s1.1,0.2,1.6,0.6S95.9,74.7,95.9,75.4z M95.6,92.8h-3.8
					V79.3h3.8V92.8z"/>
				<path class="st2" d="M99.1,79.8c0.6-0.2,1.5-0.4,2.5-0.5c1-0.2,2.1-0.2,3.2-0.2c1.1,0,2.1,0.1,2.8,0.4s1.4,0.7,1.8,1.3
					c0.4,0.5,0.8,1.2,0.9,1.9c0.2,0.8,0.3,1.6,0.3,2.5v7.6h-3.8v-7.1c0-1.2-0.2-2.1-0.5-2.6c-0.3-0.5-0.9-0.8-1.8-0.8
					c-0.3,0-0.6,0-0.9,0s-0.6,0.1-0.8,0.1v10.4h-3.8V79.8z"/>
			</g>
		</g>
	</g>
	<g style="clip-path:url(#SVGID_00000071537433781565656650000001095817979951156390_);">
		
			<linearGradient id="a_00000067203268995390211750000014711550192939157923_" gradientUnits="userSpaceOnUse" x1="44.4228" y1="72.9859" x2="98.863" y2="41.5547" gradientTransform="matrix(1 0 0 -1 0 102)">
			<stop  offset="0" style="stop-color:#AA5CC3"/>
			<stop  offset="1" style="stop-color:#00A4DC"/>
		</linearGradient>
		<path id="a" style="fill:url(#a_00000067203268995390211750000014711550192939157923_);" d="M54.6,47.8c1.4,2.8,20.1,2.8,21.5,0
			c1.4-2.8-7.9-19.7-10.7-19.7C62.4,28.1,53.2,44.9,54.6,47.8z"/>
	</g>
	<g style="clip-path:url(#SVGID_00000071537433781565656650000001095817979951156390_);">
		<path id="a_00000011720586859550470800000010116765184686797205_" class="st4" d="M54.6,50.2c1.4,2.8,20.1,2.8,21.5,0
			c1.4-2.8-7.9-19.7-10.7-19.7C62.4,30.5,53.2,47.3,54.6,50.2z"/>
	</g>
	<g style="clip-path:url(#SVGID_00000071537433781565656650000001095817979951156390_);">
		
			<linearGradient id="c_00000047738698567729918500000005679909830763890858_" gradientUnits="userSpaceOnUse" x1="43.999" y1="72.2507" x2="98.4392" y2="40.8195" gradientTransform="matrix(1 0 0 -1 0 102)">
			<stop  offset="0" style="stop-color:#AA5CC3"/>
			<stop  offset="1" style="stop-color:#00A4DC"/>
		</linearGradient>
		<path id="c" style="fill:url(#c_00000047738698567729918500000005679909830763890858_);" d="M32.9,62.2c4.3,8.6,60.6,8.5,64.8,0
			S74,2.9,65.3,2.9C56.6,2.9,28.7,53.7,32.9,62.2L32.9,62.2z M44.1,54.8c-2.8-5.6,15.5-38.8,21.2-38.8c5.7,0,24,33.3,21.2,38.8
			C83.8,60.3,46.9,60.4,44.1,54.8z"/>
	</g>
</g>
</svg>
