<?xml version="1.0" encoding="UTF-8"?>
<svg id="Layer_2" data-name="Layer 2" xmlns="http://www.w3.org/2000/svg" viewBox="0 0 130 100">
  <defs>
    <style>
      .cls-1, .cls-2 {
        fill: #fff;
      }

      .cls-3, .cls-2, .cls-4, .cls-5, .cls-6, .cls-7, .cls-8, .cls-9, .cls-10, .cls-11, .cls-12, .cls-13 {
        fill-rule: evenodd;
      }

      .cls-3, .cls-14 {
        fill: #ef3d3a;
      }

      .cls-15, .cls-11 {
        fill: #f7e4cd;
      }

      .cls-4 {
        fill: #dcd9d8;
      }

      .cls-5 {
        fill: #335061;
      }

      .cls-6 {
        fill: #49728b;
      }

      .cls-7 {
        fill: #d33833;
      }

      .cls-8, .cls-16 {
        fill: #231f20;
      }

      .cls-17 {
        fill: none;
        stroke: #d33833;
        stroke-miterlimit: 5;
        stroke-width: 2.5px;
      }

      .cls-9 {
        fill: #1d1919;
      }

      .cls-10 {
        fill: #81b0c4;
      }

      .cls-12 {
        fill: #f0d6b7;
      }

      .cls-13 {
        fill: #6d6b6d;
      }
    </style>
  </defs>
  <g id="Layer_1-2" data-name="Layer 1">
    <g id="g10">
      <g id="g3393">
        <path id="path22" class="cls-7" d="m94.77,48.34c0,18.25-14.46,33.04-32.31,33.04s-32.31-14.79-32.31-33.04S44.62,15.29,62.47,15.29s32.31,14.79,32.31,33.04"/>
        <path id="path24" class="cls-14" d="m31.48,56.52s-2.34-34.46,29.41-35.44l-2.22-3.69-17.23,5.78-4.92,5.66-4.31,8.25-2.46,9.6.74,6.4"/>
        <path id="path26" class="cls-16" d="m40.34,25.79c-5.67,5.8-9.18,13.81-9.18,22.67h0c0,8.86,3.51,16.86,9.18,22.66h0c5.67,5.8,13.49,9.38,22.13,9.38h0c8.64,0,16.46-3.58,22.13-9.38h0c5.67-5.8,9.18-13.81,9.18-22.66h0c0-8.86-3.51-16.87-9.18-22.67h0c-5.67-5.8-13.49-9.38-22.13-9.38h0c-8.64,0-16.46,3.58-22.13,9.38h0Zm-1.43,46.73c-6.02-6.16-9.75-14.67-9.75-24.07h0c0-9.39,3.72-17.91,9.75-24.07h0c6.02-6.16,14.36-9.98,23.56-9.98h0c9.2,0,17.54,3.82,23.56,9.98h0c6.02,6.16,9.75,14.67,9.75,24.07h0c0,9.39-3.72,17.91-9.75,24.07h0c-6.02,6.16-14.36,9.98-23.56,9.98h0c-9.2,0-17.54-3.82-23.56-9.98h0"/>
        <path id="path28" class="cls-12" d="m76.06,48.52l-4.92.74-6.65.74-4.31.12-4.18-.12-3.2-.98-2.83-3.08-2.22-6.28-.49-1.35-2.95-.98-1.72-2.83-1.23-4.06,1.35-3.57,3.2-1.11,2.58,1.23,1.23,2.71,1.48-.25.49-.62-.49-2.83-.12-3.57.74-4.92-.03-2.81,2.24-3.59,3.94-2.83,6.89-2.95,7.63,1.11,6.65,4.8,3.08,4.92,1.97,3.57.49,8.86-1.48,7.63-2.71,6.77-2.58,3.57"/>
        <path id="path30" class="cls-5" d="m71.88,69.81l-17.6.74v2.95l1.48,10.34-.74.86-12.31-4.18-.86-1.48-1.23-13.91-2.83-8.37-.62-1.97,9.85-6.77,3.08-1.23,2.71,3.32,2.34,2.09,2.71.86,1.23.37,1.48,6.4,1.11,1.35,2.83-.98-1.97,3.82,10.71,5.05-1.35.74"/>
        <path id="path32" class="cls-13" d="m42.71,26.86l3.2-1.11,2.58,1.23,1.23,2.71,1.48-.25.37-1.48-.74-2.83.74-6.77-.62-3.69,2.22-2.58,4.8-3.81-1.35-1.85-6.77,3.32-2.83,2.22-1.6,3.45-2.46,3.32-.74,3.94.49,4.18"/>
        <path id="path34" class="cls-4" d="m47.76,15.29s1.85-4.55,9.23-6.77c7.38-2.22.37-1.6.37-1.6l-8,3.08-3.08,3.08-1.35,2.46,2.83-.25"/>
        <path id="path36" class="cls-4" d="m44.07,26s-2.58-8.61,7.26-9.85l-.37-1.48-6.77,1.6-1.97,6.4.49,4.18,1.35-.86"/>
        <path id="path38" class="cls-11" d="m48,37.44l1.61-1.56s.73.08.85.95c.12.86.49,8.61,5.78,12.8.48.38-3.94-.62-3.94-.62l-3.94-6.15"/>
        <path id="path40" class="cls-11" d="m70.65,35.1s.29-3.73,1.29-3.44c1,.29,1,1.29,1,1.29,0,0-2.44,1.58-2.3,2.15"/>
        <path id="path42" class="cls-15" d="m80.86,21.44s-2.03.43-2.22,2.22c-.19,1.79,2.22.37,2.58.25"/>
        <path id="path44" class="cls-15" d="m65.97,21.57s-2.71.37-2.71,2.09,3.08,1.6,3.94.86"/>
        <path id="path46" class="cls-11" d="m49.24,29.57s-4.68-2.83-5.17-.12c-.49,2.71-1.6,4.68.74,7.51l-1.6-.49-1.48-3.81-.49-3.69,2.83-2.95,3.2.25,1.85,1.48.12,1.85"/>
        <path id="path48" class="cls-11" d="m51.45,21.81s2.09-10.83,12.68-12.92c8.71-1.72,13.29.37,15.01,2.34,0,0-7.75-9.23-15.14-6.4-7.38,2.83-12.8,8-12.68,11.32.21,5.66.12,5.66.12,5.66"/>
        <path id="path50" class="cls-11" d="m80,12.46s-3.57-.12-3.69,3.08c0,0,0,.49.25.98,0,0,2.83-3.2,4.55-1.48"/>
        <path id="path52" class="cls-11" d="m64.37,16.85s-.61-4.91-4.8-2.06c-2.71,1.85-2.46,4.43-1.97,4.92.49.49.36,1.48.73.8.37-.68.25-2.9,1.61-3.51,1.35-.62,3.57-1.3,4.43-.16"/>
        <path id="path54" class="cls-6" d="m52.8,50.12l-11.57,5.17s4.8,19.08,2.34,24.98l-1.72-.62-.12-7.26-3.2-13.78-1.35-3.82,12.06-8.12,3.57,3.45"/>
        <path id="path56" class="cls-6" d="m53.99,60.67l1.64,2v7.38h-1.97s-.25-5.17-.25-5.78.25-2.83.25-2.83"/>
        <path id="path58" class="cls-6" d="m54.04,71.16l-5.54.25,1.6,1.11,3.94.62"/>
        <path id="path60" class="cls-5" d="m72.99,69.93l4.55-.12,1.11,11.32-4.68.62-.98-11.81"/>
        <path id="path62" class="cls-5" d="m74.22,69.93l6.89-.37s2.83-7.14,2.83-7.51,2.46-10.34,2.46-10.34l-5.54-5.78-1.11-.98-2.95,2.95v11.45l-2.58,10.58"/>
        <path id="path64" class="cls-6" d="m77.29,69.07l-4.31.86.62,3.45c1.6.74,4.31-1.23,4.31-1.23"/>
        <path id="path66" class="cls-6" d="m77.42,47.53l8.61,6.4.25-2.95-6.52-6.03-2.34,2.58"/>
        <path id="path68" class="cls-2" d="m58.31,94.18l-2.55-10.34-1.27-7.63-.21-5.66,11.53-.61h7.17s-.65,12.92-.65,12.92l1.11,9.97-.12,1.85-9.35.74-5.66-1.23"/>
        <path id="path70" class="cls-4" d="m71.39,69.81s-.62,12.8,1.23,21.91c0,0-3.69,2.34-9.11,2.95l10.34-.37,1.23-.74-1.48-20.18-.37-4.31"/>
        <path id="path72" class="cls-2" d="m78.86,80.15l4.8-1.35,9.11-.49,1.35-4.18-2.46-7.26-2.83-.37-3.94,1.23-3.78,1.84-2.01-.37-1.56.61"/>
        <path id="path74" class="cls-4" d="m78.77,77.69s3.2-1.48,3.69-1.35l-1.35-6.77,1.6-.62s1.11,6.4,1.11,7.14c0,0,6.89.37,7.51.37,0,0,1.48-2.83,1.11-5.78l1.35,3.94.12,2.22-1.97,2.95-2.22.49-3.69-.12-1.23-1.6-4.31.62-1.35.49"/>
        <path id="path76" class="cls-1" d="m73.94,68.95l-2.71-6.89-2.83-4.06s.62-1.72,1.48-1.72h2.83l2.71.98-.25,4.55-1.23,7.14"/>
        <path id="path78" class="cls-4" d="m74.46,66.61s-3.45-6.65-3.45-7.63c0,0,.62-1.48,1.48-1.11s2.71,1.35,2.71,1.35v-2.34l-4.18-.86-2.83.37,4.8,11.32.98.12"/>
        <path id="path80" class="cls-1" d="m59.41,50.37l-3.41-.37-3.2-.98v1.11l1.56,1.72,4.92,2.22"/>
        <path id="path82" class="cls-4" d="m53.91,50.73s3.82,1.6,5.05,1.23l.12,1.48-3.45-.74-2.09-1.48.37-.49"/>
        <path id="path84" class="cls-7" d="m78.85,56.69c-2.09-.06-3.97-.31-5.63-.78.11-.68-.1-1.34.07-1.83.46-.33,1.23-.33,1.93-.4-.6-.3-1.45-.41-2.14-.24-.02-.47-.23-.76-.35-1.13,1.17-.42,3.95-3.17,5.5-2.26.74.43,1.06,2.9,1.12,4.11.05,1-.09,2-.5,2.53"/>
        <path id="path86" class="cls-17" d="m78.85,56.69c-2.09-.06-3.97-.31-5.63-.78.11-.68-.1-1.34.07-1.83.46-.33,1.23-.33,1.93-.4-.6-.3-1.45-.41-2.14-.24-.02-.47-.23-.76-.35-1.13,1.17-.42,3.95-3.17,5.5-2.26.74.43,1.06,2.9,1.12,4.11.05,1-.09,2-.5,2.53Z"/>
        <path id="path88" class="cls-7" d="m68.86,53.28c0,.16-.01.32-.02.48-.65.43-1.7.42-2.42.78,1.05.05,1.89.3,2.6.66-.02.4-.03.8-.05,1.19-1.2.82-2.29,2.04-3.69,2.8-.67.36-3,1.3-3.71,1.13-.4-.09-.44-.59-.6-1.06-.34-1-1.13-2.6-1.19-4.11-.09-1.91-.28-5.1,1.78-4.71,1.66.32,3.59,1.08,4.87,1.78.78.43,1.24.96,2.43,1.05"/>
        <path id="path90" class="cls-17" d="m68.86,53.28c0,.16-.01.32-.02.48-.65.43-1.7.42-2.42.78,1.05.05,1.89.3,2.6.66-.02.4-.03.8-.05,1.19-1.2.82-2.29,2.04-3.69,2.8-.67.36-3,1.3-3.71,1.13-.4-.09-.44-.59-.6-1.06-.34-1-1.13-2.6-1.19-4.11-.09-1.91-.28-5.1,1.78-4.71,1.66.32,3.59,1.08,4.87,1.78.78.43,1.24.96,2.43,1.05Z"/>
        <path id="path92" class="cls-7" d="m70.05,55.55c-.18-1.04-.39-1.34-.31-2.24,2.77-1.85,3.29,3.17.31,2.24"/>
        <path id="path94" class="cls-17" d="m70.05,55.55c-.18-1.04-.39-1.34-.31-2.24,2.77-1.85,3.29,3.17.31,2.24Z"/>
        <path id="path96" class="cls-3" d="m74.06,56.4s-.86-1.23-.25-1.6,1.23,0,1.6-.62,0-.98.12-1.72.74-.86,1.35-.98,2.34-.37,2.58.25l-.74-2.22-1.48-.49-4.68,2.71-.25,1.35v2.71"/>
        <path id="path98" class="cls-3" d="m61.14,60.46c-.15-1.92-.3-3.84-.48-5.76-.26-2.87.69-2.37,3.17-2.37.38,0,2.34.45,2.48.74.67,1.37-1.12,1.07.77,2.1,1.6.87,4.43-.53,3.78-2.47-.36-.43-1.89-.13-2.43-.42-.96-.5-1.92-1-2.88-1.5-1.22-.63-4.05-1.56-5.35-.67-3.3,2.25.21,7.86,1.39,10.21"/>
        <path id="path100" class="cls-8" d="m64.37,16.85c-3.35-.78-5.02,1.4-6.04,3.67-.91-.22-.55-1.45-.32-2.08.6-1.65,3.02-3.85,5-3.55.85.13,2,.91,1.36,1.96"/>
        <path id="path102" class="cls-8" d="m80.72,20.67c.05,0,.11,0,.16,0,.76,1.57,1.41,3.24,2.37,4.63-.64,1.49-4.85,2.81-4.79.13.91-.4,2.48-.08,3.29-.59-.47-1.28-1.14-2.37-1.03-4.18"/>
        <path id="path104" class="cls-8" d="m66.09,20.71c.72,1.32.95,2.7,1.98,3.7.46.45,1.36,1,.91,2.24-.1.29-.86.95-1.3,1.08-1.6.47-5.32.1-4.06-1.9,1.32.06,3.1.86,4.09-.1-.76-1.21-2.11-3.61-1.61-5.03"/>
        <path id="path106" class="cls-8" d="m80.12,34.11c-2.41,1.55-5.09,3.23-9.03,2.84-.84-.73-1.16-2.36-.35-3.44.43.73.16,2.08,1.35,2.28,2.24.38,4.84-1.37,6.45-1.98,1-1.68-.09-2.3-.99-3.38-1.84-2.22-4.31-4.97-4.22-8.29.74-.54.81.82.91,1.07.96,2.25,3.38,5.13,5.14,7.05.43.47,1.15.93,1.23,1.24.23.91-.6,2-.5,2.61"/>
        <path id="path108" class="cls-8" d="m48.39,32.49c-.75-.43-.93-2.33-1.82-2.38-1.27-.08-1.03,2.46-1.03,3.94-.87-.79-1.02-3.23-.38-4.48-.73-.36-1.05.4-1.46.66.52-3.78,5.53-1.75,4.69,2.25"/>
        <path id="path110" class="cls-8" d="m81.65,35.69c-1.12,2.13-2.7,4.48-5.99,4.55-.07-.69-.12-1.74,0-2.15,2.51-.24,4.06-1.52,5.99-2.4"/>
        <path id="path112" class="cls-8" d="m65.9,37.07c2.1,1.1,5.95,1.22,8.8,1.14.15.62.15,1.4.16,2.16-3.66.18-7.99-.72-8.95-3.29"/>
        <path id="path114" class="cls-8" d="m65.5,39.13c1.45,3.64,6.43,3.22,10.63,3.12-.18.47-.59,1.03-1.08,1.23-1.35.55-5.06.96-6.93-.03-1.19-.63-1.95-2.05-2.6-2.89-.31-.4-1.88-1.43-.02-1.44"/>
        <path id="path116" class="cls-10" d="m79.94,59.2c-1.7,2.91-3.33,5.91-5.35,8.48.85-2.49,1.21-6.65,1.34-9.83,1.77-.83,3.29.19,4.01,1.35"/>
        <path id="path118" class="cls-8" d="m89.1,69.68c-1.9.38-3.24,2.23-5.1,2.11,1.02-1.44,2.81-2.05,5.1-2.11"/>
        <path id="path120" class="cls-8" d="m89.94,72.66c-1.55.16-3.38.42-4.95.29.75-1.14,3.62-.75,4.95-.29"/>
        <path id="path122" class="cls-8" d="m90.48,75.23c-1.74.04-3.91,0-5.57-.14.98-1.05,4.44-.39,5.57.14"/>
        <path id="path124" class="cls-4" d="m76.66,82.26c.25,2.19,1.12,4.41,1.01,6.81-.96.33-1.52.61-2.81.61-.09-2.04-.36-5.16-.28-7.1.64.04,1.57-.45,2.08-.32"/>
        <path id="path126" class="cls-12" d="m73.85,49.97c-.88.57-1.62,1.29-2.46,1.9-1.87.09-2.88-.13-4.26-1.2.02-.09.16-.05.17-.15,2,.89,4.54-.36,6.55-.54"/>
        <path id="path128" class="cls-10" d="m63.36,63.58c.55-2.38,2.7-3.61,4.65-4.92,2.02,2.56,3.24,5.85,4.59,9.02-3.19-.96-6.45-2.52-9.24-4.1"/>
        <path id="path130" class="cls-8" d="m74.58,82.58c-.08,1.94.19,5.06.28,7.1,1.29,0,1.85-.28,2.81-.61.11-2.4-.76-4.62-1.01-6.81-.51-.14-1.45.36-2.08.32Zm-20.13-11.06c.85,7.84,2.09,14.42,4.35,21.36,5.03,1.53,11.08,1.66,15.53.28-.82-3.92-.46-8.68-.94-12.86-.36-3.14-.18-6.3-.67-9.51-5.38-1.12-12.99-.26-18.27.73Zm19.54-.68c-.05,3.37.15,6.68.41,10.05,1.29-.19,2.17-.32,3.37-.59-.39-3.24-.34-6.89-1.14-9.76-.92,0-1.73-.01-2.64.3Zm6.56-.54c-.61-.14-1.33,0-1.91,0,.28,2.74.94,5.77,1.18,8.65.92.03,1.41-.41,2.17-.55.04-2.53-.22-6.01-1.44-8.1h0Zm9.93,9.07c1.92-.47,3.13-2.82,2.59-5.24-.36-1.62-1-4.68-1.69-5.72-.51-.77-1.89-1.78-2.99-1.07-1.79,1.15-4.94,1.48-6.25,2.87.65,2.18.86,5.17,1.13,7.93,2.24.14,4.99-.62,6.84.19-1.3.42-2.98.42-4.1,1.04.92.44,3.06.35,4.46.01h0Zm-17.87-11.69c-1.35-3.17-2.58-6.46-4.59-9.02-1.95,1.31-4.1,2.54-4.65,4.92,2.8,1.58,6.05,3.14,9.24,4.1Zm3.33-9.83c-.13,3.17-.49,7.34-1.34,9.83,2.02-2.57,3.65-5.56,5.35-8.48-.73-1.16-2.24-2.18-4.01-1.35Zm-3.77-1.34c-.76-.08-1.41.88-2.41.46-.23.25-.43.52-.67.77,2.2,2.65,3.19,6.4,4.89,9.51.91-2.99.81-6.26,1.01-9.52-1.25.08-1.94-1.13-2.82-1.22Zm-2.43-3.2c-.08.91.13,1.2.31,2.24,2.98.93,2.46-4.09-.31-2.24Zm-3.3-1.08c-1.28-.7-3.21-1.47-4.87-1.78-2.06-.39-1.86,2.8-1.78,4.71.07,1.51.85,3.11,1.19,4.11.16.47.2.97.6,1.06.71.16,3.04-.77,3.71-1.13,1.41-.77,2.5-1.99,3.69-2.8.02-.4.03-.8.05-1.19-.72-.36-1.55-.61-2.6-.66.72-.36,1.77-.35,2.42-.78,0-.16.01-.32.02-.48-1.19-.09-1.64-.62-2.43-1.05Zm-12.26-2.23c-1.07,1.08,2.99,2.56,4.28,2.64,0-.68.39-1.33.31-1.82-1.53-.27-3.55-.09-4.59-.81Zm13.13.51c0,.11-.14.07-.17.15,1.37,1.07,2.39,1.29,4.26,1.2.84-.61,1.59-1.32,2.46-1.9-2.02.18-4.56,1.43-6.55.54Zm12.05,3.65c-.06-1.2-.37-3.67-1.12-4.11-1.56-.91-4.33,1.84-5.5,2.26.13.37.34.66.35,1.13.69-.17,1.54-.05,2.14.24-.7.08-1.47.07-1.93.4-.17.49.04,1.15-.07,1.83,1.65.47,3.54.71,5.63.78.41-.53.54-1.53.5-2.53Zm-26.97-3.11c-.33-.24-2.6-3.18-2.91-3.06-4.1,1.62-7.93,4.41-11.35,7.05,3.26,7,4.58,15.58,4.81,23.85,3.74,1.75,7.02,4.27,12.09,4.53-.59-4.15-1.12-7.86-1.46-11.77-1.27-.54-3.1.02-4.3-.17-.01-1.44,1.82-.63,1.97-1.6.11-.73-1.01-.79-.64-1.94.93.34,1.42,1.09,2.42,1.37.91-1.99-.01-5.5.12-7.17.02-.31.16-1.73.85-1.48.62.22-.04,3.77.03,5.34.06,1.45-.17,2.85.41,3.76,4.9-.67,9.88-1.1,15.19-1.24-1.17-.5-2.55-.97-4.07-1.83-.82-.46-3.42-1.43-3.66-2.21-.38-1.25,1-1.91,1.23-2.98-2.47,1.35-2.96-1.29-3.54-3.17-.53-1.7-.83-2.96-.96-3.94-2.13-1.02-4.41-2.05-6.24-3.35h0Zm24.8-2.71c3.41-1.65,4.03,6.18,2.69,8.71.21.75.92,1.04,1.21,1.72-1.9,3.41-4.02,6.6-5.96,9.97,1.45-.9,3.51-.16,5.21-.83.62-.25,1.07-1.67,1.54-2.81,1.29-3.13,2.65-7.08,3.26-10.07.14-.68.51-2.17.43-2.77-.15-1.09-1.62-1.89-2.37-2.56-1.38-1.24-2.25-2.33-3.69-3.49-.58.86-1.84,1.44-2.31,2.14h0Zm-32.61-30.26c-1.63,1.79-1.29,5.14-1.09,7.53,2.94-1.85,6.84.15,6.8,3.29,1.4-.04.52-1.75.27-2.86-.83-3.61,1.4-7.53.1-10.83-2.52.19-4.59,1.22-6.09,2.87h0Zm11.63-10.38c-3.68,1.04-8.4,3.72-9.91,7.03,1.17-.17,1.98-.76,3.14-.83.44-.03,1.01.18,1.51.06,1-.25,1.84-2.49,2.6-3.33.74-.81,1.62-1.16,2.22-1.91.39-.19.96-.17.99-.76-.17-.18-.35-.32-.55-.26Zm19.16.98c-3.82-2.16-10.29-3.78-14.35-1.75-3.28,1.64-7.71,4.34-9.22,7.77,1.41,3.31-.42,6.34-.54,9.7-.06,1.79.84,3.35.91,5.29-.48.8-1.96.9-2.98.84-.34-1.72-.95-3.66-2.72-3.85-2.51-.27-4.34,1.8-4.46,3.97-.13,2.55,1.96,6.78,4.93,6.49,1.15-.11,1.43-1.26,2.68-1.25.68,1.35-1.04,1.78-1.22,2.74-.05.25.14,1.23.25,1.68.54,2.23,1.74,5.11,2.92,6.81,1.5,2.15,4.45,2.48,7.62,2.69.57-1.22,2.65-1.12,4.02-.8-1.63-.65-3.15-2.21-4.4-3.6-1.44-1.59-2.9-3.3-2.98-5.37,2.73,3.78,4.98,7.09,9.94,8.75,3.75,1.26,8.13-.58,11.02-2.6,1.2-.84,1.91-2.18,2.76-3.4,3.18-4.58,4.67-11.11,4.34-17.44-.13-2.61-.13-5.21-1-6.97-.92-1.84-4.01-3.48-5.83-1.82-.34-1.79,1.51-2.89,3.67-2.25-1.54-1.99-3.16-4.39-5.36-5.63h0Zm7.12,58.91c2.99-1.48,8.56-4,10.44,0,.69,1.47,1.5,3.97,1.86,5.49.51,2.15-.55,6.66-2.76,7.38-1.95.64-4.22.6-6.57.13-.28-.23-.58-.63-.8-1.05-1.68-.07-3.25.09-4.57.78.13,1.24-.71,1.44-1.5,1.69-.58,2.31,1.17,5.33.75,7.44-.3,1.5-2.15,1.73-3.5,2.01-.04.83.06,1.53.15,2.24-.31,1.14-1.7,1.8-3.02,1.95-4.34.52-10.93.76-15.11-.75-1.17-2.86-2.08-6.33-3.05-9.6-4.07.43-7.37-1.76-10.47-3.19-1.08-.5-2.56-.77-2.96-1.63-.39-.83-.23-2.42-.33-3.92-.25-3.83-.46-7.53-1.47-11.45-.45-1.76-1.25-3.31-1.8-5.01-.51-1.57-1.4-3.51-1.64-5.08-.34-2.32,1.84-2.45,3.24-3.46,2.16-1.56,3.86-2.42,6.2-3.82.69-.42,2.79-1.47,3.02-1.95.47-.96-.81-2.32-1.16-3.07-.54-1.19-.83-2.2-.9-3.38-1.96-.31-3.45-1.48-4.35-2.8-1.49-2.18-2.52-6.22-1.23-9.29.1-.24.6-.72.68-1.09.15-.73-.28-1.7-.3-2.48-.14-3.99.68-7.43,3.36-8.63,1.09-4.35,4.99-5.79,8.67-7.95,1.37-.81,2.89-1.32,4.46-1.9,5.61-2.07,14.23-1.68,18.89,1.85,1.98,1.49,5.13,4.65,6.26,6.93,2.98,6.03,2.77,16.11.68,23.45-.28.99-.69,2.43-1.26,3.62-.4.83-1.63,2.48-1.48,3.21.15.75,2.81,2.77,3.38,3.32,1.02.99,2.97,2.3,3.13,3.55.17,1.33-.58,3.14-.97,4.42-1.28,4.27-2.52,8.23-3.97,12.04"/>
        <path id="path132" class="cls-11" d="m62.57,38c.16-.22,1.05-.54,2.3.06,0,0-1.48.25-1.35,2.71l-.62-.12s-.64-2.23-.33-2.64"/>
        <path id="path134" class="cls-9" d="m73.36,59.16c0,.37-.3.68-.68.68s-.68-.3-.68-.68.3-.68.68-.68.68.3.68.68"/>
        <path id="path136" class="cls-9" d="m74.03,62.3c0,.37-.3.68-.68.68s-.68-.3-.68-.68.3-.68.68-.68.68.3.68.68"/>
      </g>
    </g>
  </g>
</svg>