<?xml version="1.0" encoding="UTF-8"?>
<svg id="Layer_2" data-name="Layer 2" xmlns="http://www.w3.org/2000/svg" viewBox="0 0 130 100">
  <defs>
    <style>
      .cls-1 {
        fill: #115b98;
      }

      .cls-2 {
        fill: #fe9305;
      }
    </style>
  </defs>
  <g id="Layer_1-2" data-name="Layer 1">
    <g>
      <g id="layer1">
        <path id="path3" class="cls-1" d="m106.46,69.17c-.24-.44-.23-1.6.02-2.14.21-.46.63-.64,2.24-.96,17.71-3.5,21.02-23.89,6.2-38.25-2.96-2.87-6.09-5.15-6.06-4.41,0,.02.12.43.27.9,1.74,5.62-.76,10.53-6.06,11.9-3.45.89-5.37,2.5-7.07,5.93-.99,1.99-2.16,2.41-3.37,1.2-.5-.5-.52-.46.8-2.99,2.15-4.12,4.55-6.1,8.55-7.05,5.03-1.19,5.8-5.46,2.48-13.76-1.6-4-.69-3.92,5.86.54,23.32,15.88,22.75,44.09-.98,48.99-2.52.52-2.65.53-2.87.1h0Zm-102.37-.82c-.32-.16-.8-.59-1.07-.97l-.49-.68v-17.1h6v8.15c0,10.16-1.09,8.83,7.29,8.83h6.6v2.06h-8.87c-7.93,0-8.94-.04-9.45-.29h0Zm22.62-9.31v-9.6h18.14l.92.48c.57.3,1.11.76,1.43,1.22l.52.74.05,8.39.05,8.39h-5.84v-7.03h-9.78v7.03h-5.49v-9.6Zm15.23-2.9c-.07-4.79.11-4.64-5.93-4.64h-3.82s0,3.91,0,3.91c0,4.71-.69,4.14,5.01,4.14h4.78l-.05-3.42Zm39.82,2.9v-9.6h18.12l.93.47c.61.31,1.11.73,1.45,1.21l.52.74.05,3.16c.09,5.11.19,5.05-8.52,5.05h-6.2v8.57h-6.35v-9.6Zm13.56-1.2c1.13-.31,1.42-.82,1.5-2.62.15-3.46-.06-3.62-5.07-3.7l-3.64-.06v6.55h3.3c1.82,0,3.58-.08,3.91-.17h0Z"/>
      </g>
      <path class="cls-2" d="m51.4,59.04v-9.61l11.79.05c13.07.05,12.06-.04,13.27,1.15,1.04,1.02,1.01.78,1.01,9.78v8.24h-5.66v-7.47c0-9.35-.07-9.57-3.08-9.59h-1.3s-.04,8.52-.04,8.52l-.04,8.53h-5.82l-.04-8.53-.04-8.53h-4.29l-.04,8.53-.04,8.53h-5.66v-9.61Z"/>
      <path class="cls-2" d="m105.49,62.28c.81-2.87.81-10.28,0-12.53-.65-1.81-2.25-3.07-4.78-3.76-2.07-.56-2.18-.8-1.25-2.68.96-1.95,2.09-2.99,3.5-3.23,2.62-.45,6.33-2.4,7.23-3.81.17-.26.35-.52.4-.56.52-.45,1.71-2.48,2.04-3.47.65-1.97,5.1,3.63,6.71,8.43,3.83,11.43-1.63,20.8-12.76,21.9l-1.18.12.12-.41Z"/>
    </g>
  </g>
</svg>