<?xml version="1.0" encoding="utf-8"?>
<!-- Generator: Adobe Illustrator 27.4.1, SVG Export Plug-In . SVG Version: 6.00 Build 0)  -->
<svg version="1.1" id="Layer_1" xmlns="http://www.w3.org/2000/svg" xmlns:xlink="http://www.w3.org/1999/xlink" x="0px" y="0px"
	 viewBox="0 0 140 140" style="enable-background:new 0 0 140 140;" xml:space="preserve">
<style type="text/css">
	.st0{clip-path:url(#SVGID_00000004511796996402399980000012473707334321779632_);fill-rule:evenodd;clip-rule:evenodd;}
	.st1{clip-path:url(#SVGID_00000004511796996402399980000012473707334321779632_);fill:#45A1FC;}
	.st2{clip-path:url(#SVGID_00000004511796996402399980000012473707334321779632_);}
</style>
<g>
	<defs>
		<rect id="SVGID_1_" width="140" height="140"/>
	</defs>
	<clipPath id="SVGID_00000102545276520253924170000007699666595989993124_">
		<use xlink:href="#SVGID_1_"  style="overflow:visible;"/>
	</clipPath>
	
		<path style="clip-path:url(#SVGID_00000102545276520253924170000007699666595989993124_);fill-rule:evenodd;clip-rule:evenodd;" d="
		M37.4,30.9h8.3c3.5,0,6.2,2.8,6.2,6.2v24.3h16.3v8.8H49.4c-3.5,0-6.2-2.8-6.2-6.3V39.7h-5.8L37.4,30.9z M100.9,37.2v6.5h-8.8v-4
		h-6.9v30.5h-8.8V39.7h-6.9v4h-8.8v-6.5c0-3.5,2.8-6.2,6.2-6.2h27.5C98.1,30.9,100.9,33.7,100.9,37.2z"/>
	<path style="clip-path:url(#SVGID_00000102545276520253924170000007699666595989993124_);fill:#45A1FC;" d="M33.3,93.7l-8.1-5.8
		c2.4-3.3,4.9-5.9,7.5-7.8c2.9-2,5.9-3.1,9.1-3.1c2.9,0,5.5,0.7,7.8,2.1c0.9,0.6,1.8,1.2,2.6,1.9c0.6,0.5,1,0.9,1.9,1.8
		c1.4,1.4,1.9,1.9,2.6,2.3c0.7,0.4,1.5,0.7,2.6,0.7c1.1,0,1.9-0.2,2.6-0.7c0.7-0.4,1.2-0.9,2.6-2.3l0,0c0.9-0.9,1.3-1.3,1.9-1.8
		c0.8-0.7,1.7-1.4,2.6-1.9c2.3-1.4,4.8-2.1,7.7-2.1s5.5,0.7,7.7,2.1c0.9,0.6,1.8,1.2,2.6,1.9c0.6,0.5,1,0.9,1.9,1.8l0,0
		c1.4,1.4,1.9,1.9,2.6,2.3c0.7,0.4,1.5,0.7,2.6,0.7c1,0,2.1-0.4,3.4-1.3c1.6-1.1,3.3-2.9,5-5.4l8.1,5.8c-2.4,3.3-4.9,5.9-7.5,7.8
		c-2.9,2-5.9,3.1-9.1,3.1c-2.9,0-5.5-0.7-7.8-2.1c-0.9-0.6-1.8-1.2-2.6-1.9c-0.6-0.5-1-0.9-1.9-1.8l0,0c-1.4-1.3-1.9-1.8-2.6-2.2
		c-0.7-0.4-1.5-0.7-2.6-0.7s-1.9,0.2-2.6,0.7c-0.7,0.4-1.2,0.9-2.6,2.2l0,0c-0.9,0.9-1.3,1.3-1.9,1.8c-0.9,0.8-1.7,1.4-2.6,1.9
		c-2.3,1.4-4.8,2.1-7.8,2.1s-5.5-0.7-7.8-2.1c-0.9-0.6-1.8-1.2-2.6-1.9c-0.6-0.5-1-0.9-1.9-1.8c-1.4-1.4-1.9-1.9-2.6-2.3
		c-0.7-0.4-1.5-0.7-2.6-0.7c-1,0-2.1,0.4-3.4,1.3C36.8,89.4,35.1,91.2,33.3,93.7z"/>
	<g style="clip-path:url(#SVGID_00000102545276520253924170000007699666595989993124_);">
		<path d="M17,115.4H8.4v-13.6h2.7v11.4H17V115.4z"/>
		<path d="M22.5,104.8c0.9,0,1.6,0.1,2.1,0.3c0.6,0.2,1,0.5,1.4,0.8c0.3,0.4,0.6,0.8,0.7,1.3c0.1,0.5,0.2,1.1,0.2,1.8v6.2
			c-0.4,0.1-1,0.2-1.8,0.3c-0.8,0.1-1.7,0.2-2.6,0.2c-0.7,0-1.3-0.1-1.8-0.2c-0.5-0.1-1-0.3-1.4-0.6c-0.4-0.3-0.7-0.6-0.9-1.1
			s-0.3-1-0.3-1.6c0-0.6,0.1-1.1,0.4-1.5c0.2-0.4,0.6-0.7,0.9-1c0.4-0.2,0.9-0.4,1.4-0.5c0.5-0.1,1.1-0.2,1.6-0.2
			c0.7,0,1.3,0.1,1.9,0.2v-0.3c0-0.5-0.2-0.9-0.5-1.3c-0.3-0.3-0.9-0.5-1.7-0.5c-0.5,0-1,0-1.5,0.1c-0.5,0.1-0.9,0.2-1.2,0.3
			l-0.4-2.2c0.3-0.1,0.8-0.2,1.4-0.3C21.2,104.9,21.8,104.8,22.5,104.8z M22.7,113.5c0.3,0,0.6,0,0.9,0c0.3,0,0.5,0,0.7-0.1V111
			c-0.2,0-0.4-0.1-0.6-0.1c-0.2,0-0.5,0-0.7,0c-0.3,0-0.6,0-0.8,0.1c-0.3,0-0.5,0.1-0.7,0.2c-0.2,0.1-0.4,0.2-0.5,0.4
			c-0.1,0.2-0.2,0.4-0.2,0.6c0,0.5,0.2,0.8,0.5,1S22.2,113.5,22.7,113.5z"/>
		<path d="M28.9,105.4c0.5-0.1,1.1-0.3,1.8-0.4c0.7-0.1,1.5-0.2,2.3-0.2c0.8,0,1.5,0.1,2,0.3s1,0.6,1.3,1c0.3,0.4,0.5,0.9,0.7,1.5
			s0.2,1.2,0.2,1.9v5.8h-2.7v-5.5c0-1-0.1-1.7-0.3-2.1s-0.7-0.6-1.3-0.6c-0.2,0-0.4,0-0.6,0s-0.4,0-0.6,0.1v8.1h-2.7V105.4z"/>
		<path d="M47.5,114.2c0,1.7-0.4,2.9-1.2,3.7c-0.8,0.8-2.1,1.2-3.9,1.2c-0.6,0-1.3-0.1-1.9-0.2c-0.6-0.1-1.2-0.3-1.7-0.5l0.5-2.3
			c0.4,0.2,0.9,0.3,1.3,0.5s1.1,0.2,1.8,0.2c0.5,0,0.9-0.1,1.2-0.2c0.3-0.1,0.6-0.3,0.7-0.5c0.2-0.2,0.3-0.4,0.4-0.7
			c0.1-0.3,0.1-0.5,0.1-0.8v-0.4c-0.4,0.1-0.7,0.3-1,0.3c-0.3,0.1-0.7,0.1-1,0.1c-1.4,0-2.4-0.4-3.1-1.3s-1-2-1-3.5
			c0-1.7,0.5-3,1.4-3.8c0.9-0.8,2.2-1.3,3.8-1.3c1.1,0,2.4,0.2,3.7,0.6V114.2z M41.4,109.9c0,0.9,0.2,1.5,0.5,2s0.8,0.7,1.5,0.7
			c0.3,0,0.6,0,0.8-0.1c0.3-0.1,0.5-0.2,0.7-0.3v-5c-0.2,0-0.4-0.1-0.6-0.1s-0.3,0-0.5,0C42.2,107.1,41.4,108,41.4,109.9z"/>
		<path d="M57.9,115.1c-0.5,0.1-1.1,0.3-1.8,0.4c-0.7,0.1-1.5,0.2-2.3,0.2c-0.9,0-1.5-0.1-2.1-0.4c-0.5-0.2-1-0.6-1.3-1
			c-0.3-0.4-0.5-0.9-0.6-1.5c-0.1-0.6-0.2-1.2-0.2-1.9v-5.8h2.7v5.4c0,1,0.1,1.7,0.3,2.1c0.2,0.5,0.7,0.7,1.3,0.7
			c0.4,0,0.8,0,1.2-0.1v-8.1h2.7V115.1z"/>
		<path d="M63.9,104.8c0.9,0,1.6,0.1,2.1,0.3c0.6,0.2,1,0.5,1.4,0.8c0.3,0.4,0.6,0.8,0.7,1.3s0.2,1.1,0.2,1.8v6.2
			c-0.4,0.1-1,0.2-1.8,0.3c-0.8,0.1-1.7,0.2-2.6,0.2c-0.7,0-1.3-0.1-1.8-0.2c-0.5-0.1-1-0.3-1.4-0.6c-0.4-0.3-0.7-0.6-0.9-1.1
			s-0.3-1-0.3-1.6c0-0.6,0.1-1.1,0.4-1.5c0.2-0.4,0.6-0.7,0.9-1c0.4-0.2,0.9-0.4,1.4-0.5c0.5-0.1,1.1-0.2,1.6-0.2
			c0.7,0,1.3,0.1,1.9,0.2v-0.3c0-0.5-0.2-0.9-0.5-1.3c-0.3-0.3-0.9-0.5-1.7-0.5c-0.5,0-1,0-1.5,0.1c-0.5,0.1-0.9,0.2-1.2,0.3
			l-0.4-2.2c0.3-0.1,0.8-0.2,1.4-0.3C62.6,104.9,63.2,104.8,63.9,104.8z M64.1,113.5c0.3,0,0.6,0,0.9,0c0.3,0,0.5,0,0.7-0.1V111
			c-0.2,0-0.4-0.1-0.6-0.1c-0.2,0-0.5,0-0.7,0c-0.3,0-0.6,0-0.8,0.1c-0.3,0-0.5,0.1-0.7,0.2c-0.2,0.1-0.4,0.2-0.5,0.4
			c-0.1,0.2-0.2,0.4-0.2,0.6c0,0.5,0.2,0.8,0.5,1S63.6,113.5,64.1,113.5z"/>
		<path d="M78.6,114.2c0,1.7-0.4,2.9-1.2,3.7c-0.8,0.8-2.1,1.2-3.9,1.2c-0.6,0-1.3-0.1-1.9-0.2c-0.6-0.1-1.2-0.3-1.7-0.5l0.5-2.3
			c0.4,0.2,0.9,0.3,1.3,0.5s1.1,0.2,1.8,0.2c0.5,0,0.9-0.1,1.2-0.2s0.6-0.3,0.7-0.5c0.2-0.2,0.3-0.4,0.4-0.7
			c0.1-0.3,0.1-0.5,0.1-0.8v-0.4c-0.4,0.1-0.7,0.3-1,0.3c-0.3,0.1-0.7,0.1-1,0.1c-1.4,0-2.4-0.4-3.1-1.3c-0.7-0.9-1-2-1-3.5
			c0-1.7,0.5-3,1.4-3.8c0.9-0.8,2.2-1.3,3.8-1.3c1.1,0,2.4,0.2,3.7,0.6V114.2z M72.4,109.9c0,0.9,0.2,1.5,0.5,2s0.8,0.7,1.5,0.7
			c0.3,0,0.6,0,0.8-0.1c0.3-0.1,0.5-0.2,0.7-0.3v-5c-0.2,0-0.4-0.1-0.6-0.1c-0.2,0-0.3,0-0.5,0C73.2,107.1,72.4,108,72.4,109.9z"/>
		<path d="M80,110.3c0-0.9,0.1-1.7,0.4-2.4s0.6-1.3,1.1-1.7c0.5-0.5,1-0.8,1.6-1c0.6-0.2,1.2-0.4,1.8-0.4c1.5,0,2.7,0.5,3.5,1.4
			c0.8,0.9,1.2,2.2,1.2,4c0,0.2,0,0.4,0,0.6c0,0.2,0,0.3,0,0.5h-6.7c0,0.7,0.3,1.2,0.8,1.6c0.6,0.4,1.3,0.6,2.2,0.6
			c0.5,0,1.1-0.1,1.6-0.2c0.5-0.1,0.9-0.2,1.2-0.4l0.4,2.3c-0.5,0.2-1,0.3-1.5,0.4c-0.5,0.1-1.1,0.2-1.8,0.2c-0.9,0-1.7-0.1-2.4-0.3
			c-0.7-0.2-1.3-0.6-1.8-1c-0.5-0.4-0.9-1-1.1-1.7C80.1,112,80,111.2,80,110.3z M86.9,109.3c0-0.3,0-0.5-0.1-0.8
			c-0.1-0.3-0.2-0.5-0.4-0.7c-0.2-0.2-0.4-0.4-0.6-0.5c-0.2-0.1-0.6-0.2-0.9-0.2c-0.4,0-0.7,0.1-0.9,0.2c-0.3,0.1-0.5,0.3-0.6,0.5
			c-0.2,0.2-0.3,0.4-0.4,0.7s-0.2,0.5-0.2,0.8H86.9z"/>
		<path d="M103.5,101.8v2.2h-3.6v11.4h-2.7V104h-3.6v-2.2H103.5z"/>
		<path d="M113.7,110.2c0,0.8-0.1,1.6-0.4,2.2c-0.2,0.7-0.6,1.2-1,1.7c-0.4,0.5-0.9,0.9-1.5,1.1s-1.3,0.4-2,0.4
			c-0.7,0-1.4-0.1-2-0.4c-0.6-0.3-1.1-0.6-1.5-1.1c-0.4-0.5-0.8-1.1-1-1.7c-0.2-0.7-0.4-1.4-0.4-2.2c0-0.8,0.1-1.5,0.4-2.2
			c0.2-0.7,0.6-1.2,1-1.7c0.4-0.5,1-0.8,1.6-1.1s1.3-0.4,2-0.4c0.7,0,1.4,0.1,2,0.4s1.1,0.6,1.5,1.1c0.4,0.5,0.8,1.1,1,1.7
			C113.6,108.7,113.7,109.4,113.7,110.2z M106.7,110.3c0,0.9,0.2,1.7,0.5,2.2c0.3,0.6,0.9,0.9,1.6,0.9c0.7,0,1.2-0.3,1.6-0.9
			c0.4-0.6,0.5-1.3,0.5-2.2c0-0.9-0.2-1.7-0.5-2.2c-0.3-0.6-0.9-0.8-1.6-0.8c-0.7,0-1.2,0.3-1.6,0.8
			C106.9,108.6,106.7,109.3,106.7,110.3z"/>
		<path d="M124.1,110.2c0,0.8-0.1,1.6-0.4,2.2c-0.2,0.7-0.6,1.2-1,1.7c-0.4,0.5-0.9,0.9-1.5,1.1s-1.3,0.4-2,0.4
			c-0.7,0-1.4-0.1-2-0.4c-0.6-0.3-1.1-0.6-1.5-1.1c-0.4-0.5-0.8-1.1-1-1.7c-0.2-0.7-0.4-1.4-0.4-2.2c0-0.8,0.1-1.5,0.4-2.2
			c0.2-0.7,0.6-1.2,1-1.7c0.4-0.5,1-0.8,1.6-1.1s1.3-0.4,2-0.4c0.7,0,1.4,0.1,2,0.4s1.1,0.6,1.5,1.1c0.4,0.5,0.8,1.1,1,1.7
			C124,108.7,124.1,109.4,124.1,110.2z M117.1,110.3c0,0.9,0.2,1.7,0.5,2.2c0.3,0.6,0.9,0.9,1.6,0.9c0.7,0,1.2-0.3,1.6-0.9
			c0.4-0.6,0.5-1.3,0.5-2.2c0-0.9-0.2-1.7-0.5-2.2c-0.3-0.6-0.9-0.8-1.6-0.8c-0.7,0-1.2,0.3-1.6,0.8
			C117.3,108.6,117.1,109.3,117.1,110.3z"/>
		<path d="M134.3,115c0,0-0.1,0.1-0.3,0.2s-0.4,0.2-0.6,0.2c-0.2,0.1-0.6,0.2-0.9,0.2c-0.4,0.1-0.8,0.1-1.2,0.1
			c-1.2,0-2.2-0.4-2.7-1.1c-0.6-0.7-0.9-1.8-0.9-3.3v-8.8h-2.9v-2.2h5.6v11.2c0,0.7,0.1,1.2,0.4,1.4c0.3,0.2,0.6,0.4,1.1,0.4
			c0.5,0,1-0.1,1.4-0.2c0.4-0.1,0.6-0.2,0.7-0.3L134.3,115z"/>
	</g>
</g>
</svg>
