<?xml version="1.0" encoding="UTF-8"?>
<svg id="Layer_2" data-name="Layer 2" xmlns="http://www.w3.org/2000/svg" viewBox="0 0 130 100">
  <defs>
    <style>
      .cls-1 {
        font-family: UbuntuMono-Bold, 'Ubuntu Mono';
        font-size: 14.8px;
        font-weight: 700;
      }

      .cls-1, .cls-2 {
        fill: #1565c0;
      }
    </style>
  </defs>
  <g id="Layer_1-2" data-name="Layer 1">
    <g>
      <g>
        <path class="cls-2" d="m43.95,27.59c.84-.4,1.67-.79,2.49-1.2,4.28-2.13,8.41-4.52,12.25-7.39,2.58-1.93,5.05-4,7.2-6.42,2.7-3.03,4.97-6.33,6.42-10.15.22-.59.22-.57.85-.37,1.54.49,3.08.96,4.62,1.44.17.05.33.12.57.21-.42,1.13-.8,2.25-1.26,3.33-.22.51-.2.85.16,1.32,2.34,3.09,5.08,5.77,8.09,8.2,4.77,3.84,10.01,6.94,15.44,9.72,1.05.54,2.11,1.06,3.23,1.62-.27.32-.52.6-.76.9-1,1.23-2.01,2.46-2.99,3.71-.25.31-.42.4-.8.2-3.84-2.05-7.64-4.19-11.27-6.6-3.93-2.61-7.67-5.45-11-8.8-1.23-1.24-2.32-2.62-3.48-3.94-.07-.08-.11-.18-.2-.32-.3.38-.54.66-.77.95-1.89,2.51-4.07,4.75-6.43,6.82-3.94,3.45-8.25,6.35-12.82,8.88-1.64.91-3.3,1.76-4.96,2.62-.13.07-.41.03-.5-.07-1.36-1.49-2.7-3.01-4.05-4.52-.03-.03-.02-.08-.04-.14Z"/>
        <path class="cls-2" d="m28.39,54.79c0-7.97,0-15.94-.01-23.91,0-.45.12-.6.57-.59,1.72.02,3.45.02,5.17,0,.39,0,.48.16.48.51-.01,13.5-.02,27-.02,40.5,0,.67,0,1.35-.02,2.02-.02.41.12.55.54.55,3.66-.01,7.31,0,10.97,0,4.06,0,8.12,0,12.18-.02.46,0,.59.12.58.58-.03,1.42-.01,2.85-.01,4.27q0,.59-.6.59c-6.37,0-12.74,0-19.1,0-3.42,0-6.83,0-10.25.02-.39,0-.48-.13-.48-.49,0-8,0-16,0-24h0Z"/>
        <path class="cls-2" d="m65.18,60.86c.7-.49,1.33-.91,1.94-1.36,3.98-2.97,7.39-6.46,9.87-10.8,1.87-3.27,2.98-6.81,3.64-10.49.4-2.26.68-4.54.96-6.82.13-1.07.16-2.15.2-3.22.01-.37.13-.47.48-.44,1.28.11,2.56.21,3.84.32.43.04.86.1,1.3.11.32,0,.42.12.4.43-.08,1.13-.05,2.28-.24,3.4-.47,2.8-.04,5.44,1,8.07,1.01,2.55,2.14,5.04,3.59,7.37,2.16,3.45,4.83,6.49,7.85,9.2,1.54,1.38,3.16,2.65,4.75,3.98.08.07.15.14.29.26-1.48,1.42-2.95,2.82-4.43,4.24-3.33-2.53-6.29-5.4-8.97-8.57-2.67-3.15-4.75-6.68-6.78-10.39-.21.53-.37.93-.52,1.33-1.07,2.7-2.53,5.18-4.28,7.5-1.95,2.6-4.21,4.91-6.67,7.02-1.09.94-2.24,1.8-3.35,2.71-.27.22-.45.2-.71-.05-1.2-1.13-2.43-2.23-3.65-3.33-.15-.14-.31-.27-.5-.44Z"/>
        <path class="cls-2" d="m60.45,47.19c-3.23,6.99-7.95,12.79-13.53,17.95-1.51-1.34-3.01-2.66-4.56-4.03.35-.33.67-.64.99-.93,3.42-3.09,6.45-6.5,8.92-10.4,2.68-4.24,4.37-8.86,5.33-13.75.36-1.81.67-3.64.97-5.46.13-.81.19-1.63.26-2.45.03-.32.16-.44.49-.4.92.11,1.84.19,2.76.29.8.08,1.6.18,2.41.26.34.03.45.13.39.51-.3,1.88-.51,3.79-.87,5.66-.39,2.05-.91,4.08-1.39,6.11-.09.39-.02.67.3.95,2.69,2.37,5.33,4.78,7.73,7.45.67.74,1.3,1.52,1.96,2.28.25.29.27.47-.06.76-1.35,1.16-2.67,2.36-3.99,3.56-.24.22-.37.22-.56-.04-2.12-2.9-4.56-5.51-7.18-7.96-.1-.09-.2-.17-.38-.33Z"/>
      </g>
      <text class="cls-1" transform="translate(11.67 93.83)"><tspan x="0" y="0">Libre Translate</tspan></text>
    </g>
  </g>
</svg>