<?xml version="1.0" encoding="UTF-8"?>
<svg id="Layer_2" data-name="Layer 2" xmlns="http://www.w3.org/2000/svg" viewBox="0 0 84.37 77.45">
  <defs>
    <style>
      .cls-1 {
        fill: #fff;
      }

      .cls-2 {
        fill: #e5e5e5;
      }

      .cls-3 {
        fill: #2e9bfb;
      }
    </style>
  </defs>
  <g id="Layer_1-2" data-name="Layer 1">
    <g>
      <circle class="cls-3" cx="40.57" cy="29.25" r="29.25"/>
      <g>
        <polygon class="cls-1" points="25.93 26.33 25.93 10.11 57.97 26.1 25.93 26.33"/>
        <polygon class="cls-2" points="25.93 50 25.93 33.8 58.35 33.8 25.93 50"/>
        <polyline class="cls-1" points="25.93 33.8 30.35 30.03 65.77 30.03 58.35 33.8"/>
        <polygon class="cls-2" points="57.97 26.1 65.77 30.03 30.35 30.03 25.93 26.33 57.97 26.1"/>
      </g>
      <g>
        <path class="cls-3" d="m3.98,63.67c.23.43.5.96.81,1.59.31.63.63,1.31.96,2.05.33.73.66,1.48.99,2.25.33.77.63,1.49.92,2.16.29-.68.59-1.4.92-2.16.33-.77.65-1.52.99-2.25.33-.73.65-1.42.96-2.05.31-.63.58-1.16.81-1.59h2.77c.13.9.25,1.9.36,3.01s.21,2.27.29,3.47.16,2.41.23,3.62c.07,1.21.13,2.35.19,3.41h-2.96c-.04-1.31-.09-2.74-.16-4.29-.07-1.55-.16-3.11-.29-4.68-.23.55-.5,1.15-.78,1.81-.29.66-.57,1.33-.85,1.99-.28.66-.55,1.3-.81,1.9-.26.6-.48,1.12-.66,1.55h-2.12c-.18-.43-.4-.95-.67-1.55-.26-.6-.53-1.24-.81-1.9-.28-.66-.56-1.33-.85-1.99-.29-.66-.55-1.27-.78-1.81-.13,1.57-.23,3.13-.29,4.68-.07,1.55-.12,2.98-.16,4.29H0c.05-1.07.11-2.2.19-3.41.07-1.21.15-2.41.23-3.62.08-1.2.18-2.36.29-3.47s.23-2.12.36-3.01h2.9Z"/>
        <path class="cls-3" d="m20.95,63.51c2.01,0,3.56.35,4.64,1.06,1.08.71,1.62,1.87,1.62,3.48s-.55,2.8-1.64,3.52c-1.09.72-2.65,1.08-4.68,1.08h-.96v4.52h-3.04v-13.31c.66-.13,1.36-.22,2.1-.27.74-.05,1.39-.08,1.95-.08Zm.2,2.59c-.22,0-.44,0-.65.02-.21.01-.4.03-.56.04v3.9h.96c1.05,0,1.85-.14,2.38-.43.53-.29.8-.82.8-1.6,0-.38-.07-.69-.2-.94-.14-.25-.33-.44-.58-.59-.25-.15-.56-.25-.93-.31-.36-.06-.77-.09-1.21-.09Z"/>
        <path class="cls-3" d="m40.31,70.41c0,1.17-.18,2.19-.55,3.06-.36.87-.88,1.59-1.55,2.16-.67.57-1.48,1-2.45,1.29-.96.29-2.04.43-3.24.43-.55,0-1.18-.02-1.91-.07-.73-.05-1.44-.14-2.14-.28v-13.16c.7-.13,1.43-.22,2.19-.26.76-.04,1.41-.07,1.96-.07,1.16,0,2.21.13,3.15.39s1.75.67,2.43,1.23c.68.56,1.2,1.27,1.56,2.14s.55,1.92.55,3.14Zm-8.79,4.29c.14.01.31.02.5.03.19,0,.41,0,.67,0,1.52,0,2.65-.38,3.38-1.15.73-.77,1.1-1.83,1.1-3.18s-.35-2.49-1.05-3.22-1.81-1.09-3.33-1.09c-.21,0-.42,0-.64,0-.22,0-.43.02-.62.05v8.54Z"/>
        <path class="cls-3" d="m49.63,63.51c2.01,0,3.56.35,4.64,1.06,1.08.71,1.62,1.87,1.62,3.48s-.55,2.8-1.64,3.52c-1.09.72-2.65,1.08-4.68,1.08h-.96v4.52h-3.04v-13.31c.66-.13,1.36-.22,2.1-.27.74-.05,1.39-.08,1.95-.08Zm.2,2.59c-.22,0-.44,0-.65.02-.21.01-.4.03-.56.04v3.9h.96c1.05,0,1.85-.14,2.38-.43.53-.29.8-.82.8-1.6,0-.38-.07-.69-.2-.94-.14-.25-.33-.44-.58-.59-.25-.15-.56-.25-.93-.31-.36-.06-.77-.09-1.21-.09Z"/>
        <path class="cls-3" d="m60.14,63.96c0,.53-.17.95-.52,1.26-.34.31-.75.46-1.22.46s-.87-.15-1.22-.46c-.34-.31-.52-.72-.52-1.26s.17-.95.52-1.26c.34-.3.75-.46,1.22-.46s.87.15,1.22.46c.34.31.52.72.52,1.26Zm-.27,13.22h-2.9v-10.25h2.9v10.25Z"/>
        <path class="cls-3" d="m65.71,77.37c-.84-.01-1.53-.1-2.06-.27s-.94-.41-1.25-.71c-.31-.31-.51-.68-.62-1.11-.11-.44-.17-.93-.17-1.47v-11.29l2.9-.47v11.17c0,.26.02.49.06.7.04.21.11.38.22.53.11.14.27.26.48.35.21.09.49.15.84.17l-.41,2.4Z"/>
        <path class="cls-3" d="m76.39,72.03c0,.81-.12,1.54-.35,2.21s-.57,1.24-1.01,1.71c-.44.47-.97.84-1.59,1.1-.62.26-1.31.39-2.08.39s-1.44-.13-2.06-.39-1.15-.63-1.59-1.1c-.44-.47-.79-1.05-1.03-1.71-.25-.67-.37-1.41-.37-2.21s.13-1.54.38-2.2c.25-.66.6-1.23,1.05-1.7s.98-.83,1.6-1.09c.62-.26,1.29-.39,2.02-.39s1.42.13,2.04.39c.62.26,1.15.62,1.59,1.09.44.47.79,1.03,1.03,1.7.25.66.37,1.4.37,2.2Zm-2.96,0c0-.9-.18-1.6-.54-2.11-.36-.51-.87-.77-1.53-.77s-1.18.26-1.54.77c-.36.51-.55,1.22-.55,2.11s.18,1.61.55,2.13.88.79,1.54.79,1.17-.26,1.53-.79.54-1.24.54-2.13Z"/>
        <path class="cls-3" d="m77.56,64.37l2.9-.47v3.02h3.49v2.42h-3.49v3.61c0,.61.11,1.1.32,1.46.21.36.65.54,1.3.54.31,0,.63-.03.96-.09s.63-.14.91-.24l.41,2.26c-.35.14-.74.27-1.17.37-.43.1-.96.16-1.58.16-.79,0-1.45-.11-1.97-.32-.52-.21-.94-.51-1.25-.9-.31-.38-.53-.85-.65-1.39s-.19-1.15-.19-1.81v-8.62Z"/>
      </g>
    </g>
  </g>
</svg>