<?xml version="1.0" encoding="UTF-8"?>
<svg id="Layer_2" data-name="Layer 2" xmlns="http://www.w3.org/2000/svg" viewBox="0 0 130 100">
  <defs>
    <style>
      .cls-1 {
        fill: #090;
      }
    </style>
  </defs>
  <g id="Layer_1-2" data-name="Layer 1">
    <path class="cls-1" d="m26.36,66.96c-.68,0-1.34-.26-1.84-.76l-15.42-15.42v13.58c0,1.44-1.17,2.61-2.61,2.61s-2.61-1.17-2.61-2.61v-19.87c0-1.05.64-2,1.61-2.41.97-.4,2.09-.18,2.84.57l15.42,15.42v-13.58c0-1.44,1.17-2.61,2.61-2.61s2.61,1.17,2.61,2.61v19.87c0,1.44-1.17,2.61-2.61,2.61m12.07-25.06l-.72,1.34-5.54,10.06-.72,1.27.72,1.27,5.54,9.74.75,1.34h14.5l.72-1.47,4.14-8.34,1.86-3.78h-4.2l-10.59.03c-1.38-.02-2.64,1.23-2.64,2.61s1.27,2.63,2.64,2.61l6.38-.03-1.56,3.16h-8.21l-4.07-7.17,4.1-7.43h8.73l2.04,4.18h5.25l-3.31-7.92-.72-1.47h-15.08m26.4-.03c-1.37.02-2.59,1.27-2.57,2.64v6.79h5.21v-6.79c.02-1.39-1.25-2.66-2.64-2.64m8.35,25.14c-1.44,0-2.6-1.17-2.61-2.61v-19.87c0-1.44,1.17-2.61,2.61-2.61s2.61,1.17,2.61,2.61v13.58l15.42-15.42c.74-.75,1.87-.97,2.84-.57.97.4,1.61,1.35,1.61,2.41v19.87c0,1.44-1.17,2.61-2.61,2.61s-2.61-1.17-2.61-2.61v-13.58l-15.42,15.42c-.49.49-1.15.76-1.84.76m41.78-12.56l8.11-8.08c1.02-1.02,1.02-2.67,0-3.69-1.02-1.02-2.66-1.02-3.68,0l-8.12,8.09-8.12-8.09c-1.02-1.02-2.67-1.01-3.68,0-1.02,1.02-1.01,2.67,0,3.69l8.11,8.08-8.08,8.05c-1.02,1.02-1.02,2.67,0,3.68.49.49,1.15.77,1.85.77.67,0,1.33-.25,1.84-.76l8.1-8.07,8.09,8.07c.49.49,1.15.76,1.84.76.67,0,1.34-.26,1.85-.77,1.02-1.02,1.01-2.67,0-3.68l-8.08-8.05m-50.13,12.49c-1.37-.02-2.59-1.27-2.57-2.64v-10.91h5.21v10.91c.02,1.39-1.25,2.65-2.64,2.64"/>
  </g>
</svg>