<?xml version="1.0" encoding="UTF-8"?>
<svg id="Layer_2" data-name="Layer 2" xmlns="http://www.w3.org/2000/svg" xmlns:xlink="http://www.w3.org/1999/xlink" viewBox="0 0 130 100">
  <defs>
    <style>
      .cls-1 {
        fill: url(#linear-gradient-2);
      }

      .cls-2 {
        clip-path: url(#clippath-2);
      }

      .cls-3 {
        clip-path: url(#clippath-1);
      }

      .cls-4 {
        fill: #689f63;
      }

      .cls-5 {
        clip-path: url(#clippath);
      }

      .cls-6 {
        fill: none;
      }

      .cls-7 {
        fill: #333;
        fill-rule: evenodd;
      }

      .cls-8 {
        fill: url(#linear-gradient-3);
      }

      .cls-9 {
        fill: url(#linear-gradient);
      }
    </style>
    <clipPath id="clippath">
      <path class="cls-6" d="m47.23,29.34l-12.38,7.15c-.46.27-.75.76-.75,1.29v14.3c0,.53.28,1.03.75,1.29l12.38,7.15c.46.27,1.03.27,1.5,0l12.38-7.15c.46-.27.75-.76.75-1.29v-14.3c0-.53-.29-1.03-.75-1.29l-12.38-7.15c-.23-.13-.49-.2-.75-.2s-.52.07-.75.2"/>
    </clipPath>
    <linearGradient id="linear-gradient" x1="902.75" y1="-531.31" x2="903.1" y2="-531.31" gradientTransform="translate(100883.97 -66474.68) rotate(116.11) scale(115.31 -115.31)" gradientUnits="userSpaceOnUse">
      <stop offset=".3" stop-color="#3e863d"/>
      <stop offset=".5" stop-color="#55934f"/>
      <stop offset=".8" stop-color="#5aad45"/>
    </linearGradient>
    <clipPath id="clippath-1">
      <path class="cls-6" d="m34.41,52.99c.12.15.27.29.44.39l10.62,6.13,1.77,1.02c.26.15.57.22.86.2.1,0,.2-.03.29-.05l13.06-23.91c-.1-.11-.22-.2-.35-.28l-8.11-4.68-4.29-2.47c-.12-.07-.25-.12-.39-.16l-13.92,23.81Z"/>
    </clipPath>
    <linearGradient id="linear-gradient-2" x1="876.88" y1="-532.07" x2="877.11" y2="-532.07" gradientTransform="translate(-180828.02 16554.14) rotate(-36.46) scale(177.06 -177.06)" gradientUnits="userSpaceOnUse">
      <stop offset=".57" stop-color="#3e863d"/>
      <stop offset=".72" stop-color="#619857"/>
      <stop offset="1" stop-color="#76ac64"/>
    </linearGradient>
    <clipPath id="clippath-2">
      <path class="cls-6" d="m47.83,29.14c-.21.02-.41.09-.6.19l-12.35,7.13,13.31,24.25c.19-.03.37-.09.53-.18l12.38-7.15c.38-.22.64-.6.72-1.02l-13.57-23.18c-.1-.02-.2-.03-.3-.03-.04,0-.08,0-.12,0"/>
    </clipPath>
    <linearGradient id="linear-gradient-3" x1="879.03" y1="-540.35" x2="879.24" y2="-540.35" gradientTransform="translate(-114141.47 -70140.95) scale(129.89 -129.89)" gradientUnits="userSpaceOnUse">
      <stop offset=".16" stop-color="#6bbf47"/>
      <stop offset=".38" stop-color="#79b461"/>
      <stop offset=".47" stop-color="#75ac64"/>
      <stop offset=".7" stop-color="#659e5a"/>
      <stop offset=".9" stop-color="#3e863d"/>
    </linearGradient>
  </defs>
  <g id="Layer_1-2" data-name="Layer 1">
    <g>
      <path class="cls-4" d="m64.25,90.56c-.43,0-.86-.11-1.23-.33l-3.92-2.32c-.59-.33-.3-.44-.11-.51.78-.27.94-.34,1.77-.81.09-.05.2-.03.29.02l3.01,1.79c.11.06.26.06.36,0l11.74-6.78c.11-.06.18-.19.18-.32v-13.55c0-.14-.07-.26-.18-.32l-11.74-6.77c-.11-.06-.25-.06-.36,0l-11.73,6.77c-.11.06-.19.19-.19.32v13.55c0,.13.07.25.18.31l3.21,1.86c1.75.87,2.81-.16,2.81-1.19v-13.37c0-.19.15-.34.34-.34h1.49c.19,0,.34.15.34.34v13.38c0,2.33-1.27,3.66-3.48,3.66-.68,0-1.21,0-2.71-.73l-3.08-1.77c-.76-.44-1.23-1.26-1.23-2.14v-13.55c0-.88.47-1.7,1.23-2.14l11.75-6.78c.74-.42,1.73-.42,2.47,0l11.74,6.78c.76.44,1.23,1.26,1.23,2.14v13.55c0,.88-.47,1.7-1.23,2.14l-11.74,6.78c-.38.22-.8.33-1.24.33"/>
      <path class="cls-4" d="m67.88,81.23c-5.14,0-6.21-2.36-6.21-4.34,0-.19.15-.34.34-.34h1.52c.17,0,.31.12.34.29.23,1.55.91,2.32,4.02,2.32,2.47,0,3.53-.56,3.53-1.87,0-.76-.3-1.32-4.14-1.69-3.21-.32-5.2-1.03-5.2-3.6,0-2.37,2-3.78,5.35-3.78,3.76,0,5.62,1.3,5.86,4.11,0,.1-.03.19-.09.26-.06.07-.16.11-.25.11h-1.53c-.16,0-.3-.11-.33-.26-.37-1.63-1.25-2.15-3.67-2.15-2.7,0-3.02.94-3.02,1.65,0,.86.37,1.1,4.01,1.59,3.61.48,5.32,1.15,5.32,3.69s-2.13,4.02-5.85,4.02m14.3-14.37h.39c.32,0,.38-.23.38-.36,0-.35-.24-.35-.37-.35h-.41v.71Zm-.48-1.11h.87c.3,0,.89,0,.89.67,0,.47-.3.56-.48.62.35.02.37.25.42.58.02.2.06.55.13.67h-.54c-.01-.12-.1-.76-.1-.8-.04-.14-.09-.21-.26-.21h-.44v1.02h-.49v-2.54Zm-1.05,1.26c0,1.05.85,1.9,1.89,1.9s1.9-.87,1.9-1.9-.86-1.89-1.9-1.89-1.89.83-1.89,1.89m4.16,0c0,1.25-1.02,2.26-2.26,2.26s-2.26-1.01-2.26-2.26,1.05-2.26,2.26-2.26,2.26.98,2.26,2.26"/>
      <path class="cls-7" d="m27.9,37.55c0-.54-.29-1.04-.75-1.31l-12.45-7.16c-.21-.12-.45-.19-.68-.2h-.13c-.24,0-.47.07-.69.2L.75,36.25c-.46.27-.75.77-.75,1.31l.03,19.29c0,.27.14.52.37.65.23.14.52.14.75,0l7.4-4.24c.47-.28.75-.77.75-1.3v-9.01c0-.54.29-1.03.75-1.3l3.15-1.81c.23-.14.49-.2.75-.2s.52.07.75.2l3.15,1.81c.47.27.75.76.75,1.3v9.01c0,.53.29,1.03.75,1.3l7.39,4.23c.23.14.52.14.75,0,.23-.13.37-.38.37-.65l.02-19.29Zm58.74,10.04c0,.13-.07.26-.19.33l-4.28,2.46c-.12.07-.26.07-.38,0l-4.28-2.46c-.12-.07-.19-.19-.19-.33v-4.94c0-.13.07-.26.19-.33l4.27-2.47c.12-.07.26-.07.38,0l4.28,2.47c.12.07.19.19.19.33v4.94Zm1.15-36.56c-.23-.13-.52-.13-.75,0-.23.14-.37.38-.37.65v19.1c0,.19-.1.36-.26.46-.16.09-.36.09-.53,0l-3.12-1.8c-.46-.27-1.04-.27-1.5,0l-12.45,7.19c-.47.27-.75.76-.75,1.3v14.38c0,.54.29,1.03.75,1.3l12.45,7.19c.46.27,1.04.27,1.5,0l12.45-7.19c.46-.27.75-.76.75-1.3V16.49c0-.55-.3-1.05-.77-1.31l-7.41-4.13Zm41.46,31.49c.46-.27.75-.76.75-1.3v-3.48c0-.54-.29-1.03-.75-1.3l-12.37-7.18c-.47-.27-1.04-.27-1.51,0l-12.45,7.19c-.47.27-.75.76-.75,1.3v14.37c0,.54.29,1.04.76,1.31l12.37,7.05c.46.26,1.01.26,1.48,0l7.48-4.16c.24-.13.38-.38.38-.65s-.14-.52-.38-.66l-12.52-7.19c-.24-.13-.38-.38-.38-.65v-4.51c0-.27.14-.52.38-.65l3.9-2.25c.23-.14.52-.14.75,0l3.9,2.25c.23.13.38.38.38.65v3.54c0,.27.14.52.38.65.23.13.52.13.75,0l7.47-4.34Z"/>
      <g class="cls-5">
        <path class="cls-9" d="m74.37,35.27l-34.89-17.1-17.89,36.49,34.89,17.1,17.89-36.49Z"/>
      </g>
      <g class="cls-3">
        <path class="cls-1" d="m19.33,40.33l24.63,33.34,32.58-24.07-24.64-33.34-32.58,24.07Z"/>
      </g>
      <g class="cls-2">
        <path class="cls-8" d="m34.89,29.14v31.57h26.94v-31.57h-26.94Z"/>
      </g>
      <rect class="cls-6" width="130" height="100"/>
    </g>
  </g>
</svg>