<?xml version="1.0" encoding="utf-8"?>
<!-- Generator: Adobe Illustrator 27.4.1, SVG Export Plug-In . SVG Version: 6.00 Build 0)  -->
<svg version="1.1" id="Layer_2_00000168081233376467997370000001427490685438350725_"
	 xmlns="http://www.w3.org/2000/svg" xmlns:xlink="http://www.w3.org/1999/xlink" x="0px" y="0px" viewBox="0 0 130 100"
	 style="enable-background:new 0 0 130 100;" xml:space="preserve">
<style type="text/css">
	.st0{fill:#43A28F;}
	.st1{enable-background:new    ;}
</style>
<g id="Layer_1-2">
	<g>
		<path class="st0" d="M95.6,6.8H35.7c-6.2,0-11.2,5-11.2,11.2v41.1l-1.3,16.9c7.3-3.4,14.3-5.2,21.8-5.4h50.6
			c6.2,0,11.2-5,11.2-11.2V18.1C106.8,11.9,101.8,6.9,95.6,6.8L95.6,6.8z M98.9,59.5c0,1.8-1.5,3.3-3.3,3.3H40.2l-7.8,3.3v-48
			c0-1.8,1.5-3.3,3.3-3.3h59.8c1.8,0,3.3,1.5,3.3,3.3V59.5L98.9,59.5z"/>
		<polygon class="st0" points="41.4,22.6 41.4,30.7 53.6,37.5 40.9,44.3 40.9,52.7 61.3,41.4 61.3,33.6 		"/>
		<rect x="67.2" y="47.3" class="st0" width="21.8" height="7.6"/>
		<g class="st1">
			<path class="st0" d="M24.9,79.6c0.6-0.2,1.3-0.3,2.1-0.4c0.9-0.1,1.8-0.2,2.8-0.2c1,0,1.8,0.1,2.5,0.4s1.2,0.7,1.5,1.2
				s0.6,1.1,0.8,1.8c0.2,0.7,0.2,1.5,0.2,2.3v7h-3.2V85c0-1.2-0.1-2-0.4-2.5s-0.8-0.8-1.6-0.8c-0.2,0-0.5,0-0.7,0s-0.5,0-0.8,0.1
				v9.7h-3.2V79.6z"/>
			<path class="st0" d="M40.2,81.9h-2.8v-2.7h2.8v-3.1l3.2-0.5v3.6h5.2v2.7h-5.2v5c0,0.5,0,0.8,0.1,1.1c0.1,0.3,0.2,0.5,0.4,0.7
				s0.4,0.3,0.6,0.3c0.2,0.1,0.5,0.1,0.8,0.1c0.3,0,0.6,0,0.8,0s0.5,0,0.7-0.1s0.5-0.1,0.7-0.2s0.5-0.2,0.8-0.3l0.4,2.8
				c-0.6,0.2-1.2,0.4-1.9,0.5s-1.4,0.2-2,0.2c-0.8,0-1.4-0.1-2-0.2c-0.6-0.1-1.1-0.4-1.5-0.7c-0.4-0.4-0.7-0.8-0.9-1.5
				c-0.2-0.6-0.3-1.5-0.3-2.5V81.9z"/>
			<path class="st0" d="M53.2,91.6v-9.7h-2.7v-2.7h2.7v-0.7c0-1,0.1-1.8,0.4-2.5s0.7-1.2,1.2-1.6s1.1-0.7,1.7-0.8
				c0.6-0.2,1.3-0.3,2-0.3c0.7,0,1.4,0.1,2.1,0.2s1.4,0.3,2,0.6L62,76.8c-0.4-0.1-0.9-0.3-1.5-0.4c-0.6-0.1-1.2-0.2-1.7-0.2
				c-0.3,0-0.6,0-0.9,0.1c-0.3,0.1-0.5,0.2-0.7,0.3c-0.2,0.2-0.4,0.4-0.5,0.8c-0.1,0.3-0.2,0.8-0.2,1.3v0.7h5.1v2.7h-5.1v9.7H53.2z"
				/>
			<path class="st0" d="M75.2,79.2c-0.3,1.2-0.7,2.3-1,3.4c-0.3,1.1-0.6,2.2-1,3.3S72.6,88,72.2,89s-0.8,2-1.2,3
				c-0.3,0.7-0.7,1.3-1,1.8s-0.7,0.9-1.1,1.3s-0.8,0.6-1.3,0.7C67.1,96,66.6,96,65.9,96c-0.5,0-1,0-1.5-0.1s-0.8-0.2-1.1-0.3
				l0.6-2.7c0.4,0.2,0.7,0.3,0.9,0.3c0.3,0.1,0.6,0.1,0.9,0.1c0.6,0,1.1-0.2,1.5-0.6s0.7-0.9,0.9-1.5c-0.8-1.5-1.5-3.3-2.3-5.3
				c-0.8-2-1.5-4.2-2.1-6.6h3.4c0.2,0.7,0.3,1.3,0.5,2.1s0.4,1.5,0.6,2.2s0.5,1.5,0.7,2.2s0.5,1.4,0.8,2c0.2-0.6,0.4-1.3,0.6-2
				c0.2-0.7,0.4-1.4,0.6-2.2c0.2-0.7,0.3-1.5,0.5-2.2s0.3-1.4,0.5-2.1H75.2z"/>
		</g>
	</g>
</g>
</svg>
