<?xml version="1.0" encoding="UTF-8"?>
<svg id="Layer_2" data-name="Layer 2" xmlns="http://www.w3.org/2000/svg" viewBox="0 0 130 100">
  <defs>
    <style>
      .cls-1 {
        font-family: UbuntuMono-Bold, 'Ubuntu Mono';
        font-size: 26.37px;
        font-weight: 700;
      }

      .cls-1, .cls-2 {
        fill: #43a28f;
      }
    </style>
  </defs>
  <g id="Layer_1-2" data-name="Layer 1">
    <g>
      <path class="cls-2" d="m95.56,6.84h-59.82c-6.2,0-11.23,5.03-11.23,11.23v41.14l-1.3,16.91c7.31-3.45,14.26-5.18,21.75-5.44h50.6c6.2,0,11.23-5.03,11.23-11.23V18.08c0-6.2-5.03-11.23-11.23-11.23Zm3.3,52.61c0,1.82-1.48,3.3-3.3,3.3h-55.33l-7.79,3.32V18.08c0-1.82,1.48-3.3,3.3-3.3h59.82c1.82,0,3.3,1.48,3.3,3.3v41.38Z"/>
      <polygon class="cls-2" points="41.41 22.57 41.41 30.73 53.59 37.47 40.94 44.32 40.94 52.72 61.28 41.37 61.28 33.56 41.41 22.57"/>
      <rect class="cls-2" x="67.19" y="47.28" width="21.75" height="7.57"/>
      <text class="cls-1" transform="translate(23.21 91.61)"><tspan x="0" y="0">ntfy</tspan></text>
    </g>
  </g>
</svg>