<?xml version="1.0" encoding="UTF-8"?>
<svg id="Layer_2" data-name="Layer 2" xmlns="http://www.w3.org/2000/svg" viewBox="0 0 130 100">
  <defs>
    <style>
      .cls-1 {
        fill: #815374;
      }
    </style>
  </defs>
  <g id="Layer_1-2" data-name="Layer 1">
    <path id="path3" class="cls-1" d="m16.63,70.37c-10.84-2.37-14.86-16.21-7-24.1,6.77-6.8,17.9-5.44,22.75,2.76,6.38,10.81-3.38,24.04-15.75,21.34Zm6.65-6.34c5.43-2.55,6.72-9.35,2.56-13.51-5.49-5.49-14.65-1.47-14.24,6.26.31,5.83,6.5,9.68,11.68,7.25h0Zm22.88,6.26c-13-3.46-14.93-20.97-2.96-26.86,4.47-2.2,10.18-2.05,14.02.38l.79.5v-4.35c0-6.95,1.99-9.38,5.23-6.36l.79.74v24.59l-.52,1.53c-2.48,7.27-10.32,11.72-17.35,9.84h0Zm5.01-5.76c6.54-1.37,8.99-8.99,4.46-13.89-4.7-5.08-13.01-2.57-14.29,4.32-1.01,5.45,4.38,10.71,9.82,9.57Zm25.67,5.85c-13.76-3.03-15.25-21.94-2.16-27.39,13.5-5.62,25.6,10.4,16.75,22.19-3.17,4.22-9.24,6.38-14.6,5.2h0Zm6.59-6.36c5.55-2.68,6.67-9.56,2.25-13.74-6.73-6.36-17.29,1.47-13.12,9.73,2.06,4.09,6.96,5.9,10.87,4.02h0Zm23.42,6.33c-12.72-2.84-15.23-19.78-3.93-26.46,9.82-5.81,21.96,1.51,21.55,12.99-.32,9.05-8.71,15.46-17.63,13.47Zm6.82-6.44c3.34-1.65,5.36-5.31,4.78-8.68-1.27-7.41-10.52-9.86-15-3.97-5.2,6.85,2.55,16.44,10.22,12.65Z"/>
  </g>
</svg>