<?xml version="1.0" encoding="utf-8"?>
<!-- Generator: Adobe Illustrator 27.4.1, SVG Export Plug-In . SVG Version: 6.00 Build 0)  -->
<svg version="1.1" id="Layer_1" xmlns="http://www.w3.org/2000/svg" xmlns:xlink="http://www.w3.org/1999/xlink" x="0px" y="0px"
	 viewBox="0 0 140 140" style="enable-background:new 0 0 140 140;" xml:space="preserve">
<style type="text/css">
	.st0{clip-path:url(#SVGID_00000064351644727661702030000008533951367462489475_);}
	.st1{fill:#13BEF9;}
	.st2{fill-rule:evenodd;clip-rule:evenodd;fill:#13BEF9;}
</style>
<g>
	<defs>
		<rect id="SVGID_1_" width="140" height="140"/>
	</defs>
	<clipPath id="SVGID_00000122698198516156547720000003022511686535336838_">
		<use xlink:href="#SVGID_1_"  style="overflow:visible;"/>
	</clipPath>
	<g style="clip-path:url(#SVGID_00000122698198516156547720000003022511686535336838_);">
		<path class="st1" d="M59.6,26.7H58v8.5h1.6V26.7z M66.6,26.7H65v8.5h1.6V26.7z M76.3,10.5l-1.7-2.9l-28,16.2l1.7,2.9L76.3,10.5z"
			/>
		<path class="st1" d="M76.1,10.5l1.7-2.9l28,16.2l-1.7,2.9L76.1,10.5z"/>
		<path class="st1" d="M110.7,26.7v-3.4H34v3.4H110.7z"/>
		<path class="st2" d="M80.3,74.2V24.4h3.4v52.2C82.8,75.6,81.7,74.8,80.3,74.2z M74.6,73.3V3.1H78v70.6
			C77,73.3,74.7,73.3,74.6,73.3z M42.8,80.3c-4.1-3-6.8-7.9-6.8-13.4c0-2.9,0.8-5.8,2.2-8.3h28.6c1.5,2.5,2.2,5.4,2.2,8.3
			c0,2.5-0.3,4.9-1.4,7c-2.2-2.1-5.4-3-8.6-3c-5.7,0-10.6,3.6-11.9,8.9c-0.5,0-0.7-0.1-1.2-0.1C44.9,79.9,43.9,80,42.8,80.3
			L42.8,80.3z"/>
		<path class="st1" d="M56.9,39h-8.7v8.7h8.7V39z M47.1,39h-8.7v8.7h8.7V39z M47.1,48.7h-8.7v8.7h8.7V48.7z M56.9,48.7h-8.7v8.7h8.7
			V48.7z M66.6,48.7H58v8.7h8.7V48.7z M66.6,34.3H58V43h8.7V34.3z"/>
		<path class="st2" d="M48.7,81.6c1.2-5,5.7-8.8,11.1-8.8c3.5,0,6.6,1.6,8.7,4c1.8-1.3,4.1-2,6.5-2c6.3,0,11.4,5.1,11.4,11.4
			c0,1.3-0.2,2.5-0.6,3.7c1.4,1.9,2.3,4.3,2.3,6.8c0,6.3-5.1,11.4-11.4,11.4c-2.8,0-5.3-1-7.3-2.6c-2.1,2.9-5.5,4.8-9.3,4.8
			c-4.4,0-8.3-2.5-10.2-6.2c-0.8,0.2-1.6,0.2-2.4,0.2C41.1,104.4,36,99.3,36,93c0-6.3,5.1-11.4,11.5-11.4
			C47.9,81.5,48.3,81.5,48.7,81.6L48.7,81.6z"/>
	</g>
	<g style="clip-path:url(#SVGID_00000122698198516156547720000003022511686535336838_);">
		<path class="st1" d="M14.5,117.8c2.2,0,4,0.5,5.2,1.4c1.2,0.9,1.9,2.4,1.9,4.5c0,2.1-0.6,3.6-1.9,4.6c-1.2,0.9-3,1.4-5.3,1.4h-1.3
			v6H9.6v-17.5c0.3-0.1,0.7-0.1,1.2-0.2c0.4-0.1,0.9-0.1,1.3-0.1c0.4,0,0.9-0.1,1.3-0.1C13.8,117.8,14.2,117.8,14.5,117.8z
			 M14.9,120.8c-0.2,0-0.5,0-0.9,0c-0.4,0-0.7,0-0.9,0.1v5.7h1.4c1.1,0,2-0.2,2.5-0.7c0.6-0.4,0.9-1.2,0.9-2.3c0-1-0.3-1.8-0.8-2.2
			C16.6,121.1,15.8,120.8,14.9,120.8z"/>
		<path class="st1" d="M35,128.9c0,1.1-0.2,2-0.5,2.9c-0.3,0.9-0.7,1.6-1.3,2.2s-1.2,1.1-2,1.5c-0.8,0.3-1.6,0.5-2.6,0.5
			c-1,0-1.8-0.2-2.6-0.5c-0.8-0.3-1.4-0.8-2-1.5c-0.6-0.6-1-1.4-1.3-2.2c-0.3-0.9-0.5-1.8-0.5-2.9c0-1,0.2-2,0.5-2.9
			c0.3-0.9,0.8-1.6,1.3-2.2c0.6-0.6,1.2-1.1,2-1.4c0.8-0.3,1.6-0.5,2.5-0.5c0.9,0,1.8,0.2,2.6,0.5c0.8,0.3,1.4,0.8,2,1.4
			c0.6,0.6,1,1.4,1.3,2.2C34.8,126.9,35,127.9,35,128.9z M25.9,129c0,1.2,0.2,2.2,0.6,2.9c0.4,0.7,1.1,1.1,2.1,1.1
			c0.9,0,1.6-0.4,2.1-1.1c0.5-0.7,0.7-1.7,0.7-2.9c0-1.2-0.2-2.2-0.6-2.9c-0.4-0.7-1.1-1.1-2.1-1.1c-0.9,0-1.6,0.4-2.1,1.1
			C26.2,126.8,25.9,127.8,25.9,129z"/>
		<path class="st1" d="M47.4,125.8c-0.2-0.1-0.5-0.1-0.8-0.2c-0.3-0.1-0.6-0.1-1-0.2c-0.3,0-0.6-0.1-0.9-0.1c-0.3,0-0.6,0-0.8,0
			c-0.5,0-1,0-1.5,0.1c-0.5,0-1,0.1-1.5,0.3v10h-3.5v-12.5c0.9-0.3,1.9-0.6,2.9-0.8s2.1-0.3,3.4-0.3c0.2,0,0.5,0,0.8,0
			c0.4,0,0.7,0.1,1.1,0.1c0.4,0,0.8,0.1,1.2,0.2c0.4,0.1,0.8,0.2,1.1,0.3L47.4,125.8z"/>
		<path class="st1" d="M52.4,125.2h-3.1v-2.9h3.1v-3.4l3.5-0.6v3.9h5.6v2.9H56v5.4c0,0.5,0,0.9,0.1,1.2c0.1,0.3,0.2,0.5,0.4,0.7
			c0.2,0.2,0.4,0.3,0.6,0.3c0.2,0.1,0.5,0.1,0.8,0.1c0.3,0,0.6,0,0.9,0c0.3,0,0.5-0.1,0.8-0.1c0.3,0,0.5-0.1,0.8-0.2
			c0.3-0.1,0.6-0.2,0.9-0.4l0.5,3c-0.6,0.3-1.3,0.5-2.1,0.6c-0.8,0.1-1.5,0.2-2.2,0.2c-0.8,0-1.5-0.1-2.2-0.2
			c-0.6-0.1-1.2-0.4-1.6-0.8c-0.4-0.4-0.8-0.9-1-1.6c-0.2-0.7-0.3-1.6-0.3-2.7V125.2z"/>
		<path class="st1" d="M68.6,121.9c1.1,0,2,0.1,2.8,0.4c0.7,0.3,1.3,0.6,1.8,1.1c0.4,0.5,0.8,1,0.9,1.7c0.2,0.7,0.3,1.4,0.3,2.3v8
			c-0.5,0.1-1.3,0.2-2.3,0.4c-1,0.2-2.1,0.2-3.4,0.2c-0.9,0-1.6-0.1-2.3-0.2c-0.7-0.2-1.3-0.4-1.8-0.8c-0.5-0.4-0.9-0.8-1.1-1.4
			c-0.3-0.6-0.4-1.3-0.4-2.1c0-0.8,0.2-1.4,0.5-2c0.3-0.5,0.7-1,1.2-1.3c0.5-0.3,1.1-0.6,1.8-0.7c0.7-0.1,1.4-0.2,2.1-0.2
			c0.9,0,1.7,0.1,2.4,0.2v-0.4c0-0.7-0.2-1.2-0.6-1.7c-0.4-0.4-1.1-0.7-2.2-0.7c-0.7,0-1.3,0-1.9,0.1c-0.6,0.1-1.1,0.2-1.5,0.3
			l-0.5-2.8c0.4-0.2,1.1-0.3,1.9-0.4C67,122,67.8,121.9,68.6,121.9z M69,133.2c0.4,0,0.8,0,1.1,0c0.4,0,0.7,0,0.9-0.1V130
			c-0.2,0-0.5-0.1-0.8-0.1c-0.3,0-0.6,0-0.9,0c-0.4,0-0.7,0-1.1,0.1c-0.3,0-0.6,0.1-0.9,0.2c-0.3,0.1-0.5,0.3-0.6,0.5
			c-0.2,0.2-0.2,0.5-0.2,0.8c0,0.6,0.2,1,0.7,1.3C67.6,133,68.2,133.2,69,133.2z"/>
		<path class="st1" d="M88.5,135.1c-0.7,0.3-1.4,0.6-2,0.7c-0.6,0.1-1.2,0.2-1.8,0.2c-0.9,0-1.7-0.1-2.3-0.4
			c-0.6-0.3-1.1-0.7-1.5-1.2c-0.4-0.5-0.6-1.1-0.8-1.8c-0.2-0.7-0.2-1.6-0.2-2.5v-4.9h-3.7v-2.9h7.2v8.3c0,0.8,0.1,1.4,0.4,1.8
			c0.3,0.4,0.8,0.6,1.5,0.6c0.3,0,0.7,0,1.2-0.1c0.5-0.1,1-0.3,1.5-0.5L88.5,135.1z M83.3,118.4c0,0.7-0.2,1.2-0.7,1.6
			c-0.4,0.4-1,0.6-1.6,0.6c-0.6,0-1.1-0.2-1.6-0.6c-0.4-0.4-0.6-0.9-0.6-1.6c0-0.7,0.2-1.3,0.6-1.7c0.4-0.4,0.9-0.6,1.6-0.6
			c0.6,0,1.1,0.2,1.6,0.6C83.1,117.1,83.3,117.7,83.3,118.4z"/>
		<path class="st1" d="M90.4,122.7c0.6-0.2,1.4-0.3,2.3-0.5c0.9-0.2,1.9-0.2,3-0.2c1.1,0,2,0.1,2.7,0.4c0.7,0.3,1.3,0.7,1.7,1.3
			c0.4,0.5,0.7,1.2,0.9,1.9c0.2,0.8,0.3,1.6,0.3,2.5v7.6h-3.5v-7.1c0-1.3-0.1-2.2-0.4-2.7c-0.3-0.6-0.9-0.8-1.7-0.8
			c-0.3,0-0.5,0-0.8,0c-0.3,0-0.5,0-0.8,0.1v10.5h-3.5V122.7z"/>
		<path class="st1" d="M102.9,129.1c0-1.2,0.2-2.2,0.5-3.1c0.4-0.9,0.8-1.6,1.4-2.2c0.6-0.6,1.3-1.1,2-1.4c0.8-0.3,1.5-0.5,2.3-0.5
			c2,0,3.5,0.6,4.5,1.8c1,1.2,1.5,2.9,1.5,5.1c0,0.2,0,0.5,0,0.7c0,0.2,0,0.4,0,0.6h-8.7c0,0.9,0.4,1.6,1.1,2.1
			c0.7,0.5,1.7,0.8,2.8,0.8c0.7,0,1.4-0.1,2-0.2c0.6-0.2,1.2-0.3,1.6-0.5l0.5,3c-0.6,0.2-1.3,0.4-1.9,0.5c-0.7,0.1-1.5,0.2-2.3,0.2
			c-1.1,0-2.2-0.1-3.1-0.4c-0.9-0.3-1.7-0.7-2.3-1.3c-0.6-0.6-1.1-1.3-1.5-2.2S102.9,130.2,102.9,129.1z M111.9,127.7
			c0-0.4,0-0.7-0.1-1c-0.1-0.3-0.2-0.6-0.5-0.9c-0.2-0.3-0.5-0.5-0.8-0.6c-0.3-0.2-0.7-0.2-1.2-0.2c-0.5,0-0.9,0.1-1.2,0.2
			c-0.3,0.2-0.6,0.4-0.8,0.6c-0.2,0.3-0.4,0.6-0.5,0.9c-0.1,0.3-0.2,0.7-0.2,1.1H111.9z"/>
		<path class="st1" d="M128,125.8c-0.2-0.1-0.5-0.1-0.8-0.2c-0.3-0.1-0.6-0.1-1-0.2c-0.3,0-0.6-0.1-0.9-0.1c-0.3,0-0.6,0-0.8,0
			c-0.5,0-1,0-1.5,0.1c-0.5,0-1,0.1-1.5,0.3v10H118v-12.5c0.9-0.3,1.9-0.6,2.9-0.8c1-0.2,2.1-0.3,3.4-0.3c0.2,0,0.5,0,0.8,0
			c0.4,0,0.7,0.1,1.1,0.1c0.4,0,0.8,0.1,1.2,0.2c0.4,0.1,0.8,0.2,1.1,0.3L128,125.8z"/>
	</g>
</g>
</svg>
