<?xml version="1.0" encoding="UTF-8"?>
<svg id="Layer_2" data-name="Layer 2" xmlns="http://www.w3.org/2000/svg" viewBox="0 0 130 100">
  <defs>
    <style>
      .cls-1 {
        fill: #fdfdfe;
      }

      .cls-1, .cls-2, .cls-3 {
        fill-rule: evenodd;
      }

      .cls-2 {
        fill: #fcfdfd;
      }

      .cls-3 {
        fill: #2671be;
      }
    </style>
  </defs>
  <g id="Layer_1-2" data-name="Layer 1">
    <g>
      <path class="cls-3" d="m58.01,86.45c-11.79,0-23.58.05-35.37-.03-5.98-.04-7.07-1.45-5.72-7.3,4.56-19.83,9.27-39.63,13.73-59.49,1.2-5.33,3.78-7.68,9.48-7.63,23.58.22,47.16.07,70.74.09,5.91,0,6.91,1.27,5.58,7.27-4.31,19.47-8.65,38.94-13.06,58.39-1.65,7.28-3.55,8.67-11.21,8.68-11.39.02-22.78,0-34.17,0Z"/>
      <path class="cls-1" d="m68.04,47.58c-.79-.93-1.66-2-2.58-3.02-5.21-5.79-10.38-11.62-15.68-17.32-2.43-2.61-3.2-5.14-.29-7.72,2.88-2.55,5.71-2.32,8.35.61,7.36,8.16,14.71,16.32,22.19,24.36,2.79,3,2.14,5.05-.93,7.27-11.81,8.55-23.55,17.19-35.28,25.84-2.64,1.95-5.15,2.43-7.28-.44-2.35-3.17-.18-5.06,2.26-6.83,8.72-6.35,17.42-12.72,26.08-19.14,1.21-.89,2.94-1.42,3.15-3.61Z"/>
      <path class="cls-2" d="m71.78,78.25c-3.17,0-6.35.11-9.52-.03-2.53-.11-4.05-1.53-4.02-4.19.03-2.52,1.3-4.41,3.82-4.48,6.94-.19,13.89-.15,20.83-.01,2.21.04,3.83,1.48,3.82,3.78-.02,2.64-1.4,4.68-4.23,4.85-3.56.22-7.14.05-10.71.05,0,0,0,.02,0,.03Z"/>
    </g>
  </g>
</svg>