<?xml version="1.0" encoding="UTF-8"?>
<svg id="Layer_2" data-name="Layer 2" xmlns="http://www.w3.org/2000/svg" viewBox="0 0 130 100">
  <defs>
    <style>
      .cls-1 {
        fill: #e6522c;
      }

      .cls-2 {
        fill: #da4e31;
      }
    </style>
  </defs>
  <g id="Layer_1-2" data-name="Layer 1">
    <g>
      <path class="cls-2" d="m65,10.27c-14.83,0-26.85,12.02-26.85,26.85s12.02,26.85,26.85,26.85,26.85-12.02,26.85-26.85-12.02-26.85-26.85-26.85Zm0,50.25c-4.22,0-7.64-2.82-7.64-6.29h15.28c0,3.47-3.42,6.29-7.64,6.29Zm12.62-8.38h-25.24v-4.58h25.22v4.58h.02Zm-.09-6.93h-25.07l-.25-.29c-2.58-3.14-3.19-4.77-3.78-6.44,0-.05,3.13.64,5.36,1.14.94.21,1.88.4,2.82.57-1.61-1.89-2.57-4.28-2.57-6.74,0-5.38,4.13-10.09,2.64-13.89,1.45.12,3,3.06,3.1,7.66,1.54-2.13,2.18-6.02,2.18-8.4s1.63-5.34,3.25-5.43c-1.45,2.39.38,4.44,2,9.52.61,1.91.53,5.12,1,7.16.16-4.23.88-10.41,3.57-12.54-1.18,2.68.18,6.05,1.11,7.66,1.5,2.61,2.41,4.58,2.41,8.32,0,2.51-.92,4.86-2.48,6.7,1.77-.33,3-.63,3-.63l5.76-1.12s-.84,3.44-4.05,6.75h0Z"/>
      <path class="cls-1" d="m12.52,71.99c.93-.16,2.15-.29,3.7-.29,1.91,0,3.3.44,4.19,1.24.8.71,1.31,1.79,1.31,3.12s-.4,2.42-1.15,3.19c-1.04,1.09-2.68,1.64-4.56,1.64-.58,0-1.11-.02-1.55-.12v5.98h-1.91v-14.77Zm1.91,7.2c.42.11.95.16,1.6.16,2.33,0,3.74-1.15,3.74-3.17s-1.42-2.95-3.52-2.95c-.84,0-1.48.07-1.82.16v5.81Zm9.44.18l-.09-3.35h1.71l.09,2.13h.07c.49-1.44,1.68-2.35,2.99-2.35.2,0,.35.02.53.04v1.84c-.2-.04-.4-.04-.67-.04-1.37,0-2.35,1.02-2.62,2.48-.05.3-.07.6-.07.91v5.72h-1.95v-7.38h0Zm16.74,1.91c0,3.97-2.77,5.69-5.34,5.69-2.88,0-5.14-2.13-5.14-5.52,0-3.57,2.37-5.67,5.32-5.67s5.16,2.24,5.16,5.5h0Zm-8.49.11c0,2.35,1.32,4.12,3.23,4.12s3.26-1.75,3.26-4.17c0-1.82-.91-4.1-3.21-4.1s-3.28,2.13-3.28,4.14h0Zm10.95-2.48l-.09-2.9h1.71l.09,1.75h.07c.6-1.02,1.6-1.97,3.39-1.97,1.44,0,2.55.89,3.01,2.15h.04c.3-.55.71-1.03,1.22-1.4.64-.49,1.32-.75,2.35-.75,1.44,0,3.55.93,3.55,4.67v6.29h-1.91v-6.05c0-2.08-.78-3.3-2.33-3.3-1.13,0-1.97.82-2.33,1.75-.1.32-.15.64-.16.97v6.62h-1.91v-6.42c0-1.71-.75-2.92-2.24-2.92-1.2,0-2.11.97-2.42,1.95-.11.27-.16.62-.16.95v6.46h-1.91v-7.85Zm19.57,2.82c.04,2.64,1.71,3.72,3.68,3.72,1.4,0,2.27-.24,2.97-.55l.35,1.4c-.69.31-1.88.69-3.59.69-3.3,0-5.27-2.19-5.27-5.43s1.91-5.76,5.03-5.76c3.52,0,4.43,3.06,4.43,5.03,0,.3-.02.61-.07.91h-7.54Zm5.72-1.4c.02-1.22-.51-3.15-2.7-3.15-1.99,0-2.84,1.79-2.99,3.15h5.69Zm6.65-6.89v2.57h2.79v1.48h-2.79v5.78c0,1.32.38,2.08,1.46,2.08.53,0,.84-.04,1.13-.12l.09,1.48c-.38.12-.97.27-1.73.27-.91,0-1.64-.31-2.11-.82-.53-.6-.75-1.55-.75-2.81v-5.86h-1.66v-1.48h1.67v-1.98l1.89-.59Zm4.99-2.45h1.95v6.71h.04c.33-.58.81-1.07,1.4-1.4.61-.35,1.29-.53,1.99-.53,1.44,0,3.74.89,3.74,4.56v6.38h-1.95v-6.15c0-1.73-.64-3.17-2.48-3.17-1.26,0-2.24.89-2.62,1.91-.11.29-.12.58-.12.93v6.46h-1.95v-15.7h-.01Zm13.38,10.72c.04,2.64,1.71,3.72,3.68,3.72,1.4,0,2.27-.24,2.97-.55l.35,1.4c-.69.31-1.88.69-3.59.69-3.3,0-5.26-2.19-5.26-5.43s1.91-5.76,5.03-5.76c3.52,0,4.43,3.06,4.43,5.03,0,.3-.02.61-.07.91h-7.54Zm5.72-1.4c.02-1.22-.51-3.15-2.7-3.15-1.99,0-2.84,1.79-2.99,3.15h5.69Zm13.27,3.48l.09,2.95h-1.73l-.11-1.75h-.06c-.49.86-1.64,1.99-3.55,1.99-1.68,0-3.7-.95-3.7-4.7v-6.27h1.95v5.92c0,2.04.64,3.43,2.39,3.43,1.31,0,2.22-.91,2.57-1.79.12-.32.18-.66.18-1v-6.56h1.95v7.78Zm2.97.97c.6.35,1.62.75,2.59.75,1.4,0,2.06-.69,2.06-1.6s-.55-1.42-1.97-1.95c-1.95-.71-2.87-1.75-2.87-3.04,0-1.73,1.42-3.15,3.7-3.15,1.09,0,2.04.29,2.62.67l-.48,1.42c-.42-.27-1.2-.64-2.19-.64-1.15,0-1.77.67-1.77,1.46,0,.89.62,1.28,2.02,1.84,1.84.69,2.81,1.62,2.81,3.21,0,1.91-1.48,3.23-3.99,3.23-1.17,0-2.27-.31-3.01-.75l.5-1.46Z"/>
    </g>
  </g>
</svg>