<?xml version="1.0" encoding="utf-8"?>
<!-- Generator: Adobe Illustrator 27.4.1, SVG Export Plug-In . SVG Version: 6.00 Build 0)  -->
<svg version="1.1" id="Layer_2_00000080912897324504346180000000941241459607975329_"
	 xmlns="http://www.w3.org/2000/svg" xmlns:xlink="http://www.w3.org/1999/xlink" x="0px" y="0px" viewBox="0 0 130 100"
	 style="enable-background:new 0 0 130 100;" xml:space="preserve">
<style type="text/css">
	.st0{fill-rule:evenodd;clip-rule:evenodd;fill:#FAA42F;}
	.st1{fill-rule:evenodd;clip-rule:evenodd;fill:#DDB02A;}
	.st2{fill-rule:evenodd;clip-rule:evenodd;fill:#C47728;}
	.st3{fill-rule:evenodd;clip-rule:evenodd;fill:#F15933;}
	.st4{fill-rule:evenodd;clip-rule:evenodd;fill:#F37132;}
	.st5{fill-rule:evenodd;clip-rule:evenodd;fill:#D6E042;}
	.st6{fill-rule:evenodd;clip-rule:evenodd;fill:#FCEA3B;}
	.st7{fill-rule:evenodd;clip-rule:evenodd;fill:#E22574;}
	.st8{fill-rule:evenodd;clip-rule:evenodd;fill:#EF3839;}
	.st9{fill-rule:evenodd;clip-rule:evenodd;fill:#BBD64B;}
	.st10{fill-rule:evenodd;clip-rule:evenodd;fill:#FFCF29;}
	.st11{fill-rule:evenodd;clip-rule:evenodd;fill:#EE438D;}
	.st12{fill-rule:evenodd;clip-rule:evenodd;fill:#CC3192;}
	.st13{fill-rule:evenodd;clip-rule:evenodd;fill:#BD2025;}
	.st14{fill-rule:evenodd;clip-rule:evenodd;fill:#9B3995;}
	.st15{fill-rule:evenodd;clip-rule:evenodd;fill:#F1EB59;}
	.st16{fill-rule:evenodd;clip-rule:evenodd;fill:#F7975F;}
	.st17{fill-rule:evenodd;clip-rule:evenodd;fill:#D31F26;}
	.st18{fill-rule:evenodd;clip-rule:evenodd;fill:#73206A;}
	.st19{fill-rule:evenodd;clip-rule:evenodd;fill:#853A96;}
	.st20{fill-rule:evenodd;clip-rule:evenodd;fill:#D98A26;}
	.st21{fill-rule:evenodd;clip-rule:evenodd;fill:#8F4F9F;}
	.st22{fill-rule:evenodd;clip-rule:evenodd;fill:#D24B9B;}
	.st23{fill-rule:evenodd;clip-rule:evenodd;fill:#B263A7;}
	.st24{fill-rule:evenodd;clip-rule:evenodd;fill:#6B297A;}
	.st25{fill-rule:evenodd;clip-rule:evenodd;fill:#782A8F;}
	.st26{fill-rule:evenodd;clip-rule:evenodd;fill:#A01664;}
	.st27{fill-rule:evenodd;clip-rule:evenodd;fill:#C02026;}
	.st28{fill-rule:evenodd;clip-rule:evenodd;fill:#9051A0;}
	.st29{fill-rule:evenodd;clip-rule:evenodd;fill:#B01B4A;}
	.st30{fill-rule:evenodd;clip-rule:evenodd;fill:#C54627;}
	.st31{fill-rule:evenodd;clip-rule:evenodd;fill:#A41768;}
	.st32{fill-rule:evenodd;clip-rule:evenodd;fill:#D1499A;}
	.st33{fill-rule:evenodd;clip-rule:evenodd;fill:#85459A;}
	.st34{fill-rule:evenodd;clip-rule:evenodd;fill:#EE3F8A;}
	.st35{fill-rule:evenodd;clip-rule:evenodd;fill:#F4805F;}
	.st36{fill-rule:evenodd;clip-rule:evenodd;fill:#552263;}
	.st37{enable-background:new    ;}
	.st38{fill:#85459A;}
</style>
<g id="Layer_1-2">
	<g>
		<path class="st0" d="M40,56l-0.2-0.1v0.2l0.2,0.1V56z"/>
		<path class="st1" d="M40,48.9v-3.5l-0.2-0.1V49L40,48.9L40,48.9z"/>
		<path class="st2" d="M42.5,50.3L40,48.9L39.8,49v6.9L40,56l2.4-1.4V50.3L42.5,50.3z"/>
		<path class="st3" d="M46.2,59.5l3.1,1.8v0.2L46,59.6C46,59.6,46.2,59.5,46.2,59.5z"/>
		<path class="st4" d="M42.5,54.5L40,56v0.2l5.9,3.5l0.2-0.1v-2.8L42.5,54.5L42.5,54.5z"/>
		<path class="st5" d="M40,38.2v-3.6l-0.2-0.1v3.8L40,38.2z"/>
		<path class="st6" d="M39.8,45.2l0.2,0.1l2.1-1.2C42,43.4,42,42.6,42,41.8c0-0.8,0.1-1.6,0.1-2.4L40,38.2l-0.2,0.1
			C39.8,38.3,39.8,45.2,39.8,45.2z"/>
		<path class="st0" d="M40,48.9l2.5,1.4l3.7-2.1v-2.8l-1.8-1c0,0.5,0.1,1,0.2,1.5l-2,1.2c-0.2-0.9-0.4-1.9-0.5-2.8L40,45.3L40,48.9
			L40,48.9z"/>
		<path class="st3" d="M46.2,59.5v-2.8l1-0.6l0,0c0.5,0.6,1,1.1,1.5,1.6c0.8,0.8,1.8,1.6,2.8,2.3l-2.1,1.2
			C49.2,61.3,46.2,59.5,46.2,59.5z M49.8,54.5l2.5,1.4V58c-0.8-0.6-1.5-1.2-2.1-1.9c-0.4-0.4-0.8-0.8-1.1-1.2L49.8,54.5z"/>
		<path class="st7" d="M58.4,66.6l-3.1-1.8l-0.2,0.1l3.3,1.9V66.6z"/>
		<path class="st8" d="M55.2,64.9l0.2-0.1v-2.5c-1.4-0.6-2.8-1.4-4-2.3l-2.1,1.2v0.2C49.2,61.5,55.2,64.9,55.2,64.9z"/>
		<path class="st9" d="M40,27.6v-0.1l-0.2,0.1v0.1L40,27.6z"/>
		<path class="st5" d="M43.1,29.4L40,27.6l-0.2,0.1v6.9l0.2,0.1l3.1-1.8C43.1,32.9,43.1,29.4,43.1,29.4z"/>
		<path class="st10" d="M40,38.2l2.1,1.2c0.2-2.1,0.8-4.2,1.6-6.2L43,32.9L40,34.7L40,38.2L40,38.2z M44.3,39.3l1.8-1v-3.6l-0.5-0.3
			C45,35.9,44.5,37.6,44.3,39.3L44.3,39.3L44.3,39.3z"/>
		<path class="st0" d="M44.3,44.3l1.8,1l3-1.8V40l-3-1.8l-1.8,1c-0.1,0.9-0.2,1.7-0.2,2.6C44.2,42.7,44.2,43.5,44.3,44.3L44.3,44.3
			L44.3,44.3z"/>
		<path class="st3" d="M55.3,51v3.2L52.3,56l-2.5-1.4v-4.3l2.1-1.2L55.3,51L55.3,51z"/>
		<path class="st11" d="M55.3,64.8l3.1,1.8l3.1-1.8v-0.7c-2.2-0.3-4.2-0.9-6.2-1.8V64.8L55.3,64.8z M61.5,61.9v-0.6l-3.1-1.8l-1.8,1
			C58.2,61.2,59.8,61.7,61.5,61.9L61.5,61.9z"/>
		<path class="st4" d="M49.2,43.6l-3.1,1.8v2.8l3.7,2.1L52,49v-3.9C52,45.1,49.2,43.6,49.2,43.6z"/>
		<path class="st12" d="M61.5,64.8l-3.1,1.8v0.2l5.9,3.4l0.2-0.1v-3.6L61.5,64.8L61.5,64.8z"/>
		<path class="st13" d="M56.6,60.5l1.8-1V56l-3.1-1.8L52.3,56V58C53.6,59.1,55.1,59.9,56.6,60.5C56.6,60.5,56.6,60.5,56.6,60.5z"/>
		<path class="st14" d="M64.6,70.1l-0.2,0.1l0.1,0.1l0.2-0.1L64.6,70.1L64.6,70.1z"/>
		<path class="st15" d="M46.2,24L46.2,24L40,27.5v0.1l3.1,1.8l3.1-1.8L46.2,24L46.2,24z"/>
		<path class="st6" d="M43.1,32.9l0.7,0.4c0.8-1.9,1.8-3.7,3.1-5.3l-0.7-0.4l-3.1,1.8V32.9z M45.6,34.4l0.5,0.3l3-1.8v-3.6l-0.5-0.3
			C47.4,30.7,46.4,32.5,45.6,34.4L45.6,34.4L45.6,34.4z"/>
		<path class="st0" d="M52,38.4v-3.8l0.1-0.1l-2.8-1.6l-3.1,1.8v3.6l3.1,1.8L52,38.4L52,38.4z"/>
		<path class="st7" d="M64.6,59.5v-3.2l-0.1,0l-3.3-1.9L58.4,56v3.5l3.1,1.8L64.6,59.5L64.6,59.5z"/>
		<path class="st16" d="M52,45.1v-6.7L49.2,40v3.6C49.2,43.6,52,45.1,52,45.1z"/>
		<path class="st12" d="M61.5,64.8l3.1,1.8l3.1-1.8v-0.8c-1.1,0.1-2.1,0.2-3.2,0.2c-1,0-2-0.1-3-0.2L61.5,64.8L61.5,64.8z
			 M67.7,61.9v-0.6l-3.1-1.8l-3.1,1.8v0.6c1,0.1,2,0.2,3,0.2C65.6,62.1,66.6,62,67.7,61.9L67.7,61.9L67.7,61.9z"/>
		<path class="st17" d="M58.4,56l2.8-1.6L55.3,51v3.2L58.4,56z"/>
		<path class="st18" d="M70.7,66.6l-3.1-1.8l-3.1,1.8v3.6l0.1,0.1l6-3.5V66.6z"/>
		<path class="st5" d="M46.2,24l3.1-1.8v-0.1L46.2,24L46.2,24z"/>
		<path class="st10" d="M46.2,27.6l0.7,0.4c0.6-0.7,1.2-1.4,1.8-2c0.9-0.9,1.8-1.7,2.8-2.4l-2.2-1.3l-3,1.8L46.2,27.6L46.2,27.6z
			 M48.7,29.1l0.5,0.3l3.1-1.8v-2c-0.8,0.6-1.5,1.2-2.1,1.9C49.6,28,49.2,28.5,48.7,29.1L48.7,29.1L48.7,29.1z"/>
		<path class="st0" d="M55.3,29.4l-3.1-1.8l-3.1,1.8v3.6l2.8,1.6l3.3-1.9L55.3,29.4L55.3,29.4z"/>
		<path class="st19" d="M73.8,64.8l-3.1,1.8v0.1l3.2-1.8C73.9,64.9,73.8,64.8,73.8,64.8z"/>
		<path class="st12" d="M70.7,56l-2.8-1.7l-3.3,1.9v3.2l3.1,1.8l3.1-1.8L70.7,56L70.7,56z"/>
		<path class="st14" d="M67.7,64.8l3.1,1.8l3.1-1.8v-2.5c-1.9,0.9-4,1.5-6.2,1.8L67.7,64.8L67.7,64.8z M72.5,60.5l-1.7-1l-3.1,1.8
			v0.6C69.3,61.6,71,61.2,72.5,60.5L72.5,60.5z"/>
		<path class="st10" d="M49.2,22.3l2.2,1.3c1.2-0.9,2.5-1.6,3.9-2.2v-2.6l-0.1,0l-6.1,3.5C49.2,22.2,49.2,22.3,49.2,22.3z"/>
		<path class="st20" d="M52.3,27.6l3.1,1.8l3.1-1.8V24l-1.7-1c-1.6,0.6-3.1,1.5-4.5,2.5C52.3,25.6,52.3,27.6,52.3,27.6z"/>
		<path class="st21" d="M73.8,64.8L73.8,64.8l6.1-3.4v-0.1L77.7,60c-1.2,0.9-2.5,1.6-3.9,2.3L73.8,64.8L73.8,64.8z"/>
		<path class="st4" d="M58.4,27.6l-3.1,1.8v3.3l5.9-3.4C61.3,29.2,58.4,27.6,58.4,27.6z"/>
		<path class="st22" d="M70.7,56l3.1-1.8v-3.2l-5.9,3.4L70.7,56z"/>
		<path class="st23" d="M70.7,59.5l1.7,1c1.6-0.7,3.1-1.5,4.4-2.6V56l-3.1-1.8L70.7,56C70.7,56,70.7,59.5,70.7,59.5z"/>
		<path class="st10" d="M55.3,18.7l3.1-1.8v-0.1L55.3,18.7L55.3,18.7z"/>
		<path class="st0" d="M56.8,23.1l1.7,1l2.5-1.4v-0.8l0.1,0C59.6,22.1,58.2,22.5,56.8,23.1L56.8,23.1z M60.9,18.4L58.4,17l-3.1,1.8
			v2.6c1.8-0.8,3.7-1.3,5.6-1.7V18.4L60.9,18.4z"/>
		<path class="st24" d="M77.7,60l2.2,1.3l3.1-1.8v-2.8l-3.7-2.1L76.9,56v1.9c0.4-0.3,0.8-0.6,1.1-0.9l2,1.1
			C79.3,58.8,78.5,59.4,77.7,60L77.7,60L77.7,60z"/>
		<path class="st25" d="M83.1,59.5L80,61.3v0.1l3.2-1.8C83.2,59.6,83.1,59.5,83.1,59.5z"/>
		<path class="st4" d="M64.5,27.4L64.5,27.4l0.1-2.6l-3.7-2.1L58.4,24v3.6l2.8,1.6C61.3,29.2,64.5,27.4,64.5,27.4z"/>
		<path class="st14" d="M79.4,54.5v-4.3L77.1,49v0.1l-3.2,1.9v3.2l3.1,1.8L79.4,54.5z"/>
		<path class="st0" d="M64.6,16.2v-2.8l-0.1-0.1l-6.1,3.5V17l2.5,1.4C60.9,18.4,64.6,16.2,64.6,16.2z"/>
		<path class="st3" d="M64.6,24.8l3.7-2.1l2.4,1.4v3.6l-2.9,1.7l-3.2-1.9C64.6,27.4,64.6,24.7,64.6,24.8z"/>
		<path class="st25" d="M89.2,56l-2.5-1.4L83,56.7v2.8l0.1,0.1l6-3.5L89.2,56L89.2,56z"/>
		<path class="st26" d="M80,43.6V40l-2.9-1.7v6.9L80,43.6L80,43.6z"/>
		<path class="st27" d="M73.8,29.4l-3.1-1.8l-2.9,1.7l6,3.5C73.8,32.8,73.8,29.4,73.8,29.4z"/>
		<path class="st14" d="M83.1,48.2v-2.8L80,43.6l-2.9,1.7V49l2.3,1.3C79.4,50.3,83.1,48.2,83.1,48.2z"/>
		<path class="st3" d="M68.3,18.4l2.4-1.4l3.1,1.8v2.7c-0.9-0.4-1.9-0.8-2.8-1v2.3c0.5,0.1,0.9,0.3,1.4,0.5l-1.6,0.9l-2.4-1.4
			L68.3,18.4L68.3,18.4z"/>
		<path class="st28" d="M83.5,49.1c0.1-0.1,0.1-0.2,0.1-0.3C83.6,48.9,83.5,49,83.5,49.1z M83.7,48.6c0.5-1.4,0.8-2.8,1-4.2l-1.6,1
			v2.8L83.7,48.6L83.7,48.6L83.7,48.6z M86.7,50.3l2.5-1.4v-3.5L86.9,44c-0.2,2-0.6,3.9-1.3,5.7l0-0.1L86.7,50.3L86.7,50.3z"/>
		<path class="st29" d="M76.9,27.6l-3.1,1.8v3.4l3.2,1.9l2.9-1.7v-3.6L76.9,27.6L76.9,27.6z"/>
		<path class="st30" d="M70.7,17l-6.1-3.5v2.8l3.7,2.1L70.7,17L70.7,17z"/>
		<path class="st31" d="M83.1,38.2v-3.6L80,32.9L77,34.6h0v3.7L80,40L83.1,38.2z"/>
		<path class="st8" d="M70.7,27.6l3.1,1.8l3.1-1.8v-1.8c-1.4-1.1-2.9-2-4.5-2.6l-1.6,0.9V27.6L70.7,27.6z"/>
		<path class="st14" d="M80,43.6l3.1,1.8l1.6-1c0.1-0.8,0.2-1.7,0.2-2.5c0-0.9-0.1-1.8-0.2-2.7l-1.6-0.9L80,40
			C80,40,80,43.6,80,43.6z"/>
		<path class="st24" d="M86.9,44l2.3,1.3v-7.1l-2.3,1.3c0.1,0.8,0.1,1.5,0.1,2.3C87,42.6,87,43.3,86.9,44L86.9,44L86.9,44z"/>
		<path class="st7" d="M76.9,27.6l3.1,1.8l0.4-0.2c-0.4-0.6-0.9-1.1-1.5-1.7c-0.6-0.6-1.3-1.2-2-1.7V27.6z M82.2,28l0.8-0.4V24
			L80,22.3l-2.3,1.4c1,0.7,1.9,1.5,2.8,2.3C81.1,26.6,81.7,27.3,82.2,28C82.2,28,82.2,28,82.2,28z"/>
		<path class="st12" d="M80,32.9l3.1,1.8l0.4-0.2c-0.7-1.9-1.8-3.7-3.1-5.3L80,29.3V32.9L80,32.9z M85.3,33.4l0.8-0.4v-3.6l-3.1-1.8
			L82.2,28C83.5,29.7,84.5,31.5,85.3,33.4L85.3,33.4L85.3,33.4z"/>
		<path class="st8" d="M77.7,23.6l2.3-1.4l-6.2-3.6v2.7C75.2,22,76.5,22.8,77.7,23.6L77.7,23.6z"/>
		<path class="st23" d="M83.1,38.2l1.6,0.9c-0.2-1.6-0.6-3.2-1.2-4.7l-0.4,0.2L83.1,38.2L83.1,38.2z M86.9,39.6l2.3-1.3v-3.6
			l-3.1-1.8l-0.8,0.4C86.1,35.3,86.7,37.4,86.9,39.6L86.9,39.6z"/>
		<path class="st32" d="M86.1,29.4l3.1-1.8L83.1,24v3.6C83.1,27.6,86.1,29.4,86.1,29.4z"/>
		<path class="st14" d="M86.1,29.4v3.6l3.1,1.8v-7.1L86.1,29.4L86.1,29.4z"/>
		<path class="st33" d="M89.2,48.9l-2.5,1.4v4.3l2.5,1.4V48.9L89.2,48.9z"/>
		<path class="st3" d="M58.4,45.3v0.3l-0.3-0.2v-0.3L58.4,45.3z"/>
		<path class="st3" d="M61.5,43.6l-3.1,1.8l-0.3-0.2v-6.8l0.3-0.2l3.1,1.8V43.6L61.5,43.6z"/>
		<path class="st7" d="M64.6,48.8L64.3,49l0.2,0.1l0.3-0.2L64.6,48.8z"/>
		<path class="st8" d="M61.5,43.6l-3.1,1.8v0.3l5.8,3.4l0.3-0.2v-3.5C64.6,45.3,61.5,43.6,61.5,43.6z"/>
		<path class="st34" d="M70.7,45.3l-3.1-1.8l-3.1,1.8v3.5l0.2,0.1l5.9-3.4L70.7,45.3L70.7,45.3z"/>
		<path class="st8" d="M67.7,40l-3.1-1.8L61.5,40v3.6l3.1,1.8l3.1-1.8V40z"/>
		<path class="st7" d="M70.9,38.3l-0.1-0.1L67.7,40v3.6l3.1,1.8l0.1-0.1V38.3L70.9,38.3z"/>
		<path class="st12" d="M70.7,45.3v0.2l0.1-0.1v-0.2L70.7,45.3z"/>
		<path class="st4" d="M58.4,38.2V38l-0.3,0.2v0.2L58.4,38.2z"/>
		<path class="st3" d="M64.6,34.7v3.6L61.5,40l-3.1-1.8V38l5.9-3.4L64.6,34.7L64.6,34.7z"/>
		<path class="st35" d="M64.6,34.7l-0.2-0.1l0.1-0.1l0.2,0.1L64.6,34.7z"/>
		<path class="st8" d="M70.7,38.1l-6-3.5l-0.1,0.1v3.6l3.1,1.8l3.1-1.8L70.7,38.1L70.7,38.1z"/>
		<path class="st7" d="M70.9,38.3v-0.1l-0.1-0.1v0.1L70.9,38.3z"/>
		<path class="st4" d="M66.7,19.3l-2.1-1.2l-2.1,1.2v2.4l2.1,1.2l2.1-1.2V19.3z"/>
		<path class="st36" d="M85.2,51.2L83.1,50l-2.1,1.2v2.4l2.1,1.2l2.1-1.2V51.2z"/>
		<path class="st4" d="M48.3,51.2L46.1,50L44,51.2v2.4l2.1,1.2l2.1-1.2V51.2z"/>
		<g class="st37">
			<path class="st38" d="M16.9,78.2c1.5,0,2.7,0.3,3.5,0.8c0.8,0.5,1.2,1.4,1.2,2.6c0,1.2-0.4,2.1-1.2,2.6c-0.8,0.5-2,0.8-3.5,0.8
				h-0.7v3.4h-2.3v-9.9c0.5-0.1,1-0.2,1.6-0.2C16,78.2,16.4,78.2,16.9,78.2z M17,80.1c-0.2,0-0.3,0-0.5,0s-0.3,0-0.4,0V83h0.7
				c0.8,0,1.4-0.1,1.8-0.3s0.6-0.6,0.6-1.2c0-0.3-0.1-0.5-0.2-0.7c-0.1-0.2-0.2-0.3-0.4-0.4s-0.4-0.2-0.7-0.2
				C17.6,80.1,17.3,80.1,17,80.1z"/>
		</g>
		<g class="st37">
			<path class="st38" d="M27.7,82.6c-0.2,0-0.4-0.1-0.7-0.2c-0.3-0.1-0.5-0.1-0.8-0.1c-0.1,0-0.3,0-0.5,0s-0.3,0.1-0.4,0.1v5.8h-2.2
				v-7.2c0.4-0.1,0.8-0.3,1.4-0.4s1.1-0.2,1.8-0.2c0.1,0,0.3,0,0.4,0c0.2,0,0.3,0,0.5,0.1s0.3,0.1,0.5,0.1c0.2,0,0.3,0.1,0.4,0.1
				L27.7,82.6z"/>
		</g>
		<g class="st37">
			<path class="st38" d="M36.2,84.5c0,0.6-0.1,1.2-0.3,1.6s-0.4,0.9-0.8,1.3c-0.3,0.4-0.7,0.6-1.2,0.8c-0.5,0.2-1,0.3-1.5,0.3
				c-0.6,0-1.1-0.1-1.5-0.3c-0.5-0.2-0.9-0.5-1.2-0.8c-0.3-0.4-0.6-0.8-0.8-1.3s-0.3-1-0.3-1.6s0.1-1.1,0.3-1.6
				c0.2-0.5,0.5-0.9,0.8-1.3c0.3-0.3,0.7-0.6,1.2-0.8c0.5-0.2,1-0.3,1.5-0.3c0.6,0,1.1,0.1,1.5,0.3c0.5,0.2,0.9,0.5,1.2,0.8
				c0.3,0.3,0.6,0.8,0.8,1.3S36.2,83.9,36.2,84.5z M34,84.5c0-0.7-0.1-1.2-0.4-1.6s-0.6-0.6-1.1-0.6c-0.5,0-0.9,0.2-1.1,0.6
				c-0.3,0.4-0.4,0.9-0.4,1.6s0.1,1.2,0.4,1.6c0.3,0.4,0.7,0.6,1.1,0.6c0.5,0,0.9-0.2,1.1-0.6C33.8,85.7,34,85.2,34,84.5z"/>
		</g>
		<g class="st37">
			<path class="st38" d="M40.6,82.8l1.5-2.1h2.2l-2.7,3.7c0.6,0.7,1.1,1.4,1.6,2.1c0.5,0.7,0.8,1.3,1.1,1.8h-2.3
				c-0.1-0.1-0.2-0.3-0.3-0.5c-0.1-0.2-0.2-0.4-0.4-0.7c-0.1-0.2-0.3-0.4-0.5-0.6c-0.2-0.2-0.3-0.3-0.5-0.5
				c-0.1,0.1-0.3,0.3-0.4,0.4c-0.2,0.2-0.3,0.3-0.4,0.6c-0.1,0.2-0.3,0.5-0.4,0.7c-0.1,0.2-0.2,0.4-0.4,0.6h-2.2
				c0.1-0.2,0.3-0.5,0.5-0.9s0.4-0.7,0.7-1c0.2-0.4,0.5-0.7,0.8-1c0.3-0.3,0.5-0.6,0.8-0.9c-0.5-0.7-0.9-1.3-1.4-1.9
				s-0.9-1.2-1.3-1.8h2.3L40.6,82.8z"/>
		</g>
		<g class="st37">
			<path class="st38" d="M52.8,80.7c-0.4,1.5-0.9,2.9-1.4,4.1c-0.5,1.3-1,2.5-1.6,3.7c-0.2,0.4-0.4,0.8-0.6,1.1
				c-0.2,0.3-0.4,0.6-0.7,0.8c-0.2,0.2-0.5,0.3-0.8,0.4C47.5,91,47.1,91,46.7,91c-0.3,0-0.7,0-0.9-0.1c-0.3-0.1-0.5-0.1-0.7-0.2
				l0.4-1.7c0.2,0.1,0.4,0.1,0.6,0.2s0.4,0,0.6,0c0.4,0,0.7-0.1,0.9-0.3s0.4-0.5,0.5-0.9c-0.5-1-1-2.1-1.5-3.3s-1-2.6-1.4-4.1h2.3
				c0.1,0.4,0.2,0.8,0.3,1.2c0.1,0.4,0.3,0.9,0.4,1.3c0.1,0.5,0.3,0.9,0.4,1.3c0.2,0.4,0.3,0.8,0.4,1.2c0.1-0.3,0.3-0.7,0.4-1.2
				c0.1-0.4,0.3-0.9,0.4-1.3c0.1-0.5,0.3-0.9,0.4-1.3c0.1-0.4,0.2-0.8,0.3-1.2H52.8z"/>
			<path class="st38" d="M60.3,78.3c0.2,0.3,0.4,0.7,0.6,1.2c0.2,0.5,0.5,1,0.7,1.5s0.5,1.1,0.7,1.7c0.2,0.6,0.5,1.1,0.7,1.6
				c0.2-0.5,0.4-1,0.7-1.6c0.2-0.6,0.5-1.1,0.7-1.7s0.5-1.1,0.7-1.5c0.2-0.5,0.4-0.9,0.6-1.2h2.1c0.1,0.7,0.2,1.4,0.3,2.2
				s0.2,1.7,0.2,2.6c0.1,0.9,0.1,1.8,0.2,2.7c0.1,0.9,0.1,1.7,0.1,2.5h-2.2c0-1-0.1-2-0.1-3.2c0-1.2-0.1-2.3-0.2-3.5
				c-0.2,0.4-0.4,0.9-0.6,1.4c-0.2,0.5-0.4,1-0.6,1.5c-0.2,0.5-0.4,1-0.6,1.4s-0.4,0.8-0.5,1.2h-1.6c-0.1-0.3-0.3-0.7-0.5-1.2
				S61.3,85,61,84.5s-0.4-1-0.6-1.5c-0.2-0.5-0.4-0.9-0.6-1.4c-0.1,1.2-0.2,2.3-0.2,3.5c0,1.2-0.1,2.2-0.1,3.2h-2.2
				c0-0.8,0.1-1.6,0.1-2.5c0.1-0.9,0.1-1.8,0.2-2.7c0.1-0.9,0.1-1.8,0.2-2.6c0.1-0.8,0.2-1.6,0.3-2.2H60.3z"/>
			<path class="st38" d="M73.2,80.5c0.6,0,1.2,0.1,1.6,0.2c0.4,0.1,0.8,0.4,1,0.6c0.3,0.3,0.4,0.6,0.5,1c0.1,0.4,0.2,0.8,0.2,1.3
				v4.5c-0.3,0.1-0.7,0.1-1.3,0.2c-0.6,0.1-1.2,0.1-2,0.1c-0.5,0-0.9,0-1.3-0.1c-0.4-0.1-0.7-0.2-1-0.4s-0.5-0.5-0.7-0.8
				C70,86.9,70,86.5,70,86c0-0.4,0.1-0.8,0.3-1.1c0.2-0.3,0.4-0.6,0.7-0.7c0.3-0.2,0.6-0.3,1-0.4c0.4-0.1,0.8-0.1,1.2-0.1
				c0.3,0,0.5,0,0.7,0s0.4,0.1,0.5,0.1v-0.2c0-0.4-0.1-0.7-0.3-0.9s-0.6-0.3-1.2-0.3c-0.4,0-0.7,0-1.1,0.1c-0.4,0.1-0.7,0.1-0.9,0.2
				l-0.3-1.7c0.1,0,0.3-0.1,0.5-0.1c0.2,0,0.4-0.1,0.6-0.1c0.2,0,0.5-0.1,0.7-0.1C72.7,80.5,73,80.5,73.2,80.5z M73.4,86.8
				c0.2,0,0.4,0,0.6,0s0.3,0,0.5,0v-1.6c-0.1,0-0.2,0-0.4-0.1c-0.2,0-0.3,0-0.5,0c-0.2,0-0.4,0-0.6,0c-0.2,0-0.3,0.1-0.5,0.1
				c-0.1,0.1-0.2,0.2-0.3,0.3s-0.1,0.3-0.1,0.4c0,0.3,0.1,0.6,0.3,0.7C72.7,86.8,73,86.8,73.4,86.8z"/>
			<path class="st38" d="M78.5,81c0.4-0.1,0.8-0.2,1.4-0.3c0.6-0.1,1.2-0.1,1.8-0.1c0.6,0,1.2,0.1,1.6,0.3c0.4,0.2,0.8,0.4,1,0.7
				c0.3,0.3,0.4,0.7,0.5,1.1c0.1,0.4,0.2,0.9,0.2,1.4v4.3h-2.2v-4.1c0-0.7-0.1-1.2-0.3-1.5c-0.2-0.3-0.5-0.4-1-0.4
				c-0.2,0-0.3,0-0.5,0s-0.3,0-0.5,0.1v5.9h-2.2V81z"/>
			<path class="st38" d="M89.8,80.5c0.6,0,1.2,0.1,1.6,0.2c0.4,0.1,0.8,0.4,1,0.6c0.3,0.3,0.4,0.6,0.5,1c0.1,0.4,0.2,0.8,0.2,1.3
				v4.5c-0.3,0.1-0.7,0.1-1.3,0.2c-0.6,0.1-1.2,0.1-2,0.1c-0.5,0-0.9,0-1.3-0.1c-0.4-0.1-0.7-0.2-1-0.4c-0.3-0.2-0.5-0.5-0.7-0.8
				c-0.2-0.3-0.2-0.7-0.2-1.2c0-0.4,0.1-0.8,0.3-1.1c0.2-0.3,0.4-0.6,0.7-0.7c0.3-0.2,0.6-0.3,1-0.4c0.4-0.1,0.8-0.1,1.2-0.1
				c0.3,0,0.5,0,0.7,0c0.2,0,0.4,0.1,0.5,0.1v-0.2c0-0.4-0.1-0.7-0.3-0.9c-0.2-0.2-0.6-0.3-1.2-0.3c-0.4,0-0.7,0-1.1,0.1
				c-0.4,0.1-0.7,0.1-0.9,0.2l-0.3-1.7c0.1,0,0.3-0.1,0.5-0.1c0.2,0,0.4-0.1,0.6-0.1s0.5-0.1,0.7-0.1C89.3,80.5,89.6,80.5,89.8,80.5
				z M90,86.8c0.2,0,0.4,0,0.6,0s0.3,0,0.5,0v-1.6c-0.1,0-0.2,0-0.4-0.1c-0.2,0-0.3,0-0.5,0c-0.2,0-0.4,0-0.6,0
				c-0.2,0-0.3,0.1-0.5,0.1c-0.1,0.1-0.2,0.2-0.3,0.3c-0.1,0.1-0.1,0.3-0.1,0.4c0,0.3,0.1,0.6,0.3,0.7C89.3,86.8,89.6,86.8,90,86.8z
				"/>
			<path class="st38" d="M101.7,87.4c0,1.2-0.3,2.2-1,2.8s-1.6,0.9-2.9,0.9c-0.5,0-0.9,0-1.4-0.1c-0.5-0.1-0.9-0.2-1.3-0.3l0.4-1.8
				c0.3,0.1,0.7,0.2,1.1,0.3c0.4,0.1,0.8,0.1,1.3,0.1c0.6,0,1.1-0.1,1.3-0.4c0.3-0.3,0.4-0.6,0.4-1v-0.3c-0.2,0.1-0.5,0.2-0.7,0.2
				c-0.2,0.1-0.5,0.1-0.8,0.1c-1.1,0-1.9-0.3-2.4-0.9c-0.6-0.6-0.8-1.5-0.8-2.6c0-0.6,0.1-1.1,0.3-1.5c0.2-0.5,0.4-0.9,0.8-1.2
				s0.7-0.6,1.2-0.8c0.5-0.2,1-0.3,1.6-0.3c0.3,0,0.5,0,0.8,0c0.3,0,0.5,0.1,0.8,0.1c0.3,0,0.5,0.1,0.8,0.1c0.2,0.1,0.5,0.1,0.7,0.2
				V87.4z M96.9,84.3c0,1.2,0.5,1.8,1.5,1.8c0.2,0,0.4,0,0.6-0.1c0.2-0.1,0.4-0.1,0.5-0.2v-3.5c-0.1,0-0.2,0-0.4-0.1
				c-0.1,0-0.3,0-0.5,0c-0.6,0-1,0.2-1.3,0.6C97.1,83.2,96.9,83.7,96.9,84.3z"/>
			<path class="st38" d="M103.4,84.6c0-0.7,0.1-1.3,0.3-1.8c0.2-0.5,0.5-0.9,0.8-1.3s0.7-0.6,1.2-0.8c0.4-0.2,0.9-0.3,1.4-0.3
				c1.1,0,1.9,0.3,2.6,1c0.6,0.7,0.9,1.6,0.9,2.9c0,0.1,0,0.3,0,0.4c0,0.2,0,0.3,0,0.4h-4.9c0,0.4,0.3,0.8,0.6,1.1
				c0.4,0.3,0.9,0.4,1.5,0.4c0.4,0,0.8,0,1.2-0.1c0.4-0.1,0.7-0.2,0.9-0.3l0.3,1.8c-0.1,0.1-0.3,0.1-0.5,0.2
				c-0.2,0.1-0.4,0.1-0.6,0.2s-0.5,0.1-0.8,0.1c-0.3,0-0.5,0-0.8,0c-0.7,0-1.3-0.1-1.8-0.3c-0.5-0.2-0.9-0.5-1.3-0.8
				c-0.3-0.4-0.6-0.8-0.7-1.3S103.4,85.1,103.4,84.6z M108.4,83.8c0-0.2,0-0.4-0.1-0.5c-0.1-0.2-0.1-0.3-0.2-0.5s-0.3-0.2-0.4-0.3
				c-0.2-0.1-0.4-0.1-0.6-0.1c-0.2,0-0.4,0-0.6,0.1s-0.3,0.2-0.4,0.3c-0.1,0.1-0.2,0.3-0.3,0.5c-0.1,0.2-0.1,0.4-0.1,0.5H108.4z"/>
			<path class="st38" d="M116.8,82.6c-0.2,0-0.4-0.1-0.7-0.2c-0.3-0.1-0.5-0.1-0.8-0.1c-0.1,0-0.3,0-0.5,0c-0.2,0-0.3,0.1-0.4,0.1
				v5.8h-2.2v-7.2c0.4-0.1,0.8-0.3,1.4-0.4c0.5-0.1,1.1-0.2,1.8-0.2c0.1,0,0.3,0,0.4,0c0.2,0,0.3,0,0.5,0.1c0.2,0,0.3,0.1,0.5,0.1
				c0.2,0,0.3,0.1,0.4,0.1L116.8,82.6z"/>
		</g>
	</g>
</g>
</svg>
