<?xml version="1.0" encoding="UTF-8"?>
<svg id="Layer_2" data-name="Layer 2" xmlns="http://www.w3.org/2000/svg" viewBox="0 0 130 100">
  <defs>
    <style>
      .cls-1 {
        fill: #c02026;
      }

      .cls-1, .cls-2, .cls-3, .cls-4, .cls-5, .cls-6, .cls-7, .cls-8, .cls-9, .cls-10, .cls-11, .cls-12, .cls-13, .cls-14, .cls-15, .cls-16, .cls-17, .cls-18, .cls-19, .cls-20, .cls-21, .cls-22, .cls-23, .cls-24, .cls-25, .cls-26, .cls-27, .cls-28, .cls-29, .cls-30, .cls-31, .cls-32, .cls-33, .cls-34, .cls-35, .cls-36, .cls-37 {
        fill-rule: evenodd;
      }

      .cls-2 {
        fill: #f1eb59;
      }

      .cls-3 {
        fill: #f7975f;
      }

      .cls-4 {
        fill: #6b297a;
      }

      .cls-5 {
        fill: #b01b4a;
      }

      .cls-6 {
        fill: #bd2025;
      }

      .cls-7 {
        fill: #782a8f;
      }

      .cls-8 {
        fill: #d24b9b;
      }

      .cls-9 {
        fill: #c54627;
      }

      .cls-38 {
        font-family: Ubuntu-Bold, Ubuntu;
        font-size: 14.53px;
        font-weight: 700;
      }

      .cls-38, .cls-25 {
        fill: #85459a;
      }

      .cls-39 {
        letter-spacing: .02em;
      }

      .cls-40 {
        letter-spacing: 0em;
      }

      .cls-10 {
        fill: #ee3f8a;
      }

      .cls-11 {
        fill: #fcea3b;
      }

      .cls-12 {
        fill: #853a96;
      }

      .cls-13 {
        fill: #f15933;
      }

      .cls-14 {
        fill: #f37132;
      }

      .cls-15 {
        fill: #d98a26;
      }

      .cls-16 {
        fill: #552263;
      }

      .cls-41 {
        letter-spacing: -.02em;
      }

      .cls-17 {
        fill: #ddb02a;
      }

      .cls-18 {
        fill: #ee438d;
      }

      .cls-19 {
        fill: #73206a;
      }

      .cls-20 {
        fill: #f4805f;
      }

      .cls-21 {
        fill: #e22574;
      }

      .cls-22 {
        fill: #d1499a;
      }

      .cls-23 {
        fill: #9b3995;
      }

      .cls-24 {
        fill: #b263a7;
      }

      .cls-26 {
        fill: #ef3839;
      }

      .cls-27 {
        fill: #d31f26;
      }

      .cls-28 {
        fill: #c47728;
      }

      .cls-29 {
        fill: #a41768;
      }

      .cls-30 {
        fill: #faa42f;
      }

      .cls-31 {
        fill: #9051a0;
      }

      .cls-42 {
        letter-spacing: 0em;
      }

      .cls-32 {
        fill: #ffcf29;
      }

      .cls-33 {
        fill: #cc3192;
      }

      .cls-34 {
        fill: #8f4f9f;
      }

      .cls-35 {
        fill: #d6e042;
      }

      .cls-36 {
        fill: #a01664;
      }

      .cls-37 {
        fill: #bbd64b;
      }
    </style>
  </defs>
  <g id="Layer_1-2" data-name="Layer 1">
    <g>
      <path class="cls-30" d="m40.01,55.97l-.2-.1v.2l.2.1v-.2Z"/>
      <path class="cls-17" d="m40.01,48.86v-3.53l-.2-.1v3.76l.2-.14Z"/>
      <path class="cls-28" d="m42.45,50.28l-2.44-1.42-.2.14v6.88l.2.1,2.44-1.42v-4.27Z"/>
      <path class="cls-13" d="m46.15,59.5l3.06,1.8v.2l-3.26-1.86.2-.14Z"/>
      <path class="cls-14" d="m42.45,54.55l-2.44,1.42v.2l5.94,3.46.2-.14v-2.81l-3.7-2.14Z"/>
      <path class="cls-35" d="m40.01,38.24v-3.56l-.2-.1v3.76l.2-.1Z"/>
      <path class="cls-11" d="m39.8,45.23l.2.1,2.14-1.22c-.1-.75-.14-1.51-.14-2.27,0-.78.07-1.59.14-2.37l-2.14-1.22-.2.1v6.88Z"/>
      <path class="cls-30" d="m40,48.89l2.45,1.39,3.7-2.1v-2.85l-1.8-1.05c.03.51.14,1.02.24,1.53l-1.97,1.15c-.24-.93-.4-1.89-.47-2.85l-2.14,1.22v3.56Z"/>
      <path class="cls-13" d="m46.15,59.5v-2.81l.98-.58-.03-.03c.47.58.98,1.12,1.49,1.63.85.85,1.77,1.63,2.75,2.34l-2.14,1.25-3.05-1.8Zm3.67-4.95l2.48,1.42v2.07c-.77-.56-1.48-1.18-2.14-1.86-.4-.37-.77-.77-1.12-1.19l.78-.44Z"/>
      <path class="cls-21" d="m58.44,66.58l-3.09-1.76-.17.1,3.26,1.9v-.24Z"/>
      <path class="cls-26" d="m55.18,64.92l.17-.1v-2.47c-1.41-.62-2.76-1.39-4.01-2.3l-2.14,1.25v.2l5.98,3.42Z"/>
      <path class="cls-37" d="m40.01,27.6v-.1l-.2.1v.1l.2-.1Z"/>
      <path class="cls-35" d="m43.06,29.36l-3.06-1.76-.2.1v6.88l.2.1,3.06-1.76v-3.56Z"/>
      <path class="cls-32" d="m40,38.24l2.14,1.22c.23-2.12.76-4.19,1.56-6.17l-.65-.37-3.06,1.76v3.56Zm4.35,1.02l1.8-1.02v-3.56l-.55-.31c-.62,1.57-1.05,3.21-1.26,4.88h0Z"/>
      <path class="cls-30" d="m44.35,44.28l1.8,1.05,3.05-1.76v-3.56l-3.05-1.76-1.8,1.02c-.11.86-.17,1.72-.17,2.58,0,.82.06,1.63.17,2.44h0Z"/>
      <path class="cls-13" d="m55.35,51.02v3.15l-3.06,1.8-2.48-1.42v-4.27l2.14-1.22,3.4,1.97Z"/>
      <path class="cls-18" d="m55.35,64.82l3.09,1.76,3.09-1.76v-.71c-2.17-.3-4.25-.88-6.18-1.76v2.48Zm6.18-2.92v-.61l-3.09-1.8-1.8,1.05c1.56.66,3.21,1.12,4.89,1.36h0Z"/>
      <path class="cls-14" d="m49.21,43.56l-3.06,1.76v2.85l3.67,2.1,2.14-1.22v-3.93l-2.75-1.56Z"/>
      <path class="cls-33" d="m61.53,64.82l-3.09,1.76v.24l5.94,3.43.2-.1v-3.56l-3.06-1.76Z"/>
      <path class="cls-6" d="m56.64,60.55l1.8-1.05v-3.53l-3.09-1.8-3.06,1.8v2.07c1.33,1.02,2.79,1.87,4.35,2.51h0Z"/>
      <path class="cls-23" d="m64.59,70.14l-.2.1.14.07.17-.1-.1-.07Z"/>
      <path class="cls-2" d="m46.15,24.04l-.1-.03-6.04,3.49v.1l3.06,1.76,3.09-1.76v-3.56Z"/>
      <path class="cls-11" d="m43.06,32.92l.65.37c.78-1.93,1.83-3.7,3.09-5.32l-.65-.37-3.09,1.76v3.56Zm2.54,1.45l.55.31,3.05-1.76v-3.56l-.51-.27c-1.28,1.6-2.32,3.38-3.09,5.29h0Z"/>
      <path class="cls-30" d="m51.96,38.41v-3.8l.1-.07-2.85-1.63-3.06,1.76v3.56l3.06,1.76,2.75-1.59Z"/>
      <path class="cls-21" d="m64.59,59.5v-3.25l-.07.03-3.33-1.9-2.75,1.59v3.52l3.09,1.8,3.06-1.8Z"/>
      <path class="cls-3" d="m51.96,45.13v-6.71l-2.75,1.59v3.56l2.75,1.56Z"/>
      <path class="cls-33" d="m61.53,64.82l3.06,1.76,3.09-1.76v-.75c-1.05.14-2.1.2-3.16.2-1,0-2-.06-2.99-.17v.71Zm6.15-2.95v-.58l-3.09-1.8-3.06,1.8v.61c.99.14,1.99.21,2.99.2,1.06,0,2.11-.07,3.16-.24h0Z"/>
      <path class="cls-27" d="m58.44,55.97l2.75-1.59-5.84-3.36v3.15l3.09,1.8Z"/>
      <path class="cls-19" d="m70.74,66.59l-3.05-1.76-3.09,1.76v3.56l.1.07,6.04-3.49v-.14Z"/>
      <path class="cls-35" d="m46.15,24.04l3.06-1.76v-.1l-3.16,1.83.1.03Z"/>
      <path class="cls-32" d="m46.15,27.6l.65.37c.58-.71,1.19-1.35,1.8-2,.88-.88,1.83-1.69,2.85-2.41l-2.24-1.29-3.05,1.76v3.56Zm2.54,1.49l.51.27,3.09-1.76v-1.97c-.77.56-1.48,1.18-2.14,1.86-.51.51-.98,1.02-1.46,1.59h0Z"/>
      <path class="cls-30" d="m55.35,29.36l-3.06-1.76-3.09,1.76v3.56l2.85,1.63,3.29-1.9v-3.29Z"/>
      <path class="cls-12" d="m73.83,64.82l-3.09,1.76v.14l3.19-1.83-.1-.07Z"/>
      <path class="cls-33" d="m70.73,55.97l-2.82-1.66-3.33,1.93v3.25l3.09,1.8,3.05-1.8v-3.52Z"/>
      <path class="cls-23" d="m67.68,64.82l3.05,1.76,3.09-1.76v-2.54c-1.95.89-4.02,1.49-6.15,1.8v.75Zm4.79-4.31l-1.73-1.02-3.05,1.8v.58c1.66-.27,3.29-.71,4.79-1.36Z"/>
      <path class="cls-32" d="m49.21,22.28l2.24,1.29c1.22-.88,2.53-1.63,3.91-2.24v-2.61l-.07-.03-6.08,3.49v.1Z"/>
      <path class="cls-15" d="m52.3,27.6l3.06,1.76,3.09-1.76v-3.56l-1.67-.95c-1.63.64-3.12,1.53-4.48,2.55v1.96Z"/>
      <path class="cls-34" d="m73.82,64.82l.1.07,6.04-3.49v-.1l-2.24-1.29c-1.23.88-2.53,1.64-3.91,2.27v2.54Z"/>
      <path class="cls-14" d="m58.44,27.6l-3.09,1.76v3.29l5.94-3.42-2.85-1.63Z"/>
      <path class="cls-8" d="m70.74,55.97l3.09-1.8v-3.25l-5.91,3.39,2.82,1.66Z"/>
      <path class="cls-24" d="m70.73,59.5l1.73,1.02c1.58-.67,3.07-1.55,4.41-2.61v-1.93l-3.05-1.8-3.09,1.8v3.52Z"/>
      <path class="cls-32" d="m55.35,18.72l3.09-1.76v-.1l-3.16,1.83.07.03Z"/>
      <path class="cls-30" d="m56.78,23.09l1.66.95,2.48-1.39v-.78l.14-.03c-1.47.26-2.9.68-4.28,1.26Zm4.14-4.71l-2.48-1.43-3.09,1.76v2.61c1.78-.78,3.65-1.34,5.57-1.66v-1.29Z"/>
      <path class="cls-4" d="m77.73,60.01l2.24,1.29,3.09-1.8v-2.81l-3.7-2.14-2.48,1.42v1.93c.41-.27.75-.58,1.12-.88l1.97,1.12c-.71.67-1.46,1.29-2.24,1.86h0Z"/>
      <path class="cls-7" d="m83.06,59.5l-3.09,1.8v.1l3.19-1.83-.1-.07Z"/>
      <path class="cls-14" d="m64.52,27.4l.07.03v-2.68l-3.67-2.1-2.48,1.39v3.56l2.85,1.63,3.23-1.83Z"/>
      <path class="cls-23" d="m79.36,54.55v-4.27l-2.31-1.32v.1l-3.23,1.86v3.25l3.06,1.8,2.48-1.42Z"/>
      <path class="cls-30" d="m64.59,16.24v-2.81l-.07-.07-6.08,3.49v.1l2.48,1.42,3.67-2.13Z"/>
      <path class="cls-13" d="m64.59,24.75l3.7-2.1,2.44,1.39v3.56l-2.92,1.69-3.22-1.86v-2.68Z"/>
      <path class="cls-7" d="m89.2,55.97l-2.48-1.42-3.67,2.14v2.81l.1.07,6.04-3.49v-.1Z"/>
      <path class="cls-36" d="m79.97,43.57v-3.56l-2.92-1.69v6.92l2.92-1.66Z"/>
      <path class="cls-1" d="m73.83,29.36l-3.09-1.76-2.92,1.69,6.01,3.46v-3.39Z"/>
      <path class="cls-23" d="m83.06,48.17v-2.85l-3.09-1.76-2.92,1.66v3.73l2.31,1.32,3.7-2.1Z"/>
      <path class="cls-13" d="m68.29,18.38l2.44-1.42,3.09,1.76v2.68c-.92-.42-1.88-.77-2.85-1.05v2.27c.48.14.94.31,1.39.51l-1.63.92-2.45-1.39v-4.27Z"/>
      <path class="cls-31" d="m83.47,49.09c.06-.1.11-.22.14-.34-.03.12-.07.24-.14.34Zm.2-.48c.49-1.37.82-2.79.99-4.24l-1.6.95v2.85l.65.37-.03.07Zm3.06,1.66l2.48-1.42v-3.52l-2.31-1.32c-.19,1.95-.64,3.86-1.32,5.7l.04-.07,1.12.64Z"/>
      <path class="cls-5" d="m76.88,27.6l-3.06,1.76v3.39l3.19,1.87,2.95-1.7v-3.56l-3.09-1.76Z"/>
      <path class="cls-9" d="m70.74,16.95l-6.14-3.52v2.81l3.7,2.14,2.44-1.42Z"/>
      <path class="cls-29" d="m83.06,38.25v-3.56l-3.09-1.76-2.95,1.7h.03v3.69l2.92,1.69,3.09-1.76Z"/>
      <path class="cls-26" d="m70.73,27.6l3.09,1.76,3.06-1.76v-1.83c-1.37-1.09-2.89-1.98-4.52-2.64l-1.63.92v3.56Z"/>
      <path class="cls-23" d="m79.97,43.56l3.09,1.76,1.6-.95c.11-.84.17-1.69.17-2.54,0-.9-.06-1.79-.17-2.68l-1.6-.91-3.09,1.76v3.56Z"/>
      <path class="cls-4" d="m86.89,44.01l2.31,1.32v-7.09l-2.34,1.32c.1.75.14,1.51.14,2.27,0,.75-.04,1.46-.1,2.17h0Z"/>
      <path class="cls-21" d="m76.88,27.6l3.09,1.76.37-.2c-.45-.58-.94-1.14-1.46-1.66-.64-.61-1.31-1.19-2-1.73v1.83Zm5.36.44l.82-.44v-3.56l-3.09-1.76-2.31,1.35c.98.7,1.9,1.49,2.75,2.34.65.66,1.26,1.35,1.83,2.07h0Z"/>
      <path class="cls-33" d="m79.97,32.92l3.09,1.76.37-.21c-.74-1.93-1.78-3.72-3.09-5.32l-.37.2v3.56Zm5.36.44l.78-.44v-3.56l-3.06-1.76-.82.44c1.26,1.63,2.3,3.42,3.09,5.32h0Z"/>
      <path class="cls-26" d="m77.66,23.63l2.31-1.35-6.15-3.56v2.68c1.35.61,2.64,1.36,3.84,2.24Z"/>
      <path class="cls-24" d="m83.06,38.24l1.6.91c-.23-1.6-.64-3.17-1.22-4.68l-.37.2v3.56Zm3.8,1.32l2.34-1.32v-3.56l-3.09-1.76-.78.44c.78,1.97,1.32,4.03,1.53,6.2h0Z"/>
      <path class="cls-22" d="m86.12,29.36l3.09-1.76-6.15-3.56v3.56l3.06,1.76Z"/>
      <path class="cls-23" d="m86.11,29.36v3.56l3.09,1.76v-7.09l-3.09,1.76Z"/>
      <path class="cls-25" d="m89.21,48.86l-2.48,1.42v4.27l2.48,1.42v-7.12Z"/>
      <path class="cls-13" d="m58.44,45.33v.34l-.3-.17v-.34l.3.17Z"/>
      <path class="cls-13" d="m61.53,43.56l-3.09,1.76-.3-.17v-6.75l.3-.17,3.09,1.76v3.56Z"/>
      <path class="cls-21" d="m64.59,48.85l-.31.2.24.14.31-.2-.24-.14Z"/>
      <path class="cls-26" d="m61.53,43.56l-3.09,1.76v.34l5.84,3.39.31-.2v-3.53l-3.06-1.76Z"/>
      <path class="cls-10" d="m70.74,45.33l-3.05-1.76-3.09,1.76v3.53l.24.14,5.91-3.42v-.24Z"/>
      <path class="cls-26" d="m67.68,40.01l-3.09-1.76-3.06,1.76v3.56l3.06,1.76,3.09-1.76v-3.56Z"/>
      <path class="cls-21" d="m70.87,38.31l-.14-.07-3.05,1.76v3.56l3.05,1.76.14-.07v-6.95Z"/>
      <path class="cls-33" d="m70.73,45.33v.24l.14-.07v-.24l-.14.07Z"/>
      <path class="cls-14" d="m58.44,38.24v-.24l-.3.17v.24l.3-.17Z"/>
      <path class="cls-13" d="m64.59,34.68v3.56l-3.06,1.76-3.09-1.76v-.24l5.94-3.43.2.1Z"/>
      <path class="cls-20" d="m64.59,34.69l-.2-.1.14-.07.2.1-.14.07Z"/>
      <path class="cls-26" d="m70.73,38.11l-6.01-3.49-.14.07v3.56l3.09,1.76,3.05-1.76v-.14Z"/>
      <path class="cls-21" d="m70.87,38.31v-.14l-.14-.07v.14l.14.07Z"/>
      <path class="cls-14" d="m66.69,19.3l-2.1-1.22-2.11,1.22v2.44l2.11,1.22,2.1-1.22v-2.44Z"/>
      <path class="cls-16" d="m85.17,51.19l-2.11-1.22-2.14,1.22v2.44l2.14,1.22,2.11-1.22v-2.44Z"/>
      <path class="cls-14" d="m48.26,51.19l-2.11-1.22-2.1,1.22v2.44l2.1,1.22,2.11-1.22v-2.44Z"/>
      <text class="cls-38" transform="translate(12.68 88.35)"><tspan x="0" y="0">P</tspan><tspan class="cls-40" x="9.36" y="0">r</tspan><tspan class="cls-41" x="15.34" y="0">o</tspan><tspan class="cls-39" x="23.9" y="0">x</tspan><tspan class="cls-42" x="32.3" y="0">y Manager</tspan></text>
    </g>
  </g>
</svg>