<?xml version="1.0" encoding="UTF-8"?>
<svg id="Layer_2" data-name="Layer 2" xmlns="http://www.w3.org/2000/svg" viewBox="0 0 130 100">
  <defs>
    <style>
      .cls-1 {
        fill: #c62828;
      }
    </style>
  </defs>
  <g id="Layer_1-2" data-name="Layer 1">
    <g>
      <path class="cls-1" d="m29.09,25.09s-.09.04-.14.04c-1.12,0-2.24.01-3.36.01-.09,0-.18-.04-.27-.06,1.25,0,2.51,0,3.76,0Z"/>
      <path class="cls-1" d="m27.3,25.27c13.96-.03,25.84,11.34,25.98,25.87.15,14.98-11.92,26.83-26.92,26.51-14.05-.3-25.72-11.68-25.67-26.36.05-15.22,12.87-26.45,26.61-26.01Zm-.31,15.74c.05-.02.07-.04.09-.04.07,0,.14,0,.22,0,.98.05,1.94.17,2.87.48,1.32.45,2.53,1.09,3.59,1.98,3.31,2.8,4.87,7.6,2.82,12.18-.11.25-.07.39.12.58,1.14,1.11,2.26,2.24,3.38,3.37.08.08.12.21.18.32.05-.03.1-.06.15-.09,2.67-4.48,3.25-9.24,1.29-14.07-2.64-6.49-7.7-9.74-14.71-10.09v-5.23c-2.77,2.67-5.51,5.29-8.22,7.9,2.75,2.65,5.47,5.26,8.23,7.91v-5.19Zm0,31.47c.13-.11.2-.17.26-.23,2.43-2.42,4.86-4.84,7.29-7.26.4-.4.4-.4-.01-.81-2.43-2.43-4.86-4.87-7.29-7.3-.06-.06-.13-.11-.25-.21v5.24c-.14,0-.24,0-.34,0-1.7-.03-3.28-.51-4.76-1.33-4.78-2.66-6.7-8.48-4.41-13.43.09-.2.01-.27-.1-.39-.86-.85-1.72-1.71-2.58-2.56-.38-.37-.76-.74-1.17-1.15-2.58,4.24-3.24,8.76-1.58,13.39,2.48,6.92,7.64,10.38,14.96,10.83v5.22Z"/>
      <path class="cls-1" d="m85.88,44.79c.95,0,1.87,0,2.78,0,.31,0,.7-.09.89.07.2.15.2.55.28.85.65,2.5,1.41,4.96,2.32,7.38.14.37.31.73.51,1.17.23-.83.46-1.58.64-2.34.56-2.3,1.11-4.6,1.67-6.89.02-.09.13-.22.2-.22,1.13-.01,2.26,0,3.39,0,.03,0,.06.02.11.03-.19.68-.39,1.36-.57,2.04-.83,3.04-1.71,6.07-2.79,9.04-.71,1.96-1.46,3.9-2.65,5.63-.88,1.28-2.1,2.03-3.69,2.17-1.16.1-2.27-.02-3.37-.4-.23-.08-.27-.17-.22-.4.2-.87.39-1.74.57-2.61.06-.28.21-.15.34-.09.72.32,1.48.42,2.26.29.45-.07.86-.25,1.15-.6.34-.42.63-.88.94-1.32.18-.26.11-.5,0-.78-.81-1.83-1.71-3.64-2.39-5.52-.87-2.39-1.57-4.85-2.35-7.27-.02-.05-.02-.1-.04-.2Z"/>
      <path class="cls-1" d="m105.06,47.84c0,.59,0,1.11,0,1.63,0,2.93-.01,5.87,0,8.8,0,.24-.07.31-.32.31-.99-.01-1.97-.01-2.96,0-.26,0-.34-.08-.34-.33,0-1.17-.02-2.34-.02-3.51,0-3.03,0-6.05,0-9.08,0-.28.08-.4.38-.47,1.73-.42,3.48-.69,5.27-.65.89.02,1.75.14,2.59.46,1.26.48,2.07,1.37,2.47,2.64.32.99.48,2.01.49,3.05.01,2.55,0,5.11,0,7.66,0,.06,0,.12,0,.2h-3.69c0-.2,0-.4,0-.6,0-2.49.01-4.98-.01-7.48,0-.49-.11-1-.23-1.48-.16-.63-.59-1.02-1.23-1.16-.8-.18-1.59-.06-2.41,0Z"/>
      <path class="cls-1" d="m72.14,54.57c.81.26,1.6.53,2.4.75,1.31.37,2.64.37,3.97.17.09-.01.18-.04.27-.07.3-.1.59-.22.65-.58.06-.38-.09-.72-.41-.9-.43-.24-.88-.43-1.34-.6-1.14-.42-2.3-.8-3.44-1.24-.39-.15-.75-.42-1.09-.69-1.88-1.49-1.66-4.7.72-6.01,1.07-.59,2.23-.82,3.43-.85,1.53-.04,3.04.08,4.49.61.12.04.23.09.34.13.16.06.22.15.19.33-.16.91-.31,1.82-.46,2.72,0,.06-.04.11-.08.19-.37-.12-.73-.23-1.09-.35-1.38-.45-2.79-.56-4.23-.32-.45.07-.88.27-.97.77-.09.51.28.81.68.99.63.29,1.29.53,1.95.76,1.06.37,2.12.71,3.08,1.3,1.63,1.01,2.22,2.82,1.49,4.57-.41.98-1.2,1.57-2.15,1.95-1.54.61-3.16.67-4.79.6-1.41-.07-2.7-.59-3.98-1.11-.09-.04-.2-.18-.19-.25.15-.93.33-1.85.5-2.78,0-.03.03-.05.05-.09Z"/>
      <path class="cls-1" d="m124.08,58.82c-1.66,0-3.04-.12-4.34-.69-2.41-1.05-3.76-2.89-4.02-5.51-.15-1.54.04-3.03.77-4.41,1-1.89,2.64-2.97,4.69-3.41,2.2-.48,4.37-.32,6.49.45.2.07.21.17.16.34-.22.8-.44,1.6-.64,2.4-.06.22-.15.23-.35.17-1.51-.45-3.05-.56-4.6-.23-1.79.38-2.72,1.47-2.87,3.28-.08.99.06,1.94.61,2.8.6.94,1.52,1.34,2.58,1.49,1.62.23,3.22.12,4.8-.27.19-.05.29-.04.32.18.12.79.23,1.58.37,2.37.05.28-.03.4-.3.49-1.29.38-2.6.6-3.68.57Z"/>
      <path class="cls-1" d="m68,48.17c-2.05-.43-4.09-.58-6.16-.19-.31.06-.43.17-.43.51.02,3.25,0,6.5.02,9.75,0,.28-.08.34-.35.34-.99-.01-1.97,0-2.96,0-.09,0-.18,0-.3,0-.01-.12-.03-.22-.03-.32,0-4.07,0-8.14-.02-12.21,0-.23.06-.34.3-.41,1.06-.28,2.1-.67,3.18-.84,1.16-.18,2.35-.26,3.53-.22,1.21.04,2.42.29,3.63.44.17.02.28.08.24.27-.2.94-.4,1.88-.6,2.82,0,.02-.03.03-.06.06Z"/>
    </g>
  </g>
</svg>