<?xml version="1.0" encoding="UTF-8"?>
<svg id="Layer_2" data-name="Layer 2" xmlns="http://www.w3.org/2000/svg" viewBox="0 0 130 100">
  <g id="Layer_1-2" data-name="Layer 1">
    <g>
      <path d="m26.86,62.86c.76,0,1.39-.08,1.9-.24.5-.16.9-.38,1.2-.66.29-.28.5-.6.61-.96.11-.36.17-.72.17-1.09,0-.47-.14-.88-.41-1.25-.27-.37-.61-.69-1.03-.98-.42-.28-.88-.54-1.4-.77-.52-.23-1.03-.45-1.55-.64-.69-.25-1.4-.53-2.14-.85s-1.41-.72-2.01-1.22c-.6-.49-1.1-1.1-1.49-1.82s-.59-1.63-.59-2.71c0-2.14.69-3.81,2.08-5.01,1.39-1.2,3.3-1.81,5.73-1.81,1.4,0,2.62.16,3.67.48,1.04.32,1.92.68,2.63,1.07l-1.33,3.5c-.61-.34-1.3-.64-2.04-.88-.75-.25-1.62-.37-2.6-.37-2.41,0-3.61.87-3.61,2.62,0,.44.12.83.37,1.16.25.33.56.63.94.88.38.26.81.49,1.29.68.48.2.95.38,1.42.55.71.27,1.46.57,2.23.9.77.33,1.49.77,2.14,1.33.65.55,1.18,1.24,1.6,2.06.42.82.63,1.86.63,3.11,0,2.14-.69,3.79-2.08,4.96-1.39,1.17-3.49,1.75-6.32,1.75-1.89,0-3.4-.2-4.53-.61-1.13-.41-1.98-.78-2.54-1.12l1.33-3.68c.66.39,1.46.76,2.38,1.11.92.34,2.05.52,3.37.52Z"/>
      <path d="m49.97,66.17l-1.07-5.27h-6.08l-1.03,5.27h-4.72c1.08-4.5,2.17-8.59,3.28-12.29s2.17-7.2,3.21-10.52h4.94c1.08,3.34,2.16,6.88,3.22,10.63,1.07,3.75,2.11,7.81,3.11,12.18h-4.86Zm-4.05-18.39c-.25.86-.47,1.68-.68,2.45-.21.77-.41,1.54-.59,2.29-.18.75-.36,1.5-.52,2.27-.16.76-.31,1.55-.46,2.36h4.46c-.15-.81-.29-1.6-.44-2.36-.15-.76-.31-1.52-.5-2.27-.18-.75-.38-1.51-.59-2.29-.21-.77-.44-1.59-.68-2.45Z"/>
      <path d="m61.1,43.36c.17.52.39,1.18.65,1.99s.53,1.68.83,2.62c.29.93.59,1.88.88,2.84.29.96.58,1.84.85,2.65.29-.91.6-1.85.92-2.82.32-.97.63-1.9.92-2.8.29-.9.56-1.74.81-2.52.25-.79.47-1.44.66-1.95h3.76c.17,1.99.34,3.93.5,5.82.16,1.89.29,3.76.41,5.62.11,1.86.2,3.72.28,5.6.07,1.88.13,3.8.18,5.77h-4.16l.22-17.72-2.8,9.65h-3.32l-2.69-9.65.18,17.72h-4.16c.07-1.87.15-3.81.24-5.82.09-2.01.18-4.02.28-6.01.1-1.99.21-3.92.35-5.79.13-1.87.29-3.6.46-5.2h3.76Z"/>
      <path d="m90.87,59.28c0,1.38-.23,2.52-.7,3.45-.47.92-1.1,1.66-1.9,2.21-.8.55-1.74.95-2.84,1.18-1.09.23-2.27.35-3.52.35-1.01,0-2.05-.06-3.13-.17-1.08-.11-2.15-.28-3.21-.5v-22.15c.86-.15,1.81-.28,2.84-.39s2.05-.17,3.06-.17c1.72,0,3.12.18,4.2.54,1.08.36,1.93.82,2.54,1.4.61.58,1.03,1.22,1.25,1.94.22.71.33,1.42.33,2.14,0,1.08-.26,2.04-.79,2.87-.53.84-1.23,1.5-2.12,1.99,1.55.57,2.6,1.33,3.15,2.29.55.96.83,1.96.83,3.02Zm-8.99-6.85c1.15,0,2.03-.25,2.62-.75.59-.5.88-1.2.88-2.08,0-.54-.09-.98-.26-1.31-.17-.33-.41-.59-.7-.77-.29-.18-.64-.31-1.03-.37-.39-.06-.8-.09-1.22-.09-.34,0-.7.01-1.07.04-.37.02-.7.06-1,.11v5.23h1.77Zm-1.77,3.76v6.19c.32.05.67.09,1.05.11.38.02.76.04,1.12.04.52,0,1.02-.04,1.51-.13.49-.09.93-.25,1.31-.48.38-.23.69-.57.94-1s.37-.98.37-1.64c0-1.11-.35-1.9-1.05-2.38-.7-.48-1.64-.72-2.82-.72h-2.43Z"/>
      <path d="m105.24,66.17l-1.07-5.27h-6.08l-1.03,5.27h-4.72c1.08-4.5,2.17-8.59,3.28-12.29s2.17-7.2,3.21-10.52h4.94c1.08,3.34,2.16,6.88,3.22,10.63,1.07,3.75,2.11,7.81,3.11,12.18h-4.86Zm-4.05-18.39c-.25.86-.47,1.68-.68,2.45-.21.77-.41,1.54-.59,2.29-.18.75-.36,1.5-.52,2.27-.16.76-.31,1.55-.46,2.36h4.46c-.15-.81-.29-1.6-.44-2.36-.15-.76-.31-1.52-.5-2.27-.18-.75-.38-1.51-.59-2.29-.21-.77-.44-1.59-.68-2.45Z"/>
    </g>
  </g>
</svg>