<?xml version="1.0" encoding="UTF-8"?>
<svg id="Layer_2" data-name="Layer 2" xmlns="http://www.w3.org/2000/svg" viewBox="0 0 130 100">
  <defs>
    <style>
      .cls-1 {
        fill: #94008a;
      }
    </style>
  </defs>
  <g id="Layer_1-2" data-name="Layer 1">
    <g>
      <path class="cls-1" d="m25.72,72.46v-.53c0-13.71,0-27.42,0-41.13,0-.25,0-.5.02-.75.06-.99.48-1.53,1.44-1.79,1.11-.29,2.23-.53,3.35-.78,10.2-2.32,20.39-4.64,30.59-6.97,1.33-.3,1.8.05,1.8,1.41,0,15.69,0,31.38,0,47.07,0,1.99-.71,3.74-2.1,5.15-2.53,2.58-5.63,3.69-9.21,3.19-3.66-.51-5.98-3.34-5.89-7.07.07-2.95,1.63-5,4.18-6.28,3.01-1.51,6.09-1.34,9.16-.1.14.06.28.12.47.2v-.49c0-7.41,0-14.82,0-22.23,0-.07,0-.13,0-.2-.01-1.14-.71-1.69-1.82-1.43-2.5.59-5,1.19-7.5,1.79-6.49,1.55-12.98,3.1-19.47,4.66-1.07.25-1.65,1.03-1.65,2.11,0,9.79,0,19.57,0,29.36,0,2.38-1.03,4.3-2.85,5.76-2.85,2.28-6.09,3.13-9.65,2.08-2.73-.81-4.19-2.81-4.62-5.58-.56-3.67,1.72-6.75,5.23-7.96,2.69-.93,5.35-.71,7.96.35.15.06.29.12.44.18.02,0,.05,0,.12-.02Z"/>
      <g>
        <path class="cls-1" d="m75.14,59.69c.63,0,1.15-.07,1.57-.2.42-.13.74-.31.99-.55.24-.23.41-.5.5-.79s.14-.59.14-.9c0-.38-.11-.73-.33-1.03-.22-.3-.51-.57-.85-.8-.35-.23-.73-.45-1.16-.64-.43-.19-.85-.37-1.28-.53-.57-.2-1.16-.44-1.76-.7-.61-.26-1.16-.6-1.66-1-.5-.41-.91-.91-1.23-1.5s-.49-1.34-.49-2.23c0-1.76.57-3.14,1.72-4.13s2.72-1.49,4.73-1.49c1.16,0,2.16.13,3.02.39.86.26,1.59.56,2.17.88l-1.09,2.89c-.51-.28-1.07-.53-1.69-.73-.62-.2-1.33-.3-2.14-.3-1.99,0-2.98.72-2.98,2.16,0,.36.1.68.3.96.2.27.46.52.77.73.31.21.67.4,1.06.56.4.16.79.31,1.17.46.59.22,1.2.47,1.84.74.64.27,1.23.64,1.76,1.09.54.46.98,1.02,1.32,1.7.34.68.52,1.54.52,2.57,0,1.76-.57,3.13-1.72,4.09-1.15.96-2.88,1.44-5.21,1.44-1.56,0-2.81-.17-3.74-.5s-1.63-.64-2.1-.93l1.09-3.04c.55.32,1.2.63,1.96.91.76.28,1.69.43,2.78.43Z"/>
        <path class="cls-1" d="m84.1,53.01c0-3.24.6-5.69,1.79-7.34,1.2-1.65,2.86-2.48,4.98-2.48s3.89.83,5.05,2.48c1.16,1.65,1.73,4.1,1.73,7.34s-.59,5.69-1.76,7.34c-1.18,1.65-2.84,2.48-4.98,2.48s-3.9-.83-5.06-2.48c-1.17-1.65-1.75-4.1-1.75-7.34Zm3.8,0c0,.91.04,1.77.11,2.57.07.8.21,1.5.43,2.08.21.59.51,1.05.9,1.4.38.34.9.52,1.55.52s1.14-.17,1.53-.52c.4-.34.7-.82.91-1.41.21-.6.35-1.29.43-2.08.07-.79.11-1.64.11-2.55s-.04-1.77-.11-2.57c-.07-.8-.21-1.49-.43-2.08-.21-.59-.51-1.05-.9-1.4-.38-.34-.9-.52-1.55-.52s-1.17.17-1.55.52c-.39.34-.68.82-.9,1.41-.21.6-.35,1.29-.43,2.08-.07.79-.11,1.64-.11,2.55Z"/>
        <path class="cls-1" d="m109.3,62.43c-.39-1.03-.86-2.18-1.41-3.43-.56-1.26-1.14-2.51-1.75-3.77-.59,1.2-1.18,2.44-1.76,3.72-.59,1.29-1.09,2.45-1.52,3.48h-4.04c.2-.55.5-1.21.9-1.98.4-.77.83-1.6,1.31-2.49.48-.89.98-1.81,1.5-2.75s1.03-1.85,1.52-2.72l-4.92-8.88h4.04l2.98,6.02,3.13-6.02h3.77l-4.8,8.78c.55.87,1.08,1.78,1.61,2.74.53.95,1.02,1.88,1.47,2.78.46.9.86,1.74,1.2,2.52.34.78.62,1.44.82,1.99h-4.04Z"/>
        <path class="cls-1" d="m69.22,65.44h2.77v.96h-1.6v6.72h1.6v.96h-2.77v-8.64Z"/>
        <path class="cls-1" d="m75.23,66.17c.35,0,.67.04.96.12s.53.2.74.37c.21.17.37.38.48.63s.17.56.17.9-.07.69-.22.98c-.15.29-.39.52-.73.67.11.17.23.37.36.58.13.21.25.43.37.66.12.23.24.46.35.69.11.23.21.45.29.66h-1.29c-.15-.4-.33-.79-.54-1.16-.2-.37-.42-.75-.65-1.12h-.64v2.28h-1.23v-6.1c.12-.03.25-.05.4-.08.14-.02.29-.04.44-.05.15-.01.29-.02.42-.03s.25,0,.35,0Zm1.09,2.02c0-.33-.1-.57-.3-.72-.2-.15-.46-.23-.79-.23-.05,0-.1,0-.17,0-.07,0-.13.01-.2.02v1.86h.27c.42,0,.72-.08.91-.25.19-.16.28-.4.28-.7Z"/>
        <path class="cls-1" d="m78.72,72.43v-6.19h3.75v1.02h-2.52v1.39h2.19v1.02h-2.19v1.74h2.74v1.02h-3.97Z"/>
        <path class="cls-1" d="m86.05,72.56c-.87,0-1.54-.28-2-.84s-.69-1.36-.69-2.39c0-.51.07-.97.21-1.37.14-.4.33-.74.58-1.02.25-.28.55-.49.89-.63.34-.14.72-.21,1.12-.21.22,0,.42.02.59.05.18.04.33.08.47.12.13.05.24.1.33.15.09.05.16.09.21.12l-.32.98c-.15-.1-.34-.18-.55-.25-.22-.07-.47-.1-.75-.1-.19,0-.38.04-.56.1-.18.07-.35.19-.49.35-.14.16-.26.38-.35.65-.09.27-.13.61-.13,1.02,0,.71.12,1.25.36,1.62.24.38.64.56,1.2.56.32,0,.58-.04.79-.11s.38-.15.5-.22l.31.97c-.17.11-.41.21-.71.29-.3.09-.64.13-1.02.13Z"/>
        <path class="cls-1" d="m88.36,69.33c0-1.07.2-1.87.59-2.42.39-.54.94-.82,1.64-.82s1.28.27,1.66.82c.38.54.57,1.35.57,2.42s-.19,1.87-.58,2.42c-.39.54-.93.81-1.64.81s-1.28-.27-1.66-.81c-.38-.54-.58-1.35-.58-2.42Zm1.25,0c0,.3.01.58.04.84.02.26.07.49.14.68.07.19.17.35.3.46.13.11.3.17.51.17s.38-.06.5-.17c.13-.11.23-.27.3-.46.07-.2.12-.42.14-.68s.04-.54.04-.84-.01-.58-.04-.85c-.02-.26-.07-.49-.14-.68-.07-.19-.17-.35-.3-.46-.13-.11-.3-.17-.51-.17s-.38.06-.51.17c-.13.11-.23.27-.3.46-.07.2-.12.42-.14.68-.02.26-.04.54-.04.84Z"/>
        <path class="cls-1" d="m95.23,66.17c.35,0,.67.04.96.12s.53.2.74.37c.21.17.37.38.48.63s.17.56.17.9-.07.69-.22.98c-.15.29-.39.52-.73.67.11.17.23.37.36.58.13.21.25.43.37.66.12.23.24.46.35.69.11.23.21.45.29.66h-1.29c-.15-.4-.33-.79-.54-1.16-.2-.37-.42-.75-.65-1.12h-.64v2.28h-1.23v-6.1c.12-.03.25-.05.4-.08.14-.02.29-.04.44-.05.15-.01.29-.02.42-.03s.25,0,.35,0Zm1.09,2.02c0-.33-.1-.57-.3-.72-.2-.15-.46-.23-.79-.23-.05,0-.1,0-.17,0-.07,0-.13.01-.2.02v1.86h.27c.42,0,.72-.08.91-.25.19-.16.28-.4.28-.7Z"/>
        <path class="cls-1" d="m102.82,69.33c0,.57-.07,1.06-.21,1.46-.14.4-.34.73-.6.98-.25.25-.55.44-.9.56-.35.12-.74.17-1.16.17-.22,0-.44-.01-.65-.04s-.44-.06-.67-.12v-6.04c.28-.06.54-.1.79-.12.25-.02.48-.03.69-.03.41,0,.78.06,1.11.18.34.12.62.31.86.57.23.26.41.58.54.98.13.4.19.88.19,1.44Zm-2.96,2.1s.07,0,.11,0h.11c.28,0,.51-.05.7-.16.19-.11.34-.25.46-.44s.2-.41.25-.67c.05-.26.08-.54.08-.84,0-.27-.02-.53-.06-.78s-.11-.48-.21-.67-.24-.35-.41-.46c-.17-.12-.4-.18-.67-.18-.05,0-.11,0-.18,0-.07,0-.13.01-.18.02v4.16Z"/>
        <path class="cls-1" d="m103.72,72.43v-6.19h3.75v1.02h-2.52v1.39h2.19v1.02h-2.19v1.74h2.74v1.02h-3.97Z"/>
        <path class="cls-1" d="m110.23,66.17c.35,0,.67.04.96.12s.53.2.74.37c.21.17.37.38.48.63s.17.56.17.9-.07.69-.22.98c-.15.29-.39.52-.73.67.11.17.23.37.36.58.13.21.25.43.37.66.12.23.24.46.35.69.11.23.21.45.29.66h-1.29c-.15-.4-.33-.79-.54-1.16-.2-.37-.42-.75-.65-1.12h-.64v2.28h-1.23v-6.1c.12-.03.25-.05.4-.08.14-.02.29-.04.44-.05.15-.01.29-.02.42-.03s.25,0,.35,0Zm1.09,2.02c0-.33-.1-.57-.3-.72-.2-.15-.46-.23-.79-.23-.05,0-.1,0-.17,0-.07,0-.13.01-.2.02v1.86h.27c.42,0,.72-.08.91-.25.19-.16.28-.4.28-.7Z"/>
        <path class="cls-1" d="m116.96,74.08h-2.78v-.96h1.6v-6.72h-1.6v-.96h2.78v8.64Z"/>
      </g>
    </g>
  </g>
</svg>