<?xml version="1.0" encoding="UTF-8"?>
<svg id="Layer_2" data-name="Layer 2" xmlns="http://www.w3.org/2000/svg" viewBox="0 0 130 100">
  <defs>
    <style>
      .cls-1 {
        fill: #53b95f;
      }

      .cls-2 {
        fill: #fff;
      }
    </style>
  </defs>
  <g id="Layer_1-2" data-name="Layer 1">
    <g>
      <g>
        <circle class="cls-1" cx="19.49" cy="49.38" r="19.49"/>
        <path class="cls-1" d="m51.74,40.28c.6,0,3.2-.19,6.36,2.19.14.11.17.31.07.45l-1.52,2.13c-.11.15-.32.18-.47.07-.28-.22-.76-.56-1.32-.84-.9-.46-2.09-.85-3.12-.85s-2.69.34-2.69,1.96c0,1.31,1.15,1.8,4.72,2.67,2.32.6,5.02,1.72,5.02,5.27,0,3.27-2.72,5.33-6.46,5.33-2.26,0-5.35-.86-7.32-2.84-.12-.12-.12-.31-.01-.44l1.71-2.01c.12-.14.34-.16.48-.03.65.61,2.55,2.15,5.14,2.15,3.08,0,2.96-1.86,2.96-2.13,0-.59-.43-1.42-1.95-1.85s-5.34-1.14-6.77-2.81c-.88-1.04-1-2.2-1-3.06,0-1.96,1.27-5.36,6.18-5.36Z"/>
        <path class="cls-1" d="m67.65,44.54c-2.75,0-4.23,2.02-4.23,2.02v-1.4c0-.18-.15-.33-.33-.33h-2.82c-.18,0-.33.15-.33.33v16.94c0,.18.15.33.33.33h2.83c.18,0,.33-.15.33-.33v-5.28s1.38,1.85,4.37,1.85c2.37,0,6.2-1.91,6.2-7.01s-3.6-7.12-6.35-7.12Zm-.73,11.12c-1.92,0-3.55-1.67-3.55-4.05,0-1.45.91-4,3.51-4s3.59,2.1,3.59,4-1.05,4.05-3.55,4.05Z"/>
        <path class="cls-1" d="m82.14,44.54c-4.44,0-7.2,3.65-7.2,7.09,0,3.77,2.93,7.07,7.23,7.07s7.23-3.39,7.23-7.07-2.81-7.09-7.26-7.09Zm.03,11.12c-1.81,0-3.79-1.52-3.79-4.04s1.78-4.01,3.79-4.01c1.54,0,3.73,1.28,3.73,4.01s-1.92,4.04-3.73,4.04Z"/>
        <path class="cls-1" d="m98.28,47.53v-2.41c0-.18-.15-.33-.33-.33h-3.22v-3.26c0-.18-.15-.33-.33-.33h-2.77c-.18,0-.33.15-.33.33v3.26h-1.36c-.18,0-.33.15-.33.33v2.41c0,.18.15.33.33.33h1.36v6.81c0,1.53.7,3.96,3.74,3.96,1.4,0,2.6-.49,3.05-.7.12-.05.19-.17.19-.3v-2.36c0-.21-.24-.34-.41-.22-.32.22-.84.45-1.61.45-1.45,0-1.53-.99-1.53-1.69v-5.96h3.22c.18,0,.33-.15.33-.33Z"/>
        <circle class="cls-1" cx="101.44" cy="41" r="2.14"/>
        <rect class="cls-1" x="99.71" y="44.8" width="3.44" height="13.6" rx="1.42" ry="1.42"/>
        <path class="cls-1" d="m106.21,47.86h-1.34c-.18,0-.33-.15-.33-.33v-2.41c0-.18.15-.33.33-.33h1.34v-.87c0-.58.1-4.25,4.21-4.25,2.04,0,2.7.46,2.7.46v2.47c0,.25-.09.45-.35.35s-1.03-.31-1.66-.31-1.48.36-1.48,1.47v.68h5.04c.14,0,.26.08.31.21l3.53,9.12,3.17-9.09c.05-.13.17-.22.31-.22h3.1c.15,0,.25.15.2.28-.73,1.88-4.85,12.54-5.38,13.89-.58,1.48-1.57,3.51-4.41,3.51-1.65,0-2.71-.55-3.15-.84-.14-.09-.19-.27-.12-.42l1.01-2.17c.04-.09.15-.13.24-.07.29.18.95.52,1.71.52,1.13,0,1.63-1.33,1.63-1.33l-4.32-10.32h-2.84v10.23c0,.18-.15.33-.33.33h-2.79c-.18,0-.33-.15-.33-.33v-10.23Z"/>
        <path class="cls-1" d="m126.98,45.74h1.03c.29,0,.51.08.66.23.13.13.19.3.19.51h0c0,.37-.2.6-.48.7l.55.8h-.58l-.48-.72h-.39v.72h-.5v-2.25Zm1,1.09c.24,0,.38-.13.38-.32h0c0-.22-.15-.33-.39-.33h-.49v.65h.5Z"/>
        <path class="cls-1" d="m127.87,49.04c-1.17,0-2.13-.95-2.13-2.13s.95-2.13,2.13-2.13,2.13.95,2.13,2.13-.95,2.13-2.13,2.13Zm0-4.02c-1.04,0-1.89.85-1.89,1.89s.85,1.89,1.89,1.89,1.89-.85,1.89-1.89-.85-1.89-1.89-1.89Z"/>
        <path class="cls-2" d="m27.32,58.65c-.22,0-.45-.06-.66-.18-7.68-4.62-16.77-1.95-16.87-1.92-.68.2-1.39-.18-1.6-.85s.17-1.39.85-1.6c.42-.13,10.26-3.04,18.93,2.17.61.36.8,1.15.44,1.76-.24.4-.66.62-1.1.62Z"/>
        <path class="cls-2" d="m29.52,53.39c-.26,0-.52-.07-.75-.2-9.64-5.54-19.36-2.32-19.45-2.28-.79.27-1.65-.15-1.92-.94-.27-.79.15-1.65.94-1.92.45-.15,11.12-3.7,21.94,2.52.72.42.97,1.34.56,2.07-.28.49-.79.76-1.31.76Z"/>
        <path class="cls-2" d="m31.92,47.43c-.29,0-.59-.07-.86-.21-11.12-5.84-22.53-2.34-22.65-2.31-.98.31-2.03-.23-2.34-1.22-.31-.98.23-2.03,1.22-2.34.53-.17,13.02-3.99,25.5,2.56.91.48,1.26,1.6.78,2.51-.33.63-.98,1-1.65,1Z"/>
      </g>
      <g>
        <path d="m71.93,59.61h2.77v.96h-1.6v6.72h1.6v.96h-2.77v-8.64Z"/>
        <path d="m80.1,66.46c-.23.07-.5.13-.83.18-.33.05-.65.07-.96.07-.73,0-1.29-.22-1.66-.65-.38-.43-.57-1.03-.57-1.78s.16-1.37.48-1.81c.32-.44.79-.67,1.41-.67.17,0,.33.02.49.05.16.04.3.09.42.16v-2.14l1.23-.21v6.8Zm-2.77-2.24c0,.42.08.76.24,1.03.16.27.41.4.75.4.1,0,.19,0,.28,0,.09,0,.18-.02.27-.03v-2.56c-.09-.05-.2-.1-.32-.13-.12-.04-.25-.06-.38-.06-.29,0-.51.12-.64.35s-.2.57-.2,1.01Z"/>
        <path d="m83.2,61.78c.39,0,.71.04.97.14.26.09.46.22.61.38.15.16.26.36.33.6.07.24.1.5.1.79v2.8c-.18.04-.45.09-.8.14-.35.05-.75.08-1.19.08-.3,0-.57-.03-.81-.08-.24-.05-.45-.14-.62-.27-.17-.12-.31-.28-.4-.48-.09-.2-.14-.44-.14-.73s.05-.5.16-.69c.11-.19.25-.34.43-.45.18-.11.39-.2.62-.25s.48-.08.73-.08c.32,0,.6.03.85.08v-.15c0-.23-.07-.43-.22-.58-.15-.16-.4-.24-.76-.24-.23,0-.46.02-.67.05-.22.03-.39.07-.53.12l-.17-.99c.15-.05.37-.1.65-.14.28-.04.57-.07.87-.07Zm.11,3.94c.13,0,.26,0,.39,0,.13,0,.24-.01.33-.03v-1.08c-.08-.01-.18-.02-.29-.04-.11,0-.22-.01-.31-.01-.13,0-.25,0-.37.03-.12.02-.22.04-.31.08-.09.04-.16.1-.21.17s-.08.17-.08.29c0,.21.08.36.24.46.16.09.37.13.62.13Z"/>
        <path d="m86.11,64.29c0-.41.06-.78.19-1.09.13-.31.29-.57.5-.78s.44-.37.71-.48.54-.16.82-.16c.69,0,1.22.21,1.58.62.36.41.54,1.01.54,1.79,0,.08,0,.16,0,.25,0,.09,0,.16-.02.21h-3.05c0,.31.13.55.38.73s.58.26.98.26c.25,0,.48-.03.71-.08.22-.05.41-.11.56-.16l.17,1.05c-.21.07-.44.14-.68.19-.24.05-.51.08-.81.08-.4,0-.76-.05-1.08-.16-.32-.1-.59-.26-.81-.46-.22-.2-.4-.46-.51-.75-.12-.3-.18-.65-.18-1.05Zm3.15-.49c0-.13-.02-.25-.05-.37-.03-.12-.09-.22-.16-.32-.07-.09-.17-.17-.28-.22-.11-.06-.25-.08-.42-.08s-.3.03-.42.08-.21.13-.29.22c-.08.09-.14.2-.18.32s-.07.24-.08.37h1.88Z"/>
        <path d="m94.23,61.85c.26,0,.47.04.64.12s.3.2.4.36c.1.16.16.36.2.6.03.24.05.53.05.86v2.81h-1v-2.87c0-.19-.01-.34-.04-.45s-.05-.2-.09-.26c-.04-.06-.08-.1-.13-.12-.05-.02-.1-.03-.16-.03-.06,0-.12,0-.19.02-.07,0-.13.03-.18.05.02.13.04.27.05.42s.02.32.02.51v.94h-1v-1.08c0-.32-.03-.54-.1-.67-.06-.13-.16-.19-.3-.19-.04,0-.09,0-.15.01s-.11.02-.17.03v3.69h-1v-4.52c.26-.07.52-.13.77-.17s.48-.06.67-.06c.17,0,.33.02.46.07.14.04.26.11.35.21.11-.07.25-.14.4-.2.15-.06.31-.08.48-.08Z"/>
        <path d="m100.52,64.24c0,.37-.05.71-.16,1.02-.11.3-.26.56-.45.79-.19.22-.42.39-.69.51s-.57.18-.91.18-.63-.06-.9-.18-.5-.29-.7-.51c-.2-.22-.35-.48-.45-.79-.11-.3-.16-.64-.16-1.02s.06-.7.17-1c.11-.3.26-.56.46-.78.2-.22.43-.38.71-.5.27-.12.57-.18.89-.18s.62.06.9.18c.27.12.5.28.7.5.2.22.35.48.46.78.11.3.16.64.16,1Zm-3.18.01c0,.42.08.76.23,1.02s.39.39.73.39.56-.13.72-.39c.16-.26.25-.6.25-1.02s-.08-.76-.23-1.02c-.15-.26-.39-.38-.73-.38s-.56.13-.72.38c-.16.26-.25.6-.25,1.02Z"/>
        <path d="m101.43,62.05c.22-.06.49-.12.81-.17.32-.05.68-.08,1.06-.08s.68.05.93.16c.25.1.44.25.58.44.14.19.24.42.3.68.06.26.09.56.09.88v2.65h-1.23v-2.49c0-.44-.05-.76-.15-.95-.1-.19-.3-.29-.61-.29-.09,0-.19,0-.27.01s-.19.02-.29.03v3.69h-1.23v-4.55Z"/>
        <path d="m109.67,68.25h-2.78v-.96h1.6v-6.72h-1.6v-.96h2.78v8.64Z"/>
      </g>
    </g>
  </g>
</svg>