<?xml version="1.0" encoding="UTF-8"?>
<svg id="Layer_2" data-name="Layer 2" xmlns="http://www.w3.org/2000/svg" viewBox="0 0 130 100">
  <defs>
    <style>
      .cls-1 {
        fill: #ffde2a;
      }
    </style>
  </defs>
  <g id="Layer_1-2" data-name="Layer 1">
    <g>
      <path class="cls-1" d="m31.12,72.66c-3.15,0-5.96-.5-8.43-1.51s-4.29-2.43-5.45-4.26l5.04-5.08c1.12,1.44,2.53,2.51,4.23,3.21,1.7.7,3.4,1.05,5.1,1.05,2.06,0,3.62-.5,4.69-1.49,1.07-.99,1.6-2.35,1.6-4.08,0-1.26-.35-2.19-1.06-2.78s-1.82-1.07-3.34-1.43l-3.74-.86c-2.75-.61-4.75-1.75-5.99-3.43-1.25-1.68-1.87-3.68-1.87-6.02,0-1.87.33-3.56,1-5.08s1.63-2.81,2.9-3.89c1.27-1.08,2.8-1.91,4.61-2.48s3.83-.86,6.07-.86c2.72,0,5.17.47,7.38,1.4,2.21.94,3.85,2.23,4.93,3.89l-5.26,4.81c-.83-1.15-1.87-2.04-3.12-2.67-1.25-.63-2.68-.94-4.31-.94-1.99,0-3.47.45-4.45,1.35s-1.46,2.11-1.46,3.62c0,1.08.33,1.91,1,2.48.67.58,1.86,1.08,3.55,1.51l3.58.92c5.28,1.33,7.92,4.52,7.92,9.56,0,1.94-.33,3.72-1,5.32-.67,1.6-1.65,2.98-2.96,4.13-1.3,1.15-2.89,2.04-4.77,2.67-1.88.63-4.01.94-6.4.94Z"/>
      <path class="cls-1" d="m63.66,72.66c-3.15,0-5.96-.5-8.43-1.51-2.48-1.01-4.29-2.43-5.45-4.26l5.04-5.08c1.12,1.44,2.53,2.51,4.23,3.21,1.7.7,3.4,1.05,5.1,1.05,2.06,0,3.62-.5,4.69-1.49,1.07-.99,1.6-2.35,1.6-4.08,0-1.26-.35-2.19-1.06-2.78s-1.82-1.07-3.34-1.43l-3.74-.86c-2.75-.61-4.75-1.75-5.99-3.43-1.25-1.68-1.87-3.68-1.87-6.02,0-1.87.33-3.56,1-5.08s1.63-2.81,2.9-3.89,2.8-1.91,4.61-2.48,3.83-.86,6.07-.86c2.72,0,5.17.47,7.38,1.4,2.21.94,3.85,2.23,4.93,3.89l-5.26,4.81c-.83-1.15-1.87-2.04-3.12-2.67-1.25-.63-2.68-.94-4.31-.94-1.99,0-3.47.45-4.45,1.35s-1.46,2.11-1.46,3.62c0,1.08.33,1.91,1,2.48.67.58,1.86,1.08,3.55,1.51l3.58.92c5.28,1.33,7.92,4.52,7.92,9.56,0,1.94-.33,3.72-1,5.32-.67,1.6-1.65,2.98-2.96,4.13-1.3,1.15-2.89,2.04-4.77,2.67-1.88.63-4.01.94-6.4.94Z"/>
      <path class="cls-1" d="m103.19,56.2h-9.76l-2.66,15.82h-8.03l6.3-37.68h8.02l-2.55,15.39h9.76l2.55-15.39h8.02l-6.29,37.68h-8.02l2.66-15.82Z"/>
    </g>
  </g>
</svg>