<?xml version="1.0" encoding="UTF-8"?>
<svg id="Layer_2" data-name="Layer 2" xmlns="http://www.w3.org/2000/svg" xmlns:xlink="http://www.w3.org/1999/xlink" viewBox="0 0 130 100">
  <defs>
    <style>
      .cls-1 {
        fill: #fff;
      }

      .cls-2 {
        fill: none;
        stroke: #fff;
        stroke-miterlimit: 10;
        stroke-width: 6px;
      }

      .cls-3 {
        fill: #0891d1;
      }

      .cls-4 {
        fill: url(#linear-gradient);
      }
    </style>
    <linearGradient id="linear-gradient" x1="64.38" y1="-2635.97" x2="64.38" y2="-2566.87" gradientTransform="translate(0 -2564.25) scale(1 -1)" gradientUnits="userSpaceOnUse">
      <stop offset="0" stop-color="#0882c8"/>
      <stop offset="1" stop-color="#26b6db"/>
    </linearGradient>
  </defs>
  <g id="Layer_1-2" data-name="Layer 1">
    <g>
      <g>
        <circle class="cls-4" cx="64.38" cy="37.17" r="34.55"/>
        <g>
          <circle class="cls-2" cx="64.38" cy="37.05" r="25.72"/>
          <g>
            <path class="cls-1" d="m85.57,30.75c2.77.94,5.77-.53,6.71-3.3.94-2.77-.53-5.77-3.3-6.71s-5.77.53-6.71,3.3c-.94,2.77.53,5.77,3.3,6.71Z"/>
            <line class="cls-2" x1="87.27" y1="25.81" x2="69.56" y2="40.53"/>
          </g>
          <g>
            <path class="cls-1" d="m75.5,56.18c-.24,2.88,1.88,5.47,4.83,5.77,2.94.24,5.47-1.88,5.77-4.83.24-2.88-1.88-5.47-4.83-5.77-2.94-.24-5.53,1.88-5.77,4.83Z"/>
            <line class="cls-2" x1="80.74" y1="56.65" x2="69.56" y2="40.53"/>
          </g>
          <path class="cls-1" d="m65.14,43.41c1.59,2.47,4.89,3.18,7.3,1.59,2.47-1.59,3.18-4.89,1.59-7.3-1.59-2.47-4.89-3.18-7.3-1.59-2.47,1.53-3.18,4.83-1.59,7.3Z"/>
          <g>
            <path class="cls-1" d="m42.31,38.76c-2.53-1.47-5.77-.65-7.24,1.82-1.47,2.53-.65,5.77,1.82,7.24,2.53,1.47,5.77.65,7.24-1.82,1.47-2.47.65-5.71-1.82-7.24Z"/>
            <line class="cls-2" x1="39.6" y1="43.29" x2="69.56" y2="40.53"/>
          </g>
        </g>
      </g>
      <g>
        <path class="cls-3" d="m18.57,79.8c-.24-.27-2.47-1.61-4.47-1.61-1.33,0-2.04.47-2.04,1.37,0,1.14,1.26,1.45,3.49,2.04,3.22.86,5.22,1.96,5.22,5.06,0,3.81-3.06,5.1-6.28,5.1-2.43,0-5.14-.78-7.14-2.08l1.69-3.38c.31.31,2.94,1.96,5.49,1.96,1.37,0,2.04-.43,2.04-1.26,0-1.26-1.73-1.57-4.04-2.28-3.1-.94-4.51-2.08-4.51-4.63,0-3.53,2.83-5.46,6.16-5.46,2.39,0,4.55.98,6.04,1.84l-1.65,3.3Z"/>
        <path class="cls-3" d="m22.96,93.49c.67.2,1.3.31,1.73.31.78,0,1.3-.59,1.65-2.16l-4.67-12.36h3.85l2.9,9.14,2.47-9.14h3.49l-4.75,14.36c-.67,2.08-2.43,3.41-4.63,3.45-.67,0-1.37-.08-2.08-.35v-3.26h.04Z"/>
        <path class="cls-3" d="m48.2,91.61h-3.77v-6.95c0-1.61-.67-2.32-1.69-2.32s-2.28.9-2.75,2.2v7.1h-3.77v-12.4h3.38v2.08c.9-1.45,2.67-2.32,4.79-2.32,3.22,0,3.73,2.63,3.73,4.67v7.93h.08Z"/>
        <path class="cls-3" d="m56.95,79.01c2.83,0,4.83,1.33,5.81,3.26l-3.69,1.1c-.47-.75-1.22-1.18-2.16-1.18-1.57,0-2.75,1.26-2.75,3.22s1.22,3.26,2.75,3.26c.94,0,1.81-.51,2.16-1.22l3.69,1.14c-.9,1.92-2.98,3.26-5.81,3.26-4.16,0-6.63-3.02-6.63-6.44s2.43-6.4,6.63-6.4Z"/>
        <path class="cls-3" d="m72.85,90.98c-1.02.43-2.43.9-3.81.9-1.84,0-3.45-.9-3.45-3.3v-6.48h-1.57v-2.87h1.57v-3.92h3.77v3.92h2.51v2.87h-2.51v5.14c0,.82.47,1.14,1.1,1.14.55,0,1.18-.24,1.65-.43l.75,3.02Z"/>
        <path class="cls-3" d="m86.63,91.61h-3.77v-6.95c0-1.61-.71-2.32-1.81-2.32-.9,0-2.16.86-2.63,2.2v7.1h-3.77v-17.23h3.77v6.91c.9-1.45,2.47-2.32,4.28-2.32,3.34,0,3.89,2.55,3.89,4.67v7.93h.04Z"/>
        <path class="cls-3" d="m89.06,77.83v-3.41h3.77v3.41h-3.77Zm0,13.78v-12.36h3.77v12.36h-3.77Z"/>
        <path class="cls-3" d="m107.31,91.61h-3.77v-6.95c0-1.61-.67-2.32-1.69-2.32s-2.28.9-2.75,2.2v7.1h-3.77v-12.4h3.38v2.08c.9-1.45,2.67-2.32,4.79-2.32,3.22,0,3.73,2.63,3.73,4.67v7.93h.08Z"/>
        <path class="cls-3" d="m109.51,85.45c0-3.61,2.35-6.4,5.73-6.4,1.84,0,3.3.86,4.16,2.28v-2.04h3.26v11.5c0,3.77-2.94,6.08-7.14,6.08-2.67,0-4.51-.9-5.89-2.47l2-2.04c.9,1.02,2.35,1.69,3.89,1.69,1.81,0,3.38-.94,3.38-3.26v-1.22c-.75,1.37-2.32,2.08-3.92,2.08-3.26.04-5.46-2.79-5.46-6.2Zm9.38,1.53v-2.59c-.51-1.3-1.65-2.16-2.79-2.16-1.61,0-2.75,1.57-2.75,3.3s1.26,3.14,2.94,3.14c1.14,0,2.08-.71,2.59-1.69Z"/>
      </g>
    </g>
  </g>
</svg>