<?xml version="1.0" encoding="UTF-8"?>
<svg id="Layer_2" data-name="Layer 2" xmlns="http://www.w3.org/2000/svg" viewBox="0 0 130 100">
  <defs>
    <style>
      .cls-1 {
        fill: #d90000;
      }
    </style>
  </defs>
  <g id="Layer_1-2" data-name="Layer 1">
    <g>
      <path class="cls-1" d="m23.97,67.49c-2.57,0-4.78-.36-6.64-1.08-1.86-.72-3.4-1.72-4.61-3.01s-2.11-2.81-2.69-4.59c-.58-1.78-.87-3.74-.87-5.88v-22.73h8.23v22.05c0,1.48.17,2.73.5,3.77.33,1.04.79,1.88,1.37,2.53.58.65,1.28,1.12,2.11,1.4.83.28,1.73.42,2.72.42,2,0,3.63-.61,4.88-1.85,1.25-1.23,1.87-3.32,1.87-6.28v-22.05h8.23v22.73c0,2.15-.3,4.11-.9,5.91-.6,1.79-1.51,3.33-2.74,4.61-1.23,1.28-2.8,2.28-4.69,2.98-1.9.7-4.15,1.05-6.75,1.05Z"/>
      <path class="cls-1" d="m45.38,66.75V30.21h24.47v6.91h-16.24v7.65h14.45v6.91h-14.45v15.08h-8.23Z"/>
      <path class="cls-1" d="m98.63,34.11c.42,1.44.89,3.07,1.4,4.88.51,1.81,1.05,3.68,1.63,5.62.58,1.93,1.17,3.87,1.76,5.8s1.18,3.73,1.74,5.38c.46-1.79.93-3.74,1.4-5.85.48-2.11.93-4.29,1.35-6.54s.84-4.49,1.25-6.72.79-4.39,1.14-6.46h8.55c-1.24,6.12-2.66,12.32-4.27,18.62s-3.35,12.27-5.23,17.93h-7.53c-1.23-3.38-2.42-6.92-3.58-10.63-1.16-3.71-2.3-7.43-3.42-11.15-1.13,3.73-2.25,7.45-3.38,11.15-1.13,3.71-2.31,7.25-3.54,10.63h-7.52c-1.87-5.66-3.61-11.64-5.22-17.93-1.61-6.29-3.03-12.5-4.26-18.62h8.91c.35,2.08.74,4.23,1.17,6.46.42,2.23.87,4.47,1.33,6.72.46,2.25.93,4.43,1.4,6.54.48,2.11.96,4.06,1.46,5.85.63-1.72,1.25-3.55,1.85-5.48.6-1.93,1.18-3.87,1.74-5.8.56-1.93,1.08-3.8,1.56-5.59.48-1.79.91-3.39,1.29-4.8h7.01Z"/>
    </g>
  </g>
</svg>