<?xml version="1.0" encoding="utf-8"?>
<!-- Generator: Adobe Illustrator 27.4.1, SVG Export Plug-In . SVG Version: 6.00 Build 0)  -->
<svg version="1.1" id="Layer_1" xmlns="http://www.w3.org/2000/svg" xmlns:xlink="http://www.w3.org/1999/xlink" x="0px" y="0px"
	 viewBox="0 0 140 140" style="enable-background:new 0 0 140 140;" xml:space="preserve">
<style type="text/css">
	.st0{clip-path:url(#SVGID_00000034784705658834770330000015341505749117184442_);}
	.st1{fill:#323A53;}
	.st2{fill:#EFF1F4;}
	.st3{fill:#D2E2ED;}
	.st4{fill:#EBF0F5;}
	.st5{fill:#E1EAF1;}
	.st6{fill:#DBE0E8;}
	.st7{fill:#8D9EBD;}
	.st8{fill:#B5C2D4;}
	.st9{fill:#27334E;}
	.st10{fill:#FDFDFE;}
	.st11{fill:#516494;}
	.st12{fill:#DAE7F0;}
	.st13{fill:#5A6E9E;}
	.st14{fill:#ECEEEF;}
	.st15{fill:#2D2E31;}
	.st16{fill:#868887;}
	.st17{fill:#C0BFCC;}
	.st18{fill:#FDFDFD;}
	.st19{fill:#CFCACE;}
	.st20{fill:#DBD5D6;}
	.st21{fill:#8EA2C6;}
	.st22{fill:#768EBA;}
	.st23{fill:#6D83B3;}
	.st24{fill:#FEFEFD;}
	.st25{fill:#EAF4F8;}
	.st26{fill:#EEE7DD;}
	.st27{fill:#495C8F;}
	.st28{fill:#E6DED8;}
	.st29{fill:#526596;}
	.st30{fill:#CBC6D0;}
	.st31{fill:#D7D2D1;}
	.st32{fill:#7E91B4;}
	.st33{fill:#6B7997;}
	.st34{fill:#25272B;}
	.st35{fill:#2E2F31;}
	.st36{fill:#DDDCDE;}
	.st37{fill:#E8E7E8;}
	.st38{fill:#E2DCDB;}
	.st39{fill:#7689B6;}
	.st40{fill:#7E95BE;}
	.st41{fill:#92A3C1;}
	.st42{fill:#929DB2;}
	.st43{fill:#293550;}
	.st44{fill:#2B3753;}
	.st45{fill:#32415F;}
	.st46{fill:#32415E;}
	.st47{fill:#CBD7DF;}
	.st48{fill:#5E7195;}
	.st49{fill:#6D82A9;}
	.st50{fill:#32405D;}
	.st51{fill:#FBFBFA;}
	.st52{fill:#FCFCFB;}
	.st53{fill:#C4CCD7;}
	.st54{fill:#FAFAFA;}
	.st55{fill:#F9FAF9;}
	.st56{fill:#AFB9C4;}
	.st57{fill:#E8E9EC;}
	.st58{fill:#33415E;}
	.st59{fill:#FBFBFB;}
	.st60{fill:#404354;}
	.st61{fill:#E1E3E9;}
	.st62{fill:#C6CBD3;}
	.st63{fill:#A8ADBE;}
	.st64{fill:#434E6D;}
	.st65{fill:#566284;}
	.st66{fill:#6A7799;}
	.st67{fill:#5D697E;}
	.st68{fill:#647490;}
	.st69{fill:#43506C;}
	.st70{fill:#303A52;}
	.st71{fill:#344361;}
	.st72{fill:#FAFBFA;}
	.st73{fill:#344360;}
	.st74{fill:#F8F8F8;}
	.st75{fill:#F7F8F8;}
	.st76{fill:#313D59;}
	.st77{fill:#344461;}
	.st78{fill:#354461;}
	.st79{fill:#2C3854;}
	.st80{fill:#565B70;}
	.st81{fill:#A4AABB;}
	.st82{fill:#8C91A7;}
	.st83{fill:#6B6C86;}
	.st84{fill:#787D93;}
	.st85{fill:#C5CAD5;}
	.st86{fill:#9DA7BE;}
	.st87{fill:#66718E;}
	.st88{fill:#7F89A2;}
	.st89{fill:#7F8EAE;}
	.st90{fill:#96A4BC;}
	.st91{fill:#767C92;}
	.st92{fill:#222A42;}
	.st93{fill:#6D7B93;}
	.st94{fill:#323C58;}
	.st95{fill:#364567;}
	.st96{fill:#4E6089;}
	.st97{fill:#B2BED2;}
	.st98{fill:#7B8FB9;}
	.st99{fill:#35435F;}
	.st100{fill:#384561;}
	.st101{fill:#384764;}
	.st102{fill:#929FBE;}
	.st103{fill:#4D5A79;}
	.st104{fill:#8290A8;}
	.st105{fill:#3E4C69;}
</style>
<g>
	<defs>
		<rect id="SVGID_1_" width="140" height="140"/>
	</defs>
	<clipPath id="SVGID_00000144339929939512460270000006394326232863706755_">
		<use xlink:href="#SVGID_1_"  style="overflow:visible;"/>
	</clipPath>
	
		<g transform="matrix(2.296139 0 0 2.296139 -.992749 -23.907128)" style="clip-path:url(#SVGID_00000144339929939512460270000006394326232863706755_);">
		<ellipse class="st1" cx="31" cy="57.2" rx="14.9" ry="13.1"/>
		<path class="st2" d="M30.9,70.3c-8.2,0-14.9-5.9-14.9-13.1s6.7-13.1,14.9-13.1V70.3z"/>
		<g>
			<path id="B" class="st3" d="M48.4,18.6l6.5,2.8c0.5,0.2,0.9,0.6,0.9,1.2c-0.1,0.2-0.2,0.4-0.5,0.4c-0.3,0-0.5,0.1-0.7,0.2
				c-0.2,0.1-0.3,0.2-0.5,0.1c-0.3-0.5-0.3-0.5-0.8-0.2c-0.4,0.2-0.7,0.5-1.2,0.6L49.5,23c-0.5-0.2-0.6-0.3-0.3-0.7
				c0.3-0.3,0.1-0.4-0.2-0.6c-0.3-0.2-0.6-0.3-0.9-0.4l-10.8-4.9c-0.2-0.1-0.3-0.2-0.5-0.2c-0.3,0-0.5-0.6-0.8-0.1
				c-0.7-0.2-1.4-0.5-2-0.9l-3.4-1.6c-0.2-0.2-0.4-0.2-0.6-0.1l-1.9,0.9c-0.6,0.2-1.1,0.6-1.8,0.7l-0.3,0c-0.6-0.1-0.8-0.4-0.5-1
				c0.5-0.8,1.2-1.3,2-1.7l2.3-1.1c0.4-0.2,0.9-0.2,1.3,0l9.9,4.3l7,2.9C48.2,18.5,48.3,18.6,48.4,18.6L48.4,18.6z"/>
		</g>
		<g>
			<path id="C" class="st4" d="M5.5,26.4c-0.3-0.5-0.1-1-0.2-1.5c-0.1-0.7-0.1-1.4-0.1-2.2c0-0.6,0.3-1.2,0.9-1.4l6.3-2.7l6.2-2.7
				c1.7-0.8,3.5-1.5,5.2-2.3c0.1,0,0.2,0,0.3-0.1c-0.1,0.5-0.5,0.6-0.9,0.8l-3.4,1.7c-0.3,0.1-0.7,0.3-0.7,0.6
				c0,0.3,0.5,0.3,0.8,0.4c0.3,0.2,0.7,0.1,1,0.1c0.2,0,0.6-0.2,0.7,0.2c-0.1,0.2-0.3,0.2-0.4,0.3l-7.8,3.6L11.6,22
				c-0.4,0.4-0.9,0.4-1.5,0.3c-1.1-0.1-2.1-0.1-3.2,0c-0.4,0-0.7,0.2-0.8,0.6c-0.4,0.3-0.3,0.8-0.3,1.3c0.1,0.7,0.1,1.3,0.1,2
				C5.9,26.3,5.7,26.4,5.5,26.4L5.5,26.4z"/>
		</g>
		<g>
			<path id="D" class="st5" d="M21.6,17.3c-0.2-0.2-0.4-0.1-0.6-0.1c-0.8,0.3-1.4-0.2-2-0.4c-0.2-0.1-0.2-0.2,0-0.3
				c0.2-0.1,0.3-0.3,0.5-0.4l3.6-1.8c0.4-0.2,0.7-0.4,1-0.7c0.6-0.4,1.3-0.6,2-0.9l3.7-1.6c0.5-0.2,1-0.2,1.5,0
				c2.9,1.3,5.9,2.6,8.8,3.9l7.8,3.4c0.2,0.1,0.3,0.2,0.5,0.3c-0.2,0.2-0.4,0-0.5,0c-1.4-0.4-2.7-1.1-4-1.6l-11.2-4.8l-1.5-0.6
				c-0.5-0.2-1-0.2-1.4,0c-1.2,0.6-2.4,1.1-3.4,1.9c-0.3,0.3-0.6,0.6-0.8,1c-0.2,0.3,0.1,0.6,0.4,0.6c0.2,0,0.3-0.1,0.5,0.1
				c0,0.2-0.2,0.3-0.4,0.4l-3.8,1.7C22,17.3,21.8,17.4,21.6,17.3L21.6,17.3z"/>
		</g>
		<g>
			<path id="E" class="st6" d="M7.4,49.7c-0.2-0.5-0.1-1-0.2-1.6l-0.4-5L6.6,40l-0.4-4.7l-0.2-3l-0.4-4.9c0-0.4,0-0.7,0-1.1l0.3-0.2
				c0.2,0.1,0.2,0.3,0.3,0.5l0.4,5.6L7,38.2l0.3,4.5l0.4,5.4c0,0.5,0.4,0.7,0.6,1c0.1,0.2,0.2,0.4,0.2,0.7c-0.2,0.2-0.3,0-0.4,0
				c-0.1-0.1-0.3-0.2-0.4-0.3c0,0-0.1-0.1-0.1-0.1C7.5,49.3,7.6,49.6,7.4,49.7L7.4,49.7z"/>
		</g>
		<g>
			<path id="F" class="st7" d="M55.4,27L55.2,30c0.3,0.4,0,0.9,0,1.3c-0.1,0.5-0.1,1.1-0.1,1.6c-0.1,0.8-0.2,1.6-0.2,2.3
				c0,0.2-0.1,0.4-0.2,0.6c-0.2,0.1-0.3,0.2-0.5,0.1c-0.1-0.6,0-1.3,0.1-1.9l0.3-4.8l0.1-1.3l0.3-3.9c0-0.1,0-0.2,0.1-0.3
				c0.3-0.2,0.3,0.2,0.5,0.2C55.6,25,55.4,26,55.4,27L55.4,27z"/>
		</g>
		<g>
			<path id="G" class="st8" d="M55.6,24c-0.4,0.2-0.3-0.2-0.3-0.3c-0.2-0.3-0.2-0.5-0.1-0.8c0.2,0,0.3-0.2,0.5-0.3
				C55.7,23.1,55.8,23.6,55.6,24L55.6,24z"/>
		</g>
		<g>
			<path id="H" class="st9" d="M28.1,14.4l2-0.9c0.2-0.1,0.4,0,0.6,0.1l5.4,2.5c0.8,0.1,1.4,0.5,2.1,0.8l9.6,4.4l0.6,0.3l0.3,0.2
				c0.2,0.1,0.5,0.1,0.5,0.4c0,0.2-0.3,0.3-0.5,0.4l-3.2,1.9c-0.2,0.1-0.4,0.2-0.7,0.4l-0.2,0.1l-13.6,7.9c-0.5,0.3-1,0.3-1.5,0
				l-5.6-3.2l-3.7-2.1l-3.8-2.2l-4.8-2.7c-0.2-0.1-0.4-0.2-0.3-0.4c0.1-0.2,0.3-0.2,0.5-0.3l13.8-6.3C26.5,15.1,27.3,14.8,28.1,14.4
				L28.1,14.4z"/>
		</g>
		<g>
			<path id="I" class="st10" d="M20.6,27.3l3.6,2.1c0.4,0.5,0.7,1.1,1,1.6c0.4,0.8,1.1,1.4,1.9,1.8l2.8,1.3c0.6,0.3,1.2,0.3,1.8,0.2
				c0.6,0,1.1-0.2,1.7-0.3c1.6-0.6,3.1-1.1,4.6-2l6.3-3.7c0.2-0.1,0.4-0.2,0.5-0.4c0.6-0.5,1.3-0.8,1.9-1.2l1-0.6l3.9-2.3
				c0.1-0.1,0.3-0.2,0.4-0.2l1.3-0.7c0.5-0.3,0.6-0.2,0.6,0.4c-0.1,0.4-0.5,0.5-0.8,0.7l-5.5,3.4l-16,9.7c-0.4,0.3-0.6,0.6-0.6,1
				l0,3.4c0,0.2,0,0.3-0.1,0.4c-0.2,0.6-0.3,1.2-0.2,1.8c0,0.2,0,0.3,0,0.5l0.1,9.9v6v3.1c0,0.2,0,0.4-0.1,0.6
				c-0.3,0.2-0.6,0.2-0.8-0.1C30,63.5,30,63.3,30,63.1l0-8.8c0.2-1.9,0.3-3.9,0.1-5.8c-0.1-0.9,0-1.7,0-2.6c0-0.5-0.1-1.1-0.2-1.6
				c-0.1-1.3,0-2.5,0-3.8v-2.3c0-0.3,0-0.6-0.2-0.8c-0.2-0.4-0.5-0.5-0.8-0.6c-1-0.4-1.8-1.1-2.8-1.6l-7.1-4.3l-6.5-3.9l-4.5-2.8
				c-0.2-0.1-0.3-0.2-0.4-0.4c0.2-0.5,0.3-0.5,0.9-0.3c1.1,0.5,2.1,1.1,3.1,1.7c0.5,0.3,0.9,0.5,1.4,0.5c0.1,0,0.1,0,0.2,0
				c0.9,0.5,1.8,0.7,2.8,1.1c0.2,0.1,0.4,0.3,0.7,0.2c1.1,0,2.1,0.3,3.2,0.2C20.1,27.2,20.3,27.3,20.6,27.3L20.6,27.3z"/>
		</g>
		<g>
			<path id="J" class="st11" d="M47.6,27.3l4.7-2.9c0.6-0.3,1.1-0.7,1.7-1.1c0.2,0,0.3-0.2,0.5-0.2c0.1,0.3,0,0.5-0.1,0.7
				c-0.6,0.6-0.8,1.4-1.1,2.1c-0.1,0.3-0.2,0.7-0.3,1c-0.2,0.6-0.7,1-1.1,1.4c-0.1,0.1-0.2,0.2-0.4,0.3l-12.6,7.8
				c-0.1,0.1-0.3,0.2-0.4,0.2c-0.3,0-0.5,0.3-0.8,0.2c-0.1-0.2,0-0.3,0.2-0.4c0.8-0.5,1.4-1.3,1.9-2.1c0.8-1.4,2.1-2.2,3.4-3.1
				c1-0.7,2-1.4,3-2.2C46.8,28.6,47.4,28,47.6,27.3L47.6,27.3z"/>
		</g>
		<g>
			<path id="K" class="st12" d="M52,23.6c-0.6,0.5-1.3,0.8-1.9,1.2l-2.4,1.4c-1.4,0.5-2.9,0.3-4.3,0.3c-0.2,0-0.4-0.1-0.4-0.3
				c0-0.2,0.1-0.4,0.3-0.5c0.5-0.4,1.1-0.6,1.6-1l0.1-0.1c0.3,0,0.4-0.2,0.6-0.4l3.7-2.2c-0.3-0.3-0.6-0.3-0.9-0.5
				c0-0.1-0.2-0.2-0.2-0.3l0-0.1c0.5,0,0.9,0.3,1.3,0.5c0.3,0.2,0.2,0.3,0,0.5c-0.4,0.4-0.3,0.4,0.2,0.6
				C50.4,23.2,51.2,23.3,52,23.6L52,23.6z"/>
		</g>
		<g>
			<path id="L" class="st13" d="M51.8,28.2C51.7,28,51.9,28,51.9,28c0.5-0.2,0.7-0.6,0.8-1.1l0.8-2.3c0.2-0.3,0.3-0.7,0.6-0.9
				c0.2-0.2,0.2-0.4,0.3-0.6c0.2-0.2,0.4-0.4,0.7-0.2c0.2,0.3,0.1,0.5,0.1,0.8c-0.2,0.5-0.1,1-0.2,1.6L54.9,28l-1.8,4.5
				c-0.1,0.3-0.3,0.5-0.5,0.8c-0.1,0.1-0.2,0.3-0.4,0.2c-0.2,0-0.1-0.2-0.2-0.3S52,32.9,52,32.8l0.2-3.4c0-0.3,0.1-0.7,0-1.1
				C52.1,28.1,51.9,28.3,51.8,28.2L51.8,28.2z"/>
		</g>
		<g>
			<path id="M" class="st14" d="M47.8,21.4l-5.4-2.4L36.1,16c0.1-0.3,0.2-0.3,0.5-0.2l11,5c0.2,0.1,0.4,0.2,0.6,0.3
				C48.1,21.3,48,21.4,47.8,21.4L47.8,21.4z"/>
		</g>
		<g>
			<path id="N" class="st15" d="M28.1,14.4c-0.2,0.4-0.6,0.4-0.9,0.6l-4.4,2c-3.2,1.4-6.4,2.9-9.5,4.4l-1.6,0.8
				c-0.1-0.1-0.1-0.1,0-0.2l8.6-3.9l1.4-0.6l4.8-2.2L28.1,14.4L28.1,14.4z"/>
		</g>
		<path class="st16" d="M30.7,13.6c-0.2,0.1-0.4-0.1-0.6-0.1C30.3,13.3,30.6,13.2,30.7,13.6z"/>
		<g>
			<path id="O" class="st17" d="M7.6,23.7l1.3,0.8c0.2,0.2,0.3,0.3,0.3,0.5c0.1,0.9,0.4,1.7,0.6,2.5c0.1,0.4,0.1,0.6-0.4,0.7
				c-0.3,0.1-0.5-0.3-0.8-0.1c-0.1,0.6,0,1.2,0.1,1.8l0.1,1.9l0.3,4.6c0,0.1,0,0.2,0,0.4c-0.1,0.4-0.1,0.9,0,1.3l0.4,5.3
				c0,0.2,0,0.4,0,0.7c-0.2,0.4-0.5,0.4-0.8,0.1c-0.6-0.4-1.1-0.8-1.5-1.3L6.8,38l-0.2-3l-0.4-4.8C6.1,29.2,6,28.1,6,27
				c0-0.3,0-0.5-0.1-0.8l-0.2-2.8c0-0.3,0.1-0.5,0.4-0.6C6.7,23,7.2,23.3,7.6,23.7z"/>
		</g>
		<g>
			<path id="P" class="st18" d="M7.6,23.7l-1.5-0.9c-0.1-0.7,0.5-0.7,0.9-0.7c1.3,0,2.6-0.2,3.9,0.1c0.2,0,0.3,0,0.4-0.2
				c0.1-0.1,0.1-0.4,0.4-0.2l0,0.2c0.1,0.2,0.3,0.2,0.4,0.3l8,4.7l0.4,0.3c-0.7,0.1-1.4,0-2.1,0c-0.3,0-0.5-0.2-0.8-0.1
				c-1.2,0.2-2.1-0.7-3.1-0.8c-0.2,0-0.3-0.1-0.5-0.2c-0.4-0.3-0.8-0.5-1.4-0.5c-0.7-0.1-1.3-0.6-1.9-0.9c-0.8-0.5-1.6-0.9-2.4-1.3
				C8,23.3,7.7,23.3,7.6,23.7L7.6,23.7z"/>
		</g>
		<g>
			<path id="Q" class="st19" d="M7.2,42.8C7.7,43,8,43.6,8.5,43.9c0.3,0.2,0.5,0.4,0.8,0.3c0.3,0.1,0.3,0.3,0.2,0.5
				c-0.1,1,0.3,1.7,1.1,2.2c0.4,0.2,0.7,0.5,1.1,0.8l4.8,3.6c0.2,0.1,0.4,0.3,0.5,0.5c0,0.7-0.3,1-0.9,0.9c-0.3,0-0.6-0.2-1-0.2
				c-0.7-0.1-1.3-0.3-2-0.3c-0.6,0-1.2-0.2-1.7-0.5c-1.1-0.8-2.3-1.5-3.2-2.4c-0.8-0.5-0.7-1.3-0.8-2.1l-0.2-3.3
				C7.3,43.5,7.1,43.2,7.2,42.8L7.2,42.8z"/>
		</g>
		<g>
			<path id="R" class="st20" d="M8.3,49.2c0.7,0.3,1.3,0.9,1.9,1.4l1.8,1.2c0.3,0.2,0.8,0.3,1.1,0.3c1,0,2,0.2,2.9,0.5
				c0.7,0.2,0.9,0,1-0.8c0.6,0.2,1.1,0.6,1.6,0.9c0.5,0.4,1,0.8,1.6,1.1c0.3,0.2,0.5,0.5,0.8,0.7c0.4,0.3,0.8,0.6,1.2,0.9
				c0.5,0.3,1.1,0.5,1.2,1.1c0.1,0.6-0.2,0.9-0.8,0.8c-0.7-0.1-1.3-0.3-2-0.6c-1.6-0.8-3.2-1.3-4.9-1.7c-0.4-0.2-0.8-0.4-1.1-0.7
				c-0.7-0.5-1.4-0.9-2.1-1.4c-0.1-0.1-0.2-0.1-0.3-0.1c-0.6-0.2-0.9-0.7-1.5-1c-0.4-0.3-0.8-0.6-1.1-0.8c-0.3-0.3-0.7-0.5-1-0.8
				c-0.1-0.1-0.2-0.2-0.2-0.3L8.3,49.2L8.3,49.2z"/>
		</g>
		<g>
			<path id="S" class="st21" d="M54.3,36l0.4-0.1c0.2,0.3,0.2,0.6,0.1,0.9l-0.1,1l-0.2,2.9c-0.2,1-0.1,2-0.3,3
				c0,0.6-0.1,1.3-0.1,1.9c0,0.3-0.1,0.5-0.1,0.8c-0.1,0.5-0.1,1.1-0.1,1.7c-0.1,0.5-0.1,1-0.6,1.3c-0.3,0.2-0.7,0.5-1,0.8L48.5,53
				l-0.2,0.1l-8.1,6.2L34,64.1c-0.2,0.1-0.4,0.3-0.6,0.4c-0.3,0.1-0.5,0.2-0.6,0.5c-0.3,0.2-0.4,0.6-0.9,0.6c-0.1-0.2-0.1-0.3,0-0.5
				c0.1-0.2,0.3-0.3,0.5-0.5l4-3.1l8.2-6.3l1-0.8l6.4-4.9c1.4-1.1,1.4-1,1.5-2.8l0.5-6.3l0.1-1.6c0-0.9,0.1-1.8,0.2-2.7
				C54.2,36.2,54.2,36,54.3,36L54.3,36z"/>
		</g>
		<g>
			<path id="T" class="st22" d="M54.3,36l-0.2,3.1L53,41.9l-1.1,3.6c-0.1,0.2-0.1,0.6-0.5,0.3c-0.1-0.2-0.1-0.3-0.1-0.5l0.2-3.5
				c0.1-0.5,0.1-1.1,0-1.6l0.2-2.8c0.1-0.1,0.1-0.2,0.3-0.1c0.1,0.1,0,0.3,0.1,0.4c0.4-0.8,1-1.4,1.4-2.1c0.2-0.4,0.5-0.8,0.6-1.2
				c0.1-0.2,0.1-0.3,0.3-0.3L54.3,36L54.3,36z"/>
		</g>
		<g>
			<path id="U" class="st23" d="M54.5,34.1c-0.3,0.1-0.2,0.5-0.3,0.7c-0.4,0.8-1,1.6-1.6,2.4c-0.2,0.3-0.3,0.7-0.6,0.9
				c-0.2-0.2,0-0.6-0.2-0.8c-0.1-0.1-0.1-0.2-0.1-0.3l0.3-4c0-0.1,0.1-0.1,0.1-0.2c0.2,0.2,0,0.4,0.1,0.6c0.6-0.6,0.9-1.3,1.2-2
				l1.2-3.1c0.1-0.2,0.1-0.3,0.3-0.4c0,1.3-0.2,2.6-0.3,3.9L54.5,34.1L54.5,34.1z"/>
		</g>
		<g>
			<path id="V" class="st24" d="M45.4,22.1c-0.1,0.2-0.2,0.2-0.3,0.3l-14.4,8.1c-0.2,0.1-0.4,0.2-0.7,0l-14.3-8.2
				c-0.1,0-0.1-0.1-0.3-0.2l0.4-0.2L30,15.4c0.2-0.1,0.4-0.2,0.7-0.1l14.6,6.7C45.3,22.1,45.4,22.1,45.4,22.1L45.4,22.1z"/>
		</g>
		<g>
			<path id="W" class="st18" d="M44.9,28c-0.5,0.5-1.1,0.8-1.7,1.1l-7.1,4c-1.6,0.7-3.3,1.4-5.2,1.4c-0.6,0-1.1-0.3-1.6-0.5
				c-0.9-0.4-1.9-0.8-2.8-1.3c-0.9-0.5-1.4-1.3-1.8-2.2c-0.2-0.4-0.6-0.7-0.6-1.1c0.3,0.1,0.6,0.3,0.9,0.4l4.8,2.8
				c0.4,0.3,0.8,0.2,1.2,0l4.8-2.8c0.1-0.1,0.2-0.1,0.3-0.1c0,0,0.1,0,0.1,0c0.1,0.5,0.5,0.5,0.9,0.6c2,0.4,3.7-0.2,5.4-1.2l1.8-1
				C44.5,28,44.7,27.8,44.9,28L44.9,28z"/>
		</g>
		<g>
			<path id="X" class="st25" d="M44.9,28c-0.8,0.3-1.5,0.8-2.2,1.2c-1.5,0.8-3,1.5-4.8,1.4l-1.1-0.1c-0.5,0-0.6-0.3-0.6-0.7l6-3.5
				l2.6-1.5c-0.2,0.4-0.7,0.5-0.9,0.7c-0.3,0.2-0.9,0.4-0.8,0.8c0.1,0.4,0.7,0.1,1,0.2c1.2,0.1,2.4-0.1,3.6-0.2l-2.5,1.5
				C45.1,27.8,45,27.8,44.9,28L44.9,28z"/>
		</g>
		<path class="st3" d="M47.8,21.4l0.3-0.1c0,0.2,0.5,0,0.2,0.4C48.2,21.6,48,21.5,47.8,21.4z"/>
		<path class="st25" d="M45.6,24.3c-0.1,0.3-0.3,0.5-0.6,0.4L45.6,24.3z"/>
		<g>
			<path id="Y" class="st26" d="M30.1,54.2l0,9.4c0.1,0.1,0.2,0.3,0.1,0.5c0,0.5,0.2,0.7,0.6,0.8c0.1,0.1,0.1,0.1,0.1,0.2
				c0,0.2-0.1,0.4-0.3,0.4c-0.5,0-1.1,0.1-1.6-0.4l-2.4-2c-0.2-0.2-0.4-0.3-0.4-0.6c0.2-0.3,0.6-0.1,0.7-0.4c0.4-1.1,1-2.1,1.4-3.1
				c0.2-0.5,0.3-1.1,0.2-1.7c-0.2-1.2-0.2-2.4-0.2-3.7c0-0.8-0.2-1.6-0.2-2.5c-0.1-1.5-0.4-3-0.6-4.6c-0.1-0.9-0.1-1.9-0.3-2.8
				c-0.3-1.4-0.1-2.8-0.2-4.2c0-0.3,0-0.5-0.3-0.8c-0.1-0.1-0.2-0.3-0.2-0.5L26,35.3c0-0.1,0-0.2,0-0.3c0.5,0.1,0.8,0.4,1.2,0.6
				l1.6,0.9c0.3,0.2,0.6,0.3,0.8,0.5c0.3,0.3,0.3,0.6,0.3,0.9l0,6.2c0.1,0.4,0.1,0.8,0.1,1.2l0.1,5.8V54.2L30.1,54.2z"/>
		</g>
		<g>
			<path id="Z" class="st27" d="M47.6,27.3c0.2,0.3,0,0.5-0.2,0.7c-1.2,1.4-2.8,2.4-4.3,3.5c-1.4,1-2.8,1.9-3.6,3.5
				c-0.3,0.7-0.9,1.1-1.5,1.5c-0.1,0.1-0.3,0.2-0.3,0.3c0,0.3-0.3,0.3-0.4,0.5l-2.4,1.5c-0.5,0.3-0.9,0.6-1,1.3
				c-0.7,0.6-1.6,0.9-2.4,1.4c-0.2,0.1-0.3,0.1-0.5,0l0-3.5c0-0.4,0.1-0.6,0.5-0.8l5.5-3.4l5.6-3.4l4.9-2.9
				C47.5,27.3,47.6,27.3,47.6,27.3L47.6,27.3z"/>
		</g>
		<g>
			<path id="a" class="st28" d="M26.1,35c0.3,1,0.5,2.1,0.6,3.2c0,0.3,0.1,0.5,0.3,0.7c0.2,0.1,0.2,0.4,0.2,0.6l0,1.6
				c-0.1,1.4,0.3,2.8,0.4,4.1c0.1,1.2,0.3,2.4,0.5,3.6c0.3,1.5,0.2,3,0.5,4.5c0.1,0.4,0,0.8,0,1.2c0,1.1,0.1,2.2,0.3,3.3
				c0,0.2,0,0.3-0.1,0.5c-0.3,1-0.8,2-1.3,3c-0.2,0.3-0.1,0.8-0.5,1c-0.2-0.3-0.2-0.6-0.1-0.8c0.2-0.7,0.2-1.5,0.1-2.2
				c0-0.1,0-0.2,0-0.3c0.1-0.2,0.1-0.3,0.1-0.5v-4c0-0.1,0-0.2-0.1-0.3c-0.1-0.6,0-1.2-0.1-1.8c-0.1-0.3,0-0.6,0-0.9l0-11.1
				c0-0.7-0.2-1.2-0.9-1.6l-2.7-1.8c-0.5-0.5-0.8-1.1-0.9-1.7c-0.2-1-0.9-1.7-1.5-2.4c-0.5-0.6-1-1.3-1.6-1.7
				c-0.2-0.1-0.4-0.3-0.3-0.6l6.7,4.1C25.9,34.8,26,34.9,26.1,35z"/>
		</g>
		<g>
			<path id="b" class="st29" d="M31,41.4c0.2,0,0.3,0,0.5-0.1l2.4-1.3c0.2,0.2,0.1,0.4,0.1,0.6l0,7.3c0,0.4-0.1,0.9-0.1,1.3
				c0,0.2-0.1,0.5-0.2,0.7c-0.2,0.6-0.6,0.8-1.2,0.7c-0.1,0-0.2-0.1-0.3,0c-0.7,0.1-1-0.3-1.2-0.8l-0.1-6.4c0-0.5,0-1.1,0.1-1.6
				L31,41.4L31,41.4z"/>
		</g>
		<g>
			<path id="c" class="st30" d="M9.4,28.2c0.4-0.1,0.4-0.3,0.3-0.7l-0.8-3l3.6,2.2c1.2,1.9,3,3.2,4.7,4.6c0.6,0.5,1.2,1.1,1.6,1.9
				c0.1,0.3,0.3,0.6,0.6,0.8c0.1,0.1,0.3,0.2,0.2,0.5c-0.2,0.1-0.4,0-0.6-0.1l-9.1-5.7C9.7,28.6,9.4,28.5,9.4,28.2L9.4,28.2z"/>
		</g>
		<g>
			<path id="d" class="st31" d="M19.5,34.5c-0.8-0.8-1.1-2-2-2.7L14.2,29c-0.7-0.7-1.5-1.3-1.8-2.2l5.3,3.2l1.2,0.7
				c0,0.2,0.2,0.4,0.3,0.5c1.1,0.7,1.7,1.9,2.6,2.9c0.3,0.3,0.4,0.8,0.5,1.2c0.2,0.6,0.4,1.3,0.9,1.8c-0.2,0.1-0.3,0-0.5-0.1
				l-3.1-1.9C19.7,34.8,19.5,34.7,19.5,34.5L19.5,34.5z"/>
		</g>
		<g>
			<path id="e" class="st32" d="M30.8,65.2c0-0.1,0-0.1,0-0.2c-0.2-0.4-0.2-0.8,0-1.2l0-3.7c0.1,0,0.1,0,0.2,0
				c0.2,0.8,0.1,1.6,0.1,2.3c0,0.7,0.1,0.8,0.8,0.7c1.3-0.2,2.5-0.6,3.6-1.2c0.3-0.2,0.5-0.4,0.9-0.3c-0.8,0.7-1.7,1.3-2.5,2
				c-0.6,0.5-1.4,0.9-2,1.5c-0.2,0.3-0.4,0.4-0.7,0.5C30.9,65.6,30.9,65.4,30.8,65.2L30.8,65.2z"/>
		</g>
		<g>
			<path id="f" class="st18" d="M30.9,60C30.9,60,30.9,60,30.9,60l-0.1-13.4l-0.1-3.1c-0.1-0.5-0.1-1.2,0.3-1.7l0,7.4l0,0.7
				c0.1,0.2,0.2,0.4,0.2,0.6l0,9.2C31.1,59.8,31.1,59.9,30.9,60L30.9,60z M30.1,54.2C30,54.1,30,53.9,30,53.7v-9.5
				c0.2,0.4,0.2,0.8,0.2,1.2l0.1,5.7C30.2,52.2,30.3,53.2,30.1,54.2L30.1,54.2z M30.8,63.8l0,1.2c-0.6,0-0.7-0.1-0.7-0.7v-0.6
				C30.3,63.7,30.6,63.8,30.8,63.8L30.8,63.8z M29.7,37.1c-0.3-0.1-0.6-0.3-0.8-0.5C29.2,36.7,29.5,36.8,29.7,37.1z"/>
		</g>
		<g>
			<path id="g" class="st9" d="M51.8,28.2l0.4-0.2c0.1,0.2,0.1,0.3,0.1,0.5l-0.2,3.7l-0.3,3.9l-0.3,3.4c-0.1,0.6,0,1.3-0.1,1.9
				l-0.2,4.1c0.2,0.5-0.3,0.6-0.6,0.8c-4,3-8,6-12.1,8.9l-4,3c-0.2,0.1-0.3,0.3-0.6,0.2c0,0-0.1-0.1-0.1-0.2l0-4.6L33.9,40
				c0-0.5,0.2-0.8,0.6-1l3.5-2.2c0.1-0.1,0.3-0.2,0.4-0.2l7.6-4.7c1.8-1.1,3.5-2.2,5.3-3.3L51.8,28.2L51.8,28.2z"/>
		</g>
		<g>
			<path id="h" class="st33" d="M38.4,36.6L34.6,39c-0.4,0.2-0.7,0.7-0.6,1.1l0,13l0,0.7c-0.1,0.5,0,1,0,1.5c-0.1,0.6,0,1.2,0,1.8
				c0,0.3-0.1,0.6-0.3,0.9l-2,1.7c-0.2,0.1-0.3,0.3-0.6,0.2l0-3c0.4-0.3,1-0.4,1.4-0.7c0.8-0.4,1.2-1,1.2-1.9l0-3.4
				c0-0.4,0-0.8,0.2-1.2c0.2-3.1,0.1-6.3,0.1-9.4c-0.1-0.5,0.1-0.9,0.7-1.2l3.2-2.1C38,36.9,38.1,36.4,38.4,36.6L38.4,36.6z"/>
		</g>
		<g>
			<path id="i" class="st34" d="M51.2,45.7c-0.1-0.1-0.1-0.3-0.1-0.4l0.3-4.1l0.1-1.8l0.3-5.2l0.4-6.2c0.3,0,0.2,0.3,0.2,0.4
				l-0.3,3.9c0,0.2,0,0.3,0,0.5l-0.5,7.4c0.1,0.4,0,0.9,0,1.3l-0.3,3.6C51.3,45.4,51.3,45.6,51.2,45.7L51.2,45.7z"/>
		</g>
		<g>
			<path id="j" class="st9" d="M19.5,34.5l3.8,2.4l3.2,2c0.4,0.2,0.6,0.6,0.5,1l0,12l0,0.6l0.1,5.9c0,0.4-0.2,0.5-0.6,0.2L24,56.7
				l-12.2-9l-2-1.5c-0.3-0.2-0.2-0.4-0.2-0.6c0-1.6-0.2-3.1-0.3-4.6l-0.1-1.6c-0.1-1.2-0.1-2.4-0.2-3.6c-0.1-1.8-0.3-3.6-0.4-5.4
				l-0.1-1.8c0-0.2,0-0.4,0.1-0.6c0.3,0,0.5,0.3,0.7,0.3L19.5,34.5z"/>
		</g>
		<g>
			<path id="k" class="st35" d="M8.6,27.9c0,1.5,0.2,3,0.3,4.6L9.2,36l0.4,5.2l0.1,1.4c0,1,0.3,2,0.1,3.1c-0.2-0.1-0.2-0.3-0.2-0.5
				l-0.3-4.4L9,37.1c0-0.1,0-0.2,0-0.3l-0.3-5.1l-0.3-3.4C8.4,28.1,8.3,27.9,8.6,27.9L8.6,27.9z"/>
		</g>
		<g>
			<path id="l" class="st36" d="M9,36.8c0,2.3,0.4,4.6,0.5,6.9c0,0.7-0.1,1.4,0.2,2c0,0.2,0.1,0.3,0.3,0.4l1.9,1.4
				c0.1,0.2,0.1,0.3-0.2,0.2l-2-1.5c-0.3-0.3-0.3-0.6-0.3-1c-0.1-0.4,0.1-0.8-0.1-1.2L9,38.1C8.9,37.7,8.8,37.2,9,36.8L9,36.8z"/>
		</g>
		<g>
			<path id="m" class="st37" d="M11.8,47.8c0.2,0,0.1-0.1,0.2-0.2l6.8,5l5.2,3.9c0,0.1,0.1,0.3-0.1,0.3c-0.1,0.1-0.2,0-0.3-0.2
				c-0.1-0.1-0.2-0.1-0.3-0.2c0-0.4-0.4-0.5-0.6-0.6c-0.6-0.5-1.3-0.8-1.8-1.3c-0.3-0.3-0.5-0.8-1.1-0.7c-0.1-0.4-0.8-0.3-0.9-0.7
				c0-0.1-0.3-0.3-0.5-0.4L17,51.8C15.3,50.4,13.5,49.1,11.8,47.8L11.8,47.8z"/>
		</g>
		<g>
			<path id="n" class="st38" d="M23.4,56.5c0.1,0,0.3-0.2,0.3,0.1c0,0.1,0,0.2,0.2,0.2c0.1,0,0.1-0.2,0.1-0.3l3.1,2.3v-6.3
				c0.2,0.6,0,1.2,0.1,1.8c0.1,1.2,0,2.5,0,3.7c0,0.4,0,0.8-0.2,1.2c0.1,0.8,0.2,1.6-0.1,2.4c-0.1,0.3,0,0.6,0,0.9
				c-0.1,0.4-0.5,0.1-0.7,0.3c-0.2,0.2-0.4,0-0.5-0.1L19,57.5l-2.9-2.1c-0.2-0.1-0.4-0.2-0.3-0.5c0.6,0.2,1.2,0.4,1.9,0.5
				c0.5,0.1,1,0.3,1.5,0.6c1.1,0.6,2.2,1,3.4,1.3c0.3,0.1,0.5,0.1,0.8-0.1C23.6,56.9,23.5,56.7,23.4,56.5L23.4,56.5z"/>
		</g>
		<g>
			<path id="o" class="st6" d="M15.8,54.8c0.7,0.7,1.5,1.2,2.3,1.8l7.5,5.6c0.2,0.2,0.4,0.4,0.7,0.4c0.7,0.8,1.6,1.4,2.5,2.1
				c0.1,0.1,0.3,0.2,0.3,0.3c-0.2,0.2-0.5,0-0.7,0c-0.4-0.1-0.6-0.4-0.9-0.6l-11.1-8.5l-3.8-2.9c-0.1-0.1-0.3-0.2-0.3-0.4
				c0.2-0.4,0.3,0,0.4,0C13.9,53.4,14.8,54.2,15.8,54.8L15.8,54.8z"/>
		</g>
		<g>
			<path id="p" class="st39" d="M36.3,61.6c-0.3,0-0.5,0.2-0.7,0.3c-1.1,0.7-2.4,1-3.7,1.3c-0.1,0-0.2,0-0.3,0c-0.7,0-0.8,0-0.7-0.7
				c0.1-0.1,0.2-0.1,0.3-0.1c0.8,0,1.4-0.3,2.1-0.6c1.1-0.6,2.2-1.4,3.2-2.1c1.8-1.2,3.4-2.6,5-4.1c1.2-1,2-2.3,2.7-3.7
				c0.1-0.2,0.1-0.4,0.1-0.5c0-0.2,0.2-0.3,0.4-0.4l4.7-3.5c0.2-0.1,0.3-0.2,0.5-0.2c0.4,0.2,0.3,0.5,0.2,0.7
				c-0.4,0.7-0.7,1.4-1.2,2c-0.8,1-1.5,2.1-2.2,3.2c-0.4,0.6-0.9,1.1-1.3,1.6l-6.7,5.1L36.3,61.6L36.3,61.6z"/>
		</g>
		<g>
			<path id="q" class="st40" d="M45.5,54.6l1.5-2.1c1-1.6,2.3-3,3.1-4.8c0.1-0.2,0.3-0.4-0.1-0.6c0-0.3,0.2-0.3,0.4-0.5
				c0.3-0.3,0.7-0.5,1-0.9c0.3,0,0.3-0.2,0.3-0.4l1.4-4.4c0.2-0.5,0.5-1.1,0.6-1.6c0-0.2,0.1-0.3,0.3-0.3l-0.5,5.8L53.4,48
				c0,0.6-0.5,0.9-0.9,1.3L45.5,54.6L45.5,54.6z"/>
		</g>
		<g>
			<path id="r" class="st41" d="M31.9,65.5l-0.2,0.2c-0.2,0.3-0.4,0.5-0.8,0.5c0,0-0.1,0-0.1-0.1c0-0.3,0.1-0.4,0.3-0.6l0.7-0.4
				C32,65.3,31.8,65.4,31.9,65.5L31.9,65.5z"/>
		</g>
		<path class="st32" d="M33.4,64.4c-0.2,0.2-0.4,0.4-0.6,0.5C32.8,64.5,33,64.4,33.4,64.4z"/>
		<g>
			<path id="s" class="st42" d="M51.4,45.8c-0.1,0.5-0.5,0.7-0.8,0.9L50,47.2l-5.6,4.1c0,0.2-0.2,0.3-0.3,0.3l-7.6,5.6
				c-0.2,0.1-0.3,0.4-0.6,0.1c0.2-0.4,0.6-0.5,0.9-0.8l1.7-1.3l11.7-8.6c0.1-0.1,0.3-0.2,0.3-0.3c0.1-0.3,0.7-0.2,0.6-0.7l0.3-4.3
				c0.2,0,0.1,0.2,0.1,0.3L51.4,45.8L51.4,45.8z"/>
		</g>
		<path class="st40" d="M51.6,41.8c0-0.1,0-0.2-0.1-0.3l0.1-1.2C51.7,40.7,51.8,41.3,51.6,41.8L51.6,41.8z"/>
		<g>
			<path id="t" class="st43" d="M33.6,19.7l0.8-1l-0.1-0.1l-7.8,3.2l-0.1-0.1l2-2c0.8-0.8,0.8-0.8-0.2-1.2l-1.5-0.7l2.4-1.2
				c0.8-0.5,1.5-0.4,2.4,0L43,22l0.4,0.2c0,0.2-0.2,0.2-0.3,0.2l-7.4,4.1c-0.3,0.2-0.5,0.2-0.8,0l-1.6-0.9c-0.6-0.3-0.6-0.3-0.2-0.9
				l3.9-4.9l-2,0.7c0,0-0.1,0-0.1,0C34.5,20.2,34.1,19.9,33.6,19.7L33.6,19.7z"/>
		</g>
		<g>
			<path id="u" class="st44" d="M32.6,26.4l1.6,0.9l-2.4,1.3c-0.5,0.3-1,0.8-1.5,0.8c-0.5,0-1-0.5-1.5-0.8L18,22.5l-0.4-0.3
				c0-0.2,0.2-0.2,0.3-0.3l7.5-3.5c0.3-0.1,0.5-0.2,0.8,0c0.4,0.2,0.7,0.4,1.1,0.5c0.4,0.1,0.5,0.2,0.1,0.6l-4.3,4.2
				c-0.1,0.1-0.3,0.2-0.4,0.4l3.1-1.2c0.4,0.1,0.4,0.4,0.3,0.7c-0.1,0.6,0.2,0.9,0.8,1.2l4,1.8c0.3,0.1,0.6,0.1,0.8,0
				C32.1,26.6,32.3,26.4,32.6,26.4L32.6,26.4z"/>
		</g>
		<g>
			<path id="v" class="st45" d="M32.6,26.4l-0.3,0.2c-0.5,0.4-1.3,0.5-1.9,0.1c-1.1-0.6-2.2-1-3.4-1.6l-0.4-0.2
				c-0.5-0.2-0.8-0.5-0.7-1.1c0.1-0.3,0-0.6-0.2-0.9l5.5-2.3l0.1,0.1l-2.9,3.4l0,0.1l5.3-2.2l0.1,0.1l-1.3,1.6l-1.3,1.6
				c-0.2,0.2-0.2,0.3,0.1,0.4C31.9,26,32.3,26.2,32.6,26.4L32.6,26.4z"/>
		</g>
		<path class="st46" d="M33.6,19.7c0.7,0,1,0.5,1.4,1L31.7,22l-0.1-0.1L33.6,19.7L33.6,19.7z"/>
		<g>
			<path id="w" class="st47" d="M31.1,65.5c0,0.2-0.2,0.4-0.3,0.6c0,0.2-0.2,0.2-0.3,0.2c-0.6,0.1-1.9-0.7-2.2-1.4l0.7,0.1
				c0.4,0.5,1,0.3,1.5,0.4c0.2,0,0.3-0.1,0.3-0.3C31,65.3,31,65.5,31.1,65.5L31.1,65.5z"/>
		</g>
		<g>
			<path id="x" class="st26" d="M27.1,59.1c-0.1,0-0.4-0.1-0.1-0.2c0.3-0.2,0.2-0.4,0.3-0.6l0-4.1c0.1,0.1,0.1,0.3,0.1,0.4l0,3.9
				C27.3,58.8,27.4,59,27.1,59.1L27.1,59.1z"/>
		</g>
		<g>
			<path id="y" class="st48" d="M33.7,49.5l0.1,3.3c0,0.7,0,1.4-0.1,2.1c0,0.3-0.3,0.6-0.5,0.8c-0.7,0.5-1.4,0.9-2.2,1.1l0-6.8
				c0.4,0.7,1.1,0.5,1.7,0.7c0.4,0.1,0.6-0.1,0.8-0.4C33.6,49.9,33.6,49.6,33.7,49.5z"/>
		</g>
		<g>
			<path id="z" class="st49" d="M36,57.3c0.2,0.1,0.3-0.1,0.4-0.2l8-5.8c0.3,0.1,0.2,0.3,0.1,0.5c-0.9,1.9-2.2,3.5-3.8,4.8
				c-1.1,0.8-2.1,1.9-3.2,2.6c-1.2,0.7-2.2,1.7-3.4,2.3c-0.4,0.2-0.7,0.4-1,0.6c-0.6,0.3-1.3,0.5-2.1,0.4l0-2.5l0-0.3
				c1-0.6,1.8-1.4,2.7-2.2c0.2-0.1,0.1-0.3,0.1-0.5c0.1-0.6-0.1-1.2,0.1-1.8c0.1,0.9,0,1.8,0.1,2.8c0,0.2-0.1,0.4,0.1,0.5l0,0
				c0.4,0.1,0.5-0.3,0.8-0.4c0.3-0.2,0.7-0.5,1-0.8C35.8,57.3,35.9,57.3,36,57.3L36,57.3z"/>
		</g>
		<g>
			<path id="AA" class="st50" d="M48.1,40.9c-0.3,0.5-0.3,1.1-0.3,1.6c0,0.8-0.1,1.6-0.7,2.2c-0.3,0.3-0.7,0.6-1,0.8l-2.8,2
				c-0.4,0.2-0.7,0.3-1.1,0.3c-1,0.1-1.8,0.4-2.7,0.7c-0.6,0.2-1.1,0.5-1.7,0.4c-0.2,0-0.3,0-0.5-0.1c0.5-1,0.2-2,0.4-3
				c0-0.1-0.1,0-0.1,0L37.4,48c0,0.2,0.1,0.5-0.2,0.6c-0.3,0-0.4-0.3-0.7-0.4c-0.1-0.1-0.1-0.3-0.1-0.4l0.5-2.5
				c0.1-0.1,0.3-0.2,0.4-0.2c0.1,0,0.3,0.1,0.3-0.1c0.1-0.2,0-0.3-0.1-0.4c0.1-0.7,0.6-1.3,1.1-1.8l4.9-4.7c0.9-0.8,2.1-1.4,3.1-2.2
				l0.4-0.3c0.2-0.1,0.4-0.2,0.7-0.1s0.3,0.4,0.3,0.6l0,1.2c0,0.2,0,0.3,0.2,0.4c0.1,0.2,0,0.3-0.1,0.4c-0.4,0.6-0.5,1.3-0.6,2
				C47.7,40.4,47.9,40.6,48.1,40.9L48.1,40.9z"/>
		</g>
		<g>
			<path id="AB" class="st51" d="M37,45.2c0.1,0.6-0.2,1.2-0.3,1.8c0,0.4-0.1,0.7-0.2,1.1c-0.1,0.4-0.2,0.7-0.2,1.1
				c0,0.4-0.3,0.6-0.7,0.8l-0.3-3.3c0-0.3,0.3-0.3,0.5-0.5l0.2,2.6l0.1,0l0.5-2.8C36.6,45.6,36.7,45.4,37,45.2L37,45.2z"/>
		</g>
		<g>
			<path id="AC" class="st52" d="M48.1,40.9c-0.6,0-0.5-0.5-0.5-0.8c0.1-0.8,0.2-1.6,0.8-2.3c0.6-0.3,0.7-0.2,0.7,0.4
				C49.1,39.2,49,40.2,48.1,40.9L48.1,40.9z"/>
		</g>
		<g>
			<path id="AD" class="st53" d="M50.6,46.3c0.1,0.2,0.1,0.2-0.1,0.3L46,50l-7.3,5.4c-0.1,0-0.1,0-0.1-0.1l8.9-6.6L50.6,46.3
				L50.6,46.3z"/>
		</g>
		<g>
			<path id="AE" class="st54" d="M49.9,38.7c-0.3,0.4-0.1,1-0.7,1.3c0-0.3,0.1-0.6,0.2-0.9c0.2-0.6,0.3-1.2,0-1.7
				c-0.1-0.3,0.1-0.4,0.2-0.5c0.3-0.2,0.2,0.2,0.4,0.2c0.2-0.3,0.1-0.8,0.6-0.9c0.1,0.2,0,0.3-0.1,0.5c-0.3,0.7-0.4,1.3,0,2
				c0.2,0.4-0.1,0.5-0.4,0.6L49.9,38.7L49.9,38.7z"/>
		</g>
		<g>
			<path id="AF" class="st55" d="M37.2,48.5l0.2-2.3c0-0.3,0.1-0.5,0.4-0.6l-0.2,2.8c0,0.2-0.3,0.3-0.4,0.4L37.2,48.5z"/>
		</g>
		<path class="st56" d="M38.5,55.3L38.5,55.3L36,57.3l-1.6,1.2c-0.1,0.1-0.3,0.3-0.4,0.1l4-2.9L38.5,55.3L38.5,55.3z"/>
		<g>
			<path id="AG" class="st48" d="M34,58.6c-0.2-0.1-0.1-0.3-0.1-0.5l0-2.8c0.1-0.5-0.1-1,0.1-1.6L34,58.6L34,58.6z"/>
		</g>
		<g>
			<path id="AH" class="st57" d="M37.6,44.5c0.1,0,0.2-0.2,0.3-0.1c0.1,0.2,0.1,0.5-0.1,0.7c-0.1,0.1-0.1,0.2-0.3,0.2
				c-0.2,0-0.1-0.2-0.1-0.3L37.6,44.5z"/>
		</g>
		<g>
			<path id="AI" class="st58" d="M11.8,36.7c0.3-0.5,0-0.9,0-1.4c0-0.2-0.1-0.5,0-0.7c0.4-0.9,0.8-1,1.8-0.4
				c1.3,0.8,2.4,1.7,3.5,2.7c0.9,0.8,1.6,1.8,2.2,2.9c0.5,1.1,1.1,2.1,1.7,3c0.1,0.1,0.1,0.3,0.1,0.4c0,0.9,0.2,1.9,0.3,2.8
				c0,0.1,0,0.3,0.1,0.4c0.5,0.5,1.1,1,1.8,1.2c0.3,0.3,0.2,0.6,0.2,1l0.4,1.6c0.1,0.4,0.1,0.9-0.4,1.1c-0.5,0.2-1,0.2-1.4-0.2
				c-0.5-0.6-1-1.1-1.3-1.8l-1-2c-0.7-1.2-1.5-2.2-2.8-2.8c-0.8-0.4-1.7-0.6-2.5,0.1c-0.2,0.2-0.4,0-0.5-0.1
				c-0.2-0.2-0.3-0.3-0.4-0.5c-0.5-1.2-0.8-2.4-0.9-3.6c0.4,0,0.8,0.1,0.9-0.5c0.1-0.1,0.1-0.3,0.3-0.3c0.2,0.5,0.1,1,0.3,1.5
				c0-0.5-0.1-0.8-0.1-1.2c0-0.1,0-0.3,0.2-0.3c0.3,0,0.2,0.3,0.2,0.5c0.4,0.9,0.7,1.8,1.3,2.4c0.1,0.1,0.2,0.2,0.3,0.2
				c0.1,0.1,0.3,0.1,0.4,0.1c0.5,0.3,1,0.7,1.5,0.9c0.1,0.1,0.2,0.3,0.3,0.5c0.1,0.2,0.2,0.3,0.4,0.2c0.1,0,0.1,0,0.2,0
				c0.4,0.6,0.9,1,1.6,1.4c-0.1-0.4-0.4-0.5-0.6-0.7c-0.7-0.4-1.2-1-1.3-1.9c0-0.2-0.1-0.4,0-0.6c0.1-0.4,0.3-0.4,0.7-0.2
				c0.1,0.1,0.3,0.2,0.4,0.3c0.1,0.1,0.2,0.2,0.5,0.2c-0.4-0.4-0.9-0.7-1.3-1c-0.2-0.1-0.3,0-0.5,0.1c-0.3,0-0.4-0.2-0.5-0.3
				c-0.3-0.4-0.5-0.8-0.7-1.3C17,39.3,16.2,38,15,36.9c-0.4-0.3-0.6-0.8-1-1.1c-0.1-0.1-0.2-0.2-0.3-0.3c-0.2-0.1-0.3-0.1-0.5,0
				s-0.1,0.3-0.1,0.5c0.1,0.7,0.3,1.3,0.6,2l0.3,0.9c0,0.2,0,0.3,0,0.5c0,0.1-0.1,0.1-0.2,0.2c-0.2-0.1-0.2-0.3-0.3-0.5
				c-0.2-0.8-0.6-1.4-1.3-1.8C12,37,11.8,36.9,11.8,36.7L11.8,36.7z"/>
		</g>
		<g>
			<path id="AJ" class="st52" d="M13.8,40.1c-0.2,0.7-0.3,0.8-1,0.4c-0.8-0.6-1.6-1.1-1.8-2.1c-0.1-0.4-0.3-0.9-0.2-1.4
				c0.1-0.6,0.3-0.8,0.9-0.4c0.1,0,0.1,0.1,0.2,0.1c0.6,0.5,1.3,0.9,1.6,1.7l0.3,1C13.9,39.6,13.7,39.9,13.8,40.1L13.8,40.1z"/>
		</g>
		<g>
			<path id="AK" class="st59" d="M25.2,48.2l-1.5-1.1c0.1,0.5,0.3,0.9,0.7,1.2c0.3,0.3,0.7,0.5,1,0.8c0.2,0.1,0.2,0.2,0.1,0.4
				c-0.1,0.2-0.3,0-0.4,0c-1.1-0.6-1.8-1.6-2-2.9c0-0.1,0-0.3,0-0.4c0-0.3,0-0.6,0.3-0.8c0.3-0.1,0.5,0.1,0.7,0.2l0.9,0.7
				c0.2,0.1,0.2,0.3,0.1,0.4c-0.2,0.2-0.3,0-0.3-0.1c-0.2-0.1-0.4-0.3-0.6-0.4c-0.2-0.1-0.4-0.3-0.6-0.1c-0.2,0.3,0,0.4,0.2,0.5
				l1.2,0.9C25.4,47.7,25.4,47.7,25.2,48.2L25.2,48.2z"/>
		</g>
		<g>
			<path id="AL" class="st54" d="M23.4,47.8c-0.1,0.1-0.1,0.3-0.3,0.1l-1.4-1c-0.2-0.1-0.3-0.4-0.3-0.6L21,43.6c0-0.1,0-0.2,0.1-0.2
				c0.1,0.1,0.2,0.2,0.2,0.4c0,0.5,0.2,1.1,0.2,1.6c0,0.7,0.3,1.1,0.9,1.5C22.8,47.1,23.3,47.3,23.4,47.8L23.4,47.8z"/>
		</g>
		<g>
			<path id="AM" class="st60" d="M28.4,65c0.6,0.4,1.1,1,1.8,1.2c0.2,0.1,0.5,0.1,0.7,0l0,0c0.8,0.1,1.5-0.2,2.2-0.6
				c1.9-0.9,3.6-2,5.2-3.3c0.2-0.2,0.5-0.6,0.9-0.5c0,0.2-0.1,0.3-0.3,0.5c-1.9,1.7-4,3-6.3,4c-0.7,0.3-1.4,0.4-2.2,0.4
				c-0.7-0.1-1.3-0.4-1.8-0.7c-1.5-1-2.8-2.1-4.2-3.3c-2.5-2-5-3.9-7.6-5.8c-0.2-0.1-0.4-0.3-0.5-0.5c0-0.2-0.1-0.3,0.1-0.5
				c0.9,0.6,1.7,1.3,2.6,1.9l6.4,4.9L28.4,65L28.4,65z"/>
		</g>
		<g>
			<path id="AN" class="st61" d="M17.4,60.5c0,0,0-0.1,0-0.1c0-0.2,0.1-0.2,0.2-0.1c0.2,0,0.3,0.1,0.5,0.2c0,0,0.1,0.1,0.1,0.1
				c0.4,1,1.3,1.5,2,2.1l4.5,3.7c0.3,0.2,0.6,0.3,0.9,0.5c0.3,0.2,0.7,0.4,0.7,0.9c-0.1,0-0.1,0.1-0.2,0.1c-0.5-0.1-1-0.3-1.5-0.5
				c0,0.4,0.5,0.7,0,1.1c-0.6-0.1-1.2-0.4-1.7-0.8c-0.1-0.4-0.3-0.8-0.5-1.1c-0.1-0.1-0.2-0.3-0.1-0.4c0.1-0.2,0.3-0.1,0.4,0
				c0.2,0.1,0.4,0.2,0.6,0.3c-1.6-1.2-3-2.6-4.5-3.9c-0.1-0.1-0.3-0.2-0.5-0.2c-0.2-0.1-0.3-0.4-0.5-0.6
				C17.7,61.4,17.5,61,17.4,60.5L17.4,60.5z"/>
		</g>
		<g>
			<path id="AO" class="st62" d="M18.1,60.6c-0.3,0.1-0.4-0.3-0.7-0.1c-0.2-0.2-0.2-0.5-0.3-0.8c-0.1-0.2,0-0.3,0.2-0.3
				c0.1,0,0.3,0.1,0.4,0.1c0,0,0.1,0.1,0.1,0.1c0.2,0.2,0.2,0.3,0.3,0.6C18.1,60.3,18.2,60.4,18.1,60.6z"/>
		</g>
		<g>
			<path id="AP" class="st63" d="M17.7,59.6c-0.2,0.1-0.4-0.5-0.7,0l-0.2-0.4l0-0.2C17.4,58.8,17.7,59.1,17.7,59.6L17.7,59.6z"/>
		</g>
		<g>
			<path id="AQ" class="st1" d="M39.1,61.8c-0.6,0.3-1,0.7-1.5,1.1c-1.9,1.4-3.8,2.7-6.1,3.4c-0.3,0.1-0.5,0-0.7-0.1
				c0.3-0.1,0.6-0.3,0.8-0.4c0.1,0.3,0.2,0.1,0.4,0.1c1.4-0.5,2.6-1.3,3.8-2.2l6.5-5.2c0.6-0.5,1.1-1.2,1.8-1.5
				c0.1-0.1,0.1-0.2,0.1-0.3c0-0.4,0.4-0.5,0.7-0.5c0.2,0,0.1,0.3,0.1,0.5c-0.6,0.3-0.9,1-1.4,1.4l-4,3.4
				C39.6,61.7,39.4,61.9,39.1,61.8L39.1,61.8z"/>
		</g>
		<g>
			<path id="AR" class="st64" d="M39.1,61.8l4.5-3.8c0.3-0.3,0.7-0.4,0.8-0.9c0-0.2,0.3-0.4,0.6-0.3c0,0.2,0.1,0.5-0.1,0.7
				c-0.4,0.2-0.6,0.6-0.9,0.9c-0.9,1.1-2,2-3.1,2.9c-0.5,0.4-1,0.9-1.6,1.3c-0.8,0.6-1.6,1.3-2.4,1.8c-1.8,1-3.5,2.1-5.6,2.4
				c-0.2,0-0.5,0.1-0.7,0c-0.1,0-0.3,0-0.3-0.2c1.6,0.1,2.9-0.7,4.2-1.4c1.5-0.8,2.8-1.8,4.1-2.9C38.9,62.1,39,61.9,39.1,61.8
				L39.1,61.8z"/>
		</g>
		<g>
			<path id="AS" class="st65" d="M39.4,62.4l3.4-3c0.5-0.5,1.1-1,1.5-1.7c0.1-0.2,0.4-0.3,0.6-0.3c0,0.3,0.1,0.6-0.1,0.8
				c-0.3,0.2-0.7,0.3-0.8,0.7c-1.5,1.7-3.1,3.2-4.9,4.6c-1.8,1.4-3.8,2.5-6,3.2c-0.2,0-0.3,0-0.5-0.1c-0.1-0.3,0.2-0.3,0.3-0.4
				l2.9-1.4c1-0.5,1.8-1.3,2.6-1.9L39.4,62.4L39.4,62.4z"/>
		</g>
		<g>
			<path id="AT" class="st66" d="M44,58.9c0.1-0.4,0.4-0.7,0.8-0.6l-0.1,0.3c0.2,0.4,0,0.8-0.2,1.2c-0.5,0-0.8,0.4-1.1,0.8
				c-0.4,0.3-0.7,0.7-1,1c-1.3,1.2-2.6,2.3-4,3.4c-0.5,0.4-1.1,0.7-1.7,1l-1.3,0.5c-0.2,0.1-0.4,0.1-0.6,0c-0.1-0.3,0.1-0.3,0.2-0.3
				c1.8-0.7,3.2-1.8,4.6-2.9c1.5-1.2,2.8-2.5,4.1-3.9C43.8,59.2,43.9,59,44,58.9L44,58.9z"/>
		</g>
		<g>
			<path id="AU" class="st67" d="M40.2,67.2c-0.9,0.5-1.7,1.1-2.7,1.5l-0.4,0.2c-0.1,0.2-0.2,0.2-0.3,0.3c-1.1,0.5-2.3,0.7-3.5,0.9
				c-0.2,0-0.4,0-0.6,0c-0.2-0.1-0.3-0.3-0.2-0.5c0.1-0.1,0.3-0.2,0.5-0.2c0.8-0.1,1.6-0.3,2.4-0.5c1.2-0.3,2.3-0.8,3.3-1.4
				c0.5-0.2,0.8-0.6,1.3-0.7c0.1,0,0.1,0,0.2,0C40.2,66.8,40.3,66.9,40.2,67.2C40.2,67.1,40.2,67.2,40.2,67.2L40.2,67.2z"/>
		</g>
		<g>
			<path id="AV" class="st68" d="M40.2,67.1l-0.1-0.3c-0.1-0.1,0-0.3,0.1-0.3c0.6-0.3,0.6-1,0.7-1.6c0.1-0.3,0.3-0.6,0.7-0.7
				c0.3,0.2,0.2,0.5,0.2,0.8c0.6-0.5,1-1.2,1.4-1.8c0.2-0.3-0.1-0.6-0.1-1c0-0.1,0.1-0.2,0.1-0.3c0.3-0.2,0.2-0.7,0.6-0.7
				c0.3,0.3,0.4,0.6,0.2,1c-0.1,0.3-0.3,0.6-0.3,0.9C42.8,64.7,41.6,66,40.2,67.1L40.2,67.1z"/>
		</g>
		<g>
			<path id="AW" class="st69" d="M43.7,63.1c-0.1-0.2,0-0.4,0.1-0.7c0.3-0.4,0.3-0.8,0-1.2c-0.1-0.6,0.3-1,0.6-1.5
				c0.3,0.1,0.3,0.4,0.5,0.6C44.6,61.3,44.3,62.3,43.7,63.1L43.7,63.1z"/>
		</g>
		<g>
			<path id="AX" class="st70" d="M44.8,60.4c-0.3,0-0.3-0.3-0.4-0.5c0,0,0,0,0-0.1c0.3-0.4,0.3-0.8,0.4-1.2c0.2,0,0.3-0.1,0.4-0.3
				C45.2,59,45.1,59.7,44.8,60.4L44.8,60.4z"/>
		</g>
		<g>
			<path id="AY" class="st52" d="M45.9,40.8c0.1-0.7,0-1.3,0.1-2c0.1-0.4,0.5-0.9,0.9-0.9c0.2,0,0.4,0.1,0.4,0.3c0,0.2,0,0.4,0,0.6
				c-0.1,0.4-0.2,0.7,0,1.1c0.2,0.5-0.1,1.2-0.5,1.7c-0.3,0.4-0.6,0.7-1,0.9v-0.7C45.9,41.4,45.6,41.1,45.9,40.8L45.9,40.8z"/>
		</g>
		<g>
			<path id="AZ" class="st71" d="M44.1,43.7c-0.2,1-1.1,1.1-1.8,1.5c-0.2,0.1-0.4,0.1-0.6,0.2c-0.1-0.2,0-0.4,0.2-0.4
				c0.3-0.1,0.3-0.3,0.3-0.5c0-0.8,0.2-1.6,0.1-2.4c0.2-0.3,0.5-0.3,0.7-0.4c0.1-0.1,0,0.3,0.2,0.1c0.1-0.1,0.3-0.3,0.5-0.1
				s0.1,0.5-0.1,0.7c-0.4,0.4-0.7,0.8-0.8,1.3c0,0.2-0.1,0.4,0.1,0.5c0.2,0.1,0.3-0.1,0.4-0.2C43.6,43.7,43.8,43.6,44.1,43.7
				L44.1,43.7L44.1,43.7z"/>
		</g>
		<g>
			<path id="Aa" class="st72" d="M42.4,42.2c0.2,0.1,0.1,0.3,0.1,0.5l-0.1,1.9c0,0.3,0.1,0.7-0.5,0.6c0,0-0.1,0.2-0.2,0.3l-0.3,0.3
				c-0.5,0.2-0.5-0.2-0.6-0.5c-0.1-0.6,0.1-1.2,0.1-1.8c0-0.3,0.1-0.6,0.4-0.6c0.3,0.1,0.3,0.3,0.3,0.5c0.1,0.4-0.1,0.8,0,1.3
				c0.2-0.6,0.2-1.3,0.3-2C41.9,42.4,42,42.2,42.4,42.2L42.4,42.2z"/>
		</g>
		<g>
			<path id="Ab" class="st73" d="M41.4,42.9c-0.2,0.1-0.3,0.3-0.3,0.5c-0.1,0.2-0.3,0.2-0.6,0.2c0,0-0.1,0-0.1,0
				c-0.1-0.1-0.1-0.2,0-0.3c0.5-0.1,0.8-0.5,1.1-0.7l2-1.7c0.4-0.3,0.8-0.5,1.3-0.4c0.2,0.2,0.1,0.5,0.1,0.7
				c-0.1,0.3-0.3,0.4-0.6,0.3c-0.4-0.2-0.6-0.1-0.9,0.2c-0.1,0.1-0.2,0.3-0.4,0.3c-0.2,0.2-0.5,0.2-0.7,0.3
				c-0.2,0.1-0.3,0.3-0.3,0.5C41.9,43,41.7,42.9,41.4,42.9L41.4,42.9z"/>
		</g>
		<g>
			<path id="Ac" class="st55" d="M40.5,43.6C40.5,43.6,40.6,43.6,40.5,43.6c0.3,0.2,0.2,0.4,0.1,0.6c-0.4,0.6-0.2,1.2-0.3,1.8
				c0,0.1,0,0,0.1,0c0.3,0,0.2,0.1,0.2,0.3c-0.2,0.3-0.3,0.7-0.7,0.6c-0.3-0.1-0.1-0.6-0.1-0.9c0-0.5,0.2-1-0.1-1.4
				c0-0.1,0-0.2,0.1-0.3c0.3-0.3,0.3-0.6,0.3-1c0-0.2,0.1-0.3,0.3-0.3c0.1,0.2,0,0.3,0,0.5C40.3,43.5,40.4,43.6,40.5,43.6L40.5,43.6
				z"/>
		</g>
		<g>
			<path id="Ad" class="st71" d="M40.5,46.2l0-0.2c-0.6,0-0.3-0.4-0.3-0.7c0-0.5-0.1-1,0.4-1.4c0.1-0.1,0.1-0.3,0-0.4l0.5-0.1
				l-0.1,2c0,0.3,0,0.5,0.4,0.4L40.5,46.2L40.5,46.2z"/>
		</g>
		<g>
			<path id="Ae" class="st74" d="M44.8,41.1l0-0.7c0-0.4,0-0.7,0.1-1.1c0.1-0.2,0.1-0.3,0.3-0.3c0.2,0,0.1,0.2,0.1,0.3
				c0,0.2,0,0.4,0,0.6c-0.1,0.3-0.1,0.6,0,0.9c0.1,0.3,0.1,0.6,0,0.9c-0.1,0.3-0.1,0.5,0,0.8c0,0.4-0.2,0.7-0.6,0.8
				c-0.3-0.2-0.2-0.6-0.2-0.9C44.6,41.9,44.7,41.5,44.8,41.1L44.8,41.1z"/>
		</g>
		<g>
			<path id="Af" class="st75" d="M38.3,48l0.2-2.7c0-0.3,0-0.3,0.4-0.3c0.1,0,0.1-0.1,0.1-0.1c0.1-0.2,0.1-0.4,0.4-0.5
				c0,0.3,0,0.6-0.2,0.8c-0.2,0.2-0.3,0.5-0.3,0.8l-0.1,1.4C38.7,47.7,38.6,47.9,38.3,48z"/>
		</g>
		<g>
			<path id="Ag" class="st71" d="M44.8,41.1c0,0.7-0.2,1.4,0,2.2c-0.3,0.1-0.3,0.5-0.7,0.6C44,43.7,44,43.6,44,43.5
				c0-0.7,0.1-1.4,0.1-2.1c0-0.1,0.1-0.1,0.1-0.2C44.5,41.3,44.7,41.3,44.8,41.1L44.8,41.1z"/>
		</g>
		<g>
			<path id="Ah" class="st73" d="M45.3,42.4c-0.2,0-0.2,0-0.2-0.2l0.2-2.4c0,0.2,0,0.5,0.1,0.7c0.1,0.2,0.2,0.4,0.5,0.3
				c0,0.3,0,0.6-0.1,0.9c0-0.1,0-0.2-0.1-0.2c-0.2,0.1-0.4,0.2-0.3,0.5C45.4,42.2,45.4,42.3,45.3,42.4z"/>
		</g>
		<g>
			<path id="Ai" class="st71" d="M40.5,43.6c-0.1,0.1-0.2,0.3-0.2,0c0-0.2,0-0.4,0-0.6c0.2,0,0,0.2,0.1,0.3
				C40.4,43.4,40.4,43.5,40.5,43.6z"/>
		</g>
		<g>
			<path id="Aj" class="st76" d="M48.1,39.6c0-0.5,0-0.9,0.2-1.2c0.1-0.1,0.1-0.2,0.3-0.2c0.1,0,0.1,0.2,0.1,0.3
				c0,0.5,0,0.9-0.2,1.3c-0.1,0.2-0.1,0.4-0.3,0.3c-0.2,0-0.1-0.3-0.1-0.4C48,39.7,48.1,39.6,48.1,39.6L48.1,39.6z"/>
		</g>
		<g>
			<path id="Ak" class="st77" d="M13.8,38.8L13,36.1c-0.1-0.3-0.2-0.7,0.1-0.8c0.3-0.1,0.6,0,0.9,0.2c1.5,1.6,3,3.1,3.8,5.2
				c0.2,0.5,0.5,0.9,0.7,1.3c0.1,0.1,0.2,0.2,0.3,0.2c0.1,0.7,0,1.3,0.3,2c0.1,0.2,0.2,0.3,0.1,0.5l-0.2,0c-0.3-0.1-0.3-0.3-0.3-0.5
				l-1.1-2.9c-0.1-0.2-0.1-0.4-0.3-0.5c-0.2,0-0.2,0.3-0.3,0.4c-0.3,0.5-0.3,1.2-0.7,1.6c-0.1,0-0.2-0.1-0.3-0.2
				c-0.1-0.4-0.4-0.7-0.5-1c-0.1-0.2-0.2-0.4,0.2-0.5s0.3-0.3,0.3-0.6c-0.1-0.6-0.3-1.2-0.9-1.6l-1.1-0.8
				C13.9,38.6,13.9,38.7,13.8,38.8L13.8,38.8z"/>
		</g>
		<g>
			<path id="Al" class="st59" d="M13.8,38.8c0-0.2-0.1-0.3,0.1-0.5c1,0.7,2.1,1.2,2.2,2.6c0.1,0.6-0.1,0.8-0.6,0.7l0.5,1
				c0,0.1,0.2,0.2,0,0.3c-0.2-0.1-0.4-0.3-0.5-0.5l-1-2c0.3-0.1,0.5,0.1,0.7,0.2c0.1,0,0.2,0.2,0.3,0.1c0.1-0.1,0.1-0.2,0-0.3
				c-0.1-0.2-0.2-0.4-0.4-0.5l-0.8-0.6c0.1,0.4-0.1,0.6,0,0.9c0,0.4,0,0.8,0.1,1.2c0,0.1,0.1,0.3-0.1,0.3c-0.2,0-0.2-0.1-0.3-0.3
				l-0.2-1.6c-0.2-0.2,0-0.4-0.1-0.5L13.8,38.8z M16.3,43l0.7-2.1c0-0.1,0-0.3,0.2-0.3c0.1,0,0.2,0.1,0.3,0.2
				c0.2,0.4,0.3,0.9,0.5,1.3l1,2.6c-0.3,0.2-0.4,0-0.4-0.2c-0.1-0.2-0.2-0.4-0.3-0.5c-0.2-0.2-0.5-0.4-0.8-0.5
				c-0.3-0.2-0.5-0.4-0.4-0.8c0.3-0.4,0.4,0,0.7,0.1l-0.4-1c-0.1,0.3-0.2,0.6-0.3,0.9C17,42.8,17,43,16.7,43.1
				C16.5,43.4,16.4,43.2,16.3,43L16.3,43z M19.2,44.8c-0.4-0.8-0.7-1.6-0.4-2.5c0.2-0.3,0.4-0.2,0.7-0.1l1.2,0.8
				c0.2,0.1,0.2,0.2,0.1,0.4c-0.1,0.2-0.2,0-0.3,0c-0.2-0.2-0.5-0.3-0.7-0.5c-0.4-0.2-0.6-0.1-0.6,0.3c0,0.7,0.2,1.4,0.8,1.8
				c0.3,0.3,0.7,0.5,1,0.7c0.2,0.1,0.3,0.3,0.1,0.5c-0.2,0.3-0.3,0-0.4-0.1C20.1,45.7,19.4,45.5,19.2,44.8L19.2,44.8z"/>
		</g>
		<g>
			<path id="Am" class="st78" d="M14.3,40.1c-0.1-0.3-0.1-0.7-0.1-1.2c0.6,0.5,1.3,0.7,1.5,1.4c0,0.2,0.1,0.4-0.1,0.5
				c-0.1,0.1-0.3-0.1-0.4-0.2c-0.2-0.1-0.4-0.4-0.7-0.4c0-0.1-0.1-0.1,0-0.2c0-0.1,0.1-0.3,0-0.3C14.3,39.9,14.4,40,14.3,40.1
				L14.3,40.1z"/>
		</g>
		<g>
			<path id="An" class="st77" d="M17.1,42.7c0,0.6,0.5,0.8,0.9,1c0.1,0.1,0.3,0.2,0.3,0.3c-0.6-0.2-1-0.6-1.5-0.9
				c0.1-0.2,0.1-0.4,0.2-0.5C17.1,42.6,17.1,42.7,17.1,42.7L17.1,42.7z M13.8,39.3c0.1,0.2,0.1,0.4,0.1,0.5l-0.2,0.3l0-0.7
				L13.8,39.3z"/>
		</g>
		<g>
			<path id="Ao" class="st79" d="M11.1,37.6c0-0.2,0-0.4,0.2-0.5c0.2-0.1,0.3,0.1,0.5,0.1c0.8,0.5,1.5,1.1,1.6,2.1
				c0,0.2,0,0.4-0.1,0.6c-0.1,0.1-0.2,0.2-0.3,0.2C12,39.7,11.2,38.7,11.1,37.6z"/>
		</g>
		<g>
			<path id="Ap" class="st80" d="M39.4,62.4c-0.6,0.6-1.3,1.1-2,1.7c-1.3,1.1-2.8,1.7-4.3,2.3c-0.2,0.1-0.4,0.1-0.5,0.3
				c-0.5,0.4-1.2,0.4-1.8,0.4c-1.4,0-2.5-0.8-3.5-1.6l-6.8-5.4l-3.4-2.5c-0.2-0.1-0.4-0.3-0.7-0.3c-0.2-0.2-0.1-0.5-0.1-0.7
				c0.6,0.3,1.1,0.7,1.6,1.1l4.9,3.7l4.4,3.6c0.9,0.7,1.8,1.5,3,1.6c0.6,0.3,1.1,0.1,1.6-0.1c2.2-0.7,4.3-1.7,6.1-3.2
				C38.6,63,38.9,62.6,39.4,62.4L39.4,62.4z"/>
		</g>
		<g>
			<path id="Aq" class="st81" d="M17.7,59.6c-0.1-0.5-0.4-0.6-0.8-0.6l-0.2-0.5c0.3-0.2,0.5,0.1,0.7,0.2c1.6,0.9,3,2.1,4.4,3.2
				l4.7,3.9c0.9,0.6,1.8,1.3,2.8,1.7c0.5,0.2,1.1,0.3,1.6,0.4c1.9,0.3,3.6-0.5,5.4-1c0.2-0.1,0.5-0.2,0.7-0.3c0.1,0,0.1,0,0.1,0
				c0.1,0.3-0.1,0.4-0.2,0.5c-0.1,0.2-0.4,0.3-0.4,0.5c-0.3,0.3-0.8,0.3-1.2,0.5c-0.7,0.2-1.5,0.4-2.2,0.5c-0.4,0.1-0.8,0.1-1.2,0.1
				h-0.2c-0.3,0-0.7,0-1,0l-1.8-0.7c-0.7-0.2-1.2-0.7-1.8-1.1c-2.3-1.4-4.1-3.4-6.2-5.1l-2.4-1.8C18.2,59.7,17.9,59.7,17.7,59.6
				L17.7,59.6z"/>
		</g>
		<g>
			<path id="Ar" class="st82" d="M37,66.6c-1,0.5-2.1,0.8-3.1,1c-0.4,0.1-0.7,0.3-1.1,0.3c-1.9,0.3-3.6-0.1-5.2-1.2
				c-2.6-1.7-4.8-3.9-7.2-5.8c-1.2-0.9-2.3-1.8-3.7-2.4L16.6,58c0.2-0.2,0.3,0,0.5,0.1c1,0.5,1.9,1.2,2.8,1.8l3.3,2.7
				c1.3,1.3,2.8,2.5,4.3,3.5c0.9,0.6,1.9,1.2,3,1.4c1,0.2,2.1,0.2,3-0.1c1-0.3,1.9-0.6,2.8-1c0.3,0,0.5-0.2,0.8-0.1
				C37.2,66.4,37.1,66.5,37,66.6L37,66.6z"/>
		</g>
		<g>
			<path id="As" class="st83" d="M16.5,57.2c0.1-0.3,0.2-0.1,0.3,0l3.8,2.7l3.9,3.1l3.7,2.9c1.4,1,2.9,1.2,4.5,0.7h0.5
				c-0.1,0.5-0.6,0.3-0.9,0.5c-0.8,0.2-1.7,0.1-2.5,0c-0.2,0-0.3,0-0.5-0.1c-0.2-0.1-0.5-0.1-0.6-0.3c-0.6-0.6-1.3-1.1-2.1-1.4
				c-0.4-0.2-0.8-0.5-1.1-0.8c-0.9-1-2-1.8-3-2.6l-4.3-3.3c-0.5-0.4-1.2-0.6-1.6-1.2L16.5,57.2L16.5,57.2z"/>
		</g>
		<g>
			<path id="At" class="st84" d="M16.5,57.4c1.2,0.6,2.3,1.4,3.3,2.2l5.2,4.2c0.2,0.2,0.4,0.4,0.6,0.6c-0.3,0.2-0.4,0-0.6-0.2
				l-2-1.7L18,58.7c-0.4-0.3-0.9-0.6-1.5-0.7L16.5,57.4z"/>
		</g>
		<g>
			<path id="Au" class="st85" d="M18.1,60.6C18,60.4,18,60.3,18,60.1c0.3-0.2,0.5,0.1,0.6,0.2c1.5,1.1,2.9,2.3,4.3,3.5l4.4,3.5
				c0.3,0.2,0.8,0.4,1.1,0.6c0.2,0.1,0.5,0.2,0.2,0.5c-0.4,0.1-0.7-0.1-1.1-0.1l-1-0.2c-0.1,0-0.4,0-0.4-0.3
				c-0.1-0.4-0.4-0.6-0.7-0.8c-1.1-0.5-1.9-1.4-2.9-2.2c-1.2-0.9-2.3-2-3.6-2.9C18.6,61.7,18.4,61.1,18.1,60.6L18.1,60.6z"/>
		</g>
		<g>
			<path id="Av" class="st2" d="M20.4,65.9L20,65.4c-0.1-0.4,0.2-0.4,0.5-0.6l-1.4-1.4c-0.2-0.2-0.3-0.5-0.5-0.7
				c-0.1-0.1-0.2-0.3-0.1-0.5c0.2-0.2,0.3,0,0.4,0.1c0.3,0.3,0.7,0.5,0.9,0.7c1.1,1.2,2.4,2.2,3.6,3.2c0.1,0.1,0.2,0.2,0.1,0.4
				c-0.4-0.1-0.7-0.5-1.2-0.5c0.1,0.5,0.7,0.9,0.6,1.4c-0.1,0.1-0.2,0.1-0.3,0c-0.7-0.4-1.4-0.9-2-1.4C20.5,66.1,20.5,66,20.4,65.9
				L20.4,65.9z"/>
		</g>
		<g>
			<path id="Aw" class="st86" d="M26.3,67.8c0.4,0.3,0.9,0.2,1.3,0.4c0.2,0.2,0.3,0.4,0.4,0.6c0.2,0.4,0.1,0.6-0.4,0.6
				c-0.3,0-0.5,0-0.7,0.2c-0.7,0-1.4-0.2-1.9-0.6c0-0.2,0-0.3,0.2-0.4c0.2-0.1,0.5,0,0.7,0.1c0.1,0,0.2,0.1,0.3,0
				c0.1-0.1,0-0.2,0-0.3c-0.1-0.2-0.3-0.4-0.1-0.7L26.3,67.8L26.3,67.8z"/>
		</g>
		<g>
			<path id="Ax" class="st85" d="M25.2,68.7l-0.6-0.3c0.3-0.4-0.1-0.6-0.2-0.9c0-0.1-0.2-0.2,0-0.3c0.1-0.1,0.2,0,0.3,0l1.4,0.5
				c0,0.3,0.2,0.5,0.3,0.8c0.1,0.3,0.1,0.5-0.3,0.3C25.8,68.9,25.5,68.8,25.2,68.7z"/>
		</g>
		<g>
			<path id="Ay" class="st63" d="M28.8,68.3c-0.2-0.3-0.5-0.4-0.8-0.6c-1.9-1.1-3.5-2.5-5.2-3.9l-4.4-3.6c-0.1-0.1-0.3-0.2-0.4-0.2
				l-0.3-0.5c0.2-0.1,0.4-0.1,0.6,0c0.9,0.6,1.8,1.3,2.6,2l3.6,3.1c1.2,1.1,2.6,1.9,3.9,2.8c0.4,0.3,1,0.4,1.5,0.6
				c0.2,0.1,0.4,0.1,0.5,0.3c-0.4,0.3-0.9,0.1-1.4,0.1C28.9,68.5,28.8,68.4,28.8,68.3L28.8,68.3z"/>
		</g>
		<g>
			<path id="Az" class="st87" d="M32.4,67.1c0.2-0.2,0.6-0.1,0.8-0.4c2.4-0.8,4.5-2,6.4-3.6l3.3-3c0.4-0.4,0.7-0.9,1.1-1.2
				c0,0.4-0.3,0.7-0.6,0.9c-2,2.1-4.1,4-6.6,5.6c-0.6,0.4-1.4,0.6-2.1,1C34,66.9,33.3,67.2,32.4,67.1L32.4,67.1z"/>
		</g>
		<g>
			<path id="BA" class="st88" d="M23.1,62.6c0.6,0.3,1,0.8,1.6,1.2c0.3,0.2,0.5,0.6,1,0.7c0.3,0.3,0.7,0.6,1,0.8l2.1,1.4l0.6,0.2
				c0.2,0.3,0.6,0.2,0.8,0.3c0.9,0.2,1.9,0.1,2.8-0.2c1.3-0.3,2.5-0.7,3.7-1.3c2.1-1.2,3.8-2.8,5.6-4.4c0.1,0.3-0.1,0.4-0.2,0.5
				c-1.1,1.2-2.4,2.2-3.7,3.2c-0.7,0.5-1.3,1-2.1,1.3c-1.1,0.5-2.2,1-3.3,1.2c-1.8,0.4-3.5,0-5.1-1.1c-1.7-1.1-3.2-2.4-4.8-3.8
				C23.1,62.7,23.1,62.7,23.1,62.6L23.1,62.6z"/>
		</g>
		<g>
			<path id="BB" class="st89" d="M36.3,66.5l1.7-1.2c1.5-1,2.9-2.1,4.1-3.4c0.1-0.1,0.2-0.2,0.2-0.4c0.3-0.3,0.6-0.8,1-0.9
				c0,0.5-0.3,0.9-0.7,1.3c-0.5,0.3-0.9,0.8-1.3,1.2c-0.9,0.9-1.9,1.6-2.9,2.3l-1,0.8c-0.1,0.1-0.3,0.3-0.5,0.1L36.3,66.5L36.3,66.5
				z"/>
		</g>
		<g>
			<path id="BC" class="st90" d="M42.7,61.8c0.3-0.4,0.5-0.8,0.7-1.2c0.2-0.4,0.4-1,1-0.8c0,0,0,0.1,0,0.1l-0.6,1.5
				c-0.2,0.2-0.2,0.6-0.5,0.7c-0.2-0.1-0.4,0-0.6-0.1C42.6,61.9,42.6,61.8,42.7,61.8L42.7,61.8z"/>
		</g>
		<g>
			<path id="BD" class="st91" d="M36.8,65.8c-0.2,0.3-0.5,0.3-0.8,0.4c-0.8,0.3-1.5,0.6-2.3,0.9c-0.2,0-0.3,0-0.5,0.1
				c-0.9,0.3-1.9,0.3-2.9,0.1c-0.2,0-0.4,0-0.4-0.3c0.9,0.1,1.7,0.2,2.6,0c0.8-0.1,1.6-0.4,2.4-0.6C35.5,66.4,36.1,66,36.8,65.8
				L36.8,65.8z"/>
		</g>
		<g>
			<path id="BE" class="st92" d="M33,68.3c1.2-0.2,2.4-0.4,3.4-0.9c0.7-0.4,1.4-0.8,2.2-1c0.4,0.4,0.2,0.7,0,1.1
				c-1,0.7-2.1,1.1-3.3,1.4c-0.6,0.1-1.2,0.2-1.8,0.1C33.1,69,33,68.8,33,68.3L33,68.3z"/>
		</g>
		<g>
			<path id="BF" class="st93" d="M32.6,70c-1.2,0.2-2.4,0.2-3.6,0c0.4-0.4,0.4-0.5,0.1-0.9c-0.1-0.1-0.3-0.3-0.3-0.5
				c0-0.2,0-0.3,0.2-0.2l1.5,0l1.1,0c-0.1,0.3-0.3,0.2-0.5,0.2c-0.2,0-0.4-0.1-0.5,0.2c-0.1,0.2,0.3,0.7,0.6,0.7
				c0.2,0,0.4,0,0.6-0.1c0.1,0,0.2,0,0.4,0c0.1,0,0.2,0,0.3,0.1L32.6,70L32.6,70z"/>
		</g>
		<g>
			<path id="BG" class="st94" d="M32.4,69.6l-0.3,0c-0.2-0.2-0.1-0.6-0.4-0.8c-0.1-0.1-0.1-0.3,0.1-0.3l1.2-0.1
				c0,0.5,0.2,0.6,0.7,0.6h1.7C34.4,69.3,33.4,69.4,32.4,69.6L32.4,69.6z"/>
		</g>
		<g>
			<path id="BH" class="st95" d="M38.7,67.5c0-0.2,0-0.4,0.1-0.6c0.1-0.2,0.1-0.4-0.2-0.4c0.3-0.5,0.8-0.7,1.3-0.9
				c0.1,0,0.1,0.1,0.1,0.1c0.1,0.4,0.1,0.7-0.1,1.1C39.6,67,39.2,67.4,38.7,67.5L38.7,67.5z"/>
		</g>
		<g>
			<path id="BI" class="st96" d="M40,66.8l0-1.2c0.2-0.4,0.5-0.7,0.9-0.7c0.2,0.5,0,1.1-0.4,1.5c-0.1,0.1-0.3,0.2-0.4,0.4
				C40,66.8,40,66.8,40,66.8L40,66.8z"/>
		</g>
		<g>
			<path id="BJ" class="st97" d="M40.9,64.9L40,65.6l-1.3,0.9c-0.7,0.3-1.4,0.7-2.2,0.9c0-0.4,0.5-0.5,0.6-0.8
				c0.3-0.4,0.8-0.5,1.2-0.8c1.5-0.9,2.9-2,3.9-3.4c0.1-0.2,0.3-0.4,0.5-0.4c0.2,0.1,0.5-0.3,0.6,0.1l-0.1,0.3
				c-0.4,0.8-0.9,1.5-1.7,2L40.9,64.9z"/>
		</g>
		<g>
			<path id="BK" class="st98" d="M41.5,64.3l1.7-2c0,0.3,0.3,0.6,0.1,1c-0.4,0.7-0.9,1.3-1.5,1.9c0,0-0.1,0.1-0.2,0.1
				c-0.1-0.1-0.1-0.2-0.1-0.3C41.7,64.7,41.6,64.5,41.5,64.3L41.5,64.3z"/>
		</g>
		<g>
			<path id="BL" class="st99" d="M46.3,41.5l0-1c0-0.2,0.2-0.4,0.4-0.3c0.2,0,0.2,0.3,0.2,0.4C46.8,41,46.7,41.3,46.3,41.5
				L46.3,41.5z"/>
		</g>
		<g>
			<path id="BM" class="st100" d="M46.4,39.8l0.1-0.9c0-0.1,0.2-0.3,0.3-0.2c0.2,0,0.2,0.2,0.1,0.3C46.9,39.3,46.8,39.6,46.4,39.8
				L46.4,39.8z"/>
		</g>
		<g>
			<path id="BN" class="st51" d="M44.2,41.3l-0.1,2.5c-0.3,0.1-0.6,0.3-0.8,0.6c-0.1,0.1-0.2,0.2-0.4,0.2c-0.2-0.1-0.2-0.2-0.2-0.4
				c0-0.6,0.2-1.2,0.6-1.6l0.3-0.2c0.1-0.1,0.1-0.3,0-0.5c-0.1-0.1-0.2,0-0.3,0.1c-0.1,0.1-0.2,0.2-0.3,0.3
				c-0.1-0.1-0.1-0.2-0.1-0.4c0.1-0.3,0.4-0.5,0.6-0.7C43.8,41.1,44.1,41,44.2,41.3L44.2,41.3z"/>
		</g>
		<g>
			<path id="BO" class="st71" d="M41.4,42.9c0.2-0.1,0.4,0,0.6-0.2l-0.1,1.8c0,0.1,0,0.2-0.1,0.3c-0.1,0.1-0.1,0.3-0.3,0.2
				c-0.1,0-0.1-0.2-0.1-0.3l0.1-1.4C41.5,43.2,41.6,43,41.4,42.9L41.4,42.9z"/>
		</g>
		<path class="st101" d="M17.1,42.7L17,42.6l0.4-1.2l0.6,1.7C17.6,43.1,17.5,42.6,17.1,42.7L17.1,42.7z"/>
		<g>
			<path id="BP" class="st102" d="M42.7,61.9c-1.4,2.1-3.3,3.6-5.6,4.7l-0.1,0l0.1-0.3l2.2-1.5c0.9-0.6,1.8-1.4,2.6-2.2
				c0.3-0.3,0.4-0.7,0.9-0.8L42.7,61.9z"/>
		</g>
		<g>
			<path id="BQ" class="st103" d="M31.8,68.4c-0.1,0.1-0.1,0.3,0,0.4c0.4,0.2,0.2,0.5,0.3,0.8l-0.3,0c-1,0.1-1.1,0.1-1.5-0.8
				c-0.1-0.3,0.1-0.2,0.2-0.2c0.4,0,0.7,0.1,1.1-0.1L31.8,68.4z"/>
		</g>
		<g>
			<path id="BR" class="st91" d="M28.8,66.8c-0.8-0.3-1.5-0.8-2.1-1.4c0.2,0,0.3,0.1,0.5,0.2l1.4,1C28.7,66.5,28.8,66.6,28.8,66.8z"
				/>
		</g>
		<g>
			<path id="BS" class="st84" d="M29.8,67.1c0.9,0.4,1.9,0.3,2.9,0.2l0.5-0.1c-1.2,0.5-2.4,0.4-3.6,0c0,0-0.1-0.1-0.1-0.2
				C29.5,67,29.6,67.1,29.8,67.1L29.8,67.1z"/>
		</g>
		<g>
			<path id="BT" class="st104" d="M29,68.4c-0.3,0.1-0.1,0.2,0,0.3c0.1,0.2,0.3,0.3,0.4,0.5c0.2,0.5,0.2,0.6-0.4,0.7
				c-0.7,0-1.4-0.1-2.1-0.3c0.1-0.3,0.2-0.5,0.6-0.3c0.2,0.1,0.4,0.1,0.5-0.1s-0.1-0.3-0.2-0.5c-0.1-0.2-0.2-0.3-0.2-0.6l1.1,0.1
				L29,68.4L29,68.4z"/>
		</g>
		<g>
			<path id="BU" class="st105" d="M43.7,42.8C43.7,42.9,43.7,42.9,43.7,42.8c0.1,0.4,0.1,0.7-0.2,0.9c-0.1,0-0.1,0-0.2-0.1
				C43.2,43.3,43.4,43,43.7,42.8L43.7,42.8z"/>
		</g>
	</g>
</g>
</svg>
