<?xml version="1.0" encoding="UTF-8"?>
<svg id="Layer_2" data-name="Layer 2" xmlns="http://www.w3.org/2000/svg" xmlns:xlink="http://www.w3.org/1999/xlink" viewBox="0 0 130 100">
  <defs>
    <style>
      .cls-1 {
        fill: #1f9cf0;
      }

      .cls-2 {
        fill: #fff;
      }

      .cls-2, .cls-3 {
        fill-rule: evenodd;
      }

      .cls-3 {
        fill: url(#linear-gradient);
      }

      .cls-4 {
        fill: #007acc;
      }

      .cls-5 {
        fill: #0065a9;
      }

      .cls-6 {
        mask: url(#mask);
      }

      .cls-7 {
        opacity: .25;
      }
    </style>
    <mask id="mask" x="19.41" y="6.44" width="87.62" height="87.12" maskUnits="userSpaceOnUse">
      <g id="mask0">
        <path class="cls-2" d="m81.56,93.19c1.38.54,2.95.5,4.34-.17l18.03-8.68c1.89-.91,3.1-2.83,3.1-4.93V20.59c0-2.1-1.2-4.02-3.1-4.93l-18.03-8.68c-1.83-.88-3.97-.66-5.57.5-.23.17-.45.35-.65.56l-34.52,31.49-15.03-11.41c-1.4-1.06-3.36-.98-4.66.21l-4.82,4.39c-1.59,1.45-1.59,3.95,0,5.4l13.04,11.89-13.04,11.89c-1.59,1.45-1.59,3.95,0,5.4l4.82,4.39c1.3,1.18,3.26,1.27,4.66.21l15.03-11.41,34.52,31.49c.55.55,1.19.96,1.88,1.23Zm3.59-63.07l-26.19,19.88,26.19,19.88V30.12Z"/>
      </g>
    </mask>
    <linearGradient id="linear-gradient" x1="63.19" y1="-3215.56" x2="63.19" y2="-3302.68" gradientTransform="translate(0 -3209.12) scale(1 -1)" gradientUnits="userSpaceOnUse">
      <stop offset="0" stop-color="#fff"/>
      <stop offset="1" stop-color="#fff" stop-opacity="0"/>
    </linearGradient>
  </defs>
  <g id="Layer_1-2" data-name="Layer 1">
    <g class="cls-6">
      <g>
        <path class="cls-5" d="m103.93,15.67l-18.04-8.69c-2.09-1.01-4.58-.58-6.22,1.06L20.6,61.89c-1.59,1.45-1.59,3.95,0,5.4l4.82,4.39c1.3,1.18,3.26,1.27,4.66.21L101.22,17.92c2.39-1.81,5.81-.11,5.81,2.89v-.21c0-2.1-1.2-4.02-3.1-4.93Z"/>
        <path class="cls-4" d="m103.93,84.33l-18.04,8.69c-2.09,1.01-4.58.58-6.22-1.06L20.6,38.11c-1.59-1.45-1.59-3.95,0-5.4l4.82-4.39c1.3-1.18,3.26-1.27,4.66-.21l71.13,53.96c2.39,1.81,5.81.11,5.81-2.89v.21c0,2.1-1.2,4.02-3.1,4.93Z"/>
        <path class="cls-1" d="m85.89,93.02c-2.09,1.01-4.59.58-6.22-1.06,2.02,2.02,5.47.59,5.47-2.27V10.31c0-2.86-3.45-4.29-5.47-2.27,1.64-1.64,4.14-2.06,6.22-1.06l18.04,8.68c1.9.91,3.1,2.83,3.1,4.93v58.82c0,2.1-1.21,4.02-3.1,4.93l-18.04,8.68Z"/>
        <g class="cls-7">
          <path class="cls-3" d="m81.5,93.19c1.38.54,2.95.5,4.34-.17l18.03-8.68c1.89-.91,3.1-2.83,3.1-4.93V20.59c0-2.1-1.2-4.02-3.1-4.93l-18.03-8.68c-1.83-.88-3.97-.66-5.57.5-.23.17-.45.35-.65.56l-34.52,31.49-15.03-11.41c-1.4-1.06-3.36-.98-4.66.21l-4.82,4.39c-1.59,1.45-1.59,3.95,0,5.4l13.04,11.89-13.04,11.89c-1.59,1.45-1.59,3.95,0,5.4l4.82,4.39c1.3,1.18,3.26,1.27,4.66.21l15.03-11.41,34.52,31.49c.55.55,1.19.96,1.88,1.23Zm3.59-63.07l-26.19,19.88,26.19,19.88V30.12Z"/>
        </g>
      </g>
    </g>
  </g>
</svg>