<?xml version="1.0" encoding="UTF-8"?>
<svg id="Layer_2" data-name="Layer 2" xmlns="http://www.w3.org/2000/svg" viewBox="0 0 130 100">
  <defs>
    <style>
      .cls-1 {
        fill: #00adef;
      }
    </style>
  </defs>
  <g id="Layer_1-2" data-name="Layer 1">
    <g>
      <path class="cls-1" d="m23.23,54.23h-13.3v-13.3h13.3v13.3Zm14.69,0h-13.3v-13.3h13.3v13.3h0Zm-14.69,14.69h-13.3v-13.3h13.3v13.3Zm14.69,0h-13.3v-13.3h13.3v13.3h0Z"/>
      <g>
        <path class="cls-1" d="m62.9,50.01l-3.18,12.03h-3l-2-7.72c-.11-.4-.17-.85-.19-1.35h-.03c-.05.55-.12,1-.22,1.35l-2.05,7.72h-3.13l-3.16-12.03h2.96l1.69,8.01c.07.34.13.8.16,1.38h.05c.02-.43.1-.9.24-1.41l2.18-7.98h2.9l1.97,8.08c.07.3.14.73.19,1.29h.03c.02-.44.08-.89.18-1.34l1.66-8.03h2.74Z"/>
        <path class="cls-1" d="m64.99,52.09c-.45,0-.81-.13-1.1-.4s-.43-.59-.43-.98.14-.72.43-.97.65-.38,1.1-.38.82.13,1.1.38c.28.25.42.58.42.97s-.14.73-.42.99c-.28.26-.65.39-1.1.39Zm1.31,9.95h-2.65v-8.59h2.65v8.59Z"/>
        <path class="cls-1" d="m76.32,62.05h-2.64v-4.77c0-1.33-.48-2-1.43-2-.46,0-.84.18-1.13.53s-.44.8-.44,1.34v4.9h-2.65v-8.59h2.65v1.36h.03c.63-1.05,1.55-1.57,2.76-1.57,1.9,0,2.85,1.18,2.85,3.54v5.26Z"/>
        <path class="cls-1" d="m86.31,62.05h-2.65v-1.18h-.03c-.6.93-1.49,1.39-2.66,1.39-1.07,0-1.94-.38-2.59-1.14-.65-.76-.98-1.82-.98-3.18s.36-2.56,1.08-3.42c.72-.86,1.67-1.28,2.84-1.28,1.11,0,1.88.4,2.32,1.19h.03v-5.11h2.65v12.72Zm-2.6-4.18v-.65c0-.56-.16-1.02-.49-1.39-.32-.37-.75-.55-1.27-.55-.59,0-1.05.23-1.38.69-.33.46-.5,1.1-.5,1.9,0,.75.16,1.34.48,1.75s.76.61,1.33.61.97-.21,1.31-.65c.34-.43.51-1,.51-1.71Z"/>
        <path class="cls-1" d="m92.12,62.26c-1.43,0-2.56-.4-3.38-1.2s-1.23-1.89-1.23-3.27.43-2.53,1.28-3.34c.85-.8,2-1.2,3.45-1.2s2.55.4,3.36,1.2,1.22,1.86,1.22,3.18c0,1.43-.42,2.55-1.25,3.38s-1.98,1.24-3.44,1.24Zm.07-6.98c-.63,0-1.11.21-1.46.65-.35.43-.52,1.04-.52,1.83,0,1.65.67,2.48,2,2.48s1.9-.85,1.9-2.54c0-1.61-.64-2.41-1.92-2.41Z"/>
        <path class="cls-1" d="m110.46,53.45l-2.48,8.59h-2.79l-1.27-5.04c-.08-.33-.13-.7-.14-1.1h-.05c-.04.44-.1.79-.17,1.07l-1.36,5.07h-2.75l-2.43-8.59h2.7l1.18,5.61c.06.26.1.58.13.96h.05c.03-.39.08-.72.15-.99l1.48-5.57h2.53l1.33,5.61c.03.14.07.46.12.97h.06c.03-.32.07-.65.13-.97l1.12-5.61h2.46Z"/>
        <path class="cls-1" d="m110.64,61.82v-2.15c.44.26.87.46,1.31.59.43.13.84.19,1.23.19.47,0,.84-.06,1.11-.19.27-.13.41-.32.41-.59,0-.17-.06-.31-.18-.42-.12-.11-.28-.21-.47-.29s-.4-.16-.63-.23-.45-.14-.66-.23c-.34-.13-.64-.27-.9-.42-.26-.15-.48-.32-.65-.52-.18-.2-.31-.42-.4-.68-.09-.26-.14-.56-.14-.92,0-.48.1-.89.31-1.24.21-.35.49-.63.84-.85.35-.22.75-.38,1.2-.49.45-.1.92-.16,1.41-.16.38,0,.77.03,1.16.09s.78.14,1.16.26v2.05c-.34-.2-.7-.34-1.08-.44s-.76-.15-1.13-.15c-.17,0-.34.01-.49.05-.15.03-.29.08-.41.13s-.21.13-.28.23c-.07.09-.1.2-.1.32,0,.16.05.29.15.4s.23.21.39.29c.16.08.34.15.54.22s.4.13.59.2c.35.12.67.26.96.4s.53.32.73.51c.2.2.36.43.47.69.11.26.16.58.16.94,0,.51-.11.94-.33,1.31-.22.36-.51.65-.88.88-.37.23-.79.39-1.27.5-.48.1-.98.16-1.49.16-.95,0-1.82-.15-2.63-.44Z"/>
      </g>
    </g>
  </g>
</svg>