<?xml version="1.0" encoding="UTF-8"?>
<svg id="Layer_2" data-name="Layer 2" xmlns="http://www.w3.org/2000/svg" xmlns:xlink="http://www.w3.org/1999/xlink" viewBox="0 0 130 50">
  <defs>
    <style>
      .cls-1 {
        fill: #0d597f;
      }

      .cls-2 {
        clip-path: url(#clippath);
      }

      .cls-3 {
        fill: none;
      }
    </style>
    <clipPath id="clippath">
      <rect class="cls-3" width="130" height="50"/>
    </clipPath>
  </defs>
  <g id="Layer_1-2" data-name="Layer 1">
    <g class="cls-2">
      <path class="cls-1" d="m15.67,29.59v-4.55l-3.27,3.28c.32.22.65.43,1,.61l.88.39.75.2c.22.04.45.06.64.06m16.72-.38s.06.05.1.07c.08.05.17.1.26.14.11.05.26.1.43.12.2.04.4.06.61.06.22,0,.43-.02.64-.06.26-.05.52-.11.77-.2.31-.11.6-.24.89-.39.35-.19.69-.39,1.01-.62l-2.48-2.43-8.24-8.26-3.61,3.61-4.87-5.03-12.24,12.09c.32.23.66.43,1.01.62.29.15.58.28.89.39.25.09.5.16.76.2.21.04.43.06.64.06.2,0,.41-.02.61-.06.15-.03.29-.07.43-.13.09-.04.18-.08.26-.13l.1-.07,5.52-5.52,1.97-1.89,5.46,5.46,1.91,1.96s.06.05.1.07l.26.15c.14.06.28.1.43.12.17.04.37.06.6.06.22,0,.43-.02.64-.06.26-.05.52-.11.77-.2.28-.1.57-.22.89-.39.35-.18.69-.39,1.01-.62l-4.39-4.29.82-.82,6.04,5.98m-.04-22.86l10.81,18.68-10.78,18.68H10.78L0,25,10.78,6.32h21.54Z"/>
      <path class="cls-1" d="m25.63,24.09l-2.87-2.87.2-.2,2.89,2.86-.22.21Zm90.55,3.37c-.83-1.43-.83-4.29,0-5.8.36-.66,1.47-2.12,6.29-2.12.99,0,1.72.05,2.25.12,1.17.16,2.06.56,2.06,1.65,0,1.44-2.12,1.45-2.12,1.45h-4.48c-1.91,0-2.05,2.63-2.05,2.63h6.54c2.3,0,4.68-1.04,4.68-4.03,0-2.01-1.15-3.34-3.04-3.87s-2.63-.48-5.18-.44c-2.05.04-3.24.48-3.99.72-1.31.41-2.48,1.19-3.28,2.61-1.29,2.33-1.28,6.19.02,8.43,1.39,2.39,3.78,3.67,6.67,3.67h8.81v-2.65h-8.8c-2.54,0-3.79-1.39-4.36-2.36m-54.28-9.96c-2.33-1.29-6.19-1.28-8.43.02-3.19,1.86-4.4,5.49-3.22,9.7.6,2.17,2.21,3.77,4.66,4.62,1.09.37,2.24.58,3.39.62v-2.66s-4.6-.07-5.49-3.29c-1.14-4.16.77-6,2.01-6.72,1.43-.83,4.29-.83,5.8,0,1.6.88,1.71,2.73,1.71,5.65v5.4c0,1.91,2.66,2.03,2.66,2.03v-7.42c0-2.79,0-6.28-3.09-7.98m34.49,14.99v-8.29c0-2.89,1.28-5.28,3.67-6.67,2.23-1.31,6.09-1.31,8.43-.02,3.09,1.71,3.09,5.19,3.09,7.98v7.42s-2.66-.13-2.66-2.03v-5.37c0-2.93-.11-4.77-1.71-5.65-1.5-.83-4.38-.84-5.8,0-.98.57-2.37,1.83-2.36,4.36v8.3l-2.65-.02Zm-3.94,0v-12.58s2.63.15,2.63,2.05v10.51h-2.63Zm2.63-15.18v2.48s-2.63-.15-2.63-2.05v-.43h2.63Zm-16.03.26c2.33-1.29,6.19-1.28,8.43.02,3.19,1.86,4.4,5.49,3.22,9.7-.6,2.17-2.21,3.77-4.66,4.62-1.73.6-3.33.54-3.39.54v-2.63s4.6-.01,5.49-3.23c1.14-4.16-.77-6-2.01-6.72-1.43-.83-4.29-.83-5.8,0-1.6.88-1.71,2.73-1.71,5.65v2.79c0,1.91-2.66,2.03-2.66,2.03v-4.83c0-2.79,0-6.28,3.09-7.98m-.45,21.75v-8.83s-2.63.15-2.63,2.05v6.74l2.63.04Zm-9.76-28.63v9.21s-2.63-.15-2.63-2.05v-7.17h2.63Z"/>
      <path class="cls-1" d="m69.23,26.53c-.23-.84-.34-1.58-.35-2.24v-2.27c0-1.91-2.65-2.03-2.65-2.03v4.29c.02,1,.16,2,.43,2.96.6,2.17,2.21,3.77,4.66,4.62,1.73.6,3.32.6,3.39.6v-2.65s-4.6-.07-5.49-3.29m11.85,10.84v-4.93h-.44v4.93c0,.95.74,1.97,2.83,1.97h3.38v-.44h-3.38c-2.21,0-2.38-1.17-2.38-1.53m7.23,1.96h.44v-5.05h-.44v5.05Zm0-5.32h.44v-.65h-.44v.65Zm22.95.27h-.6l-1.88,2.19-1.88-2.19h-.6l2.17,2.53-2.16,2.52h.6l1.87-2.18,1.87,2.18h.6l-2.15-2.51,2.16-2.54Zm-6.71,3.11c0,.16-.08,1.5-2.9,1.5s-2.87-1.34-2.87-1.5v-3.1h-.44v3.11c0,.2.09,1.94,3.31,1.94s3.34-1.74,3.34-1.94v-3.11h-.44v3.1Zm-10.99-3.11c-3.25,0-3.34,1.74-3.34,1.94v3.11h.44v-3.11c0-.16.08-1.5,2.9-1.5s2.87,1.34,2.87,1.5v3.11h.44v-3.11c0-.2-.09-1.94-3.31-1.94"/>
    </g>
  </g>
</svg>