<?xml version="1.0" encoding="UTF-8"?>
<svg id="Layer_2" data-name="Layer 2" xmlns="http://www.w3.org/2000/svg" viewBox="0 0 130 100">
  <defs>
    <style>
      .cls-1 {
        fill: #3ec8ec;
      }
    </style>
  </defs>
  <g id="Layer_1-2" data-name="Layer 1">
    <g>
      <path class="cls-1" d="m43,26.47c1.33-.74,2.65-1.51,3.96-2.29,1.32.77,2.64,1.55,3.97,2.28.04,11.29,0,22.57.02,33.86-.08,1.08.36,2.27,1.38,2.77,1.33.63,2.85.35,4.27.42.03,2.53.01,5.06,0,7.59-1.4,0-2.79.02-4.19-.02-1.17-.02-2.31-.36-3.41-.71-.9-.44-1.79-.91-2.57-1.53-1.36-1.17-2.39-2.73-2.9-4.45-.49-1.46-.57-3.02-.55-4.54.01-11.13-.02-22.25.01-33.38h0Z"/>
      <path class="cls-1" d="m76.35,33.53c4.15-.22,8.33-.05,12.43.71-.02,2.52-.01,5.05,0,7.57-1.24-.07-2.46-.35-3.7-.41-2.85-.3-5.72-.37-8.58-.25-1.7.17-3.51.23-4.99,1.19-1.03.7-1.24,2.12-.95,3.25.44,1.17,1.62,1.75,2.72,2.14,2.51.83,5.15,1.12,7.7,1.81,2.48.65,4.97,1.53,7.01,3.14,1.65,1.28,2.7,3.23,3.05,5.28.25,2.51.13,5.16-1.03,7.45-1.03,2.07-2.84,3.71-4.97,4.58-1.75.76-3.67,1.08-5.56,1.1-4.11.02-8.22,0-12.33,0-.72-.01-1.45.05-2.17-.03-.85-1.14-1.56-2.37-2.38-3.53-.18-.17-.1-.43.04-.6.81-1.13,1.55-2.32,2.35-3.45,4.52.02,9.03,0,13.55,0,1.16-.08,2.4-.09,3.45-.67.7-.39,1.22-1.14,1.21-1.96.11-.99-.21-2.03-.94-2.73-.6-.41-1.22-.8-1.92-1.01-1.6-.53-3.26-.87-4.91-1.16-2.56-.57-5.14-1.19-7.5-2.39-.63-.36-1.32-.66-1.87-1.14-1.03-.84-2.03-1.8-2.57-3.03-.95-1.85-1.05-3.99-.95-6.02.15-2.61,1.39-5.18,3.51-6.75,2.97-2.19,6.73-2.83,10.33-3.11h0Z"/>
      <path class="cls-1" d="m11.02,35.52c5.17-2.03,10.85-2.36,16.32-1.84,2.32.27,4.66.53,6.93,1.13,0,12.09-.01,24.19,0,36.28-2.63.02-5.27,0-7.91,0,.02-8.92,0-17.84,0-26.76,0-.98.02-1.96-.02-2.94-2.33-.3-4.7-.38-7.05-.25-2.67.27-5.42.95-7.55,2.66-2.19,1.73-3.41,4.47-3.61,7.23-.09,1.93-.1,3.92.56,5.76.39,1.42,1.22,2.67,2.19,3.76.08.02.23.05.31.07.02.08.07.25.1.33.86.62,1.78,1.17,2.76,1.59,1.49.53,3.08.78,4.66.74.87,1.19,1.63,2.46,2.47,3.67.29.32-.11.65-.27.92-.7,1.08-1.47,2.11-2.11,3.23-2.21.05-4.44-.27-6.56-.91-3.58-1.1-6.87-3.33-8.97-6.47-1.83-2.6-2.78-5.74-3.11-8.88-.05-.62.02-1.25-.13-1.85-.15-.42.05-.85.08-1.27.05-4.5,1.63-9.12,4.9-12.29,1.68-1.71,3.79-2.96,5.99-3.88h0Z"/>
      <path class="cls-1" d="m108.22,34.97c4.46-1.43,9.21-1.73,13.85-1.37,2.65.27,5.33.54,7.92,1.24,0,11,0,22,0,33-.02.43.06.88-.06,1.3-1.32.74-2.62,1.53-3.94,2.27-.86-.61-1.83-1.03-2.71-1.61-.18-.11-.37-.27-.59-.24-.23-.24-.65-.39-.65-.77,0-9.12,0-18.23,0-27.35-3.03-.44-6.14-.52-9.17.02-2.68.52-5.38,1.74-7.03,4-1.84,2.43-2.26,5.62-2.02,8.59.06.43,0,.93.31,1.28-.02.07-.06.21-.08.29.44,2.02,1.44,3.99,3.1,5.27,1.61,1.32,3.66,1.98,5.69,2.26.9.21,1.85,0,2.74.25-.04,2.57,0,5.15-.03,7.72-4.81.06-9.79-1.18-13.59-4.25-1.84-1.48-3.29-3.4-4.35-5.5-1.9-4-2.22-8.62-1.52-12.95.46-2.26,1.21-4.5,2.51-6.42,2.2-3.42,5.77-5.8,9.59-7h0Z"/>
    </g>
  </g>
</svg>