<svg width="130" height="50" viewBox="0 0 130 50" fill="none" xmlns="http://www.w3.org/2000/svg">
<path d="M26.367 26.8959C25.5457 26.9158 26.5233 27.3259 27.5983 27.4823C27.8915 27.2477 28.1652 27.0132 28.3997 26.7981C27.7351 26.9545 27.051 26.9545 26.3669 26.8958M30.7844 25.8013C31.273 25.1172 31.6248 24.3939 31.7617 23.6316C31.6444 24.1789 31.3512 24.6481 31.0775 25.1367C29.5334 26.0945 30.9407 24.5698 31.0775 23.9835C29.4161 26.0554 30.843 25.2149 30.7843 25.8013M32.4067 21.5598C32.5044 20.0743 32.1135 20.5434 31.9767 21.1102C32.133 21.2079 32.2503 22.1657 32.4067 21.5598ZM23.2591 1.34908C23.6891 1.42723 24.2169 1.48591 24.1387 1.58363C24.6078 1.48594 24.7251 1.38815 23.2591 1.34908ZM24.1387 1.6032L23.826 1.66181L24.1192 1.64194L24.139 1.60287M34.8695 21.0321C34.9281 22.3612 34.4786 23.0062 34.088 24.1398L33.3843 24.4917C32.7979 25.6254 33.4429 25.2149 33.0325 26.114C32.1334 26.9154 30.2765 28.6355 29.6901 28.7919C29.2601 28.7919 29.9833 28.2836 30.081 28.0882C28.8691 28.9286 29.1037 29.3391 27.2468 29.8473L27.1882 29.73C22.6144 31.8801 16.2424 27.6187 16.3398 21.7943C16.3007 22.1657 16.2029 22.0679 16.1052 22.2243C15.8707 19.2341 17.4927 16.224 20.2294 14.9922C22.9073 13.6631 26.0347 14.2107 27.9502 15.9891C26.8947 14.6209 24.8032 13.1549 22.3209 13.2917C19.8972 13.3308 17.6103 14.8746 16.8675 16.5559C15.6165 17.3374 15.48 19.5859 14.9324 19.996C14.2092 25.3517 16.3007 27.6777 19.8581 30.3946C20.4249 30.766 20.0144 30.8246 20.0926 31.1178C18.9198 30.5706 17.8253 29.7304 16.9457 28.7137C17.4148 29.3978 17.923 30.0819 18.5876 30.6096C17.4734 30.2383 15.9879 27.9123 15.5576 27.8145C17.4731 31.2547 23.3565 33.8546 26.4252 32.5642C24.998 32.6229 23.2001 32.5841 21.5974 31.9974C20.9328 31.6456 20.0145 30.9419 20.1701 30.8051C24.3725 32.3687 28.6922 31.9974 32.3278 29.085C33.2465 28.3618 34.2629 27.1499 34.5564 27.1304C34.1264 27.795 34.6346 27.4431 34.3023 28.0295C35.221 26.544 33.9114 27.4236 35.2601 25.469L35.7683 26.1531C35.5728 24.9217 37.2929 23.4167 37.117 21.4816C37.5079 20.8952 37.547 22.1267 37.1368 23.4949C37.7232 21.9703 37.2932 21.7357 37.43 20.4649C37.5864 20.8949 37.8014 21.3445 37.9187 21.7745C37.5473 20.3085 38.3096 19.2921 38.4856 18.4517C38.2901 18.3735 37.8992 19.0967 37.821 17.3571C37.8408 16.5948 38.036 16.9661 38.1141 16.7707C37.9578 16.6925 37.5864 16.1061 37.3519 14.992C37.5278 14.7379 37.8014 15.6761 38.036 15.6956C37.8796 14.8161 37.6255 14.1515 37.6255 13.4671C36.9414 12.0398 37.391 13.6625 36.8242 12.8611C36.101 10.5938 37.4301 12.3334 37.5083 11.317C38.6029 12.8999 39.2284 15.3826 39.5216 16.399C39.3066 15.148 38.9547 13.9362 38.5052 12.783C38.8374 12.9198 37.9774 10.2224 38.9352 12.0015C37.8992 8.19001 34.4979 4.613 31.3709 2.95132C31.7618 3.30316 32.2309 3.73282 32.055 3.8113C30.4914 2.89264 30.765 2.81446 30.55 2.42381C29.2795 1.9156 29.2013 2.46288 28.3611 2.42381C25.9765 1.15331 25.5074 1.29014 23.3182 0.488735L23.4159 0.957833C21.833 0.430089 21.5786 1.15331 19.8585 0.957833C19.7608 0.879683 20.4058 0.664639 20.9531 0.586456C19.4285 0.78193 19.4871 0.293261 18.0016 0.645068C18.373 0.390981 18.7639 0.215045 19.1548 0C17.9038 0.0781499 16.1646 0.723218 16.7115 0.136828C14.6787 1.05549 11.0627 2.32569 9.02989 4.22198L8.97128 3.79196C8.03335 4.90609 4.92523 7.13436 4.67148 8.58076L4.41739 8.63937C3.92872 9.46061 3.61602 10.379 3.24461 11.239C2.61915 12.314 2.32595 11.6495 2.40417 11.8254C1.15321 14.3469 0.547281 16.4774 0 18.217C0.371378 18.7838 5.05285e-07 21.6376 0.156367 23.9244C-0.469098 35.2221 8.07256 46.1875 17.4354 48.7089C18.8037 49.1976 20.8365 49.178 22.5761 49.2366C20.5238 48.6502 20.2697 48.9239 18.276 48.2398C16.8488 47.5556 16.5169 46.7934 15.5004 45.9138L15.9109 46.6175C13.9172 45.9138 14.7577 45.7379 13.1353 45.23L13.5654 44.6632C12.9203 44.6046 11.8453 43.5686 11.5521 43.0018L10.8484 43.0216C10.008 41.9661 9.53886 41.2234 9.57794 40.637L9.2652 40.9888C9.01112 40.5393 6.13782 37.0601 7.62333 37.8615C7.34967 37.6074 6.97826 37.451 6.58738 36.7278L6.88057 36.3759C6.15735 35.4573 5.571 34.265 5.61007 33.8741C6.00099 34.3823 6.25514 34.48 6.52873 34.5777C4.71095 30.0821 4.6132 34.3236 3.24498 30.004L3.53817 29.9841C3.32316 29.6518 3.18633 29.2804 3.01043 28.9286L3.12772 27.6777C1.81815 26.1726 2.75634 21.2861 2.95182 18.5888C3.08864 17.4942 4.04641 16.3409 4.7696 14.5036L4.32004 14.4254C5.16048 12.9399 9.16748 8.48341 11.0048 8.71799C11.904 7.58432 10.8289 8.71799 10.653 8.42479C12.6271 6.392 13.2331 6.97836 14.5622 6.62655C15.9894 5.78611 13.3308 6.95882 14.0149 6.29428C16.4973 5.66882 15.7741 4.84785 18.9992 4.53515C19.3315 4.73062 18.2177 4.82834 17.9242 5.08243C19.9765 4.06601 24.4526 4.30093 27.3454 5.64928C30.7074 7.21294 34.4797 11.8649 34.6361 16.2432L34.812 16.2823C34.7339 18.0219 35.0857 20.0352 34.4602 21.8725L34.8706 21.0321" fill="#D70751"/>
<path d="M17.4148 28.0296L17.2975 28.5964C17.8448 29.3392 18.2748 30.121 18.9589 30.6878C18.4507 29.7301 18.0793 29.3392 17.4148 28.0296M18.6853 27.9709C18.3921 27.6582 18.2357 27.2672 18.0402 26.8959C18.2161 27.5605 18.5875 28.1273 18.9394 28.7137L18.6853 27.9709ZM41.2611 23.0648L41.1438 23.3775C40.9288 24.9412 40.4401 26.5049 39.7166 27.9513C40.5179 26.4267 41.0457 24.7653 41.2607 23.0648M23.4155 0.958188C23.9627 0.762714 24.7837 0.840897 25.3701 0.704102C24.6078 0.762714 23.8455 0.801789 23.0832 0.899576L23.4155 0.958188ZM3.92765 11.3176C4.06448 12.5099 3.02853 12.9595 4.1622 12.1776C4.74859 10.8485 3.90811 11.8258 3.92765 11.3176ZM2.61808 16.8101C2.87216 16.0286 2.93081 15.5396 3.02853 15.09C2.30531 15.9891 2.69626 16.1846 2.61808 16.8101Z" fill="#D70751"/>
<path d="M48.4401 28.5499C48.4401 38.335 53.6392 38.335 54.4124 38.335C56.5721 38.335 57.9585 37.1618 58.5451 35.1089L58.6251 38.2017C59.2917 38.175 59.9582 38.095 61.0247 38.095C61.3979 38.095 61.7179 38.095 61.9845 38.1217C62.2512 38.1217 62.5444 38.1484 62.8644 38.2017C62.3045 37.0818 61.9045 34.6023 61.9045 29.1631C61.9045 23.884 61.9045 14.9521 62.3578 12.2325C61.1047 12.8191 60.0381 13.2193 57.6652 13.4057C58.5984 14.4188 58.5984 14.9254 58.5984 19.5113C57.9318 19.298 57.1049 19.058 55.6922 19.058C49.4532 19.111 48.4401 24.5238 48.4401 28.5498M58.5184 24.4701C58.4918 24.4968 58.4918 30.0958 58.4118 31.5623C58.3318 32.7354 58.2252 35.2683 55.7456 35.2683C53.186 35.2683 52.546 32.3088 52.3328 31.029C52.0928 29.6159 52.0928 28.4161 52.0928 27.9095C52.0928 26.2298 52.1995 21.5905 56.1189 21.5905C57.292 21.5905 57.9586 21.9371 58.4919 22.2038L58.5184 24.4701ZM76.6488 27.1365C76.6488 23.0838 75.8489 19.0844 70.7031 19.0844C63.6109 19.0844 63.611 26.9232 63.611 28.6029C63.611 35.6418 66.7838 38.4413 72.0896 38.4413C74.4625 38.4413 75.6089 38.0947 76.2222 37.9081C76.1956 36.655 76.3555 35.8551 76.5688 34.7886C75.8489 35.2418 74.8891 35.8284 72.8095 35.8284C67.397 35.8284 67.317 30.8958 67.317 29.1894H76.5692L76.6492 27.1364M67.2911 26.7898C67.3177 23.9103 67.9043 21.324 70.3839 21.324C73.1034 21.324 73.29 24.3102 73.2367 26.7898H67.2911ZM77.9819 32.416C77.9819 34.9755 77.9819 36.442 77.5553 37.5618C78.9684 38.1217 80.7548 38.4416 82.8611 38.4416C84.2209 38.4416 88.1402 38.4416 90.2733 34.0957C91.2864 32.0694 91.633 29.3765 91.633 27.3238C91.633 26.0707 91.4997 23.3245 90.4865 21.5917C89.5267 19.9653 87.9533 19.1388 86.2739 19.1388C82.9411 19.1388 81.9546 21.9116 81.448 23.3514C81.448 21.5917 81.4747 15.4061 81.768 12.2333C79.5017 13.2731 78.1152 13.4597 76.6221 13.5931C77.9819 14.1529 77.9819 16.4459 77.9819 23.9114V32.4166M87.9536 28.6306C87.9536 31.8568 87.3671 36.2027 83.341 36.2027C82.7811 36.2027 82.0879 36.0961 81.6346 35.9895C81.5546 34.7363 81.5546 32.5767 81.5546 30.0971C81.5546 27.1109 81.8746 25.5378 82.1145 24.7913C82.8344 22.3383 84.4875 22.285 84.7808 22.285C87.447 22.285 87.9536 25.9111 87.9536 28.6307L87.9536 28.6306ZM98.3252 38.2287C97.632 38.1221 97.1521 38.0421 96.1389 38.0421C95.0191 38.0421 94.2726 38.1221 93.4727 38.2287C93.8193 37.5621 93.9527 37.2419 94.0593 35.0026C94.1926 31.9097 94.2459 23.6444 93.9793 21.9113C93.7927 20.5782 93.4994 20.3916 93.0195 20.045C95.8723 19.7784 96.6722 19.5651 97.9787 18.9252C97.712 20.4449 97.6587 21.2182 97.6587 23.5378C97.5787 35.5092 97.5521 36.789 98.3253 38.2287M99.8982 32.6556C99.8982 34.8419 100.565 37.0282 102.511 37.9614C103.391 38.3347 104.244 38.3347 104.537 38.3347C107.737 38.3347 108.803 35.9617 109.47 34.5219C109.443 36.0417 109.47 36.9749 109.577 38.2013C110.19 38.1747 110.83 38.0947 111.87 38.0947C112.456 38.0947 113.016 38.1747 113.603 38.2013C113.229 37.6148 113.016 37.2682 112.909 35.9084C112.829 34.6019 112.829 33.2691 112.829 31.4291L112.856 24.337C112.856 21.6974 112.163 19.0845 106.937 19.0845C103.498 19.0845 101.471 20.1243 100.485 20.6575C100.911 21.4308 101.258 22.0707 101.551 23.5637C102.911 22.3906 104.671 21.7507 106.484 21.7507C109.363 21.7507 109.363 23.6704 109.363 26.3633C108.697 26.3367 108.137 26.2567 107.204 26.2567C102.804 26.3097 99.8982 28.0164 99.8982 32.6556M109.443 28.3897C109.363 30.576 109.337 32.0957 108.75 33.3222C108.03 34.8953 106.804 35.3485 105.897 35.3485C103.818 35.3485 103.364 33.6155 103.364 31.9091C103.364 28.6563 106.27 28.3897 107.603 28.3897L109.443 28.3897ZM129.467 34.7885C129.493 35.9617 129.493 37.2148 130 38.228C129.227 38.148 128.774 38.0414 127.361 38.0414C126.534 38.0414 126.081 38.1214 125.414 38.228C125.548 37.7747 125.628 37.6147 125.681 37.0015C125.788 36.2017 125.868 33.5355 125.868 32.6023V28.8428C125.868 27.2164 125.868 24.8435 125.761 24.0169C125.681 23.4304 125.521 21.8306 123.495 21.8306C121.522 21.8306 120.856 23.2971 120.615 24.4698C120.349 25.6963 120.349 27.0031 120.349 32.1486C120.375 36.6011 120.375 37.0012 120.722 38.2276C120.135 38.1476 119.415 38.0943 118.349 38.0943C117.522 38.0943 116.962 38.1209 116.269 38.2276C116.509 37.6677 116.642 37.4011 116.722 35.4547C116.802 33.5351 116.936 24.1499 116.616 21.9369C116.456 20.5772 116.083 20.2572 115.709 19.9106C118.536 19.7773 119.415 19.3241 120.295 18.8708V22.5509C120.722 21.4844 121.575 19.0852 125.068 19.0852C129.413 19.0852 129.44 22.258 129.467 24.3376V34.7893" fill="black"/>
<path d="M98.6185 13.9923L95.739 16.8718L92.8595 13.9923L95.739 11.1128L98.6185 13.9923Z" fill="#D70751"/>
</svg>
