<?xml version="1.0" encoding="UTF-8"?>
<svg id="Layer_2" data-name="Layer 2" xmlns="http://www.w3.org/2000/svg" xmlns:xlink="http://www.w3.org/1999/xlink" viewBox="0 0 130 50">
  <defs>
    <style>
      .cls-1 {
        clip-path: url(#clippath);
      }

      .cls-2 {
        fill: none;
      }

      .cls-3 {
        fill: #d70751;
      }
    </style>
    <clipPath id="clippath">
      <rect class="cls-2" width="130" height="50"/>
    </clipPath>
  </defs>
  <g id="Layer_1-2" data-name="Layer 1">
    <g class="cls-1">
      <g>
        <g>
          <path class="cls-3" d="m26.67,27.26c-.82.02.16.43,1.22.58.29-.23.56-.47.8-.68-.66.16-1.34.16-2.02.1m4.38-1.09c.48-.68.83-1.4.97-2.15-.12.54-.41,1.01-.68,1.49-1.53.95-.14-.56,0-1.14-1.65,2.06-.23,1.22-.29,1.8m1.61-4.21c.1-1.47-.29-1.01-.43-.45.16.1.27,1.05.43.45M23.59,1.91c.43.08.95.14.87.23.47-.1.58-.19-.87-.23m.87.25l-.31.06.29-.02.02-.04m10.65,19.28c.06,1.32-.39,1.96-.78,3.08l-.7.35c-.58,1.13.06.72-.35,1.61-.89.8-2.74,2.5-3.32,2.66-.43,0,.29-.5.39-.7-1.2.83-.97,1.24-2.81,1.75l-.06-.12c-4.54,2.13-10.86-2.1-10.77-7.88-.04.37-.14.27-.23.43-.23-2.97,1.38-5.96,4.09-7.18,2.66-1.32,5.76-.78,7.66.99-1.05-1.36-3.12-2.81-5.59-2.68-2.41.04-4.68,1.57-5.41,3.24-1.24.78-1.38,3.01-1.92,3.41-.72,5.32,1.36,7.62,4.89,10.32.56.37.16.43.23.72-1.16-.54-2.25-1.38-3.12-2.39.47.68.97,1.36,1.63,1.88-1.11-.37-2.58-2.68-3.01-2.77,1.9,3.41,7.74,5.99,10.79,4.71-1.42.06-3.2.02-4.79-.56-.66-.35-1.57-1.05-1.42-1.18,4.17,1.55,8.46,1.18,12.07-1.71.91-.72,1.92-1.92,2.21-1.94-.43.66.08.31-.25.89.91-1.47-.39-.6.95-2.54l.5.68c-.19-1.22,1.51-2.72,1.34-4.64.39-.58.43.64.02,2,.58-1.51.16-1.75.29-3.01.16.43.37.87.48,1.3-.37-1.45.39-2.46.56-3.3-.19-.08-.58.64-.66-1.09.02-.76.21-.39.29-.58-.16-.08-.52-.66-.76-1.77.17-.25.45.68.68.7-.16-.87-.41-1.53-.41-2.21-.68-1.42-.23.19-.8-.6-.72-2.25.6-.52.68-1.53,1.09,1.57,1.71,4.03,2,5.04-.21-1.24-.56-2.44-1.01-3.59.33.14-.52-2.54.43-.78-1.03-3.78-4.4-7.33-7.51-8.98.39.35.85.78.68.85-1.55-.91-1.28-.99-1.49-1.38-1.26-.5-1.34.04-2.17,0-2.37-1.26-2.83-1.13-5-1.92l.1.47c-1.57-.52-1.82.19-3.53,0-.1-.08.54-.29,1.09-.37-1.51.19-1.45-.29-2.93.06.37-.25.76-.43,1.14-.64-1.24.08-2.97.72-2.42.14-2.02.91-5.61,2.17-7.62,4.05l-.06-.43c-.93,1.11-4.02,3.32-4.27,4.75l-.25.06c-.48.82-.8,1.73-1.16,2.58-.62,1.07-.91.41-.83.58-1.24,2.5-1.84,4.62-2.39,6.34.37.56,0,3.39.16,5.66-.62,11.21,7.86,22.09,17.15,24.6,1.36.48,3.38.47,5.1.52-2.04-.58-2.29-.31-4.27-.99-1.42-.68-1.75-1.44-2.75-2.31l.41.7c-1.98-.7-1.14-.87-2.75-1.38l.43-.56c-.64-.06-1.71-1.09-2-1.65l-.7.02c-.83-1.05-1.3-1.78-1.26-2.37l-.31.35c-.25-.45-3.1-3.9-1.63-3.1-.27-.25-.64-.41-1.03-1.13l.29-.35c-.72-.91-1.3-2.1-1.26-2.48.39.5.64.6.91.7-1.8-4.46-1.9-.25-3.26-4.54l.29-.02c-.21-.33-.35-.7-.52-1.05l.12-1.24c-1.3-1.49-.37-6.34-.17-9.02.14-1.09,1.09-2.23,1.8-4.05l-.45-.08c.83-1.47,4.81-5.9,6.63-5.66.89-1.13-.17,0-.35-.29,1.96-2.02,2.56-1.44,3.88-1.78,1.42-.83-1.22.33-.54-.33,2.46-.62,1.75-1.44,4.95-1.75.33.19-.78.29-1.07.54,2.04-1.01,6.48-.78,9.35.56,3.34,1.55,7.08,6.17,7.24,10.51l.17.04c-.08,1.73.27,3.72-.35,5.55l.41-.83"/>
          <path class="cls-3" d="m17.79,28.39l-.12.56c.54.74.97,1.51,1.65,2.08-.5-.95-.87-1.34-1.53-2.64m1.26-.06c-.29-.31-.45-.7-.64-1.07.17.66.54,1.22.89,1.8l-.25-.74m22.41-4.87l-.12.31c-.21,1.55-.7,3.1-1.42,4.54.8-1.51,1.32-3.16,1.53-4.85M23.74,1.52c.54-.19,1.36-.12,1.94-.25-.76.06-1.51.1-2.27.19l.33.06M4.4,11.8c.14,1.18-.89,1.63.23.85.58-1.32-.25-.35-.23-.85m-1.3,5.45c.25-.78.31-1.26.41-1.71-.72.89-.33,1.09-.41,1.71"/>
        </g>
        <path d="m48.58,28.9c0,9.71,5.16,9.71,5.93,9.71,2.14,0,3.52-1.16,4.1-3.2l.08,3.07c.66-.03,1.32-.11,2.38-.11.37,0,.69,0,.95.03.26,0,.56.03.87.08-.56-1.11-.95-3.57-.95-8.97s0-14.1.45-16.8c-1.24.58-2.3.98-4.66,1.16.93,1.01.93,1.51.93,6.06-.66-.21-1.48-.45-2.88-.45-6.19.05-7.2,5.42-7.2,9.42m10-4.05s-.03,5.58-.11,7.04c-.08,1.16-.19,3.68-2.65,3.68s-3.18-2.94-3.39-4.21c-.24-1.4-.24-2.59-.24-3.1,0-1.67.11-6.27,4-6.27,1.16,0,1.83.34,2.36.61l.03,2.25Zm17.99,2.65c0-4.02-.79-7.99-5.9-7.99-7.04,0-7.04,7.78-7.04,9.45,0,6.99,3.15,9.76,8.41,9.76,2.36,0,3.49-.34,4.1-.53-.03-1.24.13-2.04.34-3.1-.71.45-1.67,1.03-3.73,1.03-5.37,0-5.45-4.9-5.45-6.59h9.18l.08-2.04m-9.29-.34c.03-2.86.61-5.42,3.07-5.42,2.7,0,2.88,2.96,2.83,5.42h-5.9Zm10.61,5.58c0,2.54,0,4-.42,5.11,1.4.56,3.18.87,5.27.87,1.35,0,5.24,0,7.36-4.31,1.01-2.01,1.35-4.68,1.35-6.72,0-1.24-.13-3.97-1.14-5.69-.95-1.61-2.51-2.43-4.18-2.43-3.31,0-4.29,2.75-4.79,4.18,0-1.75.03-7.89.32-11.03-2.25,1.03-3.63,1.22-5.11,1.35,1.35.56,1.35,2.83,1.35,10.24v8.44m9.9-3.76c0,3.2-.58,7.51-4.58,7.51-.56,0-1.24-.11-1.69-.21-.08-1.24-.08-3.39-.08-5.85,0-2.96.32-4.52.56-5.27.71-2.43,2.36-2.49,2.65-2.49,2.65,0,3.15,3.6,3.15,6.3h0Zm10.29,9.53c-.69-.11-1.16-.19-2.17-.19-1.11,0-1.85.08-2.65.19.34-.66.48-.98.58-3.2.13-3.07.19-11.27-.08-12.99-.19-1.32-.48-1.51-.95-1.85,2.83-.26,3.63-.48,4.92-1.11-.26,1.51-.32,2.28-.32,4.58-.08,11.88-.11,13.15.66,14.58m1.56-5.53c0,2.17.66,4.34,2.59,5.27.87.37,1.72.37,2.01.37,3.18,0,4.23-2.36,4.9-3.78-.03,1.51,0,2.43.11,3.65.61-.03,1.24-.11,2.28-.11.58,0,1.14.08,1.72.11-.37-.58-.58-.93-.69-2.28-.08-1.3-.08-2.62-.08-4.45l.03-7.04c0-2.62-.69-5.21-5.87-5.21-3.41,0-5.42,1.03-6.4,1.56.42.77.77,1.4,1.06,2.88,1.35-1.16,3.1-1.8,4.9-1.8,2.86,0,2.86,1.91,2.86,4.58-.66-.03-1.22-.11-2.14-.11-4.37.05-7.25,1.75-7.25,6.35m9.47-4.23c-.08,2.17-.11,3.68-.69,4.9-.71,1.56-1.93,2.01-2.83,2.01-2.06,0-2.51-1.72-2.51-3.41,0-3.23,2.88-3.49,4.21-3.49h1.83Zm19.87,6.35c.03,1.16.03,2.41.53,3.41-.77-.08-1.22-.19-2.62-.19-.82,0-1.27.08-1.93.19.13-.45.21-.61.26-1.22.11-.79.19-3.44.19-4.37v-3.73c0-1.61,0-3.97-.11-4.79-.08-.58-.24-2.17-2.25-2.17s-2.62,1.46-2.86,2.62c-.26,1.22-.26,2.51-.26,7.62.03,4.42.03,4.82.37,6.03-.58-.08-1.3-.13-2.36-.13-.82,0-1.38.03-2.06.13.24-.56.37-.82.45-2.75.08-1.91.21-11.22-.11-13.42-.16-1.35-.53-1.67-.9-2.01,2.8-.13,3.68-.58,4.55-1.03v3.65c.42-1.06,1.27-3.44,4.74-3.44,4.31,0,4.34,3.15,4.37,5.21v10.37"/>
        <path class="cls-3" d="m98.38,14.45l-2.86,2.86-2.86-2.86,2.86-2.86,2.86,2.86"/>
      </g>
    </g>
  </g>
</svg>