<svg width="82" height="68" viewBox="0 0 82 68" fill="none" xmlns="http://www.w3.org/2000/svg">
<path fill-rule="evenodd" clip-rule="evenodd" d="M12.393 55.153V49.9663C12.393 49.2847 12.8191 48.7373 13.5247 48.7373H13.72C14.4253 48.7373 14.8494 49.2853 14.8494 49.9663V60.886C14.8494 63.5488 13.5339 65.6676 11.2413 67.0174C10.1912 67.6396 8.99242 67.9665 7.77178 67.9637H7.28455C4.62111 67.9637 2.50513 66.6472 1.15312 64.3562C0.530055 63.3062 0.203161 62.1069 0.20719 60.886V60.3994C0.20719 57.7356 1.52338 55.6181 3.81402 54.2657C4.864 53.6423 6.06342 53.3153 7.28455 53.3195H7.77178C9.57424 53.3195 11.1035 54.0182 12.393 55.153ZM2.66331 60.6422C2.66331 62.5658 3.59561 64.0119 5.2811 64.9344C5.96265 65.3072 6.70253 65.5075 7.48013 65.5075C9.36819 65.5075 10.7687 64.6168 11.7346 63.0169C12.1838 62.2725 12.393 61.4582 12.393 60.5924C12.393 58.925 11.6037 57.6237 10.2599 56.6572C9.44522 56.0714 8.52814 55.7775 7.528 55.7775C5.47003 55.7775 3.98901 56.8173 3.10014 58.6641C2.80025 59.2886 2.66331 59.9515 2.66331 60.6422ZM23.3711 53.3195H23.7115C26.5575 53.3195 28.722 54.7 30.0937 57.1844C30.6421 58.1782 30.9356 59.2629 30.9356 60.3994V60.886C30.9356 63.5488 29.6226 65.6705 27.3266 67.0177C26.2637 67.6413 25.0895 67.9637 23.8577 67.9637H23.3711C20.7076 67.9637 18.591 66.6472 17.2396 64.3562C16.6163 63.3063 16.289 62.107 16.2928 60.886V60.3994C16.2928 57.7353 17.6143 55.6247 19.8993 54.2664C20.9615 53.6352 22.1367 53.3195 23.3711 53.3195ZM18.7492 60.6422C18.7492 62.5093 19.6653 63.8829 21.2424 64.8488C21.9829 65.3021 22.7986 65.5075 23.6636 65.5075C25.5086 65.5075 26.8723 64.5721 27.8214 63.015C28.2741 62.2725 28.4789 61.4569 28.4789 60.5924C28.4789 58.8562 27.6426 57.5299 26.213 56.5688C25.4297 56.0416 24.5576 55.7775 23.6142 55.7775C21.5562 55.7775 20.0752 56.8173 19.1866 58.6641C18.8861 59.2886 18.7492 59.9515 18.7492 60.6422ZM41.1472 55.9737C40.7763 55.8 40.0821 55.7423 39.6814 55.7271C37.6291 55.6498 36.1443 56.8056 35.2732 58.6159C34.9723 59.2404 34.8351 59.9014 34.8351 60.5924C34.8351 62.6964 35.9398 64.1695 37.8177 65.0675C38.5037 65.3953 39.3894 65.4575 40.1391 65.4575C40.7985 65.4575 41.7305 65.0536 42.3156 64.7756L42.4171 64.7274H42.8713L42.9214 64.7375C43.48 64.8539 43.9016 65.208 43.9016 65.809V66.0521C43.9016 67.5478 41.1684 67.8901 40.1255 67.963C36.4451 68.2176 33.6926 66.1964 32.6433 62.6859C32.4611 62.0763 32.3789 61.4709 32.3789 60.8356V60.3496C32.3789 57.6859 33.7008 55.5759 35.9855 54.2188C37.0477 53.588 38.2225 53.271 39.4566 53.271H39.9435C41.2527 53.271 42.4586 53.6428 43.5396 54.3811L43.6283 54.4426L43.6845 54.5352C43.8011 54.7286 43.9016 54.9524 43.9016 55.1825V55.4257C43.9016 56.0527 43.4324 56.39 42.8663 56.499L42.8194 56.5073H42.6742C42.3077 56.5073 41.4743 56.1278 41.1472 55.9737ZM49.1147 57.6371C50.0688 56.6816 51.0262 55.7281 51.9946 54.7885C52.2644 54.5263 53.2861 53.4168 53.6884 53.4168H54.1284L54.1784 53.4273C54.7389 53.5436 55.1586 53.8983 55.1586 54.5006V54.7435C55.1586 55.1543 54.6774 55.6317 54.4121 55.9129C53.8478 56.5111 53.2537 57.0896 52.6762 57.6754L49.7084 60.6882C50.9862 61.9689 52.2628 63.2505 53.5302 64.541C53.8817 64.8972 54.2305 65.2561 54.5766 65.6175C54.6986 65.7459 54.8787 65.9057 54.9811 66.0835C55.0911 66.2503 55.1586 66.4383 55.1586 66.6389V66.8925L55.1443 66.9512C55.0064 67.5116 54.6508 67.9637 54.0298 67.9637H53.8342C53.4278 67.9637 52.9688 67.504 52.6904 67.2412C52.1167 66.7004 51.5629 66.1317 51.0005 65.5792L49.1147 63.7279V66.6868C49.1147 67.3683 48.688 67.9161 47.9833 67.9161H47.7899C47.0843 67.9161 46.6582 67.3683 46.6582 66.6868V50.0138C46.6582 49.3323 47.0846 48.787 47.7899 48.787H47.9833C48.688 48.787 49.1147 49.3323 49.1147 50.0138V57.6371ZM79.7296 53.4168H79.9737C80.7104 53.4168 81.2021 53.9132 81.2021 54.6458C81.2021 55.6628 80.2299 55.923 79.3889 55.923C78.2857 55.923 77.2323 56.5909 76.4718 57.34C75.5237 58.2749 75.1087 59.4722 75.1087 60.7884V66.735C75.1087 67.4165 74.683 67.9637 73.977 67.9637H73.783C73.0771 67.9637 72.6517 67.4168 72.6517 66.735V60.4469C72.6517 58.0324 73.8271 56.0612 75.7868 54.6788C76.9568 53.853 78.2971 53.4168 79.7296 53.4168ZM62.2712 65.2016C63.1651 65.5139 64.1843 65.4692 65.1013 65.3094C65.5705 65.11 66.77 64.5867 67.2113 64.6634L67.2801 64.6751L67.3435 64.7062C67.6129 64.8368 67.87 65.0216 68.0076 65.2958C68.329 65.9383 68.1747 66.5844 67.5432 66.9493L67.333 67.0707C65.0031 68.4154 62.5248 68.229 60.2021 66.973C59.0916 66.3726 58.2421 65.4815 57.6154 64.3952L57.4689 64.1413C55.973 61.5507 56.1749 58.8258 57.862 56.3624C58.4443 55.5109 59.2054 54.8531 60.0953 54.3387L60.4319 54.1443C62.6262 52.8776 64.978 52.9645 67.2316 54.0762C68.4435 54.674 69.4252 55.5651 70.1017 56.7371L70.2234 56.9482C70.7148 57.7997 70.0782 58.5414 69.4211 59.0487C68.6584 59.637 67.8884 60.3452 67.1574 60.976C65.5274 62.3832 63.8999 63.7935 62.2712 65.2016ZM60.1615 63.72C61.9843 62.1572 63.8077 60.5928 65.6257 59.0233C66.247 58.4876 66.9282 57.9315 67.5445 57.3682C67.0499 56.745 66.2238 56.2958 65.522 56.028C64.105 55.4881 62.708 55.6694 61.4086 56.4195C59.7079 57.4015 58.9835 58.9653 59.0469 60.9113C59.0723 61.6779 59.2783 62.4165 59.6851 63.0685C59.8283 63.2984 59.9884 63.5142 60.1615 63.72ZM46.9052 14.4971H54.1537V21.907H57.8186C59.5113 21.907 61.252 21.6055 62.8547 21.0625C63.6425 20.7952 64.5263 20.4237 65.3033 19.9561C64.28 18.6203 63.7576 16.9335 63.6041 15.2709C63.3949 13.0091 63.8514 10.0654 65.3819 8.29527L66.1439 7.41401L67.0518 8.14406C69.3377 9.98045 71.2603 12.5469 71.5992 15.4725C74.3517 14.6629 77.5835 14.8543 80.0096 16.2545L81.0049 16.8289L80.4813 17.8516C78.4293 21.8559 74.1393 23.0967 69.9454 22.877C63.6698 38.508 50.0067 45.908 33.4406 45.908C24.8816 45.908 17.0295 42.7085 12.5579 35.1151L12.4846 34.9915L11.8332 33.6658C10.3217 30.3233 9.8196 26.6617 10.1601 23.0028L10.2624 21.907H16.4611V14.4971H23.7093V7.24854H38.2067V0H46.9052V14.4971Z" fill="#364548"/>
<path fill-rule="evenodd" clip-rule="evenodd" d="M70.3893 17.2385C70.8753 13.4611 68.0486 10.4943 66.2956 9.08557C64.2753 11.4212 63.9615 17.5425 67.1309 20.1197C65.362 21.6908 61.635 23.1147 57.8186 23.1147H11.3638C10.9929 27.0985 11.6922 30.7671 13.2896 33.907L13.818 34.8739C14.1526 35.4414 14.5182 35.99 14.9133 36.5172C16.8232 36.6399 18.5841 36.6821 20.1951 36.6466H20.1958C23.3616 36.5768 25.9449 36.2028 27.9027 35.5244C28.0411 35.4813 28.1908 35.4938 28.3202 35.5591C28.4496 35.6245 28.5484 35.7376 28.5959 35.8746C28.6434 36.0115 28.6357 36.1616 28.5746 36.293C28.5134 36.4244 28.4035 36.5269 28.2682 36.5787C28.0076 36.6694 27.7362 36.7537 27.456 36.8339H27.4551C25.9135 37.2742 24.2603 37.5703 22.1276 37.7019C22.2544 37.7041 21.9957 37.7209 21.995 37.7209C21.9225 37.7256 21.8312 37.7361 21.7582 37.7399C20.9188 37.7871 20.0128 37.797 19.0866 37.797C18.0734 37.797 17.0758 37.7779 15.9603 37.7209L15.9318 37.7399C19.8024 42.0904 25.8545 44.6996 33.441 44.6996C49.4964 44.6996 63.1148 37.5823 69.1454 21.6039C73.4236 22.043 77.5355 20.9519 79.4058 17.3006C76.4266 15.5815 72.5953 16.1296 70.3893 17.2385Z" fill="#22A0C8"/>
<path fill-rule="evenodd" clip-rule="evenodd" d="M70.3893 17.2385C70.8752 13.4611 68.0485 10.4943 66.2955 9.08557C64.2753 11.4212 63.9614 17.5425 67.1308 20.1197C65.3619 21.6908 61.635 23.1147 57.8186 23.1147H14.1147C13.9251 29.2157 16.1891 33.8468 20.1947 36.6466H20.1957C23.3616 36.5768 25.9448 36.2028 27.9026 35.5244C28.041 35.4813 28.1907 35.4938 28.3201 35.5591C28.4495 35.6245 28.5484 35.7376 28.5959 35.8746C28.6433 36.0115 28.6357 36.1616 28.5745 36.293C28.5133 36.4244 28.4035 36.5269 28.2681 36.5787C28.0075 36.6694 27.7362 36.7537 27.456 36.8339H27.455C25.9134 37.2742 24.1183 37.6083 21.9855 37.7399C21.9848 37.7399 21.9338 37.6908 21.9332 37.6908C27.3973 40.4937 35.3201 40.4835 44.4038 36.9943C54.589 33.0812 64.067 25.6267 70.6799 17.1003C70.5804 17.1453 70.4834 17.1913 70.3893 17.2385Z" fill="#37B1D9"/>
<path fill-rule="evenodd" clip-rule="evenodd" d="M11.4509 27.955C11.7394 30.0891 12.3639 32.0871 13.2895 33.907L13.818 34.8739C14.1525 35.4414 14.5181 35.99 14.9132 36.5172C16.8235 36.6399 18.5844 36.682 20.1957 36.6465C23.3616 36.5768 25.9448 36.2027 27.9026 35.5244C28.041 35.4813 28.1908 35.4938 28.3201 35.5591C28.4495 35.6245 28.5484 35.7376 28.5959 35.8746C28.6434 36.0115 28.6357 36.1616 28.5745 36.293C28.5134 36.4244 28.4035 36.5269 28.2681 36.5787C28.0076 36.6694 27.7362 36.7537 27.456 36.8339H27.455C25.9134 37.2742 24.1278 37.5893 21.995 37.7212C21.9218 37.7256 21.794 37.7266 21.7202 37.7307C20.8814 37.7776 19.9846 37.8064 19.058 37.8064C18.0452 37.8064 17.0092 37.7871 15.8943 37.7304C19.7649 42.0809 25.8545 44.6996 33.4409 44.6996C47.1861 44.6996 59.1446 39.4824 66.0853 27.955H11.4509Z" fill="#1B81A5"/>
<path fill-rule="evenodd" clip-rule="evenodd" d="M14.533 27.955C15.3546 31.702 17.3292 34.6434 20.1959 36.6465C23.3617 36.5768 25.945 36.2027 27.9028 35.5244C28.0412 35.4813 28.1909 35.4938 28.3203 35.5591C28.4497 35.6245 28.5486 35.7376 28.596 35.8746C28.6435 36.0115 28.6359 36.1616 28.5747 36.293C28.5135 36.4244 28.4036 36.5269 28.2683 36.5787C28.0077 36.6694 27.7364 36.7537 27.4561 36.8339H27.4552C25.9136 37.2742 24.0902 37.5893 21.9571 37.7212C27.4209 40.5235 35.3209 40.4832 44.4039 36.9943C49.8988 34.8831 55.1873 31.7403 59.9319 27.955H14.533Z" fill="#1D91B4"/>
<path fill-rule="evenodd" clip-rule="evenodd" d="M17.6689 15.7052H23.9513V21.9875H17.6689V15.7052ZM18.1923 16.2289H18.6881V21.4641H18.1923V16.2289ZM19.1243 16.2289H19.6401V21.4641H19.1246L19.1243 16.2289ZM20.0759 16.2289H20.5917V21.4641H20.0759V16.2289ZM21.0282 16.2289H21.5436V21.4641H21.0282V16.2289ZM21.9802 16.2289H22.4956V21.4641H21.9802V16.2289ZM22.9318 16.2289H23.4279V21.4641H22.9318V16.2289ZM24.9175 8.45663H31.2001V14.7386H24.9172L24.9175 8.45663ZM25.4412 8.98032H25.9366V14.2153H25.4412V8.98032ZM26.3731 8.98032H26.8886V14.2153H26.3735L26.3731 8.98032ZM27.3248 8.98032H27.8402V14.2153H27.3248V8.98032ZM28.2767 8.98032H28.7922V14.2153H28.2767V8.98032ZM29.2287 8.98032H29.7444V14.2153H29.2287V8.98032ZM30.1803 8.98032H30.6767V14.2153H30.1803V8.98032Z" fill="#23A3C2"/>
<path fill-rule="evenodd" clip-rule="evenodd" d="M24.9176 15.7052H31.2002V21.9875H24.9172L24.9176 15.7052ZM25.4412 16.2289H25.9367V21.4641H25.4412V16.2289ZM26.3732 16.2289H26.8887V21.4641H26.3735L26.3732 16.2289ZM27.3249 16.2289H27.8403V21.4641H27.3249V16.2289ZM28.2768 16.2289H28.7923V21.4641H28.2768V16.2289ZM29.2288 16.2289H29.7445V21.4641H29.2288V16.2289ZM30.1804 16.2289H30.6768V21.4641H30.1804V16.2289Z" fill="#34BBDE"/>
<path fill-rule="evenodd" clip-rule="evenodd" d="M32.1664 15.7052H38.4487V21.9875H32.1664V15.7052ZM32.6898 16.2289H33.1852V21.4641H32.6898V16.2289ZM33.6217 16.2289H34.1372V21.4641H33.6217V16.2289ZM34.5737 16.2289H35.0891V21.4641H34.5737V16.2289ZM35.5256 16.2289H36.0411V21.4641H35.5256V16.2289ZM36.4773 16.2289H36.9934V21.4641H36.4773V16.2289ZM37.4292 16.2289H37.925V21.4641H37.4292V16.2289Z" fill="#23A3C2"/>
<path fill-rule="evenodd" clip-rule="evenodd" d="M32.1664 8.45663H38.4487V14.7386H32.1664V8.45663ZM32.6898 8.98032H33.1852V14.2153H32.6898V8.98032ZM33.6217 8.98032H34.1372V14.2153H33.6217V8.98032ZM34.5737 8.98032H35.0891V14.2153H34.5737V8.98032ZM35.5256 8.98032H36.0411V14.2153H35.5256V8.98032ZM36.4773 8.98032H36.9934V14.2153H36.4773V8.98032ZM37.4292 8.98032H37.925V14.2153H37.4292V8.98032ZM39.4149 15.7052H45.6972V21.9875H39.4149V15.7052ZM39.9386 16.2289H40.4341V21.4641H39.9386V16.2289ZM40.8706 16.2289H41.386V21.4641H40.8706V16.2289ZM41.8222 16.2289H42.3377V21.4641H41.8222V16.2289ZM42.7742 16.2289H43.2899V21.4641H42.7742V16.2289ZM43.7261 16.2289H44.2419V21.4641H43.7261V16.2289ZM44.6781 16.2289H45.1739V21.4641H44.6781V16.2289Z" fill="#34BBDE"/>
<path fill-rule="evenodd" clip-rule="evenodd" d="M39.4149 8.45663H45.6972V14.7386H39.4149V8.45663ZM39.9386 8.98032H40.4341V14.2153H39.9386V8.98032ZM40.8706 8.98032H41.386V14.2153H40.8706V8.98032ZM41.8222 8.98032H42.3377V14.2153H41.8222V8.98032ZM42.7742 8.98032H43.2899V14.2153H42.7742V8.98032ZM43.7261 8.98032H44.2419V14.2153H43.7261V8.98032ZM44.6781 8.98032H45.1739V14.2153H44.6781V8.98032Z" fill="#23A3C2"/>
<path fill-rule="evenodd" clip-rule="evenodd" d="M39.4149 1.20779H45.6972V7.49075H39.4149V1.20779ZM39.9386 1.73116H40.4341V6.96674H39.9386V1.73116ZM40.8706 1.73116H41.386V6.96674H40.8706V1.73116ZM41.8222 1.73116H42.3377V6.96674H41.8222V1.73116ZM42.7742 1.73116H43.2899V6.96674H42.7742V1.73116ZM43.7261 1.73116H44.2419V6.96674H43.7261V1.73116ZM44.6781 1.73116H45.1739V6.96674H44.6781V1.73116Z" fill="#34BBDE"/>
<path fill-rule="evenodd" clip-rule="evenodd" d="M46.6635 15.7052H52.9458V21.9875H46.6635V15.7052ZM47.1865 16.2289H47.6826V21.4641H47.1868V16.2289H47.1865ZM48.1185 16.2289H48.6342V21.4641H48.1188L48.1185 16.2289ZM49.0708 16.2289H49.5865V21.4641H49.0708V16.2289ZM50.0224 16.2289H50.5381V21.4641H50.0224V16.2289ZM50.9747 16.2289H51.4901V21.4641H50.9747V16.2289ZM51.9263 16.2289H52.4221V21.4641H51.9263V16.2289Z" fill="#23A3C2"/>
<path fill-rule="evenodd" clip-rule="evenodd" d="M30.8068 32.173C31.0364 32.1699 31.2643 32.2125 31.4773 32.2983C31.6903 32.384 31.8841 32.5112 32.0475 32.6725C32.2109 32.8338 32.3407 33.0259 32.4292 33.2378C32.5177 33.4496 32.5633 33.6769 32.5633 33.9065C32.5632 34.1361 32.5176 34.3634 32.429 34.5752C32.3403 34.7871 32.2105 34.9791 32.047 35.1404C31.8836 35.3016 31.6897 35.4287 31.4767 35.5144C31.2637 35.6001 31.0357 35.6426 30.8062 35.6394C30.3505 35.6332 29.9157 35.4478 29.5958 35.1233C29.2758 34.7989 29.0965 34.3615 29.0966 33.9059C29.0966 33.4502 29.2761 33.0129 29.5962 32.6886C29.9163 32.3643 30.3512 32.1791 30.8068 32.173Z" fill="#D3ECEC"/>
<path fill-rule="evenodd" clip-rule="evenodd" d="M30.8067 32.6647C30.9652 32.6647 31.1164 32.6945 31.2559 32.7487C31.1597 32.8046 31.0845 32.8906 31.042 32.9935C30.9995 33.0963 30.9921 33.2103 31.0209 33.3178C31.0497 33.4253 31.1131 33.5204 31.2013 33.5883C31.2895 33.6561 31.3976 33.6931 31.5089 33.6934C31.7007 33.6934 31.8671 33.5872 31.9533 33.4299C32.0554 33.6759 32.0757 33.9481 32.0112 34.2064C31.9466 34.4648 31.8008 34.6955 31.595 34.8646C31.3893 35.0337 31.1347 35.1321 30.8687 35.1453C30.6028 35.1585 30.3396 35.0858 30.1181 34.938C29.8967 34.7902 29.7286 34.5751 29.6388 34.3244C29.5489 34.0737 29.5421 33.8008 29.6193 33.546C29.6965 33.2911 29.8536 33.0679 30.0674 32.9092C30.2812 32.7505 30.5404 32.6648 30.8067 32.6647ZM0.151489 28.5814H80.7733C79.0181 28.1363 75.2195 27.5347 75.8458 25.2339C72.6536 28.9276 64.9559 27.8254 63.013 26.0042C60.8498 29.1419 48.2554 27.949 47.377 25.5046C44.6647 28.6876 36.2607 28.6876 33.5485 25.5046C32.6694 27.949 20.0753 29.1419 17.9118 26.0039C15.9692 27.8254 8.27178 28.9276 5.07958 25.2342C5.70597 27.5347 1.90736 28.136 0.151489 28.5814Z" fill="#364548"/>
<path fill-rule="evenodd" clip-rule="evenodd" d="M35.4137 44.6622C31.1215 42.6255 28.7658 39.8565 27.455 36.8342C25.8605 37.2891 23.9443 37.5801 21.7173 37.705C20.8785 37.7519 19.996 37.776 19.0704 37.776C18.0027 37.776 16.8777 37.7443 15.6965 37.6819C19.6327 41.6158 24.4749 44.6445 33.441 44.6996C34.1029 44.6996 34.7597 44.6869 35.4137 44.6622Z" fill="#BDD9D7"/>
<path fill-rule="evenodd" clip-rule="evenodd" d="M29.0492 39.6232C28.4555 38.8171 27.8795 37.8039 27.4559 36.8336C25.8614 37.2891 23.9445 37.5801 21.7173 37.7053C23.2471 38.5356 25.4344 39.3049 29.0492 39.6232Z" fill="#D3ECEC"/>
</svg>
