<?xml version="1.0" encoding="UTF-8"?>
<svg id="Layer_2" data-name="Layer 2" xmlns="http://www.w3.org/2000/svg" xmlns:xlink="http://www.w3.org/1999/xlink" viewBox="0 0 130 100.7">
  <defs>
    <style>
      .cls-1 {
        fill: #ab9a7e;
      }

      .cls-1, .cls-2, .cls-3, .cls-4, .cls-5, .cls-6, .cls-7 {
        stroke: #000;
      }

      .cls-1, .cls-2, .cls-3, .cls-4, .cls-5, .cls-6, .cls-7, .cls-8 {
        fill-rule: evenodd;
      }

      .cls-1, .cls-2, .cls-3, .cls-5, .cls-6, .cls-7, .cls-8 {
        stroke-miterlimit: 4.99;
      }

      .cls-1, .cls-2, .cls-3, .cls-5, .cls-6, .cls-8 {
        stroke-width: 1.3px;
      }

      .cls-2, .cls-4, .cls-7 {
        fill: #ffcfab;
      }

      .cls-3 {
        fill: #f39105;
      }

      .cls-4 {
        stroke-miterlimit: 5.2;
        stroke-width: 1.61px;
      }

      .cls-5, .cls-8 {
        fill: #fff;
      }

      .cls-9 {
        clip-path: url(#clippath);
      }

      .cls-6 {
        fill: #f39a05;
      }

      .cls-10 {
        fill: none;
      }

      .cls-7 {
        stroke-width: 5.4px;
      }

      .cls-8 {
        stroke: #9e0000;
      }
    </style>
    <clipPath id="clippath">
      <rect class="cls-10" width="130" height="100"/>
    </clipPath>
  </defs>
  <g id="Layer_1-2" data-name="Layer 1">
    <g class="cls-9">
      <g id="layer1">
        <path id="path1335" class="cls-7" d="m81.24,10.26c-1.2,1.84-2.4,3.68-3.61,5.51,5.7,6.61,11.4,13.23,17.1,19.84.8-3.28,1.39.3,2.05,1.69,1.76,3.97,2.03,8.4,2.58,12.65,1.04,8.04.7,12.75-.04,17.14-2.39,14.22-10.87,22.52-18.97,27.3-2.77,1.63-5.44,2.78-9.35,3.31-4.03.55-7.98.33-12.02-.46-3.34-.65-6.7-1.75-9.78-3.16-4.92-2.25-8.98-6.16-12.16-10.44-3.07-4.14-5.01-9.08-6.49-14.03-2.68-9.01-3.81-18.6-1.67-27.86,1.33-5.77,3.25-11.49,5.88-16.77,2.79-5.6,6.7-10.66,11.45-14.87,2.85-2.52,5.94-4.85,9.43-6.25,2.56-1.03,5.26-1.26,8.06-1.08,2.76.18,5.4.49,8.03,1.43,3.58,1.27,6.96,3.27,9.53,6.05Z"/>
        <path id="path2211" class="cls-3" d="m54.72,34.24l-1.98-5.04,2.14-1.07,4.27-.61,7.94-9.77,4.43.61,2.9-1.53,2.14-.46-3.36,7.33-6.56.76-11.91,9.77Z"/>
        <path id="path3100" class="cls-2" d="m83.26,13.79l3.51,4.43.92,1.53-6.72-2.29.76-2.14,1.53-1.53Z"/>
        <path id="path3976" class="cls-6" d="m80.67,17.15l3.36,1.83,3.51,1.07-4.73,2.59-3.51-.31-.31-2.44,1.68-2.75Z"/>
        <path id="path4852" class="cls-1" d="m54.87,34.55l2.44,3.97-2.44,6.26,5.8,1.07,1.22,1.22,3.66,5.65,11.6-6.11,3.45.95,3.72-1.11-2.59-2.75.46-.76,1.22-.76.61,1.98,1.07,2.44,2.9,3.51.76-.46.15-2.29,2.7-.47.95-.74,2.38-.29.61-3-1.76-7.25v-3.05l2.75-.46,2.44,1.83,3.51.92,1.37-.31-4.12-5.19-2.53-2.59-1.44-.92-2.75-1.83-5.65.31-4.43,1.07-3.82,1.83-2.29-.31-2.9-1.37-.92-1.37-5.95-.15-12.21,10.53Z"/>
        <path id="path5728" class="cls-5" d="m83.41,42.03l.76,1.98-.46,1.22-2.29-1.37.61-1.07,1.37-.76Z"/>
        <path id="path6604" class="cls-5" d="m86.92,33.79l2.44-2.14,1.37-.15.46.76-2.14,2.29-1.22.46-.92-1.22Z"/>
        <path id="path7479" class="cls-5" d="m91.34,23.2l-7.47,1.89-4.88,1.98-4.27-1.22-1.53-1.83,3.97-9.01,3.72-4.61,2.44-.96,2.7.53,2.8,4.1,2.93,1.96-.34.59-4.32-1.47-3.82-1.68-3.66,5.65-.76,1.98.61,1.83,9.92-1.68,1.06.88.92,1.05Z"/>
        <path id="path8354" class="cls-5" d="m94.25,24.32l1.75,2.24,1.1.03,4.08,4.54,1.01,1.23,1.82-1.17,2.14-4.73,1.19-3.76.16-3.15-.98-1.18h-3.42l-2.59.61s-2.14,1.07-1.53,1.07,3.51.92,3.51.92l1.22.92.31,1.37-1.68,3.36-.76.76-3.51-2.29-1.07-.76-1.07-.15-1.68.15Z"/>
        <path id="path5093" class="cls-8" d="m92.83,42.17c-.05-.35-2.4,0-2.4,0,0,0-.41,1.4.19,1.4s2.26-1.05,2.21-1.4Z"/>
      </g>
      <g id="layer2">
        <g id="g6">
          <g id="g8">
            <path id="path10" d="m95.93,33.74c.34-.55,1.18-.48,2.55.37,1.11.66,2.58.79,4.16.9,2.58.18,2.37-.21,1.16-1.43l-1.46-1.31s.54.31,1.43-.51c1.19-1.1,3.48-6.17,3.88-9.82.46-3.7-.15-4.26-4.1-3.8-1.62.2-3.57.68-4.39,1.19,0,0-1.16.58-.98.91s1.72.49,1.72.49c2.89.46,3.68,1.41,3.68,2.48s-1.5,3.86-2.21,3.86c-.25,0-1.17-.71-2.03-1.52-1.72-1.67-2.65-1.89-4.32-1.4-.94-.26-2.3-.39-3.39-1.02-.27-.15-.1-.37-.63-1.04-.96-1.21-1.69-1.1-2.71-.85-1.27.3-1.32.3-.35-.41s.91-.81-1.22-3.6l-2.13-2.89,2.53,1.27c2.58,1.32,4.81,1.67,5.32.86.2-.25-.51-.91-1.57-1.42-1.01-.51-2.23-1.67-2.69-2.53-.51-.91-1.17-1.98-1.47-2.38-.76-.86-3.41-1.33-4.84-.79-1.45.55-2.36,2.03-3.52,3.56-.98,1.29-1.53,2.26-1.99,3.05-.95-.22-2.57.47-3.23,1.08-1.11,1.01-1.37,1.06-3.55.51-2.18-.61-2.43-.56-3.6.51-.66.66-2.48,2.94-4.05,5.07-1.52,2.18-2.94,3.95-3.09,4-.15,0-1.22.1-2.33.2s-2.64.41-3.4.71c-1.22.46-1.32.66-.96,1.98.25.76,1.37,3.09,2.53,5.12l2.08,3.65-1.27,3.04c-.71,1.67-1.17,3.24-1.01,3.45.15.25,1.62.61,3.29.81l3.04.35,2.33,3.5c2.18,3.29,2.57,3.48,3.34,3.09.26-.13,1.52-1.01,3.19-1.82,1.67-.86,3.95-2.13,5.07-2.89,1.58-1.04,3.17-1.39,4.02-1.07.51.19.75.64.54,1.33-.44,1.42-.42,2.31-.22,3.23.35.37.79.54,1.44.98,2.24,1.37,3.09,1.47,3.14,0v-1.11l.56,1.17c.81,1.67,2.13,1.22,2.33-.86.15-1.22-.15-2.03-.96-2.89-.61-.66-.92-1.52-.67-1.52.51,0,2.24,2.33,2.24,2.94,0,.2.3.41.71.41.76,0,1.32-1.06,1.32-2.53,0-.56,1.51-.88,2.92-1.38.38-.13.37-.32.73-.57.68.14.46.15.96.12.76-.05,1.09-.27,1.31-.6,1.06-1.72,1.22-3.9.41-5.83-.41-1.01-.76-3.12-.71-4.03,0,0,.05-.6.27-1.2m-5.9,6.7c0-1.01-.2-1.01-2.03-.05-.86.46-1.52,1.17-1.52,1.62,0,1.17,1.47,2.69,2.58,2.69.51,0,2.95.46,3.61.46-.01.19-.29.36-.48.42-.77.25-2.02.11-2.47.03-.81-.1-.91.15-.86,1.62.1.96,0,1.42-.2,1.01-.15-.41-.86-1.32-1.62-2.03-.81-.76-1.37-1.98-1.47-3.04-.25-2.38-1.27-4.21-3.29-5.93-2.13-1.77-2.94-3.19-2.53-4.61.2-.81.66-1.11,1.62-1.11,1.72-.05,4.97-1.52,7.04-3.24,2.74-2.38,1.82-2.48-1.42-.2-2.69,1.88-3.45,2.18-6.49,2.33l-3.4.25,1.67-1.72c.86-.91,1.62-1.82,1.62-2.03,0-1.06,4.66-3.04,8.16-3.45,4.97-.56,5.22-.51,5.52,1.17.35,1.93,1.47,2.38,1.17.46q-.2-1.37.56-.46c.46.56.81,1.57.81,2.28s.15,1.82.3,2.43c.25.86,0,1.11-1.32,1.42l-1.67.35.35,2.99c.15,1.62.66,3.8,1.06,4.86.76,1.77.61,4.92-.25,5.47-.2.15-1.47.1-2.74-.05-2.08-.3-2.33-.46-2.33-1.67m-3.8-33.7c.46.2,1.27,1.22,1.77,2.28.56,1.06,1.52,2.28,2.13,2.69.62.44,2.23,1.07,2.14,1.16-.19.18-3.13-.74-4.98-1.77-1.42-.81-2.89-1.37-3.24-1.22-.41.1-1.57,1.57-2.69,3.29-2.23,3.45-2.64,6.13-1.01,6.69.96.3,8.11-1.39,9.27-1.57.84-.13,1.93.71,1.93,1.32,0,.2-1.52.51-3.34.66-2.18.2-4.16.76-5.63,1.62-2.64,1.47-4.16,1.57-6.23.51s-1.98-2.18,1.01-8.16c3.29-6.74,5.63-8.72,8.87-7.5Zm-.25,6.13c2.18,3.29,2.18,3.14.66,2.74-2.23-.66-3.98-1.69-4.4-1.97.36-.8,1.26-2.64,1.86-2.64.35,0,1.17.86,1.88,1.88Zm-9.63.86c0,.1-.56,1.42-1.27,2.99-1.17,2.48-1.47,2.79-3.19,3.09-1.01.15-2.53.3-3.4.3-1.22,0-2.38.81-5.57,3.95-2.23,2.18-4.76,4.46-5.63,5.07l-1.57,1.06-.91-2.03c-1.11-2.48-.81-2.89,2.69-3.19,2.89-.25,3.19-.46,5.52-3.85.86-1.27,2.43-3.29,3.55-4.51,1.72-1.98,2.08-2.18,3.04-1.62,1.62.86,3.45.66,4.76-.46,1.11-.91,1.98-1.27,1.98-.81Zm9.07,2.48l2.23.71-1.72.86c-.91.46-2.48.96-3.5,1.11-2.28.35-2.74-.35-1.72-2.74.42-1.06.7-1.3.93-1.69.26.1,2.56,1.34,3.78,1.74Zm22.57,1.08c.1,1.77-.63,4.09-1.64,6.57-1.57,3.95-3.13,5.49-4.05,3.87-.53-.92-1.75-2.77-3.79-4.44-.15-.13-.35-.33-.79-.43-.64-.15-.82.1-.98-.02-.86-1.15-.83-1.65.29-1.71.61,0,1.52.46,2.03,1.06.46.56,1.47,1.37,2.18,1.72,1.22.66,1.42.61,2.48-.51.81-.86,1.27-2.09,1.35-3.64.08-1.53-.49-2.39-3.07-2.95-.76-.15-2.26-.13-2.06-.28.46-.46,4.85-1.39,6.32-1.34,1.17.1,1.7-.02,1.75,2.1Zm-31.85,6.06c.96.46,2.08.81,2.48.81,1.32,0-.25,1.88-2.38,2.84-1.06.46-1.93,1.01-1.93,1.22s1.01.56,2.28.76c2.03.25,2.28.46,2.03,1.32-.51,1.62.61,3.65,3.09,5.78,1.98,1.62,2.23,2.03,1.62,2.58-.51.51-1.27.61-2.94.3l-2.28-.41.15-2.64c.15-2.89-.61-3.6-1.11-1.06-.76,3.85-.3,4.56,3.29,5.22,1.01.15,2.33.86,2.94,1.52l1.11,1.22-1.47.51c-.86.3-1.72.35-1.93.1-1.06-.91-3.6-.91-5.02,0l-1.47.96-2.03-1.62c-2.84-2.18-3.19-2.74-4.16-5.78-.71-2.43-1.47-3.6-1.98-3.09-.1.1.25,1.57.86,3.34.96,2.99,2.33,4.81,5.22,6.89.56.41.91.81.76.96-.35.3-6.49,3.4-6.79,3.4-.15,0-1.22-1.47-2.38-3.29-1.82-2.84-2.33-3.29-3.7-3.34-.86-.05-2.18-.2-2.94-.41l-1.32-.3,1.22-2.94,1.27-2.94-1.11-1.77c-.66-1.11-.91-2.08-.71-2.64.35-.76.46-.71.71.3.41,1.57,1.22,1.47,1.32-.15,0-.71.71-1.93,1.47-2.69.81-.76,1.32-1.11,1.11-.76-.35.71.15,2.18.76,2.18.25,0,.46-.76.46-1.67,0-1.17.56-2.23,2.03-3.9,1.72-1.98,1.98-2.13,2.03-1.17,0,.66.3,1.17.66,1.17.46,0,.61-.46.46-1.47l-.2-1.52,2.94-.15c2.33-.1,3.09.05,3.4.66.25.46,1.22,1.22,2.18,1.67Zm14.35,15.87c-.04.26.06.61.17.81.52.94,2.02.62,3.21-.72.71-.76.71-.96.1-1.22-.71-.31-2.83-.02-3.17.32-.2.21-.28.54-.32.8Zm9.92-13.08c.56.71,1.52,2.08,2.18,2.99,0,0,.43.53.92,1.01.49.48,1.05.92,1.05.92,0,0-.82.04-2.58-.46-4.04-1.14-4.31-1.72-4-2.94.25-.96.35-.96,1.67.3.71.71,1.52,1.11,1.67.91.56-.51-2.18-3.14-2.99-2.84-.71.25-1.35-1.64-1.17-2.51.05-.23.28-.24.6-.11.63.27,1.5,1.29,2.65,2.72Zm-4.46,3.45c-.2.15-.51.15-.71,0-.15-.2,0-.35.35-.35s.51.15.35.35Zm-6.94,10.54c0,1.32-.71,1.67-1.27.76-.46-.71.05-2.03.76-2.03.25,0,.51.56.51,1.27Zm4.22-1.17c0,.28-1.61,1.24-1.82.64-.22-.61.23-.77.78-.82.58-.05,1.04-.1,1.04.18Zm-8.78,1.17c0,.41-.2.76-.46.76-.66,0-1.11-.81-.71-1.22.56-.56,1.17-.3,1.17.46Z"/>
            <g id="g24">
              <path id="path26" d="m90.83,30.46c.76.76,1.57,1.22,1.72,1.01.51-.51-1.32-2.38-2.28-2.38-.56,0-.41.35.56,1.37Z"/>
            </g>
            <g id="g28">
              <path id="path30" d="m87.54,32.38c-1.11,1.06-1.27,1.52-.86,2.28.3.56.91,1.01,1.32,1.01,1.06,0,3.9-2.89,3.65-3.7-.41-1.17-2.64-.96-4.1.41Zm3.19-.25c0,.25-.35.51-.76.51s-.96.46-1.27,1.01-.81.86-1.11.71c-.35-.25-.1-.81.81-1.57,1.47-1.22,2.33-1.47,2.33-.66Z"/>
            </g>
            <path id="path2180" class="cls-4" d="m83.52,42.14s-.34.36-.73.63-.88.46-.88.46c0,0,1.83,2.36,2.09,2.05s.07-.83-.04-1.52c-.12-.69-.45-1.63-.45-1.63Z"/>
          </g>
        </g>
        <g id="text3047">
          <path id="path3233" d="m47.39,79.24c-2.43,0-4.32-.6-5.69-1.8s-2.05-2.9-2.05-5.11c0-1.62.25-3.13.75-4.51.5-1.38,1.23-2.58,2.18-3.61.95-1.02,2.11-1.81,3.48-2.39,1.38-.58,2.92-.86,4.64-.86,1.03,0,2.06.12,3.09.37,1.03.25,2.08.65,3.15,1.21l-.53,2.67h-.21c-.88-.82-1.83-1.41-2.86-1.78-1.03-.37-2.13-.55-3.32-.55-1.3,0-2.44.26-3.42.77-.98.51-1.8,1.19-2.47,2.05-.65.84-1.15,1.81-1.48,2.92-.34,1.11-.5,2.23-.5,3.36,0,1.7.46,3,1.39,3.93.93.92,2.3,1.38,4.11,1.38.8,0,1.54-.07,2.24-.22.7-.15,1.35-.33,1.97-.56l.99-4.51h-4.7l.45-1.98h7.05l-1.75,7.56c-.52.21-.99.4-1.41.57-.42.17-.94.34-1.57.53-.54.16-1.11.29-1.69.39-.58.1-1.2.15-1.86.15h0Z"/>
          <path id="path3235" d="m65.59,79.22c-2.23,0-3.98-.58-5.25-1.73-1.27-1.16-1.9-2.79-1.9-4.91,0-1.62.24-3.14.73-4.54.49-1.4,1.19-2.63,2.11-3.69.91-1.04,2.02-1.86,3.35-2.47,1.32-.6,2.8-.9,4.44-.9,1.02,0,1.98.12,2.89.37.91.25,1.84.64,2.79,1.18l-.53,2.65h-.18c-.26-.26-.52-.5-.79-.73-.26-.22-.66-.47-1.19-.74-.43-.23-.95-.42-1.55-.57-.6-.15-1.26-.23-1.99-.23-1.1,0-2.12.23-3.04.69-.92.46-1.72,1.11-2.4,1.93-.66.8-1.18,1.78-1.56,2.93-.38,1.15-.57,2.38-.57,3.68,0,1.62.42,2.89,1.27,3.79.84.9,2.06,1.35,3.65,1.35.75,0,1.46-.08,2.13-.25.67-.17,1.29-.38,1.84-.64.51-.24.97-.5,1.38-.77.41-.27.76-.52,1.05-.75h.17l-.56,2.72c-.83.42-1.78.79-2.86,1.13-1.08.34-2.22.5-3.44.5h0Z"/>
          <path id="path3237" d="m82.53,79.22c-2.23,0-3.98-.58-5.25-1.73-1.27-1.16-1.9-2.79-1.9-4.91,0-1.62.24-3.14.73-4.54.49-1.4,1.19-2.63,2.11-3.69.91-1.04,2.02-1.86,3.35-2.47,1.32-.6,2.8-.9,4.44-.9,1.02,0,1.98.12,2.89.37.91.25,1.84.64,2.79,1.18l-.53,2.65h-.18c-.26-.26-.52-.5-.79-.73-.26-.22-.66-.47-1.19-.74-.43-.23-.95-.42-1.55-.57-.6-.15-1.26-.23-1.99-.23-1.1,0-2.12.23-3.04.69-.92.46-1.72,1.11-2.4,1.93-.66.8-1.18,1.78-1.56,2.93-.38,1.15-.57,2.38-.57,3.68,0,1.62.42,2.89,1.27,3.79.84.9,2.06,1.35,3.65,1.35.75,0,1.46-.08,2.13-.25.67-.17,1.29-.38,1.84-.64.51-.24.97-.5,1.38-.77.41-.27.76-.52,1.05-.75h.17l-.56,2.72c-.83.42-1.78.79-2.86,1.13-1.08.34-2.22.5-3.44.5h0Z"/>
        </g>
        <path id="path4122" class="cls-5" d="m88.44,41.98c-.16-.72-2.12.62-2.15,1.4-.03.78,1.9,2.3,2.05,1.62.15-.68.26-2.31.09-3.02Z"/>
      </g>
    </g>
  </g>
</svg>