<?xml version="1.0" encoding="UTF-8"?>
<svg id="Layer_2" data-name="Layer 2" xmlns="http://www.w3.org/2000/svg" viewBox="0 0 130 100">
  <g id="Layer_1-2" data-name="Layer 1">
    <g>
      <path d="m19.36,72.46v-.53c0-13.71,0-27.42,0-41.13,0-.25,0-.5.02-.75.06-.99.48-1.53,1.44-1.79,1.11-.29,2.23-.53,3.35-.78,10.2-2.32,20.39-4.64,30.59-6.97,1.33-.3,1.8.05,1.8,1.41,0,15.69,0,31.38,0,47.07,0,1.99-.71,3.74-2.1,5.15-2.53,2.58-5.63,3.69-9.21,3.19-3.66-.51-5.98-3.34-5.89-7.07.07-2.95,1.63-5,4.18-6.28,3.01-1.51,6.09-1.34,9.16-.1.14.06.28.12.47.2v-.49c0-7.41,0-14.82,0-22.23,0-.07,0-.13,0-.2-.01-1.14-.71-1.69-1.82-1.43-2.5.59-5,1.19-7.5,1.79-6.49,1.55-12.98,3.1-19.47,4.66-1.07.25-1.65,1.03-1.65,2.11,0,9.79,0,19.57,0,29.36,0,2.38-1.03,4.3-2.85,5.76-2.85,2.28-6.09,3.13-9.65,2.08-2.73-.81-4.19-2.81-4.62-5.58-.56-3.67,1.72-6.75,5.23-7.96,2.69-.93,5.35-.71,7.96.35.15.06.29.12.44.18.02,0,.05,0,.12-.02Z"/>
      <g>
        <path d="m73.05,33.79c-.09-1.65-.19-3.64-.18-5.12h-.05c-.4,1.39-.9,2.87-1.49,4.5l-2.09,5.75h-1.16l-1.92-5.64c-.56-1.67-1.04-3.2-1.37-4.61h-.04c-.04,1.48-.12,3.46-.23,5.24l-.32,5.08h-1.46l.83-11.85h1.95l2.02,5.73c.49,1.46.9,2.76,1.2,3.99h.05c.3-1.2.72-2.5,1.25-3.99l2.11-5.73h1.95l.74,11.85h-1.49l-.3-5.2Z"/>
        <path d="m84.32,36.67c0,.88.02,1.65.07,2.32h-1.37l-.09-1.39h-.04c-.4.69-1.3,1.58-2.81,1.58-1.34,0-2.94-.74-2.94-3.73v-4.97h1.55v4.71c0,1.62.49,2.71,1.9,2.71,1.04,0,1.76-.72,2.04-1.41.09-.23.14-.51.14-.79v-5.22h1.55v6.19Z"/>
        <path d="m86.67,37.41c.46.3,1.27.62,2.04.62,1.12,0,1.65-.56,1.65-1.27,0-.74-.44-1.14-1.58-1.56-1.53-.54-2.25-1.39-2.25-2.41,0-1.37,1.11-2.5,2.94-2.5.86,0,1.62.25,2.09.53l-.39,1.12c-.33-.21-.95-.49-1.74-.49-.91,0-1.42.53-1.42,1.16,0,.7.51,1.02,1.62,1.44,1.48.56,2.23,1.3,2.23,2.57,0,1.49-1.16,2.55-3.18,2.55-.93,0-1.79-.23-2.39-.58l.39-1.18Z"/>
        <path d="m95.56,28.09c.02.53-.37.95-.98.95-.54,0-.93-.42-.93-.95s.4-.97.97-.97.95.42.95.97Zm-1.72,10.9v-8.51h1.55v8.51h-1.55Z"/>
        <path d="m104.02,38.67c-.4.21-1.3.49-2.44.49-2.57,0-4.24-1.74-4.24-4.34s1.79-4.52,4.57-4.52c.91,0,1.72.23,2.14.44l-.35,1.2c-.37-.21-.95-.4-1.79-.4-1.95,0-3.01,1.44-3.01,3.22,0,1.97,1.27,3.18,2.95,3.18.88,0,1.46-.23,1.9-.42l.26,1.16Z"/>
        <path d="m63.07,41.85c.74-.12,1.71-.23,2.94-.23,1.51,0,2.62.35,3.32.98.65.56,1.04,1.42,1.04,2.48s-.32,1.92-.91,2.53c-.81.86-2.13,1.3-3.62,1.3-.46,0-.88-.02-1.23-.11v4.75h-1.53v-11.71Zm1.53,5.71c.33.09.76.12,1.27.12,1.85,0,2.97-.9,2.97-2.53s-1.11-2.32-2.79-2.32c-.67,0-1.18.05-1.44.12v4.61Z"/>
        <path d="m72.28,41.08h1.55v12.48h-1.55v-12.48Z"/>
        <path d="m81.13,53.56l-.12-1.07h-.05c-.47.67-1.39,1.27-2.6,1.27-1.72,0-2.6-1.21-2.6-2.44,0-2.06,1.83-3.18,5.12-3.16v-.18c0-.7-.19-1.97-1.93-1.97-.79,0-1.62.25-2.21.63l-.35-1.02c.7-.46,1.72-.76,2.79-.76,2.6,0,3.23,1.78,3.23,3.48v3.18c0,.74.04,1.46.14,2.04h-1.41Zm-.23-4.34c-1.69-.04-3.6.26-3.6,1.92,0,1,.67,1.48,1.46,1.48,1.11,0,1.81-.7,2.06-1.42.05-.16.09-.33.09-.49v-1.48Z"/>
        <path d="m85.32,45.05l1.86,5.03c.19.56.4,1.23.54,1.74h.04c.16-.51.33-1.16.54-1.78l1.69-4.99h1.63l-2.32,6.06c-1.11,2.92-1.86,4.41-2.92,5.33-.76.67-1.51.93-1.9,1l-.39-1.3c.39-.12.9-.37,1.35-.76.42-.33.95-.93,1.3-1.72.07-.16.12-.28.12-.37s-.04-.21-.11-.4l-3.15-7.84h1.69Z"/>
        <path d="m93.72,49.59c.04,2.09,1.37,2.95,2.92,2.95,1.11,0,1.78-.19,2.36-.44l.26,1.11c-.54.25-1.48.53-2.83.53-2.62,0-4.18-1.72-4.18-4.29s1.51-4.59,3.99-4.59c2.78,0,3.52,2.44,3.52,4.01,0,.32-.04.56-.05.72h-5.98Zm4.54-1.11c.02-.98-.4-2.51-2.14-2.51-1.56,0-2.25,1.44-2.37,2.51h4.52Z"/>
        <path d="m101.66,47.71c0-1-.02-1.86-.07-2.65h1.35l.05,1.67h.07c.39-1.14,1.32-1.86,2.36-1.86.18,0,.3.02.44.05v1.46c-.16-.04-.32-.05-.53-.05-1.09,0-1.86.83-2.07,1.99-.04.21-.07.46-.07.72v4.54h-1.53v-5.85Z"/>
        <path d="m63.07,56.44c.93-.14,2.04-.25,3.25-.25,2.2,0,3.76.51,4.8,1.48,1.05.97,1.67,2.34,1.67,4.25s-.6,3.52-1.71,4.61c-1.11,1.11-2.94,1.71-5.24,1.71-1.09,0-2-.05-2.78-.14v-11.65Zm1.53,10.48c.39.07.95.09,1.55.09,3.27,0,5.04-1.83,5.04-5.03.02-2.79-1.56-4.57-4.8-4.57-.79,0-1.39.07-1.79.16v9.35Z"/>
        <path d="m79.43,68.13l-.12-1.07h-.05c-.47.67-1.39,1.27-2.6,1.27-1.72,0-2.6-1.21-2.6-2.44,0-2.06,1.83-3.18,5.12-3.16v-.18c0-.7-.19-1.97-1.93-1.97-.79,0-1.62.25-2.21.63l-.35-1.02c.7-.46,1.72-.76,2.79-.76,2.6,0,3.23,1.78,3.23,3.48v3.18c0,.74.04,1.46.14,2.04h-1.41Zm-.23-4.34c-1.69-.04-3.6.26-3.6,1.92,0,1,.67,1.48,1.46,1.48,1.11,0,1.81-.7,2.06-1.42.05-.16.09-.33.09-.49v-1.48Z"/>
        <path d="m84.05,64.16c.04,2.09,1.37,2.95,2.92,2.95,1.11,0,1.78-.19,2.36-.44l.26,1.11c-.54.25-1.48.53-2.83.53-2.62,0-4.18-1.72-4.18-4.29s1.51-4.59,3.99-4.59c2.78,0,3.52,2.44,3.52,4.01,0,.32-.04.56-.05.72h-5.98Zm4.54-1.11c.02-.98-.4-2.51-2.14-2.51-1.56,0-2.25,1.44-2.37,2.51h4.52Z"/>
        <path d="m92,61.93c0-.88-.02-1.6-.07-2.3h1.35l.07,1.37h.05c.47-.81,1.27-1.56,2.67-1.56,1.16,0,2.04.7,2.41,1.71h.04c.26-.47.6-.84.95-1.11.51-.39,1.07-.6,1.88-.6,1.12,0,2.79.74,2.79,3.69v5.01h-1.51v-4.82c0-1.63-.6-2.62-1.85-2.62-.88,0-1.56.65-1.83,1.41-.07.21-.12.49-.12.77v5.26h-1.51v-5.1c0-1.35-.6-2.34-1.78-2.34-.97,0-1.67.77-1.92,1.55-.09.23-.12.49-.12.76v5.13h-1.51v-6.21Z"/>
        <path d="m114.35,63.81c0,3.15-2.18,4.52-4.24,4.52-2.3,0-4.08-1.69-4.08-4.38,0-2.85,1.86-4.52,4.22-4.52s4.1,1.78,4.1,4.38Zm-6.75.09c0,1.86,1.07,3.27,2.58,3.27s2.58-1.39,2.58-3.3c0-1.44-.72-3.27-2.55-3.27s-2.62,1.69-2.62,3.3Z"/>
        <path d="m116.3,61.93c0-.88-.02-1.6-.07-2.3h1.37l.09,1.41h.04c.42-.81,1.41-1.6,2.81-1.6,1.18,0,3.01.7,3.01,3.62v5.08h-1.55v-4.9c0-1.37-.51-2.51-1.97-2.51-1.02,0-1.81.72-2.07,1.58-.07.19-.11.46-.11.72v5.12h-1.55v-6.21Z"/>
      </g>
    </g>
  </g>
</svg>