<?xml version="1.0" encoding="UTF-8"?>
<svg id="Layer_2" data-name="Layer 2" xmlns="http://www.w3.org/2000/svg" xmlns:xlink="http://www.w3.org/1999/xlink" viewBox="0 0 130 50">
  <defs>
    <style>
      .cls-1 {
        fill: #43b0e8;
      }

      .cls-2 {
        fill: #072342;
      }

      .cls-3 {
        clip-path: url(#clippath);
      }

      .cls-4 {
        fill: none;
      }
    </style>
    <clipPath id="clippath">
      <rect class="cls-4" width="130" height="50"/>
    </clipPath>
  </defs>
  <g id="Layer_1-2" data-name="Layer 1">
    <g class="cls-3">
      <g id="layer1">
        <path id="path36" class="cls-1" d="m45.04,22.32c1.48,1.48,2.22,3.27,2.22,5.4s-.74,3.9-2.22,5.37c-1.48,1.47-3.29,2.2-5.43,2.2s-3.95-.73-5.43-2.2c-1.48-1.47-2.22-3.26-2.22-5.37s.74-3.92,2.22-5.4c1.48-1.47,3.29-2.21,5.43-2.21s3.95.74,5.43,2.21m-2.1,8.83c.9-.91,1.36-2.05,1.36-3.43s-.45-2.52-1.36-3.45c-.9-.93-2.01-1.39-3.33-1.39s-2.42.46-3.33,1.39c-.9.93-1.36,2.07-1.36,3.45s.45,2.52,1.36,3.43c.9.91,2.01,1.37,3.33,1.37s2.43-.45,3.33-1.37"/>
        <path id="path40" class="cls-1" d="m59.81,25.46c1.06,1.09,1.59,2.46,1.59,4.11s-.53,3.01-1.58,4.1c-1.05,1.08-2.3,1.63-3.73,1.63s-2.61-.39-3.58-1.17v4.53h-2.86v-14.51h2.86v.87c.95-.8,2.15-1.19,3.58-1.19s2.66.55,3.72,1.64m-2.04,6.46c.57-.59.86-1.37.86-2.35s-.29-1.77-.86-2.36c-.57-.59-1.3-.89-2.18-.89-.81,0-1.52.3-2.15.91-.62.61-.93,1.39-.93,2.34s.31,1.73.93,2.33c.62.6,1.34.9,2.15.9.88,0,1.61-.29,2.18-.88"/>
        <path id="path44" class="cls-1" d="m73.78,30.32h-8.24c.15.77.47,1.38.97,1.83.5.46,1.08.68,1.75.68,1.23,0,2.13-.48,2.69-1.43l2.56.54c-.46,1.1-1.15,1.93-2.06,2.49-.91.56-1.97.85-3.19.85-1.56,0-2.88-.53-3.95-1.6-1.07-1.07-1.6-2.44-1.6-4.12s.54-3.05,1.61-4.13c1.08-1.08,2.4-1.62,3.98-1.62,1.48,0,2.74.52,3.81,1.55,1.06,1.03,1.62,2.36,1.68,3.98v.98Zm-7.15-3.49c-.51.35-.85.84-1.01,1.48h5.22c-.17-.67-.49-1.16-.95-1.5-.46-.33-1-.5-1.61-.5s-1.15.17-1.66.52"/>
        <path id="path48" class="cls-1" d="m85.36,25.09c.8.85,1.19,1.94,1.19,3.28v6.59h-2.86v-5.99c0-.77-.2-1.38-.6-1.84-.4-.46-.93-.69-1.59-.69-1.79,0-2.69,1.24-2.69,3.73v4.79h-2.86v-10.82h2.86v.98c.87-.87,2-1.3,3.4-1.3,1.3,0,2.35.42,3.14,1.27"/>
        <path id="path52" class="cls-1" d="m104.2,34.96h-3.17l-2.82-9.8-2.84,9.8h-3.14l-4.23-14.53h3.08l2.78,10.02,2.93-10.02h2.84l2.93,10.02,2.78-10.02h3.1l-4.23,14.53Z"/>
        <path id="path64" class="cls-1" d="m117.34,24.08l-.15,2.75h-.63c-2.57,0-3.86,1.55-3.86,4.64v3.49h-2.86v-10.82h2.86v1.97c.98-1.42,2.28-2.12,3.88-2.12.33,0,.59.03.76.09"/>
        <path id="path68" class="cls-1" d="m127.23,34.49c-1,.54-1.94.8-2.82.8-1.33,0-2.37-.36-3.12-1.07-.75-.72-1.13-1.8-1.13-3.24v-4.49h-2.32v-2.34h2.32v-3.27h2.86v3.27h3.53v2.34h-3.53v4.27c0,1.24.53,1.87,1.58,1.87.55,0,1.15-.17,1.8-.52l.82,2.39Z"/>
        <path id="path72" class="cls-2" d="m59.2,40.18h-.84l-.53-1.96-.53,1.96h-.83l-.9-3.17h.8l.55,1.99.54-1.99h.74l.54,1.99.55-1.99h.8l-.9,3.17Z"/>
        <path id="path74" class="cls-2" d="m61.35,40.18h.78v-3.17h-.78v3.17Z"/>
        <path id="path86" class="cls-2" d="m65.59,40.18l-.96-1.09h-.23v1.09h-.78v-3.17h1.6c.34,0,.62.1.83.29.21.19.31.44.31.75,0,.26-.07.48-.22.65-.15.18-.35.3-.61.35l.99,1.12h-.94Zm-.44-1.74c.14,0,.25-.04.33-.1.08-.07.13-.16.13-.28s-.04-.21-.13-.27c-.08-.07-.19-.1-.33-.1h-.74v.76h.74Z"/>
        <path id="path90" class="cls-2" d="m70.25,40.18h-2.47v-3.17h2.45v.67h-1.67v.6h1.54v.63h-1.54v.6h1.69v.67Z"/>
        <path id="path94" class="cls-2" d="m74.02,40.18h-2.34v-3.17h.78v2.49h1.56v.68Z"/>
        <path id="path98" class="cls-2" d="m77.87,40.18h-2.47v-3.17h2.45v.67h-1.67v.6h1.54v.63h-1.54v.6h1.69v.67Z"/>
        <path id="path110" class="cls-2" d="m81.41,37.19c.23.16.38.39.44.67l-.77.16c-.03-.14-.1-.25-.2-.33-.1-.08-.22-.12-.35-.12s-.23.03-.31.09c-.08.06-.12.14-.12.23,0,.14.09.23.26.26l.66.15c.58.13.87.44.87.92,0,.32-.12.58-.37.76-.25.18-.56.27-.93.27s-.68-.08-.94-.25c-.26-.17-.41-.4-.45-.71l.8-.16c.08.31.28.47.62.47.15,0,.26-.03.34-.09.08-.06.13-.14.13-.24,0-.08-.02-.14-.06-.18-.04-.04-.12-.08-.23-.1l-.66-.14c-.57-.13-.85-.43-.85-.92,0-.31.11-.55.34-.73.23-.18.53-.27.91-.27.35,0,.64.08.87.24"/>
        <path id="path114" class="cls-2" d="m85.34,37.19c.23.16.38.39.44.67l-.77.16c-.03-.14-.09-.25-.2-.33-.1-.08-.22-.12-.35-.12s-.23.03-.31.09c-.08.06-.12.14-.12.23,0,.14.08.23.25.26l.66.15c.58.13.87.44.87.92,0,.32-.12.58-.37.76-.25.18-.56.27-.93.27s-.68-.08-.94-.25c-.26-.17-.41-.4-.45-.71l.8-.16c.08.31.28.47.62.47.15,0,.26-.03.34-.09.08-.06.13-.14.13-.24,0-.08-.02-.14-.06-.18-.04-.04-.12-.08-.23-.1l-.66-.14c-.57-.13-.85-.43-.85-.92,0-.31.11-.55.34-.73.23-.18.53-.27.91-.27.35,0,.64.08.87.24"/>
        <path id="path118" class="cls-2" d="m90.05,38.37h1.48v.68h-1.48v1.13h-.78v-3.17h2.45v.68h-1.67v.67Z"/>
        <path id="path130" class="cls-2" d="m95,40.18l-.96-1.09h-.23v1.09h-.78v-3.17h1.6c.34,0,.62.1.83.29.21.19.31.44.31.75,0,.26-.07.48-.22.65-.15.18-.35.3-.61.35l.99,1.12h-.94Zm-.45-1.74c.14,0,.25-.04.33-.1.08-.07.13-.16.13-.28s-.04-.21-.13-.27c-.08-.07-.19-.1-.33-.1h-.74v.76h.74Z"/>
        <path id="path134" class="cls-2" d="m99.66,40.18h-2.47v-3.17h2.45v.67h-1.67v.6h1.54v.63h-1.54v.6h1.69v.67Z"/>
        <path id="path138" class="cls-2" d="m103.56,40.18h-2.47v-3.17h2.45v.67h-1.67v.6h1.54v.63h-1.54v.6h1.69v.67Z"/>
        <path id="path150" class="cls-2" d="m106.25,37.01c.52,0,.94.15,1.26.44.32.29.48.67.48,1.15s-.16.85-.48,1.15c-.32.29-.74.44-1.26.44h-1.25v-3.17h1.25Zm-.03,2.49c.3,0,.53-.08.71-.25.18-.17.27-.39.27-.66s-.09-.49-.27-.66c-.18-.17-.42-.25-.71-.25h-.44v1.81h.44Z"/>
        <path id="path154" class="cls-2" d="m112.14,37.42c.33.32.49.71.49,1.18s-.16.85-.49,1.17c-.33.32-.73.48-1.2.48s-.87-.16-1.2-.48c-.33-.32-.49-.71-.49-1.17s.16-.86.49-1.18c.33-.32.73-.48,1.2-.48s.87.16,1.2.48m-.55,1.85c.17-.18.26-.4.26-.67s-.09-.5-.26-.68c-.17-.18-.39-.27-.65-.27s-.47.09-.65.27c-.17.18-.26.41-.26.68s.09.49.26.67c.17.18.39.27.65.27s.47-.09.65-.27"/>
        <path id="path158" class="cls-2" d="m117.67,40.18h-.76v-1.58l-.83,1.58h-.48l-.83-1.59v1.59h-.76v-3.17h.77l1.06,1.96,1.06-1.96h.76v3.17Z"/>
        <g id="g168">
          <path id="path170" class="cls-1" d="m13.59,23.02c-1.22,0-2.22.99-2.22,2.22s.99,2.22,2.22,2.22,2.22-.99,2.22-2.22-.99-2.22-2.22-2.22"/>
        </g>
        <g id="g172">
          <path id="path174" class="cls-1" d="m0,11.64l2.3,2.3c2.89-2.89,6.88-4.68,11.29-4.68s8.4,1.79,11.29,4.68l2.3-2.3c-3.48-3.48-8.29-5.64-13.59-5.64S3.48,8.16,0,11.64"/>
        </g>
        <g id="g176">
          <path id="path178" class="cls-1" d="m4.15,15.79l2.3,2.3c1.83-1.83,4.36-2.96,7.14-2.96s5.31,1.13,7.14,2.96l2.3-2.3c-2.42-2.42-5.76-3.92-9.45-3.92s-7.03,1.5-9.45,3.92"/>
        </g>
        <g id="g180">
          <path id="path182" class="cls-1" d="m8.29,19.93l2.3,2.3c.77-.77,1.83-1.24,2.99-1.24s2.23.48,2.99,1.24l2.3-2.3c-1.36-1.36-3.23-2.2-5.3-2.2s-3.94.84-5.3,2.2"/>
        </g>
        <g id="g184">
          <path id="path186" class="cls-2" d="m21.76,19.29c1.22,1.67,1.94,3.72,1.94,5.95,0,5.57-4.53,10.1-10.1,10.1S3.49,30.8,3.49,25.23c0-2.22.72-4.28,1.94-5.95l-2.32-2.32C1.31,19.24.23,22.11.23,25.23c0,7.37,5.99,13.36,13.36,13.36s13.36-6,13.36-13.36c0-3.12-1.08-5.99-2.88-8.27l-2.32,2.32Z"/>
        </g>
        <path id="path190" class="cls-1" d="m129.74,20.11c0,.21-.04.4-.12.58-.08.18-.18.34-.32.47-.14.14-.29.24-.48.32-.18.08-.38.12-.58.12s-.4-.04-.58-.12c-.18-.08-.34-.18-.47-.32-.14-.13-.24-.29-.32-.47-.08-.18-.12-.37-.12-.58s.04-.4.12-.58c.08-.18.18-.34.32-.48.13-.13.29-.24.47-.32.18-.08.37-.12.58-.12s.4.04.58.12c.18.08.34.18.48.32.13.14.24.29.32.48.08.18.12.38.12.58m-.24,0c0-.17-.03-.33-.1-.49-.07-.15-.15-.29-.27-.4-.11-.11-.25-.2-.4-.27-.15-.07-.31-.1-.49-.1s-.33.03-.49.1c-.15.06-.29.15-.4.27-.11.11-.2.25-.27.4-.07.15-.1.32-.1.49s.03.33.1.49c.07.15.15.29.27.4.11.11.25.2.4.27.15.07.31.1.49.1s.33-.03.49-.1c.15-.07.29-.15.4-.27.11-.11.2-.25.27-.4.07-.15.1-.32.1-.49m-.97.62v-.35c0-.07-.01-.11-.04-.14-.03-.03-.08-.04-.17-.04h-.3v.54h-.28v-1.36h.69c.13,0,.23.04.31.11.08.08.11.17.11.28,0,.07-.02.14-.05.19-.03.05-.08.09-.15.12.06.02.11.05.13.09.02.04.04.1.04.18v.39h-.28Zm-.51-1.13v.37h.36c.07,0,.13-.02.16-.05.03-.03.05-.08.05-.13,0-.06-.02-.1-.05-.14-.03-.03-.08-.05-.16-.05h-.37Z"/>
      </g>
    </g>
  </g>
</svg>