<?xml version="1.0" encoding="UTF-8"?>
<svg id="Layer_2" data-name="Layer 2" xmlns="http://www.w3.org/2000/svg" xmlns:xlink="http://www.w3.org/1999/xlink" viewBox="0 0 251.8 40">
  <defs>
    <style>
      .cls-1 {
        clip-path: url(#clippath);
      }

      .cls-2 {
        fill: none;
      }

      .cls-3 {
        fill: #e57000;
      }
    </style>
    <clipPath id="clippath">
      <rect class="cls-2" width="251.8" height="40"/>
    </clipPath>
  </defs>
  <g id="Layer_1-2" data-name="Layer 1">
    <g class="cls-1">
      <g>
        <path d="m24.94,18.82L10.87,3.32c.53-.53,1.18-.98,1.92-1.31.73-.33,1.51-.49,2.33-.49.9,0,1.71.16,2.45.53.73.33,1.39.82,1.92,1.43l5.47,6,5.43-6c.57-.61,1.22-1.06,1.96-1.43.73-.33,1.55-.53,2.41-.53s1.63.16,2.33.49c.73.33,1.35.73,1.92,1.31l-14.03,15.5m0,2.37l-14.07,15.5c.53.53,1.18.98,1.92,1.31.73.33,1.51.49,2.33.49.86,0,1.67-.16,2.45-.53.73-.33,1.39-.82,1.96-1.43l5.43-6,5.47,6c.53.61,1.18,1.06,1.92,1.43.73.33,1.55.53,2.45.53.82,0,1.63-.16,2.33-.49.73-.33,1.35-.73,1.92-1.31l-14.07-15.5m43.28-.41c.69-.08,1.1-.33,1.26-.73.16-.45.2-.69.16-.73v-3.67c-.04-.69-.29-1.1-.73-1.26-.41-.16-.65-.2-.73-.16h-10.32v6.61h10.36v-.04Zm5.63-10.77c1.1,1.1,1.71,2.53,1.75,4.2v5.87c-.04,1.67-.61,3.06-1.75,4.16-1.1,1.1-2.53,1.67-4.2,1.71h-11.79c-.04,1.67-.61,3.06-1.71,4.16s-2.49,1.67-4.12,1.71V10.45c0-.61.24-1.14.65-1.55s.94-.65,1.55-.65h15.46c1.67.04,3.06.61,4.16,1.75Zm21.29,9.3c.69-.04,1.14-.29,1.31-.73.16-.41.2-.65.2-.73v-2.2c-.08-.69-.33-1.1-.73-1.26-.45-.16-.69-.2-.73-.16h-10.28v5.1h10.24Zm6,3.02c-.9,1.06-2,1.71-3.39,2.04l4.73,6.77c-.41.2-.86.37-1.31.49-.45.12-.94.16-1.43.16-1.02,0-1.92-.24-2.77-.69-.82-.45-1.51-1.06-2.04-1.84l-3.39-4.85h-6.69v1.47c-.04,1.67-.61,3.06-1.71,4.16s-2.49,1.67-4.16,1.71V10.45c0-.61.24-1.14.65-1.55s.94-.65,1.55-.65h15.42c1.67.04,3.06.61,4.16,1.75,1.1,1.1,1.67,2.53,1.71,4.2v4.41c0,1.43-.45,2.69-1.35,3.71Zm22.35-6.69c-.08-.69-.33-1.1-.73-1.26-.45-.16-.69-.2-.73-.16h-8.77c-.69.04-1.14.29-1.31.73-.16.41-.2.65-.2.73v8.81c.08.69.33,1.14.73,1.31.45.16.69.2.73.2h8.77c.69-.08,1.14-.33,1.31-.73.16-.45.2-.69.2-.73v-8.89Zm4.16-5.63c1.1,1.1,1.67,2.53,1.71,4.2v11.75c-.04,1.67-.61,3.06-1.71,4.16s-2.49,1.67-4.16,1.71h-11.75c-1.67-.04-3.06-.61-4.16-1.71s-1.67-2.49-1.71-4.16v-11.75c.04-1.67.61-3.06,1.71-4.2,1.1-1.1,2.49-1.71,4.16-1.75h11.75c1.67.04,3.06.61,4.16,1.75Zm62-1.75h-3.71c-1.22,0-2.28.33-3.22.98s-1.67,1.51-2.16,2.53l.04-.08-3.47,7.59-3.43-7.59v.08c-.49-1.06-1.18-1.92-2.12-2.53-.94-.65-2.04-.98-3.26-.98h-3.67c-.65,0-1.18.24-1.59.65s-.61.94-.65,1.55v21.33c1.67-.04,3.06-.61,4.16-1.71s1.67-2.49,1.71-4.16v-11.26c0-.16.04-.29.12-.37s.2-.12.37-.12c.08,0,.16.04.24.08s.16.12.16.2l6.53,14.4c.12.24.33.45.53.61.24.16.49.24.82.24.29,0,.57-.08.78-.24.24-.16.41-.37.57-.61l6.53-14.44c.04-.08.12-.12.2-.2.08-.04.16-.08.29-.08s.24.04.33.12.12.2.12.37v11.26c.04,1.67.61,3.06,1.71,4.16s2.49,1.67,4.16,1.71V10.45c0-.61-.24-1.14-.65-1.55-.29-.41-.78-.65-1.43-.65Zm23.21,7.38c-.08-.69-.33-1.1-.73-1.26-.45-.16-.69-.2-.73-.16h-8.77c-.69.04-1.14.29-1.31.73-.16.41-.2.65-.2.73v8.81c.08.69.33,1.14.73,1.31.45.16.69.2.73.2h8.77c.69-.08,1.14-.33,1.31-.73.16-.45.2-.69.2-.73v-8.89Zm4.16-5.63c1.1,1.1,1.67,2.53,1.71,4.2v11.75c-.04,1.67-.61,3.06-1.71,4.16s-2.49,1.67-4.16,1.71h-11.75c-1.67-.04-3.06-.61-4.16-1.71s-1.67-2.49-1.71-4.16v-11.75c.04-1.67.61-3.06,1.71-4.2,1.1-1.1,2.49-1.71,4.16-1.75h11.75c1.67.04,3.06.61,4.16,1.75Z"/>
        <path class="cls-3" d="m23.76,20l-10.61,11.67c-.61.65-1.31,1.18-2.12,1.55s-1.71.57-2.69.57c-.9,0-1.75-.16-2.57-.53-.78-.33-1.51-.82-2.08-1.43l10.77-11.83L3.69,8.17c.61-.61,1.31-1.06,2.08-1.43.82-.33,1.63-.53,2.57-.53s1.84.2,2.65.57,1.55.9,2.16,1.55l10.61,11.67m2.37,0l10.61,11.67c.61.65,1.31,1.18,2.12,1.55s1.71.57,2.65.57,1.75-.16,2.57-.53c.82-.33,1.51-.82,2.08-1.43l-10.77-11.83,10.77-11.83c-.61-.61-1.31-1.06-2.08-1.43-.78-.33-1.63-.53-2.57-.53s-1.84.2-2.65.57-1.55.9-2.16,1.55l-10.57,11.67m132.94-10.08c-.49-.53-1.1-.9-1.79-1.18-.69-.29-1.43-.45-2.2-.45-.82,0-1.59.16-2.28.49-.69.33-1.31.78-1.79,1.31l-5.1,5.59-5.1-5.59c-.53-.57-1.14-1.02-1.79-1.35-.69-.33-1.43-.49-2.24-.49s-1.51.16-2.2.45c-.69.29-1.26.69-1.79,1.18l9.18,10.08-9.18,10.08c.53.53,1.1.94,1.79,1.22.69.29,1.43.45,2.2.45.82,0,1.59-.16,2.28-.49.69-.33,1.31-.78,1.84-1.31l5.1-5.59,5.1,5.59c.49.57,1.1,1.02,1.79,1.31.69.33,1.47.49,2.28.49s1.51-.16,2.2-.45c.69-.29,1.26-.69,1.79-1.22l-9.18-10.08,9.1-10.03Zm89.38,0c-.49-.53-1.1-.9-1.79-1.18-.69-.29-1.43-.45-2.2-.45-.82,0-1.59.16-2.28.49-.69.33-1.31.78-1.79,1.31l-5.1,5.59-5.1-5.59c-.53-.57-1.14-1.02-1.79-1.35-.69-.33-1.43-.49-2.24-.49s-1.51.16-2.2.45-1.26.69-1.79,1.18l9.18,10.08-9.18,10.08c.53.53,1.1.94,1.79,1.22s1.43.45,2.2.45c.82,0,1.59-.16,2.28-.49.69-.33,1.31-.78,1.84-1.31l5.1-5.59,5.1,5.59c.49.57,1.1,1.02,1.79,1.31.69.33,1.47.49,2.28.49s1.51-.16,2.2-.45,1.26-.69,1.79-1.22l-9.18-10.08,9.1-10.03Z"/>
      </g>
    </g>
  </g>
</svg>