<svg width="280" height="44" viewBox="0 0 280 44" fill="none" xmlns="http://www.w3.org/2000/svg">
<path d="M23.6425 20.6457L7.46667 2.89929C8.0762 2.29218 8.82638 1.77846 9.67034 1.40486C10.5143 1.03125 11.4051 0.844452 12.3429 0.844452C13.3744 0.844452 14.3121 1.03125 15.1561 1.45156C16 1.82517 16.7502 2.38558 17.3597 3.08609L23.6425 9.95115L29.8784 3.08609C30.5348 2.38558 31.285 1.87187 32.1289 1.45156C32.9729 1.07795 33.9106 0.844452 34.8952 0.844452C35.833 0.844452 36.7707 1.03125 37.5678 1.40486C38.4117 1.77846 39.115 2.24548 39.7714 2.89929L23.6425 20.6457ZM23.6425 23.3543L7.46667 41.1007C8.0762 41.7078 8.82638 42.2215 9.67034 42.5951C10.5143 42.9688 11.4051 43.1556 12.3429 43.1556C13.3275 43.1556 14.2652 42.9688 15.1561 42.5484C16 42.1748 16.7502 41.6144 17.4066 40.9139L23.6425 34.0489L29.9253 40.9139C30.5348 41.6144 31.285 42.1281 32.1289 42.5484C32.9729 42.922 33.9106 43.1556 34.9421 43.1556C35.8799 43.1556 36.8176 42.9688 37.6147 42.5951C38.4586 42.2215 39.1619 41.7545 39.8183 41.1007L23.6425 23.3543ZM73.389 22.8873C74.1861 22.7939 74.6549 22.5137 74.8425 22.0467C75.03 21.533 75.0769 21.2528 75.03 21.2061V17.003C74.9832 16.2091 74.7018 15.7421 74.1861 15.5553C73.7172 15.3685 73.4359 15.3218 73.3421 15.3685H61.4799V22.934H73.389V22.8873ZM79.8593 10.5583C81.1253 11.8192 81.8286 13.4537 81.8755 15.3685V22.0934C81.8286 24.0081 81.1722 25.596 79.8593 26.8569C78.5934 28.1178 76.9524 28.7716 75.03 28.8183H61.4799C61.433 30.7331 60.7766 32.3209 59.5106 33.5819C58.2447 34.8428 56.6506 35.4966 54.7751 35.5433V11.072C54.7751 10.3715 55.0564 9.76435 55.5253 9.29734C55.9941 8.83033 56.6037 8.55012 57.307 8.55012H75.0769C76.9993 8.59682 78.5934 9.25063 79.8593 10.5583ZM104.334 21.2061C105.131 21.1594 105.647 20.8792 105.834 20.3655C106.022 19.8985 106.069 19.6183 106.069 19.5249V17.003C105.975 16.2091 105.694 15.7421 105.225 15.5553C104.709 15.3685 104.428 15.3218 104.381 15.3685H92.5656V21.2061H104.334ZM111.226 24.662C110.195 25.8762 108.929 26.6234 107.335 26.997L112.774 34.7494C112.305 34.9829 111.789 35.1697 111.273 35.3098C110.758 35.4499 110.195 35.4966 109.632 35.4966C108.46 35.4966 107.429 35.2164 106.444 34.7027C105.506 34.189 104.709 33.4885 104.1 32.6011L100.208 27.0437H92.5187V28.7249C92.4718 30.6397 91.8154 32.2275 90.5495 33.4884C89.2835 34.7494 87.6894 35.4032 85.767 35.4499V11.072C85.767 10.3715 86.0484 9.76435 86.5172 9.29734C86.9861 8.83033 87.5956 8.55012 88.2989 8.55012H106.022C107.944 8.59682 109.538 9.25063 110.804 10.5583C112.07 11.8192 112.727 13.4537 112.774 15.3685V20.4122C112.774 22.0467 112.258 23.4944 111.226 24.662ZM136.92 17.003C136.826 16.2091 136.545 15.7421 136.076 15.5553C135.56 15.3685 135.279 15.3218 135.232 15.3685H125.152C124.355 15.4152 123.839 15.6954 123.651 16.2091C123.464 16.6761 123.417 16.9563 123.417 17.0497V27.1371C123.511 27.931 123.792 28.4447 124.261 28.6315C124.777 28.8184 125.058 28.8651 125.105 28.8651H135.185C135.982 28.7717 136.498 28.4914 136.686 28.0244C136.873 27.5107 136.92 27.2305 136.92 27.1838V17.003ZM141.703 10.5583C142.969 11.8192 143.625 13.4537 143.672 15.3685V28.8183C143.625 30.7331 142.969 32.3209 141.703 33.5819C140.437 34.8428 138.842 35.4966 136.92 35.5433H123.417C121.495 35.4966 119.9 34.8428 118.634 33.5819C117.368 32.3209 116.712 30.7331 116.665 28.8183V15.3685C116.712 13.4537 117.368 11.8659 118.634 10.5583C119.9 9.29733 121.495 8.59682 123.417 8.55012H136.92C138.842 8.59682 140.437 9.25063 141.703 10.5583ZM212.97 8.55012H208.703C207.297 8.55012 206.078 8.92372 204.999 9.67094C203.921 10.4182 203.077 11.3989 202.514 12.5664L202.561 12.473L198.576 21.1594L194.637 12.473V12.5664C194.075 11.3522 193.278 10.3715 192.199 9.67094C191.121 8.92372 189.855 8.55012 188.448 8.55012H184.229C183.478 8.55012 182.869 8.83033 182.4 9.29734C181.931 9.76435 181.697 10.3715 181.65 11.072V35.4966C183.572 35.4499 185.166 34.7961 186.432 33.5352C187.698 32.2742 188.355 30.6864 188.401 28.7716V15.8822C188.401 15.6954 188.448 15.5553 188.542 15.4619C188.636 15.3685 188.777 15.3218 188.964 15.3218C189.058 15.3218 189.152 15.3685 189.245 15.4152C189.339 15.4619 189.433 15.5553 189.433 15.6487L196.935 32.1341C197.075 32.4143 197.31 32.6478 197.544 32.8346C197.826 33.0214 198.107 33.1148 198.482 33.1148C198.81 33.1148 199.138 33.0214 199.373 32.8346C199.654 32.6478 199.842 32.4143 200.029 32.1341L207.531 15.602C207.578 15.5086 207.672 15.4619 207.766 15.3685C207.859 15.3218 207.953 15.2751 208.094 15.2751C208.234 15.2751 208.375 15.3218 208.469 15.4152C208.563 15.5086 208.61 15.6487 208.61 15.8355V28.7249C208.656 30.6397 209.313 32.2275 210.579 33.4884C211.845 34.7494 213.439 35.4032 215.361 35.4499V11.072C215.361 10.3715 215.08 9.76435 214.611 9.29734C214.283 8.83033 213.72 8.55012 212.97 8.55012ZM239.648 17.003C239.555 16.2091 239.273 15.7421 238.804 15.5553C238.289 15.3685 238.007 15.3218 237.96 15.3685H227.88C227.083 15.4152 226.567 15.6954 226.379 16.2091C226.192 16.6761 226.145 16.9563 226.145 17.0497V27.1371C226.239 27.931 226.52 28.4447 226.989 28.6315C227.505 28.8184 227.786 28.8651 227.833 28.8651H237.914C238.711 28.7717 239.226 28.4914 239.414 28.0244C239.601 27.5107 239.648 27.2305 239.648 27.1838V17.003ZM244.431 10.5583C245.697 11.8192 246.353 13.4537 246.4 15.3685V28.8183C246.353 30.7331 245.697 32.3209 244.431 33.5819C243.165 34.8428 241.571 35.4966 239.648 35.5433H226.145C224.223 35.4966 222.629 34.8428 221.363 33.5819C220.097 32.3209 219.44 30.7331 219.393 28.8183V15.3685C219.44 13.4537 220.097 11.8659 221.363 10.5583C222.629 9.29733 224.223 8.59682 226.145 8.55012H239.648C241.571 8.59682 243.165 9.25063 244.431 10.5583Z" fill="black"/>
<path d="M22.9523 22.6222L10.8231 35.7846C10.1233 36.521 9.33022 37.1193 8.3972 37.5335C7.46418 37.9477 6.43785 38.1778 5.31823 38.1778C4.2919 38.1778 3.31223 37.9937 2.37921 37.5795C1.49284 37.2113 0.653116 36.659 0 35.9687L12.3159 22.6222L0 9.27575C0.699767 8.58541 1.49284 8.07917 2.37921 7.66497C3.31223 7.29679 4.24525 7.06668 5.31823 7.06668C6.3912 7.06668 7.41753 7.29679 8.35055 7.71099C9.28357 8.12519 10.1233 8.72348 10.8231 9.45983L22.9523 22.6222ZM25.6581 22.6222L37.7874 35.7846C38.4872 36.521 39.2802 37.1193 40.2133 37.5335C41.1463 37.9477 42.1726 38.1778 43.2456 38.1778C44.2719 38.1778 45.2516 37.9937 46.1846 37.5795C47.1176 37.2113 47.9107 36.659 48.5638 35.9687L36.2479 22.6222L48.5638 9.27575C47.864 8.58541 47.071 8.07917 46.1846 7.66497C45.2982 7.29679 44.3186 7.06668 43.2456 7.06668C42.1726 7.06668 41.1463 7.29679 40.2133 7.71099C39.2802 8.12519 38.4405 8.72348 37.7408 9.45983L25.6581 22.6222ZM177.694 11.2547C177.134 10.6564 176.435 10.2422 175.641 9.92006C174.848 9.5979 174.009 9.41382 173.122 9.41382C172.189 9.41382 171.303 9.5979 170.51 9.96608C169.717 10.3343 169.017 10.8405 168.457 11.4388L162.626 17.7439L156.794 11.4388C156.188 10.7945 155.488 10.2882 154.742 9.92006C153.949 9.55188 153.109 9.3678 152.176 9.3678C151.29 9.3678 150.45 9.55189 149.657 9.87405C148.864 10.1962 148.211 10.6564 147.604 11.2087L158.101 22.5762L147.604 33.9437C148.211 34.542 148.864 35.0022 149.657 35.3244C150.45 35.6466 151.29 35.8306 152.176 35.8306C153.109 35.8306 153.995 35.6466 154.788 35.2784C155.581 34.9102 156.281 34.404 156.888 33.8057L162.719 27.5006L168.55 33.8057C169.11 34.45 169.81 34.9562 170.603 35.2784C171.396 35.6466 172.283 35.8306 173.216 35.8306C174.102 35.8306 174.942 35.6466 175.735 35.3244C176.528 35.0022 177.181 34.542 177.787 33.9437L167.291 22.5762L177.694 11.2547ZM279.907 11.2547C279.347 10.6564 278.647 10.2422 277.854 9.92006C277.061 9.5979 276.221 9.41382 275.335 9.41382C274.402 9.41382 273.515 9.5979 272.722 9.96608C271.929 10.3343 271.23 10.8405 270.67 11.4388L264.838 17.7439L259.007 11.4388C258.401 10.7945 257.701 10.2882 256.954 9.92006C256.161 9.55188 255.322 9.3678 254.389 9.3678C253.502 9.3678 252.662 9.55189 251.869 9.87405C251.076 10.1962 250.423 10.6564 249.817 11.2087L260.313 22.5762L249.817 33.9437C250.423 34.542 251.076 35.0022 251.869 35.3244C252.662 35.6466 253.502 35.8306 254.389 35.8306C255.322 35.8306 256.208 35.6466 257.001 35.2784C257.794 34.9102 258.494 34.404 259.1 33.8057L264.932 27.5006L270.763 33.8057C271.323 34.45 272.023 34.9562 272.816 35.2784C273.609 35.6466 274.495 35.8306 275.428 35.8306C276.315 35.8306 277.154 35.6466 277.947 35.3244C278.74 35.0022 279.394 34.542 280 33.9437L269.504 22.5762L279.907 11.2547Z" fill="#E57000"/>
</svg>
