<?xml version="1.0" encoding="UTF-8"?>
<svg id="Layer_2" data-name="Layer 2" xmlns="http://www.w3.org/2000/svg" xmlns:xlink="http://www.w3.org/1999/xlink" viewBox="0 0 130 100">
  <defs>
    <style>
      .cls-1 {
        fill: url(#linear-gradient-2);
      }

      .cls-2 {
        clip-path: url(#clippath);
      }

      .cls-3 {
        fill: none;
      }

      .cls-4 {
        fill: url(#linear-gradient);
      }
    </style>
    <clipPath id="clippath">
      <rect class="cls-3" width="130" height="100"/>
    </clipPath>
    <linearGradient id="linear-gradient" x1="-754.29" y1="-3375.71" x2="-657.29" y2="-3459.16" gradientTransform="translate(438.97 -1914.46) scale(.56 -.57)" gradientUnits="userSpaceOnUse">
      <stop offset="0" stop-color="#5a9fd4"/>
      <stop offset="1" stop-color="#306998"/>
    </linearGradient>
    <linearGradient id="linear-gradient-2" x1="-619.79" y1="-3509.67" x2="-654.43" y2="-3460.67" gradientTransform="translate(438.97 -1914.46) scale(.56 -.57)" gradientUnits="userSpaceOnUse">
      <stop offset="0" stop-color="#ffd43b"/>
      <stop offset="1" stop-color="#ffe873"/>
    </linearGradient>
  </defs>
  <g id="Layer_1-2" data-name="Layer 1">
    <g class="cls-2">
      <path id="path1948" class="cls-4" d="m65.95,0c-4.08.02-7.97.37-11.4.97-10.1,1.78-11.93,5.52-11.93,12.4v9.09h23.86v3.03h-32.81c-6.93,0-13,4.17-14.9,12.1-2.19,9.09-2.29,14.76,0,24.25,1.7,7.06,5.75,12.1,12.68,12.1h8.2v-10.9c0-7.87,6.81-14.82,14.9-14.82h23.83c6.63,0,11.93-5.46,11.93-12.12V13.38c0-6.47-5.45-11.32-11.93-12.4C74.28.29,70.02-.02,65.95,0Zm-12.9,7.31c2.46,0,4.48,2.05,4.48,4.56s-2.01,4.53-4.48,4.53-4.48-2.03-4.48-4.53,2-4.56,4.48-4.56Z"/>
      <path id="path1950" class="cls-1" d="m93.28,25.5v10.59c0,8.21-6.96,15.13-14.9,15.13h-23.83c-6.53,0-11.93,5.59-11.93,12.12v22.72c0,6.47,5.62,10.27,11.93,12.12,7.55,2.22,14.79,2.62,23.83,0,6.01-1.74,11.93-5.24,11.93-12.12v-9.09h-23.83v-3.03h35.76c6.93,0,9.52-4.84,11.93-12.1,2.49-7.47,2.38-14.66,0-24.25-1.71-6.9-4.99-12.1-11.93-12.1h-8.95Zm-13.4,57.53c2.47,0,4.48,2.03,4.48,4.53s-2,4.56-4.48,4.56-4.48-2.05-4.48-4.56,2.01-4.53,4.48-4.53Z"/>
    </g>
  </g>
</svg>