<?xml version="1.0" encoding="UTF-8"?>
<svg id="Layer_2" data-name="Layer 2" xmlns="http://www.w3.org/2000/svg" viewBox="0 0 130 100">
  <g id="Layer_1-2" data-name="Layer 1">
    <g>
      <path d="m16.75,57.29c.49,0,.9-.05,1.22-.15.32-.1.58-.25.77-.43.19-.18.32-.39.39-.62s.11-.46.11-.7c0-.3-.09-.57-.26-.81-.17-.24-.4-.45-.67-.63-.27-.18-.57-.35-.9-.5s-.67-.29-1-.42c-.44-.16-.9-.34-1.38-.55-.48-.21-.91-.47-1.29-.78-.39-.32-.71-.71-.96-1.18-.25-.47-.38-1.05-.38-1.75,0-1.38.45-2.45,1.34-3.23.89-.78,2.13-1.16,3.69-1.16.9,0,1.69.1,2.36.31.67.21,1.24.44,1.7.69l-.85,2.26c-.4-.22-.84-.41-1.32-.57-.48-.16-1.04-.24-1.67-.24-1.55,0-2.33.56-2.33,1.69,0,.29.08.54.24.75.16.21.36.4.61.57.25.17.52.31.83.44.31.13.61.25.91.36.46.17.94.37,1.44.58.5.21.96.5,1.38.85.42.36.76.8,1.03,1.33.27.53.4,1.2.4,2.01,0,1.38-.45,2.44-1.34,3.19s-2.25,1.13-4.07,1.13c-1.22,0-2.19-.13-2.92-.39-.73-.26-1.27-.5-1.64-.72l.85-2.38c.43.25.94.49,1.53.71s1.32.33,2.17.33Z"/>
      <path d="m29.15,51.45c.17-.36.38-.82.61-1.38.23-.55.46-1.14.69-1.76.23-.62.45-1.24.67-1.88.21-.63.41-1.2.58-1.71h3.02c-.3.81-.6,1.59-.9,2.35s-.62,1.51-.95,2.26c-.33.75-.69,1.48-1.07,2.22-.38.74-.79,1.49-1.24,2.27v5.61h-2.94v-5.58c-.87-1.54-1.64-3.04-2.29-4.5-.66-1.46-1.29-3-1.89-4.62h3.14c.36,1.14.77,2.3,1.21,3.48s.9,2.26,1.38,3.24Z"/>
      <path d="m40.5,57.29c.49,0,.9-.05,1.22-.15.32-.1.58-.25.77-.43.19-.18.32-.39.39-.62s.11-.46.11-.7c0-.3-.09-.57-.26-.81-.17-.24-.4-.45-.67-.63-.27-.18-.57-.35-.9-.5s-.67-.29-1-.42c-.44-.16-.9-.34-1.38-.55-.48-.21-.91-.47-1.29-.78-.39-.32-.71-.71-.96-1.18-.25-.47-.38-1.05-.38-1.75,0-1.38.45-2.45,1.34-3.23.89-.78,2.13-1.16,3.69-1.16.9,0,1.69.1,2.36.31.67.21,1.24.44,1.7.69l-.85,2.26c-.4-.22-.84-.41-1.32-.57-.48-.16-1.04-.24-1.67-.24-1.55,0-2.33.56-2.33,1.69,0,.29.08.54.24.75.16.21.36.4.61.57.25.17.52.31.83.44.31.13.61.25.91.36.46.17.94.37,1.44.58.5.21.96.5,1.38.85.42.36.76.8,1.03,1.33.27.53.4,1.2.4,2.01,0,1.38-.45,2.44-1.34,3.19s-2.25,1.13-4.07,1.13c-1.22,0-2.19-.13-2.92-.39-.73-.26-1.27-.5-1.64-.72l.85-2.38c.43.25.94.49,1.53.71s1.32.33,2.17.33Z"/>
      <path d="m58.15,44.73v2.42h-3.87v12.28h-2.95v-12.28h-3.87v-2.42h10.69Z"/>
      <path d="m60.24,59.43v-14.7h8.91v2.42h-5.99v3.3h5.2v2.42h-5.2v4.13h6.51v2.42h-9.43Z"/>
      <path d="m74.44,44.73c.11.33.25.76.42,1.28.17.52.34,1.08.53,1.69.19.6.38,1.21.57,1.83s.37,1.19.55,1.71c.19-.59.39-1.19.59-1.82.21-.62.4-1.23.59-1.8.19-.58.36-1.12.52-1.63.16-.51.3-.93.43-1.26h2.42c.11,1.28.22,2.53.32,3.75.1,1.22.19,2.43.26,3.62s.13,2.4.18,3.61c.05,1.21.09,2.45.12,3.72h-2.68l.14-11.42-1.81,6.22h-2.14l-1.73-6.22.12,11.42h-2.68c.05-1.2.1-2.45.15-3.75.06-1.3.11-2.59.18-3.87.06-1.28.14-2.53.23-3.73.09-1.2.19-2.32.3-3.35h2.42Z"/>
      <path d="m89.53,59.74c-2.07,0-3.66-.67-4.75-2-1.09-1.33-1.64-3.22-1.64-5.68,0-1.22.17-2.3.5-3.25s.8-1.75,1.39-2.41c.59-.66,1.3-1.16,2.11-1.5.82-.34,1.71-.51,2.67-.51.52,0,.99.04,1.41.13.42.09.79.19,1.1.3.32.11.58.23.8.36s.38.22.49.29l-.76,2.33c-.36-.24-.8-.44-1.32-.61-.51-.17-1.1-.25-1.77-.25-.46,0-.91.08-1.34.25s-.82.44-1.16.83c-.34.39-.62.91-.83,1.56-.21.65-.32,1.46-.32,2.42,0,1.68.29,2.97.87,3.86s1.52,1.34,2.84,1.34c.76,0,1.39-.09,1.89-.26.5-.17.9-.35,1.2-.52l.74,2.3c-.41.25-.97.49-1.67.7s-1.52.32-2.43.32Z"/>
      <path d="m105.65,44.73v2.42h-3.87v12.28h-2.95v-12.28h-3.87v-2.42h10.69Z"/>
      <path d="m117.17,59.43h-9.24v-14.7h2.94v12.28h6.29v2.42Z"/>
    </g>
  </g>
</svg>